<?xml version="1.0" encoding="utf-8" standalone="no"?>
<!DOCTYPE svg PUBLIC "-//W3C//DTD SVG 1.1//EN"
  "http://www.w3.org/Graphics/SVG/1.1/DTD/svg11.dtd">
<svg xmlns:xlink="http://www.w3.org/1999/xlink" width="590.4pt" height="777.6pt" viewBox="0 0 590.4 777.6" xmlns="http://www.w3.org/2000/svg" version="1.1">
 <metadata>
  <rdf:RDF xmlns:dc="http://purl.org/dc/elements/1.1/" xmlns:cc="http://creativecommons.org/ns#" xmlns:rdf="http://www.w3.org/1999/02/22-rdf-syntax-ns#">
   <cc:Work>
    <dc:type rdf:resource="http://purl.org/dc/dcmitype/StillImage"/>
    <dc:date>2026-03-19T18:54:55.998287</dc:date>
    <dc:format>image/svg+xml</dc:format>
    <dc:creator>
     <cc:Agent>
      <dc:title>Matplotlib v3.9.4, https://matplotlib.org/</dc:title>
     </cc:Agent>
    </dc:creator>
   </cc:Work>
  </rdf:RDF>
 </metadata>
 <defs>
  <style type="text/css">*{stroke-linejoin: round; stroke-linecap: butt}</style>
 </defs>
 <g id="figure_1">
  <g id="patch_1">
   <path d="M 0 777.6 
L 590.4 777.6 
L 590.4 0 
L 0 0 
z
" style="fill: #faf7f2"/>
  </g>
  <g id="axes_1">
   <g id="patch_2">
    <path d="M 70.848 606.528 
L 513.648 606.528 
L 513.648 241.056 
L 70.848 241.056 
z
" style="fill: #faf7f2"/>
   </g>
   <g id="line2d_1">
    <path d="M 364.894875 606.528 
L 364.894875 241.056 
" clip-path="url(#pc47faa9aca)" style="fill: none; stroke-dasharray: 2,3.3; stroke-dashoffset: 0; stroke: #152238; stroke-width: 2"/>
   </g>
   <g id="matplotlib.axis_1">
    <g id="xtick_1">
     <g id="line2d_2"/>
     <g id="text_1">
      <!-- 2016 -->
      <g style="fill: #6a625c" transform="translate(92.715408 619.146125) scale(0.12 -0.12)">
       <defs>
        <path id="DejaVuSans-32" d="M 1228 531 
L 3431 531 
L 3431 0 
L 469 0 
L 469 531 
Q 828 903 1448 1529 
Q 2069 2156 2228 2338 
Q 2531 2678 2651 2914 
Q 2772 3150 2772 3378 
Q 2772 3750 2511 3984 
Q 2250 4219 1831 4219 
Q 1534 4219 1204 4116 
Q 875 4013 500 3803 
L 500 4441 
Q 881 4594 1212 4672 
Q 1544 4750 1819 4750 
Q 2544 4750 2975 4387 
Q 3406 4025 3406 3419 
Q 3406 3131 3298 2873 
Q 3191 2616 2906 2266 
Q 2828 2175 2409 1742 
Q 1991 1309 1228 531 
z
" transform="scale(0.015625)"/>
        <path id="DejaVuSans-30" d="M 2034 4250 
Q 1547 4250 1301 3770 
Q 1056 3291 1056 2328 
Q 1056 1369 1301 889 
Q 1547 409 2034 409 
Q 2525 409 2770 889 
Q 3016 1369 3016 2328 
Q 3016 3291 2770 3770 
Q 2525 4250 2034 4250 
z
M 2034 4750 
Q 2819 4750 3233 4129 
Q 3647 3509 3647 2328 
Q 3647 1150 3233 529 
Q 2819 -91 2034 -91 
Q 1250 -91 836 529 
Q 422 1150 422 2328 
Q 422 3509 836 4129 
Q 1250 4750 2034 4750 
z
" transform="scale(0.015625)"/>
        <path id="DejaVuSans-31" d="M 794 531 
L 1825 531 
L 1825 4091 
L 703 3866 
L 703 4441 
L 1819 4666 
L 2450 4666 
L 2450 531 
L 3481 531 
L 3481 0 
L 794 0 
L 794 531 
z
" transform="scale(0.015625)"/>
        <path id="DejaVuSans-36" d="M 2113 2584 
Q 1688 2584 1439 2293 
Q 1191 2003 1191 1497 
Q 1191 994 1439 701 
Q 1688 409 2113 409 
Q 2538 409 2786 701 
Q 3034 994 3034 1497 
Q 3034 2003 2786 2293 
Q 2538 2584 2113 2584 
z
M 3366 4563 
L 3366 3988 
Q 3128 4100 2886 4159 
Q 2644 4219 2406 4219 
Q 1781 4219 1451 3797 
Q 1122 3375 1075 2522 
Q 1259 2794 1537 2939 
Q 1816 3084 2150 3084 
Q 2853 3084 3261 2657 
Q 3669 2231 3669 1497 
Q 3669 778 3244 343 
Q 2819 -91 2113 -91 
Q 1303 -91 875 529 
Q 447 1150 447 2328 
Q 447 3434 972 4092 
Q 1497 4750 2381 4750 
Q 2619 4750 2861 4703 
Q 3103 4656 3366 4563 
z
" transform="scale(0.015625)"/>
       </defs>
       <use xlink:href="#DejaVuSans-32"/>
       <use xlink:href="#DejaVuSans-30" x="63.623047"/>
       <use xlink:href="#DejaVuSans-31" x="127.246094"/>
       <use xlink:href="#DejaVuSans-36" x="190.869141"/>
      </g>
     </g>
    </g>
    <g id="xtick_2">
     <g id="line2d_3"/>
     <g id="text_2">
      <!-- 2018 -->
      <g style="fill: #6a625c" transform="translate(167.091971 619.146125) scale(0.12 -0.12)">
       <defs>
        <path id="DejaVuSans-38" d="M 2034 2216 
Q 1584 2216 1326 1975 
Q 1069 1734 1069 1313 
Q 1069 891 1326 650 
Q 1584 409 2034 409 
Q 2484 409 2743 651 
Q 3003 894 3003 1313 
Q 3003 1734 2745 1975 
Q 2488 2216 2034 2216 
z
M 1403 2484 
Q 997 2584 770 2862 
Q 544 3141 544 3541 
Q 544 4100 942 4425 
Q 1341 4750 2034 4750 
Q 2731 4750 3128 4425 
Q 3525 4100 3525 3541 
Q 3525 3141 3298 2862 
Q 3072 2584 2669 2484 
Q 3125 2378 3379 2068 
Q 3634 1759 3634 1313 
Q 3634 634 3220 271 
Q 2806 -91 2034 -91 
Q 1263 -91 848 271 
Q 434 634 434 1313 
Q 434 1759 690 2068 
Q 947 2378 1403 2484 
z
M 1172 3481 
Q 1172 3119 1398 2916 
Q 1625 2713 2034 2713 
Q 2441 2713 2670 2916 
Q 2900 3119 2900 3481 
Q 2900 3844 2670 4047 
Q 2441 4250 2034 4250 
Q 1625 4250 1398 4047 
Q 1172 3844 1172 3481 
z
" transform="scale(0.015625)"/>
       </defs>
       <use xlink:href="#DejaVuSans-32"/>
       <use xlink:href="#DejaVuSans-30" x="63.623047"/>
       <use xlink:href="#DejaVuSans-31" x="127.246094"/>
       <use xlink:href="#DejaVuSans-38" x="190.869141"/>
      </g>
     </g>
    </g>
    <g id="xtick_3">
     <g id="line2d_4"/>
     <g id="text_3">
      <!-- 2020 -->
      <g style="fill: #6a625c" transform="translate(241.366787 619.146125) scale(0.12 -0.12)">
       <use xlink:href="#DejaVuSans-32"/>
       <use xlink:href="#DejaVuSans-30" x="63.623047"/>
       <use xlink:href="#DejaVuSans-32" x="127.246094"/>
       <use xlink:href="#DejaVuSans-30" x="190.869141"/>
      </g>
     </g>
    </g>
    <g id="xtick_4">
     <g id="line2d_5"/>
     <g id="text_4">
      <!-- 2022 -->
      <g style="fill: #6a625c" transform="translate(315.743349 619.146125) scale(0.12 -0.12)">
       <use xlink:href="#DejaVuSans-32"/>
       <use xlink:href="#DejaVuSans-30" x="63.623047"/>
       <use xlink:href="#DejaVuSans-32" x="127.246094"/>
       <use xlink:href="#DejaVuSans-32" x="190.869141"/>
      </g>
     </g>
    </g>
    <g id="xtick_5">
     <g id="line2d_6"/>
     <g id="text_5">
      <!-- 2024 -->
      <g style="fill: #6a625c" transform="translate(390.018165 619.146125) scale(0.12 -0.12)">
       <defs>
        <path id="DejaVuSans-34" d="M 2419 4116 
L 825 1625 
L 2419 1625 
L 2419 4116 
z
M 2253 4666 
L 3047 4666 
L 3047 1625 
L 3713 1625 
L 3713 1100 
L 3047 1100 
L 3047 0 
L 2419 0 
L 2419 1100 
L 313 1100 
L 313 1709 
L 2253 4666 
z
" transform="scale(0.015625)"/>
       </defs>
       <use xlink:href="#DejaVuSans-32"/>
       <use xlink:href="#DejaVuSans-30" x="63.623047"/>
       <use xlink:href="#DejaVuSans-32" x="127.246094"/>
       <use xlink:href="#DejaVuSans-34" x="190.869141"/>
      </g>
     </g>
    </g>
    <g id="xtick_6">
     <g id="line2d_7"/>
     <g id="text_6">
      <!-- 2026 -->
      <g style="fill: #6a625c" transform="translate(464.394728 619.146125) scale(0.12 -0.12)">
       <use xlink:href="#DejaVuSans-32"/>
       <use xlink:href="#DejaVuSans-30" x="63.623047"/>
       <use xlink:href="#DejaVuSans-32" x="127.246094"/>
       <use xlink:href="#DejaVuSans-36" x="190.869141"/>
      </g>
     </g>
    </g>
   </g>
   <g id="matplotlib.axis_2">
    <g id="ytick_1">
     <g id="line2d_8">
      <path d="M 70.848 606.528 
L 513.648 606.528 
" clip-path="url(#pc47faa9aca)" style="fill: none; stroke: #ded8cf; stroke-linecap: square"/>
     </g>
     <g id="line2d_9"/>
     <g id="text_7">
      <!-- 0 -->
      <g style="fill: #6a625c" transform="translate(59.713 611.087063) scale(0.12 -0.12)">
       <use xlink:href="#DejaVuSans-30"/>
      </g>
     </g>
    </g>
    <g id="ytick_2">
     <g id="line2d_10">
      <path d="M 70.848 549.815354 
L 513.648 549.815354 
" clip-path="url(#pc47faa9aca)" style="fill: none; stroke: #ded8cf; stroke-linecap: square"/>
     </g>
     <g id="line2d_11"/>
     <g id="text_8">
      <!-- 1 -->
      <g style="fill: #6a625c" transform="translate(59.713 554.374417) scale(0.12 -0.12)">
       <use xlink:href="#DejaVuSans-31"/>
      </g>
     </g>
    </g>
    <g id="ytick_3">
     <g id="line2d_12">
      <path d="M 70.848 493.102708 
L 513.648 493.102708 
" clip-path="url(#pc47faa9aca)" style="fill: none; stroke: #ded8cf; stroke-linecap: square"/>
     </g>
     <g id="line2d_13"/>
     <g id="text_9">
      <!-- 2 -->
      <g style="fill: #6a625c" transform="translate(59.713 497.661771) scale(0.12 -0.12)">
       <use xlink:href="#DejaVuSans-32"/>
      </g>
     </g>
    </g>
    <g id="ytick_4">
     <g id="line2d_14">
      <path d="M 70.848 436.390063 
L 513.648 436.390063 
" clip-path="url(#pc47faa9aca)" style="fill: none; stroke: #ded8cf; stroke-linecap: square"/>
     </g>
     <g id="line2d_15"/>
     <g id="text_10">
      <!-- 3 -->
      <g style="fill: #6a625c" transform="translate(59.713 440.949125) scale(0.12 -0.12)">
       <defs>
        <path id="DejaVuSans-33" d="M 2597 2516 
Q 3050 2419 3304 2112 
Q 3559 1806 3559 1356 
Q 3559 666 3084 287 
Q 2609 -91 1734 -91 
Q 1441 -91 1130 -33 
Q 819 25 488 141 
L 488 750 
Q 750 597 1062 519 
Q 1375 441 1716 441 
Q 2309 441 2620 675 
Q 2931 909 2931 1356 
Q 2931 1769 2642 2001 
Q 2353 2234 1838 2234 
L 1294 2234 
L 1294 2753 
L 1863 2753 
Q 2328 2753 2575 2939 
Q 2822 3125 2822 3475 
Q 2822 3834 2567 4026 
Q 2313 4219 1838 4219 
Q 1578 4219 1281 4162 
Q 984 4106 628 3988 
L 628 4550 
Q 988 4650 1302 4700 
Q 1616 4750 1894 4750 
Q 2613 4750 3031 4423 
Q 3450 4097 3450 3541 
Q 3450 3153 3228 2886 
Q 3006 2619 2597 2516 
z
" transform="scale(0.015625)"/>
       </defs>
       <use xlink:href="#DejaVuSans-33"/>
      </g>
     </g>
    </g>
    <g id="ytick_5">
     <g id="line2d_16">
      <path d="M 70.848 379.677417 
L 513.648 379.677417 
" clip-path="url(#pc47faa9aca)" style="fill: none; stroke: #ded8cf; stroke-linecap: square"/>
     </g>
     <g id="line2d_17"/>
     <g id="text_11">
      <!-- 4 -->
      <g style="fill: #6a625c" transform="translate(59.713 384.236479) scale(0.12 -0.12)">
       <use xlink:href="#DejaVuSans-34"/>
      </g>
     </g>
    </g>
    <g id="ytick_6">
     <g id="line2d_18">
      <path d="M 70.848 322.964771 
L 513.648 322.964771 
" clip-path="url(#pc47faa9aca)" style="fill: none; stroke: #ded8cf; stroke-linecap: square"/>
     </g>
     <g id="line2d_19"/>
     <g id="text_12">
      <!-- 5 -->
      <g style="fill: #6a625c" transform="translate(59.713 327.523833) scale(0.12 -0.12)">
       <defs>
        <path id="DejaVuSans-35" d="M 691 4666 
L 3169 4666 
L 3169 4134 
L 1269 4134 
L 1269 2991 
Q 1406 3038 1543 3061 
Q 1681 3084 1819 3084 
Q 2600 3084 3056 2656 
Q 3513 2228 3513 1497 
Q 3513 744 3044 326 
Q 2575 -91 1722 -91 
Q 1428 -91 1123 -41 
Q 819 9 494 109 
L 494 744 
Q 775 591 1075 516 
Q 1375 441 1709 441 
Q 2250 441 2565 725 
Q 2881 1009 2881 1497 
Q 2881 1984 2565 2268 
Q 2250 2553 1709 2553 
Q 1456 2553 1204 2497 
Q 953 2441 691 2322 
L 691 4666 
z
" transform="scale(0.015625)"/>
       </defs>
       <use xlink:href="#DejaVuSans-35"/>
      </g>
     </g>
    </g>
    <g id="ytick_7">
     <g id="line2d_20">
      <path d="M 70.848 266.252125 
L 513.648 266.252125 
" clip-path="url(#pc47faa9aca)" style="fill: none; stroke: #ded8cf; stroke-linecap: square"/>
     </g>
     <g id="line2d_21"/>
     <g id="text_13">
      <!-- 6 -->
      <g style="fill: #6a625c" transform="translate(59.713 270.811188) scale(0.12 -0.12)">
       <use xlink:href="#DejaVuSans-36"/>
      </g>
     </g>
    </g>
   </g>
   <g id="patch_3">
    <path d="M 70.848 606.528 
L 513.648 606.528 
" style="fill: none; stroke: #9a8f84; stroke-width: 1.1; stroke-linejoin: miter; stroke-linecap: square"/>
   </g>
   <g id="line2d_22">
    <path d="M 70.848 603.478933 
L 74.002136 603.478933 
L 76.851033 600.631913 
L 80.005169 600.631913 
L 83.057559 603.68098 
L 111.139544 603.68098 
L 114.090187 606.528 
L 117.244324 602.747157 
L 151.227596 602.747157 
L 154.381732 606.528 
L 163.640647 606.528 
L 166.794783 603.268653 
L 179.207835 603.268653 
L 182.361971 600.741351 
L 191.51914 600.741351 
L 194.571529 593.526002 
L 197.725665 590.221069 
L 200.778055 590.221069 
L 203.932191 593.480416 
L 207.086327 593.480416 
L 210.138717 590.526633 
L 216.345243 590.526633 
L 219.499379 593.053934 
L 228.656548 593.053934 
L 231.708937 597.614197 
L 234.863074 600.91913 
L 237.915463 594.898679 
L 241.069599 594.898679 
L 244.223735 590.859317 
L 247.276125 593.813101 
L 250.430261 590.662398 
L 253.482651 586.516737 
L 256.636787 584.497056 
L 259.790923 580.943632 
L 265.895702 580.943632 
L 268.948092 579.54202 
L 272.102228 576.871933 
L 275.154618 579.992964 
L 278.308754 577.544231 
L 281.46289 579.042704 
L 284.515279 579.042704 
L 287.669415 582.193407 
L 290.721805 580.540229 
L 293.875941 582.55991 
L 297.030077 586.113334 
L 299.878974 583.651848 
L 303.03311 583.651848 
L 306.0855 587.708546 
L 309.239636 585.812398 
L 312.292026 580.921619 
L 315.446162 577.068946 
L 318.600298 579.609835 
L 321.652687 576.59961 
L 324.806824 573.769638 
L 331.013349 573.697602 
L 334.167485 573.697602 
L 337.016382 576.159089 
L 343.222908 571.624426 
L 346.377044 573.929392 
L 349.429434 579.664784 
L 352.58357 581.421907 
L 355.737706 578.973174 
L 358.790096 574.964508 
L 361.944232 577.79448 
L 364.996621 577.683008 
L 368.150757 573.760972 
L 371.304893 571.542167 
L 374.15379 565.404435 
L 377.307926 563.208823 
L 380.360316 559.766829 
L 383.514452 555.12875 
L 386.566842 546.06343 
L 389.720978 543.308788 
L 392.875114 540.747569 
L 395.927504 533.797829 
L 399.08164 526.113189 
L 402.134029 526.535472 
L 405.288165 521.812288 
L 408.442301 524.031092 
L 414.547081 514.900714 
L 417.599471 520.571979 
L 420.753607 522.599107 
L 423.805996 529.74776 
L 426.960132 522.725309 
L 430.114268 516.482751 
L 433.166658 530.451383 
L 439.373184 502.113365 
L 442.52732 504.699542 
L 445.681456 482.970559 
L 448.530353 484.296097 
L 451.684489 483.060527 
L 454.736879 470.623544 
L 457.891015 475.495764 
L 460.943404 475.050365 
L 464.09754 484.597949 
L 467.251676 495.850458 
L 470.304066 490.479942 
L 473.458202 512.772649 
L 476.510592 514.339963 
L 479.664728 520.399006 
L 482.818864 535.278636 
L 482.818864 535.278636 
" clip-path="url(#pc47faa9aca)" style="fill: none; stroke: #0f2e67; stroke-width: 3; stroke-linecap: square"/>
   </g>
   <g id="line2d_23">
    <path d="M 70.848 604.968246 
L 76.851033 601.466459 
L 80.005169 601.466459 
L 83.057559 603.026213 
L 101.778882 603.026213 
L 104.831272 601.180098 
L 107.985408 600.503981 
L 111.139544 600.647909 
L 114.090187 602.317892 
L 117.244324 600.527721 
L 139.018037 600.527721 
L 142.070426 602.373835 
L 145.224562 603.049952 
L 148.378699 604.737828 
L 151.227596 604.737828 
L 154.381732 606.528 
L 163.640647 606.528 
L 166.794783 604.840124 
L 179.207835 604.840124 
L 185.516107 601.971443 
L 191.51914 601.971443 
L 194.571529 598.689461 
L 197.725665 597.059787 
L 200.778055 597.059787 
L 203.932191 598.747664 
L 207.086327 598.747664 
L 213.292853 595.794686 
L 216.345243 595.794686 
L 222.653515 598.663367 
L 225.502412 596.87995 
L 228.656548 596.87995 
L 231.708937 597.536347 
L 234.863074 599.166021 
L 237.915463 594.693414 
L 241.069599 594.693414 
L 244.223735 591.205552 
L 247.276125 592.629062 
L 250.430261 592.747767 
L 253.482651 589.112341 
L 256.636787 588.002939 
L 259.790923 586.400886 
L 262.741566 583.34534 
L 265.895702 583.34534 
L 268.948092 581.209158 
L 272.102228 578.404379 
L 275.154618 581.482869 
L 278.308754 578.812782 
L 281.46289 579.931695 
L 284.515279 579.931695 
L 287.669415 577.867418 
L 290.721805 578.755138 
L 293.875941 577.608668 
L 297.030077 573.321556 
L 299.878974 570.104745 
L 303.03311 570.104745 
L 306.0855 572.461396 
L 309.239636 570.431338 
L 312.292026 567.774551 
L 315.446162 564.518552 
L 318.600298 566.887501 
L 321.652687 563.694221 
L 324.806824 562.379341 
L 327.859213 559.816874 
L 331.013349 562.072747 
L 334.167485 567.961911 
L 337.016382 576.017684 
L 340.170518 573.497122 
L 343.222908 571.268853 
L 346.377044 574.919216 
L 349.429434 576.761683 
L 352.58357 580.187211 
L 355.737706 575.199292 
L 358.790096 571.046374 
L 361.944232 575.836293 
L 364.996621 575.745262 
L 368.150757 572.797619 
L 371.304893 570.270317 
L 374.15379 566.256684 
L 377.307926 563.217182 
L 380.360316 564.727625 
L 383.514452 559.634609 
L 386.566842 555.935478 
L 389.720978 553.053287 
L 392.875114 555.087423 
L 395.927504 551.555236 
L 399.08164 547.096694 
L 402.134029 547.975359 
L 405.288165 544.426708 
L 408.442301 546.954009 
L 411.392945 545.227497 
L 414.547081 543.662856 
L 417.599471 544.480407 
L 420.753607 547.858478 
L 423.805996 551.367033 
L 426.960132 548.959584 
L 430.114268 544.249497 
L 433.166658 555.127881 
L 436.320794 543.209008 
L 439.373184 529.784508 
L 442.52732 529.279241 
L 445.681456 511.556539 
L 448.530353 508.164214 
L 451.684489 507.45568 
L 454.736879 501.220011 
L 457.891015 496.496763 
L 464.09754 491.956182 
L 467.251676 490.531488 
L 470.304066 481.833229 
L 473.458202 495.346368 
L 476.510592 500.606015 
L 479.664728 504.518652 
L 482.818864 511.077448 
L 482.818864 511.077448 
" clip-path="url(#pc47faa9aca)" style="fill: none; stroke: #3d69b5; stroke-width: 3; stroke-linecap: square"/>
   </g>
   <g id="line2d_24">
    <path d="M 70.848 605.250688 
L 76.851033 602.472693 
L 80.005169 602.472693 
L 83.057559 603.750005 
L 101.778882 603.750005 
L 104.831272 602.295835 
L 107.985408 601.680463 
L 111.139544 601.814507 
L 114.090187 603.138331 
L 117.244324 601.752392 
L 120.296713 601.752392 
L 123.450849 600.454025 
L 139.018037 600.454025 
L 142.070426 601.908196 
L 145.224562 602.523567 
L 148.378699 603.843694 
L 151.227596 603.843694 
L 154.381732 605.229634 
L 157.434121 605.229634 
L 160.588257 606.528 
L 163.640647 606.528 
L 166.794783 605.207873 
L 179.207835 605.207873 
L 188.365004 601.804168 
L 191.51914 601.804168 
L 194.571529 599.574897 
L 197.725665 598.272954 
L 200.778055 598.272954 
L 203.932191 599.593081 
L 207.086327 599.593081 
L 213.292853 597.269736 
L 216.345243 597.269736 
L 222.653515 599.561429 
L 225.502412 599.378632 
L 228.656548 599.378632 
L 231.708937 599.702236 
L 234.863074 599.66155 
L 237.915463 596.285797 
L 241.069599 596.285797 
L 244.223735 593.645544 
L 247.276125 594.760179 
L 250.430261 593.859043 
L 253.482651 589.626756 
L 256.636787 587.866587 
L 259.790923 586.592718 
L 262.741566 583.184986 
L 265.895702 583.184986 
L 268.948092 580.746854 
L 272.102228 579.950997 
L 275.154618 581.163796 
L 278.308754 579.067985 
L 281.46289 578.889518 
L 284.515279 578.889518 
L 287.669415 576.913438 
L 290.721805 578.962791 
L 293.875941 577.196054 
L 297.030077 573.892631 
L 299.878974 572.637961 
L 303.03311 572.637961 
L 306.0855 573.380958 
L 309.239636 571.621667 
L 312.292026 570.654784 
L 315.446162 567.255184 
L 318.600298 570.073904 
L 321.652687 567.612417 
L 324.806824 564.013702 
L 327.859213 562.131215 
L 331.013349 563.864552 
L 334.167485 567.321926 
L 337.016382 573.279136 
L 340.170518 570.268911 
L 343.222908 570.302881 
L 346.377044 572.310236 
L 349.429434 571.886649 
L 352.58357 575.557329 
L 355.737706 571.627138 
L 358.790096 568.042501 
L 361.944232 575.727141 
L 364.996621 573.872663 
L 368.150757 571.708063 
L 371.304893 567.469643 
L 374.15379 563.381361 
L 377.307926 560.742917 
L 380.360316 561.255757 
L 383.514452 557.844516 
L 386.566842 555.583814 
L 389.720978 553.064745 
L 392.875114 553.833696 
L 395.927504 551.269601 
L 399.08164 546.73404 
L 402.134029 546.400183 
L 405.288165 545.572475 
L 408.442301 550.930813 
L 411.392945 549.325054 
L 414.547081 547.030776 
L 417.599471 547.093595 
L 420.753607 547.645456 
L 423.805996 551.648833 
L 426.960132 547.737517 
L 430.114268 543.119244 
L 433.166658 547.672765 
L 436.320794 537.20498 
L 439.373184 525.624572 
L 442.52732 523.658944 
L 445.681456 509.020724 
L 448.530353 507.301347 
L 451.684489 506.842421 
L 454.736879 497.302391 
L 457.891015 496.241472 
L 460.943404 494.639907 
L 464.09754 494.746655 
L 467.251676 491.110578 
L 470.304066 488.113465 
L 473.458202 498.820398 
L 476.510592 507.249481 
L 479.664728 511.552254 
L 482.818864 511.955372 
L 482.818864 511.955372 
" clip-path="url(#pc47faa9aca)" style="fill: none; stroke: #a7bfe6; stroke-width: 3; stroke-linecap: square"/>
   </g>
   <g id="line2d_25">
    <path d="M 70.848 582.011991 
L 74.002136 595.139919 
L 83.057559 595.139919 
L 86.211695 584.865888 
L 89.264085 590.559929 
L 95.572357 590.559929 
L 98.624746 585.189414 
L 104.831272 585.189414 
L 107.985408 590.883454 
L 111.139544 585.451208 
L 114.090187 580.018963 
L 120.296713 580.018963 
L 123.450849 590.292993 
L 126.503239 585.957164 
L 132.811511 585.957164 
L 135.863901 587.42185 
L 145.224562 587.42185 
L 148.378699 592.854095 
L 151.227596 598.286341 
L 154.381732 598.286341 
L 157.434121 589.770929 
L 160.588257 589.770929 
L 163.640647 588.272124 
L 166.794783 588.272124 
L 169.948919 584.089775 
L 173.001309 587.995605 
L 176.155445 587.995605 
L 179.207835 579.91688 
L 182.361971 574.082246 
L 185.516107 574.082246 
L 188.365004 566.071985 
L 191.51914 561.570982 
L 194.571529 570.086394 
L 197.725665 570.086394 
L 200.778055 572.891507 
L 203.932191 572.891507 
L 207.086327 572.697879 
L 210.138717 568.36205 
L 213.292853 568.36205 
L 216.345243 572.023902 
L 219.499379 574.383497 
L 222.653515 570.602654 
L 225.502412 574.430566 
L 228.656548 571.604354 
L 231.708937 571.604354 
L 234.863074 567.422006 
L 237.915463 570.451527 
L 241.069599 566.513149 
L 244.223735 566.706777 
L 247.276125 571.042606 
L 250.430261 571.042606 
L 253.482651 575.459478 
L 256.636787 572.134441 
L 259.790923 569.115206 
L 262.741566 570.060532 
L 265.895702 577.387747 
L 268.948092 577.387747 
L 272.102228 575.977132 
L 275.154618 570.636958 
L 278.308754 569.41025 
L 281.46289 561.155615 
L 284.515279 557.755576 
L 287.669415 549.265659 
L 290.721805 549.265659 
L 293.875941 550.15817 
L 297.030077 556.958247 
L 299.878974 557.463447 
L 303.03311 557.463447 
L 306.0855 552.269981 
L 309.239636 553.318662 
L 312.292026 558.658836 
L 315.446162 557.379303 
L 318.600298 567.233744 
L 321.652687 570.633783 
L 324.806824 577.068894 
L 327.859213 569.722696 
L 331.013349 571.740507 
L 334.167485 563.49739 
L 337.016382 566.229213 
L 340.170518 561.640811 
L 343.222908 562.944521 
L 346.377044 561.42976 
L 349.429434 547.447352 
L 352.58357 550.528231 
L 355.737706 546.407152 
L 358.790096 544.462274 
L 361.944232 534.616944 
L 364.996621 529.287902 
L 368.150757 520.355032 
L 371.304893 523.987364 
L 374.15379 507.372332 
L 377.307926 495.450502 
L 380.360316 494.347947 
L 383.514452 492.027463 
L 386.566842 496.779297 
L 389.720978 496.838103 
L 392.875114 498.459947 
L 395.927504 483.281442 
L 399.08164 484.645789 
L 402.134029 484.119761 
L 405.288165 490.190883 
L 408.442301 494.801667 
L 411.392945 504.852736 
L 414.547081 508.589849 
L 417.599471 513.58216 
L 420.753607 521.961688 
L 423.805996 531.192262 
L 426.960132 526.348826 
L 430.114268 523.420343 
L 433.166658 540.543727 
L 436.320794 545.097169 
L 439.373184 530.08319 
L 442.52732 536.834695 
L 448.530353 504.834368 
L 451.684489 507.44393 
L 454.736879 489.940027 
L 457.891015 489.940027 
L 460.943404 457.506324 
L 464.09754 444.88083 
L 467.251676 411.343365 
L 470.304066 375.770917 
L 473.458202 364.030562 
L 476.510592 333.170136 
L 479.664728 308.555272 
L 482.818864 306.960787 
L 482.818864 306.960787 
" clip-path="url(#pc47faa9aca)" style="fill: none; stroke: #0e6568; stroke-width: 3; stroke-linecap: square"/>
   </g>
   <g id="line2d_26">
    <path d="M 70.848 594.453309 
L 74.002136 601.253386 
L 80.005169 601.253386 
L 83.057559 598.299603 
L 86.211695 592.317256 
L 89.264085 595.130383 
L 95.572357 595.130383 
L 98.624746 592.021137 
L 104.831272 592.021137 
L 107.985408 594.482624 
L 114.090187 588.403532 
L 117.244324 588.403532 
L 120.296713 591.357316 
L 123.450849 597.339663 
L 126.503239 594.839105 
L 132.811511 594.839105 
L 135.863901 595.393727 
L 145.224562 595.393727 
L 148.378699 598.462593 
L 151.227596 601.472819 
L 154.381732 601.472819 
L 157.434121 596.39104 
L 160.588257 596.39104 
L 163.640647 595.539787 
L 166.794783 595.539787 
L 169.948919 590.288616 
L 173.001309 592.84324 
L 176.155445 592.84324 
L 179.207835 588.140698 
L 182.361971 580.456058 
L 185.516107 580.456058 
L 188.365004 575.428341 
L 191.51914 572.63186 
L 194.571529 577.713638 
L 197.725665 577.713638 
L 200.778055 578.936596 
L 203.932191 578.936596 
L 207.086327 581.605224 
L 210.138717 578.705804 
L 213.292853 578.705804 
L 216.345243 580.676523 
L 219.499379 583.794927 
L 222.653515 581.047222 
L 225.502412 583.419852 
L 228.656548 581.537072 
L 231.708937 581.537072 
L 234.863074 578.83647 
L 237.915463 580.965323 
L 244.223735 576.471361 
L 247.276125 579.370781 
L 250.430261 579.370781 
L 253.482651 582.102604 
L 256.636787 580.711628 
L 259.790923 579.162922 
L 262.741566 577.944193 
L 265.895702 580.362185 
L 268.948092 578.486767 
L 272.102228 575.936198 
L 275.154618 570.817728 
L 278.308754 569.842894 
L 281.46289 564.878253 
L 284.515279 560.923396 
L 287.669415 555.136391 
L 290.721805 552.948403 
L 297.030077 557.654551 
L 299.878974 558.200158 
L 303.03311 560.461428 
L 306.0855 559.132742 
L 309.239636 559.765619 
L 312.292026 564.884089 
L 315.446162 560.538587 
L 318.600298 566.6726 
L 324.806824 574.89483 
L 327.859213 570.472953 
L 331.013349 571.11219 
L 334.167485 565.682988 
L 337.016382 567.387121 
L 340.170518 564.183017 
L 343.222908 561.606016 
L 346.377044 560.495759 
L 349.429434 550.397354 
L 352.58357 554.245091 
L 355.737706 552.00058 
L 358.790096 550.555304 
L 361.944232 543.299769 
L 364.996621 540.063689 
L 368.150757 532.393567 
L 371.304893 534.96301 
L 374.15379 525.304727 
L 377.307926 515.216805 
L 380.360316 512.968207 
L 383.514452 512.65321 
L 386.566842 513.786202 
L 389.720978 512.577886 
L 392.875114 512.819906 
L 395.927504 500.5845 
L 399.08164 500.825032 
L 402.134029 498.422026 
L 405.288165 501.448845 
L 408.442301 502.332803 
L 411.392945 510.443311 
L 414.547081 512.658649 
L 417.599471 517.383419 
L 420.753607 519.926186 
L 423.805996 525.676597 
L 426.960132 519.334274 
L 430.114268 517.39196 
L 433.166658 527.672603 
L 436.320794 530.109103 
L 439.373184 522.500686 
L 442.52732 521.123538 
L 445.681456 511.364505 
L 448.530353 501.129109 
L 451.684489 505.731751 
L 454.736879 496.433874 
L 457.891015 492.663802 
L 460.943404 466.88461 
L 464.09754 457.439073 
L 467.251676 437.261424 
L 470.304066 419.454811 
L 473.458202 409.256207 
L 476.510592 389.429155 
L 479.664728 381.084633 
L 482.818864 381.49775 
L 482.818864 381.49775 
" clip-path="url(#pc47faa9aca)" style="fill: none; stroke: #1da0a4; stroke-width: 3; stroke-linecap: square"/>
   </g>
   <g id="line2d_27">
    <path d="M 70.848 598.809849 
L 74.002136 603.145678 
L 80.005169 603.145678 
L 83.057559 601.262788 
L 86.211695 597.274557 
L 89.264085 598.986895 
L 95.572357 598.986895 
L 98.624746 595.351469 
L 101.778882 593.519665 
L 104.831272 593.519665 
L 107.985408 595.189649 
L 111.139544 591.468347 
L 114.090187 589.657598 
L 117.244324 589.657598 
L 120.296713 591.540488 
L 123.450849 595.528719 
L 126.503239 593.876253 
L 129.657375 591.931375 
L 132.811511 591.931375 
L 135.863901 594.032368 
L 139.018037 595.864172 
L 142.070426 594.094114 
L 145.224562 591.025248 
L 148.378699 594.74655 
L 151.227596 596.557299 
L 154.381732 594.938787 
L 157.434121 591.723785 
L 160.588257 591.723785 
L 163.640647 591.266405 
L 166.794783 593.211284 
L 169.948919 590.091776 
L 173.001309 589.705049 
L 176.155445 586.511769 
L 182.361971 584.053612 
L 185.516107 584.053612 
L 188.365004 579.538274 
L 191.51914 577.816818 
L 194.571529 578.132401 
L 197.725665 578.132401 
L 200.778055 578.814435 
L 203.932191 578.814435 
L 207.086327 578.952205 
L 210.138717 577.794503 
L 213.292853 578.412277 
L 216.345243 578.219666 
L 219.499379 579.940572 
L 222.653515 576.681225 
L 225.502412 577.026516 
L 228.656548 576.89994 
L 231.708937 575.177302 
L 234.863074 569.483261 
L 237.915463 568.225814 
L 241.069599 564.383494 
L 244.223735 563.371383 
L 247.276125 566.450245 
L 250.430261 566.686121 
L 253.482651 567.224314 
L 256.636787 564.940125 
L 262.741566 566.457446 
L 265.895702 567.512738 
L 268.948092 567.512738 
L 272.102228 568.727106 
L 275.154618 564.996907 
L 278.308754 564.241898 
L 281.46289 561.075059 
L 284.515279 557.739021 
L 287.669415 555.445265 
L 290.721805 555.599794 
L 293.875941 556.09362 
L 297.030077 557.416964 
L 299.878974 557.068344 
L 303.03311 558.383064 
L 306.0855 557.097554 
L 309.239636 557.734906 
L 312.292026 564.150364 
L 315.446162 561.391967 
L 318.600298 563.588312 
L 321.652687 564.908975 
L 324.806824 567.898516 
L 327.859213 565.792784 
L 331.013349 564.554637 
L 334.167485 560.360352 
L 337.016382 561.2809 
L 340.170518 557.423497 
L 343.222908 557.454976 
L 346.377044 554.581767 
L 349.429434 546.235535 
L 352.58357 549.352647 
L 355.737706 547.920827 
L 358.790096 545.23366 
L 361.944232 537.540317 
L 364.996621 533.679735 
L 368.150757 529.437806 
L 371.304893 529.092286 
L 374.15379 522.025281 
L 377.307926 517.93807 
L 380.360316 515.840754 
L 383.514452 513.427205 
L 386.566842 514.834696 
L 389.720978 510.715336 
L 392.875114 512.701495 
L 395.927504 507.09553 
L 399.08164 508.068021 
L 402.134029 506.479459 
L 405.288165 506.293687 
L 408.442301 500.266206 
L 411.392945 504.259872 
L 414.547081 499.400861 
L 417.599471 500.952995 
L 420.753607 501.6175 
L 423.805996 497.270143 
L 426.960132 495.511181 
L 430.114268 495.317885 
L 433.166658 491.588608 
L 436.320794 492.41173 
L 439.373184 486.765988 
L 442.52732 488.091818 
L 445.681456 483.963916 
L 448.530353 479.679392 
L 451.684489 487.690387 
L 454.736879 472.099898 
L 457.891015 468.561796 
L 460.943404 456.892776 
L 464.09754 443.453056 
L 467.251676 422.586604 
L 470.304066 412.388214 
L 473.458202 402.715686 
L 476.510592 387.453061 
L 479.664728 375.402632 
L 482.818864 374.217089 
L 482.818864 374.217089 
" clip-path="url(#pc47faa9aca)" style="fill: none; stroke: #92dddf; stroke-width: 3; stroke-linecap: square"/>
   </g>
   <g id="text_14">
    <!-- ChatGPT -->
    <g style="fill: #152238" transform="translate(310.343846 294.030765) scale(0.12 -0.12)">
     <defs>
      <path id="DejaVuSans-43" d="M 4122 4306 
L 4122 3641 
Q 3803 3938 3442 4084 
Q 3081 4231 2675 4231 
Q 1875 4231 1450 3742 
Q 1025 3253 1025 2328 
Q 1025 1406 1450 917 
Q 1875 428 2675 428 
Q 3081 428 3442 575 
Q 3803 722 4122 1019 
L 4122 359 
Q 3791 134 3420 21 
Q 3050 -91 2638 -91 
Q 1578 -91 968 557 
Q 359 1206 359 2328 
Q 359 3453 968 4101 
Q 1578 4750 2638 4750 
Q 3056 4750 3426 4639 
Q 3797 4528 4122 4306 
z
" transform="scale(0.015625)"/>
      <path id="DejaVuSans-68" d="M 3513 2113 
L 3513 0 
L 2938 0 
L 2938 2094 
Q 2938 2591 2744 2837 
Q 2550 3084 2163 3084 
Q 1697 3084 1428 2787 
Q 1159 2491 1159 1978 
L 1159 0 
L 581 0 
L 581 4863 
L 1159 4863 
L 1159 2956 
Q 1366 3272 1645 3428 
Q 1925 3584 2291 3584 
Q 2894 3584 3203 3211 
Q 3513 2838 3513 2113 
z
" transform="scale(0.015625)"/>
      <path id="DejaVuSans-61" d="M 2194 1759 
Q 1497 1759 1228 1600 
Q 959 1441 959 1056 
Q 959 750 1161 570 
Q 1363 391 1709 391 
Q 2188 391 2477 730 
Q 2766 1069 2766 1631 
L 2766 1759 
L 2194 1759 
z
M 3341 1997 
L 3341 0 
L 2766 0 
L 2766 531 
Q 2569 213 2275 61 
Q 1981 -91 1556 -91 
Q 1019 -91 701 211 
Q 384 513 384 1019 
Q 384 1609 779 1909 
Q 1175 2209 1959 2209 
L 2766 2209 
L 2766 2266 
Q 2766 2663 2505 2880 
Q 2244 3097 1772 3097 
Q 1472 3097 1187 3025 
Q 903 2953 641 2809 
L 641 3341 
Q 956 3463 1253 3523 
Q 1550 3584 1831 3584 
Q 2591 3584 2966 3190 
Q 3341 2797 3341 1997 
z
" transform="scale(0.015625)"/>
      <path id="DejaVuSans-74" d="M 1172 4494 
L 1172 3500 
L 2356 3500 
L 2356 3053 
L 1172 3053 
L 1172 1153 
Q 1172 725 1289 603 
Q 1406 481 1766 481 
L 2356 481 
L 2356 0 
L 1766 0 
Q 1100 0 847 248 
Q 594 497 594 1153 
L 594 3053 
L 172 3053 
L 172 3500 
L 594 3500 
L 594 4494 
L 1172 4494 
z
" transform="scale(0.015625)"/>
      <path id="DejaVuSans-47" d="M 3809 666 
L 3809 1919 
L 2778 1919 
L 2778 2438 
L 4434 2438 
L 4434 434 
Q 4069 175 3628 42 
Q 3188 -91 2688 -91 
Q 1594 -91 976 548 
Q 359 1188 359 2328 
Q 359 3472 976 4111 
Q 1594 4750 2688 4750 
Q 3144 4750 3555 4637 
Q 3966 4525 4313 4306 
L 4313 3634 
Q 3963 3931 3569 4081 
Q 3175 4231 2741 4231 
Q 1884 4231 1454 3753 
Q 1025 3275 1025 2328 
Q 1025 1384 1454 906 
Q 1884 428 2741 428 
Q 3075 428 3337 486 
Q 3600 544 3809 666 
z
" transform="scale(0.015625)"/>
      <path id="DejaVuSans-50" d="M 1259 4147 
L 1259 2394 
L 2053 2394 
Q 2494 2394 2734 2622 
Q 2975 2850 2975 3272 
Q 2975 3691 2734 3919 
Q 2494 4147 2053 4147 
L 1259 4147 
z
M 628 4666 
L 2053 4666 
Q 2838 4666 3239 4311 
Q 3641 3956 3641 3272 
Q 3641 2581 3239 2228 
Q 2838 1875 2053 1875 
L 1259 1875 
L 1259 0 
L 628 0 
L 628 4666 
z
" transform="scale(0.015625)"/>
      <path id="DejaVuSans-54" d="M -19 4666 
L 3928 4666 
L 3928 4134 
L 2272 4134 
L 2272 0 
L 1638 0 
L 1638 4134 
L -19 4134 
L -19 4666 
z
" transform="scale(0.015625)"/>
     </defs>
     <use xlink:href="#DejaVuSans-43"/>
     <use xlink:href="#DejaVuSans-68" x="69.824219"/>
     <use xlink:href="#DejaVuSans-61" x="133.203125"/>
     <use xlink:href="#DejaVuSans-74" x="194.482422"/>
     <use xlink:href="#DejaVuSans-47" x="233.691406"/>
     <use xlink:href="#DejaVuSans-50" x="311.181641"/>
     <use xlink:href="#DejaVuSans-54" x="371.484375"/>
    </g>
    <!-- released -->
    <g style="fill: #152238" transform="translate(310.878221 307.46814) scale(0.12 -0.12)">
     <defs>
      <path id="DejaVuSans-72" d="M 2631 2963 
Q 2534 3019 2420 3045 
Q 2306 3072 2169 3072 
Q 1681 3072 1420 2755 
Q 1159 2438 1159 1844 
L 1159 0 
L 581 0 
L 581 3500 
L 1159 3500 
L 1159 2956 
Q 1341 3275 1631 3429 
Q 1922 3584 2338 3584 
Q 2397 3584 2469 3576 
Q 2541 3569 2628 3553 
L 2631 2963 
z
" transform="scale(0.015625)"/>
      <path id="DejaVuSans-65" d="M 3597 1894 
L 3597 1613 
L 953 1613 
Q 991 1019 1311 708 
Q 1631 397 2203 397 
Q 2534 397 2845 478 
Q 3156 559 3463 722 
L 3463 178 
Q 3153 47 2828 -22 
Q 2503 -91 2169 -91 
Q 1331 -91 842 396 
Q 353 884 353 1716 
Q 353 2575 817 3079 
Q 1281 3584 2069 3584 
Q 2775 3584 3186 3129 
Q 3597 2675 3597 1894 
z
M 3022 2063 
Q 3016 2534 2758 2815 
Q 2500 3097 2075 3097 
Q 1594 3097 1305 2825 
Q 1016 2553 972 2059 
L 3022 2063 
z
" transform="scale(0.015625)"/>
      <path id="DejaVuSans-6c" d="M 603 4863 
L 1178 4863 
L 1178 0 
L 603 0 
L 603 4863 
z
" transform="scale(0.015625)"/>
      <path id="DejaVuSans-73" d="M 2834 3397 
L 2834 2853 
Q 2591 2978 2328 3040 
Q 2066 3103 1784 3103 
Q 1356 3103 1142 2972 
Q 928 2841 928 2578 
Q 928 2378 1081 2264 
Q 1234 2150 1697 2047 
L 1894 2003 
Q 2506 1872 2764 1633 
Q 3022 1394 3022 966 
Q 3022 478 2636 193 
Q 2250 -91 1575 -91 
Q 1294 -91 989 -36 
Q 684 19 347 128 
L 347 722 
Q 666 556 975 473 
Q 1284 391 1588 391 
Q 1994 391 2212 530 
Q 2431 669 2431 922 
Q 2431 1156 2273 1281 
Q 2116 1406 1581 1522 
L 1381 1569 
Q 847 1681 609 1914 
Q 372 2147 372 2553 
Q 372 3047 722 3315 
Q 1072 3584 1716 3584 
Q 2034 3584 2315 3537 
Q 2597 3491 2834 3397 
z
" transform="scale(0.015625)"/>
      <path id="DejaVuSans-64" d="M 2906 2969 
L 2906 4863 
L 3481 4863 
L 3481 0 
L 2906 0 
L 2906 525 
Q 2725 213 2448 61 
Q 2172 -91 1784 -91 
Q 1150 -91 751 415 
Q 353 922 353 1747 
Q 353 2572 751 3078 
Q 1150 3584 1784 3584 
Q 2172 3584 2448 3432 
Q 2725 3281 2906 2969 
z
M 947 1747 
Q 947 1113 1208 752 
Q 1469 391 1925 391 
Q 2381 391 2643 752 
Q 2906 1113 2906 1747 
Q 2906 2381 2643 2742 
Q 2381 3103 1925 3103 
Q 1469 3103 1208 2742 
Q 947 2381 947 1747 
z
" transform="scale(0.015625)"/>
     </defs>
     <use xlink:href="#DejaVuSans-72"/>
     <use xlink:href="#DejaVuSans-65" x="38.863281"/>
     <use xlink:href="#DejaVuSans-6c" x="100.386719"/>
     <use xlink:href="#DejaVuSans-65" x="128.169922"/>
     <use xlink:href="#DejaVuSans-61" x="189.693359"/>
     <use xlink:href="#DejaVuSans-73" x="250.972656"/>
     <use xlink:href="#DejaVuSans-65" x="303.072266"/>
     <use xlink:href="#DejaVuSans-64" x="364.595703"/>
    </g>
   </g>
  </g>
  <g id="line2d_28">
   <path d="M 38.376 38.88 
L 82.656 38.88 
" style="fill: none; stroke: #295d5f; stroke-width: 4.5; stroke-linecap: round"/>
  </g>
  <g id="text_15">
   <!-- AI-related terms by journal cutoff -->
   <g style="fill: #152238" transform="translate(38.376 89.424) scale(0.225 -0.225)">
    <defs>
     <path id="DejaVuSans-41" d="M 2188 4044 
L 1331 1722 
L 3047 1722 
L 2188 4044 
z
M 1831 4666 
L 2547 4666 
L 4325 0 
L 3669 0 
L 3244 1197 
L 1141 1197 
L 716 0 
L 50 0 
L 1831 4666 
z
" transform="scale(0.015625)"/>
     <path id="DejaVuSans-49" d="M 628 4666 
L 1259 4666 
L 1259 0 
L 628 0 
L 628 4666 
z
" transform="scale(0.015625)"/>
     <path id="DejaVuSans-2d" d="M 313 2009 
L 1997 2009 
L 1997 1497 
L 313 1497 
L 313 2009 
z
" transform="scale(0.015625)"/>
     <path id="DejaVuSans-20" transform="scale(0.015625)"/>
     <path id="DejaVuSans-6d" d="M 3328 2828 
Q 3544 3216 3844 3400 
Q 4144 3584 4550 3584 
Q 5097 3584 5394 3201 
Q 5691 2819 5691 2113 
L 5691 0 
L 5113 0 
L 5113 2094 
Q 5113 2597 4934 2840 
Q 4756 3084 4391 3084 
Q 3944 3084 3684 2787 
Q 3425 2491 3425 1978 
L 3425 0 
L 2847 0 
L 2847 2094 
Q 2847 2600 2669 2842 
Q 2491 3084 2119 3084 
Q 1678 3084 1418 2786 
Q 1159 2488 1159 1978 
L 1159 0 
L 581 0 
L 581 3500 
L 1159 3500 
L 1159 2956 
Q 1356 3278 1631 3431 
Q 1906 3584 2284 3584 
Q 2666 3584 2933 3390 
Q 3200 3197 3328 2828 
z
" transform="scale(0.015625)"/>
     <path id="DejaVuSans-62" d="M 3116 1747 
Q 3116 2381 2855 2742 
Q 2594 3103 2138 3103 
Q 1681 3103 1420 2742 
Q 1159 2381 1159 1747 
Q 1159 1113 1420 752 
Q 1681 391 2138 391 
Q 2594 391 2855 752 
Q 3116 1113 3116 1747 
z
M 1159 2969 
Q 1341 3281 1617 3432 
Q 1894 3584 2278 3584 
Q 2916 3584 3314 3078 
Q 3713 2572 3713 1747 
Q 3713 922 3314 415 
Q 2916 -91 2278 -91 
Q 1894 -91 1617 61 
Q 1341 213 1159 525 
L 1159 0 
L 581 0 
L 581 4863 
L 1159 4863 
L 1159 2969 
z
" transform="scale(0.015625)"/>
     <path id="DejaVuSans-79" d="M 2059 -325 
Q 1816 -950 1584 -1140 
Q 1353 -1331 966 -1331 
L 506 -1331 
L 506 -850 
L 844 -850 
Q 1081 -850 1212 -737 
Q 1344 -625 1503 -206 
L 1606 56 
L 191 3500 
L 800 3500 
L 1894 763 
L 2988 3500 
L 3597 3500 
L 2059 -325 
z
" transform="scale(0.015625)"/>
     <path id="DejaVuSans-6a" d="M 603 3500 
L 1178 3500 
L 1178 -63 
Q 1178 -731 923 -1031 
Q 669 -1331 103 -1331 
L -116 -1331 
L -116 -844 
L 38 -844 
Q 366 -844 484 -692 
Q 603 -541 603 -63 
L 603 3500 
z
M 603 4863 
L 1178 4863 
L 1178 4134 
L 603 4134 
L 603 4863 
z
" transform="scale(0.015625)"/>
     <path id="DejaVuSans-6f" d="M 1959 3097 
Q 1497 3097 1228 2736 
Q 959 2375 959 1747 
Q 959 1119 1226 758 
Q 1494 397 1959 397 
Q 2419 397 2687 759 
Q 2956 1122 2956 1747 
Q 2956 2369 2687 2733 
Q 2419 3097 1959 3097 
z
M 1959 3584 
Q 2709 3584 3137 3096 
Q 3566 2609 3566 1747 
Q 3566 888 3137 398 
Q 2709 -91 1959 -91 
Q 1206 -91 779 398 
Q 353 888 353 1747 
Q 353 2609 779 3096 
Q 1206 3584 1959 3584 
z
" transform="scale(0.015625)"/>
     <path id="DejaVuSans-75" d="M 544 1381 
L 544 3500 
L 1119 3500 
L 1119 1403 
Q 1119 906 1312 657 
Q 1506 409 1894 409 
Q 2359 409 2629 706 
Q 2900 1003 2900 1516 
L 2900 3500 
L 3475 3500 
L 3475 0 
L 2900 0 
L 2900 538 
Q 2691 219 2414 64 
Q 2138 -91 1772 -91 
Q 1169 -91 856 284 
Q 544 659 544 1381 
z
M 1991 3584 
L 1991 3584 
z
" transform="scale(0.015625)"/>
     <path id="DejaVuSans-6e" d="M 3513 2113 
L 3513 0 
L 2938 0 
L 2938 2094 
Q 2938 2591 2744 2837 
Q 2550 3084 2163 3084 
Q 1697 3084 1428 2787 
Q 1159 2491 1159 1978 
L 1159 0 
L 581 0 
L 581 3500 
L 1159 3500 
L 1159 2956 
Q 1366 3272 1645 3428 
Q 1925 3584 2291 3584 
Q 2894 3584 3203 3211 
Q 3513 2838 3513 2113 
z
" transform="scale(0.015625)"/>
     <path id="DejaVuSans-63" d="M 3122 3366 
L 3122 2828 
Q 2878 2963 2633 3030 
Q 2388 3097 2138 3097 
Q 1578 3097 1268 2742 
Q 959 2388 959 1747 
Q 959 1106 1268 751 
Q 1578 397 2138 397 
Q 2388 397 2633 464 
Q 2878 531 3122 666 
L 3122 134 
Q 2881 22 2623 -34 
Q 2366 -91 2075 -91 
Q 1284 -91 818 406 
Q 353 903 353 1747 
Q 353 2603 823 3093 
Q 1294 3584 2113 3584 
Q 2378 3584 2631 3529 
Q 2884 3475 3122 3366 
z
" transform="scale(0.015625)"/>
     <path id="DejaVuSans-66" d="M 2375 4863 
L 2375 4384 
L 1825 4384 
Q 1516 4384 1395 4259 
Q 1275 4134 1275 3809 
L 1275 3500 
L 2222 3500 
L 2222 3053 
L 1275 3053 
L 1275 0 
L 697 0 
L 697 3053 
L 147 3053 
L 147 3500 
L 697 3500 
L 697 3744 
Q 697 4328 969 4595 
Q 1241 4863 1831 4863 
L 2375 4863 
z
" transform="scale(0.015625)"/>
    </defs>
    <use xlink:href="#DejaVuSans-41"/>
    <use xlink:href="#DejaVuSans-49" x="68.408203"/>
    <use xlink:href="#DejaVuSans-2d" x="97.900391"/>
    <use xlink:href="#DejaVuSans-72" x="133.984375"/>
    <use xlink:href="#DejaVuSans-65" x="172.847656"/>
    <use xlink:href="#DejaVuSans-6c" x="234.371094"/>
    <use xlink:href="#DejaVuSans-61" x="262.154297"/>
    <use xlink:href="#DejaVuSans-74" x="323.433594"/>
    <use xlink:href="#DejaVuSans-65" x="362.642578"/>
    <use xlink:href="#DejaVuSans-64" x="424.166016"/>
    <use xlink:href="#DejaVuSans-20" x="487.642578"/>
    <use xlink:href="#DejaVuSans-74" x="519.429688"/>
    <use xlink:href="#DejaVuSans-65" x="558.638672"/>
    <use xlink:href="#DejaVuSans-72" x="620.162109"/>
    <use xlink:href="#DejaVuSans-6d" x="659.525391"/>
    <use xlink:href="#DejaVuSans-73" x="756.9375"/>
    <use xlink:href="#DejaVuSans-20" x="809.037109"/>
    <use xlink:href="#DejaVuSans-62" x="840.824219"/>
    <use xlink:href="#DejaVuSans-79" x="904.300781"/>
    <use xlink:href="#DejaVuSans-20" x="963.480469"/>
    <use xlink:href="#DejaVuSans-6a" x="995.267578"/>
    <use xlink:href="#DejaVuSans-6f" x="1023.050781"/>
    <use xlink:href="#DejaVuSans-75" x="1084.232422"/>
    <use xlink:href="#DejaVuSans-72" x="1147.611328"/>
    <use xlink:href="#DejaVuSans-6e" x="1186.974609"/>
    <use xlink:href="#DejaVuSans-61" x="1250.353516"/>
    <use xlink:href="#DejaVuSans-6c" x="1311.632812"/>
    <use xlink:href="#DejaVuSans-20" x="1339.416016"/>
    <use xlink:href="#DejaVuSans-63" x="1371.203125"/>
    <use xlink:href="#DejaVuSans-75" x="1426.183594"/>
    <use xlink:href="#DejaVuSans-74" x="1489.5625"/>
    <use xlink:href="#DejaVuSans-6f" x="1528.771484"/>
    <use xlink:href="#DejaVuSans-66" x="1589.953125"/>
    <use xlink:href="#DejaVuSans-66" x="1625.158203"/>
   </g>
  </g>
  <g id="text_16">
   <!-- 12-month rolling share in the top 50, 100, and 150 core and adjacent journal sets -->
   <g style="fill: #5d5a56" transform="translate(38.376 136.08) scale(0.152 -0.152)">
    <defs>
     <path id="DejaVuSans-69" d="M 603 3500 
L 1178 3500 
L 1178 0 
L 603 0 
L 603 3500 
z
M 603 4863 
L 1178 4863 
L 1178 4134 
L 603 4134 
L 603 4863 
z
" transform="scale(0.015625)"/>
     <path id="DejaVuSans-67" d="M 2906 1791 
Q 2906 2416 2648 2759 
Q 2391 3103 1925 3103 
Q 1463 3103 1205 2759 
Q 947 2416 947 1791 
Q 947 1169 1205 825 
Q 1463 481 1925 481 
Q 2391 481 2648 825 
Q 2906 1169 2906 1791 
z
M 3481 434 
Q 3481 -459 3084 -895 
Q 2688 -1331 1869 -1331 
Q 1566 -1331 1297 -1286 
Q 1028 -1241 775 -1147 
L 775 -588 
Q 1028 -725 1275 -790 
Q 1522 -856 1778 -856 
Q 2344 -856 2625 -561 
Q 2906 -266 2906 331 
L 2906 616 
Q 2728 306 2450 153 
Q 2172 0 1784 0 
Q 1141 0 747 490 
Q 353 981 353 1791 
Q 353 2603 747 3093 
Q 1141 3584 1784 3584 
Q 2172 3584 2450 3431 
Q 2728 3278 2906 2969 
L 2906 3500 
L 3481 3500 
L 3481 434 
z
" transform="scale(0.015625)"/>
     <path id="DejaVuSans-70" d="M 1159 525 
L 1159 -1331 
L 581 -1331 
L 581 3500 
L 1159 3500 
L 1159 2969 
Q 1341 3281 1617 3432 
Q 1894 3584 2278 3584 
Q 2916 3584 3314 3078 
Q 3713 2572 3713 1747 
Q 3713 922 3314 415 
Q 2916 -91 2278 -91 
Q 1894 -91 1617 61 
Q 1341 213 1159 525 
z
M 3116 1747 
Q 3116 2381 2855 2742 
Q 2594 3103 2138 3103 
Q 1681 3103 1420 2742 
Q 1159 2381 1159 1747 
Q 1159 1113 1420 752 
Q 1681 391 2138 391 
Q 2594 391 2855 752 
Q 3116 1113 3116 1747 
z
" transform="scale(0.015625)"/>
     <path id="DejaVuSans-2c" d="M 750 794 
L 1409 794 
L 1409 256 
L 897 -744 
L 494 -744 
L 750 256 
L 750 794 
z
" transform="scale(0.015625)"/>
    </defs>
    <use xlink:href="#DejaVuSans-31"/>
    <use xlink:href="#DejaVuSans-32" x="63.623047"/>
    <use xlink:href="#DejaVuSans-2d" x="127.246094"/>
    <use xlink:href="#DejaVuSans-6d" x="163.330078"/>
    <use xlink:href="#DejaVuSans-6f" x="260.742188"/>
    <use xlink:href="#DejaVuSans-6e" x="321.923828"/>
    <use xlink:href="#DejaVuSans-74" x="385.302734"/>
    <use xlink:href="#DejaVuSans-68" x="424.511719"/>
    <use xlink:href="#DejaVuSans-20" x="487.890625"/>
    <use xlink:href="#DejaVuSans-72" x="519.677734"/>
    <use xlink:href="#DejaVuSans-6f" x="558.541016"/>
    <use xlink:href="#DejaVuSans-6c" x="619.722656"/>
    <use xlink:href="#DejaVuSans-6c" x="647.505859"/>
    <use xlink:href="#DejaVuSans-69" x="675.289062"/>
    <use xlink:href="#DejaVuSans-6e" x="703.072266"/>
    <use xlink:href="#DejaVuSans-67" x="766.451172"/>
    <use xlink:href="#DejaVuSans-20" x="829.927734"/>
    <use xlink:href="#DejaVuSans-73" x="861.714844"/>
    <use xlink:href="#DejaVuSans-68" x="913.814453"/>
    <use xlink:href="#DejaVuSans-61" x="977.193359"/>
    <use xlink:href="#DejaVuSans-72" x="1038.472656"/>
    <use xlink:href="#DejaVuSans-65" x="1077.335938"/>
    <use xlink:href="#DejaVuSans-20" x="1138.859375"/>
    <use xlink:href="#DejaVuSans-69" x="1170.646484"/>
    <use xlink:href="#DejaVuSans-6e" x="1198.429688"/>
    <use xlink:href="#DejaVuSans-20" x="1261.808594"/>
    <use xlink:href="#DejaVuSans-74" x="1293.595703"/>
    <use xlink:href="#DejaVuSans-68" x="1332.804688"/>
    <use xlink:href="#DejaVuSans-65" x="1396.183594"/>
    <use xlink:href="#DejaVuSans-20" x="1457.707031"/>
    <use xlink:href="#DejaVuSans-74" x="1489.494141"/>
    <use xlink:href="#DejaVuSans-6f" x="1528.703125"/>
    <use xlink:href="#DejaVuSans-70" x="1589.884766"/>
    <use xlink:href="#DejaVuSans-20" x="1653.361328"/>
    <use xlink:href="#DejaVuSans-35" x="1685.148438"/>
    <use xlink:href="#DejaVuSans-30" x="1748.771484"/>
    <use xlink:href="#DejaVuSans-2c" x="1812.394531"/>
    <use xlink:href="#DejaVuSans-20" x="1844.181641"/>
    <use xlink:href="#DejaVuSans-31" x="1875.96875"/>
    <use xlink:href="#DejaVuSans-30" x="1939.591797"/>
    <use xlink:href="#DejaVuSans-30" x="2003.214844"/>
    <use xlink:href="#DejaVuSans-2c" x="2066.837891"/>
    <use xlink:href="#DejaVuSans-20" x="2098.625"/>
    <use xlink:href="#DejaVuSans-61" x="2130.412109"/>
    <use xlink:href="#DejaVuSans-6e" x="2191.691406"/>
    <use xlink:href="#DejaVuSans-64" x="2255.070312"/>
    <use xlink:href="#DejaVuSans-20" x="2318.546875"/>
    <use xlink:href="#DejaVuSans-31" x="2350.333984"/>
    <use xlink:href="#DejaVuSans-35" x="2413.957031"/>
    <use xlink:href="#DejaVuSans-30" x="2477.580078"/>
    <use xlink:href="#DejaVuSans-20" x="2541.203125"/>
    <use xlink:href="#DejaVuSans-63" x="2572.990234"/>
    <use xlink:href="#DejaVuSans-6f" x="2627.970703"/>
    <use xlink:href="#DejaVuSans-72" x="2689.152344"/>
    <use xlink:href="#DejaVuSans-65" x="2728.015625"/>
    <use xlink:href="#DejaVuSans-20" x="2789.539062"/>
    <use xlink:href="#DejaVuSans-61" x="2821.326172"/>
    <use xlink:href="#DejaVuSans-6e" x="2882.605469"/>
    <use xlink:href="#DejaVuSans-64" x="2945.984375"/>
    <use xlink:href="#DejaVuSans-20" x="3009.460938"/>
    <use xlink:href="#DejaVuSans-61" x="3041.248047"/>
    <use xlink:href="#DejaVuSans-64" x="3102.527344"/>
    <use xlink:href="#DejaVuSans-6a" x="3166.003906"/>
    <use xlink:href="#DejaVuSans-61" x="3193.787109"/>
    <use xlink:href="#DejaVuSans-63" x="3255.066406"/>
    <use xlink:href="#DejaVuSans-65" x="3310.046875"/>
    <use xlink:href="#DejaVuSans-6e" x="3371.570312"/>
    <use xlink:href="#DejaVuSans-74" x="3434.949219"/>
    <use xlink:href="#DejaVuSans-20" x="3474.158203"/>
    <use xlink:href="#DejaVuSans-6a" x="3505.945312"/>
    <use xlink:href="#DejaVuSans-6f" x="3533.728516"/>
    <use xlink:href="#DejaVuSans-75" x="3594.910156"/>
    <use xlink:href="#DejaVuSans-72" x="3658.289062"/>
    <use xlink:href="#DejaVuSans-6e" x="3697.652344"/>
    <use xlink:href="#DejaVuSans-61" x="3761.03125"/>
    <use xlink:href="#DejaVuSans-6c" x="3822.310547"/>
    <use xlink:href="#DejaVuSans-20" x="3850.09375"/>
    <use xlink:href="#DejaVuSans-73" x="3881.880859"/>
    <use xlink:href="#DejaVuSans-65" x="3933.980469"/>
    <use xlink:href="#DejaVuSans-74" x="3995.503906"/>
    <use xlink:href="#DejaVuSans-73" x="4034.712891"/>
   </g>
  </g>
  <g id="text_17">
   <!-- Source: Frontier Graph screened corpus -->
   <g style="fill: #5d5a56" transform="translate(38.376 699.2943) scale(0.113 -0.113)">
    <defs>
     <path id="DejaVuSans-53" d="M 3425 4513 
L 3425 3897 
Q 3066 4069 2747 4153 
Q 2428 4238 2131 4238 
Q 1616 4238 1336 4038 
Q 1056 3838 1056 3469 
Q 1056 3159 1242 3001 
Q 1428 2844 1947 2747 
L 2328 2669 
Q 3034 2534 3370 2195 
Q 3706 1856 3706 1288 
Q 3706 609 3251 259 
Q 2797 -91 1919 -91 
Q 1588 -91 1214 -16 
Q 841 59 441 206 
L 441 856 
Q 825 641 1194 531 
Q 1563 422 1919 422 
Q 2459 422 2753 634 
Q 3047 847 3047 1241 
Q 3047 1584 2836 1778 
Q 2625 1972 2144 2069 
L 1759 2144 
Q 1053 2284 737 2584 
Q 422 2884 422 3419 
Q 422 4038 858 4394 
Q 1294 4750 2059 4750 
Q 2388 4750 2728 4690 
Q 3069 4631 3425 4513 
z
" transform="scale(0.015625)"/>
     <path id="DejaVuSans-3a" d="M 750 794 
L 1409 794 
L 1409 0 
L 750 0 
L 750 794 
z
M 750 3309 
L 1409 3309 
L 1409 2516 
L 750 2516 
L 750 3309 
z
" transform="scale(0.015625)"/>
     <path id="DejaVuSans-46" d="M 628 4666 
L 3309 4666 
L 3309 4134 
L 1259 4134 
L 1259 2759 
L 3109 2759 
L 3109 2228 
L 1259 2228 
L 1259 0 
L 628 0 
L 628 4666 
z
" transform="scale(0.015625)"/>
    </defs>
    <use xlink:href="#DejaVuSans-53"/>
    <use xlink:href="#DejaVuSans-6f" x="63.476562"/>
    <use xlink:href="#DejaVuSans-75" x="124.658203"/>
    <use xlink:href="#DejaVuSans-72" x="188.037109"/>
    <use xlink:href="#DejaVuSans-63" x="226.900391"/>
    <use xlink:href="#DejaVuSans-65" x="281.880859"/>
    <use xlink:href="#DejaVuSans-3a" x="343.404297"/>
    <use xlink:href="#DejaVuSans-20" x="377.095703"/>
    <use xlink:href="#DejaVuSans-46" x="408.882812"/>
    <use xlink:href="#DejaVuSans-72" x="459.152344"/>
    <use xlink:href="#DejaVuSans-6f" x="498.015625"/>
    <use xlink:href="#DejaVuSans-6e" x="559.197266"/>
    <use xlink:href="#DejaVuSans-74" x="622.576172"/>
    <use xlink:href="#DejaVuSans-69" x="661.785156"/>
    <use xlink:href="#DejaVuSans-65" x="689.568359"/>
    <use xlink:href="#DejaVuSans-72" x="751.091797"/>
    <use xlink:href="#DejaVuSans-20" x="792.205078"/>
    <use xlink:href="#DejaVuSans-47" x="823.992188"/>
    <use xlink:href="#DejaVuSans-72" x="901.482422"/>
    <use xlink:href="#DejaVuSans-61" x="942.595703"/>
    <use xlink:href="#DejaVuSans-70" x="1003.875"/>
    <use xlink:href="#DejaVuSans-68" x="1067.351562"/>
    <use xlink:href="#DejaVuSans-20" x="1130.730469"/>
    <use xlink:href="#DejaVuSans-73" x="1162.517578"/>
    <use xlink:href="#DejaVuSans-63" x="1214.617188"/>
    <use xlink:href="#DejaVuSans-72" x="1269.597656"/>
    <use xlink:href="#DejaVuSans-65" x="1308.460938"/>
    <use xlink:href="#DejaVuSans-65" x="1369.984375"/>
    <use xlink:href="#DejaVuSans-6e" x="1431.507812"/>
    <use xlink:href="#DejaVuSans-65" x="1494.886719"/>
    <use xlink:href="#DejaVuSans-64" x="1556.410156"/>
    <use xlink:href="#DejaVuSans-20" x="1619.886719"/>
    <use xlink:href="#DejaVuSans-63" x="1651.673828"/>
    <use xlink:href="#DejaVuSans-6f" x="1706.654297"/>
    <use xlink:href="#DejaVuSans-72" x="1767.835938"/>
    <use xlink:href="#DejaVuSans-70" x="1808.949219"/>
    <use xlink:href="#DejaVuSans-75" x="1872.425781"/>
    <use xlink:href="#DejaVuSans-73" x="1935.804688"/>
   </g>
   <!-- * Cutoffs are nested subsets of the mean-FWCI ranked source lists used to build the current corpus. -->
   <g style="fill: #5d5a56" transform="translate(38.376 713.8368) scale(0.113 -0.113)">
    <defs>
     <path id="DejaVuSans-2a" d="M 3009 3897 
L 1888 3291 
L 3009 2681 
L 2828 2375 
L 1778 3009 
L 1778 1831 
L 1422 1831 
L 1422 3009 
L 372 2375 
L 191 2681 
L 1313 3291 
L 191 3897 
L 372 4206 
L 1422 3572 
L 1422 4750 
L 1778 4750 
L 1778 3572 
L 2828 4206 
L 3009 3897 
z
" transform="scale(0.015625)"/>
     <path id="DejaVuSans-57" d="M 213 4666 
L 850 4666 
L 1831 722 
L 2809 4666 
L 3519 4666 
L 4500 722 
L 5478 4666 
L 6119 4666 
L 4947 0 
L 4153 0 
L 3169 4050 
L 2175 0 
L 1381 0 
L 213 4666 
z
" transform="scale(0.015625)"/>
     <path id="DejaVuSans-6b" d="M 581 4863 
L 1159 4863 
L 1159 1991 
L 2875 3500 
L 3609 3500 
L 1753 1863 
L 3688 0 
L 2938 0 
L 1159 1709 
L 1159 0 
L 581 0 
L 581 4863 
z
" transform="scale(0.015625)"/>
     <path id="DejaVuSans-2e" d="M 684 794 
L 1344 794 
L 1344 0 
L 684 0 
L 684 794 
z
" transform="scale(0.015625)"/>
    </defs>
    <use xlink:href="#DejaVuSans-2a"/>
    <use xlink:href="#DejaVuSans-20" x="50"/>
    <use xlink:href="#DejaVuSans-43" x="81.787109"/>
    <use xlink:href="#DejaVuSans-75" x="151.611328"/>
    <use xlink:href="#DejaVuSans-74" x="214.990234"/>
    <use xlink:href="#DejaVuSans-6f" x="254.199219"/>
    <use xlink:href="#DejaVuSans-66" x="315.380859"/>
    <use xlink:href="#DejaVuSans-66" x="350.585938"/>
    <use xlink:href="#DejaVuSans-73" x="385.791016"/>
    <use xlink:href="#DejaVuSans-20" x="437.890625"/>
    <use xlink:href="#DejaVuSans-61" x="469.677734"/>
    <use xlink:href="#DejaVuSans-72" x="530.957031"/>
    <use xlink:href="#DejaVuSans-65" x="569.820312"/>
    <use xlink:href="#DejaVuSans-20" x="631.34375"/>
    <use xlink:href="#DejaVuSans-6e" x="663.130859"/>
    <use xlink:href="#DejaVuSans-65" x="726.509766"/>
    <use xlink:href="#DejaVuSans-73" x="788.033203"/>
    <use xlink:href="#DejaVuSans-74" x="840.132812"/>
    <use xlink:href="#DejaVuSans-65" x="879.341797"/>
    <use xlink:href="#DejaVuSans-64" x="940.865234"/>
    <use xlink:href="#DejaVuSans-20" x="1004.341797"/>
    <use xlink:href="#DejaVuSans-73" x="1036.128906"/>
    <use xlink:href="#DejaVuSans-75" x="1088.228516"/>
    <use xlink:href="#DejaVuSans-62" x="1151.607422"/>
    <use xlink:href="#DejaVuSans-73" x="1215.083984"/>
    <use xlink:href="#DejaVuSans-65" x="1267.183594"/>
    <use xlink:href="#DejaVuSans-74" x="1328.707031"/>
    <use xlink:href="#DejaVuSans-73" x="1367.916016"/>
    <use xlink:href="#DejaVuSans-20" x="1420.015625"/>
    <use xlink:href="#DejaVuSans-6f" x="1451.802734"/>
    <use xlink:href="#DejaVuSans-66" x="1512.984375"/>
    <use xlink:href="#DejaVuSans-20" x="1548.189453"/>
    <use xlink:href="#DejaVuSans-74" x="1579.976562"/>
    <use xlink:href="#DejaVuSans-68" x="1619.185547"/>
    <use xlink:href="#DejaVuSans-65" x="1682.564453"/>
    <use xlink:href="#DejaVuSans-20" x="1744.087891"/>
    <use xlink:href="#DejaVuSans-6d" x="1775.875"/>
    <use xlink:href="#DejaVuSans-65" x="1873.287109"/>
    <use xlink:href="#DejaVuSans-61" x="1934.810547"/>
    <use xlink:href="#DejaVuSans-6e" x="1996.089844"/>
    <use xlink:href="#DejaVuSans-2d" x="2059.46875"/>
    <use xlink:href="#DejaVuSans-46" x="2095.552734"/>
    <use xlink:href="#DejaVuSans-57" x="2153.072266"/>
    <use xlink:href="#DejaVuSans-43" x="2251.949219"/>
    <use xlink:href="#DejaVuSans-49" x="2321.773438"/>
    <use xlink:href="#DejaVuSans-20" x="2351.265625"/>
    <use xlink:href="#DejaVuSans-72" x="2383.052734"/>
    <use xlink:href="#DejaVuSans-61" x="2424.166016"/>
    <use xlink:href="#DejaVuSans-6e" x="2485.445312"/>
    <use xlink:href="#DejaVuSans-6b" x="2548.824219"/>
    <use xlink:href="#DejaVuSans-65" x="2603.109375"/>
    <use xlink:href="#DejaVuSans-64" x="2664.632812"/>
    <use xlink:href="#DejaVuSans-20" x="2728.109375"/>
    <use xlink:href="#DejaVuSans-73" x="2759.896484"/>
    <use xlink:href="#DejaVuSans-6f" x="2811.996094"/>
    <use xlink:href="#DejaVuSans-75" x="2873.177734"/>
    <use xlink:href="#DejaVuSans-72" x="2936.556641"/>
    <use xlink:href="#DejaVuSans-63" x="2975.419922"/>
    <use xlink:href="#DejaVuSans-65" x="3030.400391"/>
    <use xlink:href="#DejaVuSans-20" x="3091.923828"/>
    <use xlink:href="#DejaVuSans-6c" x="3123.710938"/>
    <use xlink:href="#DejaVuSans-69" x="3151.494141"/>
    <use xlink:href="#DejaVuSans-73" x="3179.277344"/>
    <use xlink:href="#DejaVuSans-74" x="3231.376953"/>
    <use xlink:href="#DejaVuSans-73" x="3270.585938"/>
    <use xlink:href="#DejaVuSans-20" x="3322.685547"/>
    <use xlink:href="#DejaVuSans-75" x="3354.472656"/>
    <use xlink:href="#DejaVuSans-73" x="3417.851562"/>
    <use xlink:href="#DejaVuSans-65" x="3469.951172"/>
    <use xlink:href="#DejaVuSans-64" x="3531.474609"/>
    <use xlink:href="#DejaVuSans-20" x="3594.951172"/>
    <use xlink:href="#DejaVuSans-74" x="3626.738281"/>
    <use xlink:href="#DejaVuSans-6f" x="3665.947266"/>
    <use xlink:href="#DejaVuSans-20" x="3727.128906"/>
    <use xlink:href="#DejaVuSans-62" x="3758.916016"/>
    <use xlink:href="#DejaVuSans-75" x="3822.392578"/>
    <use xlink:href="#DejaVuSans-69" x="3885.771484"/>
    <use xlink:href="#DejaVuSans-6c" x="3913.554688"/>
    <use xlink:href="#DejaVuSans-64" x="3941.337891"/>
    <use xlink:href="#DejaVuSans-20" x="4004.814453"/>
    <use xlink:href="#DejaVuSans-74" x="4036.601562"/>
    <use xlink:href="#DejaVuSans-68" x="4075.810547"/>
    <use xlink:href="#DejaVuSans-65" x="4139.189453"/>
    <use xlink:href="#DejaVuSans-20" x="4200.712891"/>
    <use xlink:href="#DejaVuSans-63" x="4232.5"/>
    <use xlink:href="#DejaVuSans-75" x="4287.480469"/>
    <use xlink:href="#DejaVuSans-72" x="4350.859375"/>
    <use xlink:href="#DejaVuSans-72" x="4390.222656"/>
    <use xlink:href="#DejaVuSans-65" x="4429.085938"/>
    <use xlink:href="#DejaVuSans-6e" x="4490.609375"/>
    <use xlink:href="#DejaVuSans-74" x="4553.988281"/>
    <use xlink:href="#DejaVuSans-20" x="4593.197266"/>
    <use xlink:href="#DejaVuSans-63" x="4624.984375"/>
    <use xlink:href="#DejaVuSans-6f" x="4679.964844"/>
    <use xlink:href="#DejaVuSans-72" x="4741.146484"/>
    <use xlink:href="#DejaVuSans-70" x="4782.259766"/>
    <use xlink:href="#DejaVuSans-75" x="4845.736328"/>
    <use xlink:href="#DejaVuSans-73" x="4909.115234"/>
    <use xlink:href="#DejaVuSans-2e" x="4961.214844"/>
   </g>
  </g>
  <g id="legend_1">
   <g id="line2d_29">
    <path d="M 49.176 190.678125 
L 64.176 190.678125 
L 79.176 190.678125 
" style="fill: none; stroke: #0f2e67; stroke-width: 3.6; stroke-linecap: square"/>
   </g>
   <g id="text_18">
    <!-- core 50 -->
    <g style="fill: #152238" transform="translate(88.776 194.878125) scale(0.12 -0.12)">
     <use xlink:href="#DejaVuSans-63"/>
     <use xlink:href="#DejaVuSans-6f" x="54.980469"/>
     <use xlink:href="#DejaVuSans-72" x="116.162109"/>
     <use xlink:href="#DejaVuSans-65" x="155.025391"/>
     <use xlink:href="#DejaVuSans-20" x="216.548828"/>
     <use xlink:href="#DejaVuSans-35" x="248.335938"/>
     <use xlink:href="#DejaVuSans-30" x="311.958984"/>
    </g>
   </g>
   <g id="line2d_30">
    <path d="M 49.176 208.291875 
L 64.176 208.291875 
L 79.176 208.291875 
" style="fill: none; stroke: #3d69b5; stroke-width: 3.6; stroke-linecap: square"/>
   </g>
   <g id="text_19">
    <!-- core 100 -->
    <g style="fill: #152238" transform="translate(88.776 212.491875) scale(0.12 -0.12)">
     <use xlink:href="#DejaVuSans-63"/>
     <use xlink:href="#DejaVuSans-6f" x="54.980469"/>
     <use xlink:href="#DejaVuSans-72" x="116.162109"/>
     <use xlink:href="#DejaVuSans-65" x="155.025391"/>
     <use xlink:href="#DejaVuSans-20" x="216.548828"/>
     <use xlink:href="#DejaVuSans-31" x="248.335938"/>
     <use xlink:href="#DejaVuSans-30" x="311.958984"/>
     <use xlink:href="#DejaVuSans-30" x="375.582031"/>
    </g>
   </g>
   <g id="line2d_31">
    <path d="M 49.176 225.905625 
L 64.176 225.905625 
L 79.176 225.905625 
" style="fill: none; stroke: #a7bfe6; stroke-width: 3.6; stroke-linecap: square"/>
   </g>
   <g id="text_20">
    <!-- core 150 -->
    <g style="fill: #152238" transform="translate(88.776 230.105625) scale(0.12 -0.12)">
     <use xlink:href="#DejaVuSans-63"/>
     <use xlink:href="#DejaVuSans-6f" x="54.980469"/>
     <use xlink:href="#DejaVuSans-72" x="116.162109"/>
     <use xlink:href="#DejaVuSans-65" x="155.025391"/>
     <use xlink:href="#DejaVuSans-20" x="216.548828"/>
     <use xlink:href="#DejaVuSans-31" x="248.335938"/>
     <use xlink:href="#DejaVuSans-35" x="311.958984"/>
     <use xlink:href="#DejaVuSans-30" x="375.582031"/>
    </g>
   </g>
   <g id="line2d_32">
    <path d="M 165.48225 190.678125 
L 180.48225 190.678125 
L 195.48225 190.678125 
" style="fill: none; stroke: #0e6568; stroke-width: 3.6; stroke-linecap: square"/>
   </g>
   <g id="text_21">
    <!-- adjacent 50 -->
    <g style="fill: #152238" transform="translate(205.08225 194.878125) scale(0.12 -0.12)">
     <use xlink:href="#DejaVuSans-61"/>
     <use xlink:href="#DejaVuSans-64" x="61.279297"/>
     <use xlink:href="#DejaVuSans-6a" x="124.755859"/>
     <use xlink:href="#DejaVuSans-61" x="152.539062"/>
     <use xlink:href="#DejaVuSans-63" x="213.818359"/>
     <use xlink:href="#DejaVuSans-65" x="268.798828"/>
     <use xlink:href="#DejaVuSans-6e" x="330.322266"/>
     <use xlink:href="#DejaVuSans-74" x="393.701172"/>
     <use xlink:href="#DejaVuSans-20" x="432.910156"/>
     <use xlink:href="#DejaVuSans-35" x="464.697266"/>
     <use xlink:href="#DejaVuSans-30" x="528.320312"/>
    </g>
   </g>
   <g id="line2d_33">
    <path d="M 165.48225 208.291875 
L 180.48225 208.291875 
L 195.48225 208.291875 
" style="fill: none; stroke: #1da0a4; stroke-width: 3.6; stroke-linecap: square"/>
   </g>
   <g id="text_22">
    <!-- adjacent 100 -->
    <g style="fill: #152238" transform="translate(205.08225 212.491875) scale(0.12 -0.12)">
     <use xlink:href="#DejaVuSans-61"/>
     <use xlink:href="#DejaVuSans-64" x="61.279297"/>
     <use xlink:href="#DejaVuSans-6a" x="124.755859"/>
     <use xlink:href="#DejaVuSans-61" x="152.539062"/>
     <use xlink:href="#DejaVuSans-63" x="213.818359"/>
     <use xlink:href="#DejaVuSans-65" x="268.798828"/>
     <use xlink:href="#DejaVuSans-6e" x="330.322266"/>
     <use xlink:href="#DejaVuSans-74" x="393.701172"/>
     <use xlink:href="#DejaVuSans-20" x="432.910156"/>
     <use xlink:href="#DejaVuSans-31" x="464.697266"/>
     <use xlink:href="#DejaVuSans-30" x="528.320312"/>
     <use xlink:href="#DejaVuSans-30" x="591.943359"/>
    </g>
   </g>
   <g id="line2d_34">
    <path d="M 165.48225 225.905625 
L 180.48225 225.905625 
L 195.48225 225.905625 
" style="fill: none; stroke: #92dddf; stroke-width: 3.6; stroke-linecap: square"/>
   </g>
   <g id="text_23">
    <!-- adjacent 150 -->
    <g style="fill: #152238" transform="translate(205.08225 230.105625) scale(0.12 -0.12)">
     <use xlink:href="#DejaVuSans-61"/>
     <use xlink:href="#DejaVuSans-64" x="61.279297"/>
     <use xlink:href="#DejaVuSans-6a" x="124.755859"/>
     <use xlink:href="#DejaVuSans-61" x="152.539062"/>
     <use xlink:href="#DejaVuSans-63" x="213.818359"/>
     <use xlink:href="#DejaVuSans-65" x="268.798828"/>
     <use xlink:href="#DejaVuSans-6e" x="330.322266"/>
     <use xlink:href="#DejaVuSans-74" x="393.701172"/>
     <use xlink:href="#DejaVuSans-20" x="432.910156"/>
     <use xlink:href="#DejaVuSans-31" x="464.697266"/>
     <use xlink:href="#DejaVuSans-35" x="528.320312"/>
     <use xlink:href="#DejaVuSans-30" x="591.943359"/>
    </g>
   </g>
  </g>
 </g>
 <defs>
  <clipPath id="pc47faa9aca">
   <rect x="70.848" y="241.056" width="442.8" height="365.472"/>
  </clipPath>
 </defs>
</svg>
