<?xml version="1.0" encoding="utf-8" standalone="no"?>
<!DOCTYPE svg PUBLIC "-//W3C//DTD SVG 1.1//EN"
  "http://www.w3.org/Graphics/SVG/1.1/DTD/svg11.dtd">
<svg xmlns:xlink="http://www.w3.org/1999/xlink" width="878.4pt" height="720pt" viewBox="0 0 878.4 720" xmlns="http://www.w3.org/2000/svg" version="1.1">
 <metadata>
  <rdf:RDF xmlns:dc="http://purl.org/dc/elements/1.1/" xmlns:cc="http://creativecommons.org/ns#" xmlns:rdf="http://www.w3.org/1999/02/22-rdf-syntax-ns#">
   <cc:Work>
    <dc:type rdf:resource="http://purl.org/dc/dcmitype/StillImage"/>
    <dc:date>2026-03-19T19:08:40.188807</dc:date>
    <dc:format>image/svg+xml</dc:format>
    <dc:creator>
     <cc:Agent>
      <dc:title>Matplotlib v3.9.4, https://matplotlib.org/</dc:title>
     </cc:Agent>
    </dc:creator>
   </cc:Work>
  </rdf:RDF>
 </metadata>
 <defs>
  <style type="text/css">*{stroke-linejoin: round; stroke-linecap: butt}</style>
 </defs>
 <g id="figure_1">
  <g id="patch_1">
   <path d="M 0 720 
L 878.4 720 
L 878.4 0 
L 0 0 
z
" style="fill: #f4f8fb"/>
  </g>
  <g id="axes_1">
   <g id="patch_2">
    <path d="M 70.272 273.255777 
L 424.855486 273.255777 
L 424.855486 187.2 
L 70.272 187.2 
z
" style="fill: #ffffff"/>
   </g>
   <g id="line2d_1">
    <path d="M 323.358262 273.255777 
L 323.358262 187.2 
" clip-path="url(#pef490ee101)" style="fill: none; stroke-dasharray: 2.4,2.4; stroke-dashoffset: 0; stroke: #8396a8; stroke-width: 1.2"/>
   </g>
   <g id="matplotlib.axis_1">
    <g id="xtick_1">
     <g id="line2d_2"/>
     <g id="text_1">
      <!-- 2016 -->
      <g style="fill: #627588" transform="translate(90.783682 283.594371) scale(0.09 -0.09)">
       <defs>
        <path id="DejaVuSans-32" d="M 1228 531 
L 3431 531 
L 3431 0 
L 469 0 
L 469 531 
Q 828 903 1448 1529 
Q 2069 2156 2228 2338 
Q 2531 2678 2651 2914 
Q 2772 3150 2772 3378 
Q 2772 3750 2511 3984 
Q 2250 4219 1831 4219 
Q 1534 4219 1204 4116 
Q 875 4013 500 3803 
L 500 4441 
Q 881 4594 1212 4672 
Q 1544 4750 1819 4750 
Q 2544 4750 2975 4387 
Q 3406 4025 3406 3419 
Q 3406 3131 3298 2873 
Q 3191 2616 2906 2266 
Q 2828 2175 2409 1742 
Q 1991 1309 1228 531 
z
" transform="scale(0.015625)"/>
        <path id="DejaVuSans-30" d="M 2034 4250 
Q 1547 4250 1301 3770 
Q 1056 3291 1056 2328 
Q 1056 1369 1301 889 
Q 1547 409 2034 409 
Q 2525 409 2770 889 
Q 3016 1369 3016 2328 
Q 3016 3291 2770 3770 
Q 2525 4250 2034 4250 
z
M 2034 4750 
Q 2819 4750 3233 4129 
Q 3647 3509 3647 2328 
Q 3647 1150 3233 529 
Q 2819 -91 2034 -91 
Q 1250 -91 836 529 
Q 422 1150 422 2328 
Q 422 3509 836 4129 
Q 1250 4750 2034 4750 
z
" transform="scale(0.015625)"/>
        <path id="DejaVuSans-31" d="M 794 531 
L 1825 531 
L 1825 4091 
L 703 3866 
L 703 4441 
L 1819 4666 
L 2450 4666 
L 2450 531 
L 3481 531 
L 3481 0 
L 794 0 
L 794 531 
z
" transform="scale(0.015625)"/>
        <path id="DejaVuSans-36" d="M 2113 2584 
Q 1688 2584 1439 2293 
Q 1191 2003 1191 1497 
Q 1191 994 1439 701 
Q 1688 409 2113 409 
Q 2538 409 2786 701 
Q 3034 994 3034 1497 
Q 3034 2003 2786 2293 
Q 2538 2584 2113 2584 
z
M 3366 4563 
L 3366 3988 
Q 3128 4100 2886 4159 
Q 2644 4219 2406 4219 
Q 1781 4219 1451 3797 
Q 1122 3375 1075 2522 
Q 1259 2794 1537 2939 
Q 1816 3084 2150 3084 
Q 2853 3084 3261 2657 
Q 3669 2231 3669 1497 
Q 3669 778 3244 343 
Q 2819 -91 2113 -91 
Q 1303 -91 875 529 
Q 447 1150 447 2328 
Q 447 3434 972 4092 
Q 1497 4750 2381 4750 
Q 2619 4750 2861 4703 
Q 3103 4656 3366 4563 
z
" transform="scale(0.015625)"/>
       </defs>
       <use xlink:href="#DejaVuSans-32"/>
       <use xlink:href="#DejaVuSans-30" x="63.623047"/>
       <use xlink:href="#DejaVuSans-31" x="127.246094"/>
       <use xlink:href="#DejaVuSans-36" x="190.869141"/>
      </g>
     </g>
    </g>
    <g id="xtick_2">
     <g id="line2d_3"/>
     <g id="text_2">
      <!-- 2020 -->
      <g style="fill: #627588" transform="translate(218.727983 283.594371) scale(0.09 -0.09)">
       <use xlink:href="#DejaVuSans-32"/>
       <use xlink:href="#DejaVuSans-30" x="63.623047"/>
       <use xlink:href="#DejaVuSans-32" x="127.246094"/>
       <use xlink:href="#DejaVuSans-30" x="190.869141"/>
      </g>
     </g>
    </g>
    <g id="xtick_3">
     <g id="line2d_4"/>
     <g id="text_3">
      <!-- 2024 -->
      <g style="fill: #627588" transform="translate(346.672283 283.594371) scale(0.09 -0.09)">
       <defs>
        <path id="DejaVuSans-34" d="M 2419 4116 
L 825 1625 
L 2419 1625 
L 2419 4116 
z
M 2253 4666 
L 3047 4666 
L 3047 1625 
L 3713 1625 
L 3713 1100 
L 3047 1100 
L 3047 0 
L 2419 0 
L 2419 1100 
L 313 1100 
L 313 1709 
L 2253 4666 
z
" transform="scale(0.015625)"/>
       </defs>
       <use xlink:href="#DejaVuSans-32"/>
       <use xlink:href="#DejaVuSans-30" x="63.623047"/>
       <use xlink:href="#DejaVuSans-32" x="127.246094"/>
       <use xlink:href="#DejaVuSans-34" x="190.869141"/>
      </g>
     </g>
    </g>
   </g>
   <g id="matplotlib.axis_2">
    <g id="ytick_1">
     <g id="line2d_5">
      <path d="M 70.272 273.255777 
L 424.855486 273.255777 
" clip-path="url(#pef490ee101)" style="fill: none; stroke: #d8e3ec; stroke-width: 0.85; stroke-linecap: square"/>
     </g>
     <g id="line2d_6"/>
     <g id="text_4">
      <!-- 0 -->
      <g style="fill: #627588" transform="translate(61.04575 276.675074) scale(0.09 -0.09)">
       <use xlink:href="#DejaVuSans-30"/>
      </g>
     </g>
    </g>
    <g id="ytick_2">
     <g id="line2d_7">
      <path d="M 70.272 248.674415 
L 424.855486 248.674415 
" clip-path="url(#pef490ee101)" style="fill: none; stroke: #d8e3ec; stroke-width: 0.85; stroke-linecap: square"/>
     </g>
     <g id="line2d_8"/>
     <g id="text_5">
      <!-- 2 -->
      <g style="fill: #627588" transform="translate(61.04575 252.093712) scale(0.09 -0.09)">
       <use xlink:href="#DejaVuSans-32"/>
      </g>
     </g>
    </g>
    <g id="ytick_3">
     <g id="line2d_9">
      <path d="M 70.272 224.093053 
L 424.855486 224.093053 
" clip-path="url(#pef490ee101)" style="fill: none; stroke: #d8e3ec; stroke-width: 0.85; stroke-linecap: square"/>
     </g>
     <g id="line2d_10"/>
     <g id="text_6">
      <!-- 5 -->
      <g style="fill: #627588" transform="translate(61.04575 227.51235) scale(0.09 -0.09)">
       <defs>
        <path id="DejaVuSans-35" d="M 691 4666 
L 3169 4666 
L 3169 4134 
L 1269 4134 
L 1269 2991 
Q 1406 3038 1543 3061 
Q 1681 3084 1819 3084 
Q 2600 3084 3056 2656 
Q 3513 2228 3513 1497 
Q 3513 744 3044 326 
Q 2575 -91 1722 -91 
Q 1428 -91 1123 -41 
Q 819 9 494 109 
L 494 744 
Q 775 591 1075 516 
Q 1375 441 1709 441 
Q 2250 441 2565 725 
Q 2881 1009 2881 1497 
Q 2881 1984 2565 2268 
Q 2250 2553 1709 2553 
Q 1456 2553 1204 2497 
Q 953 2441 691 2322 
L 691 4666 
z
" transform="scale(0.015625)"/>
       </defs>
       <use xlink:href="#DejaVuSans-35"/>
      </g>
     </g>
    </g>
    <g id="ytick_4">
     <g id="line2d_11">
      <path d="M 70.272 199.511691 
L 424.855486 199.511691 
" clip-path="url(#pef490ee101)" style="fill: none; stroke: #d8e3ec; stroke-width: 0.85; stroke-linecap: square"/>
     </g>
     <g id="line2d_12"/>
     <g id="text_7">
      <!-- 8 -->
      <g style="fill: #627588" transform="translate(61.04575 202.930988) scale(0.09 -0.09)">
       <defs>
        <path id="DejaVuSans-38" d="M 2034 2216 
Q 1584 2216 1326 1975 
Q 1069 1734 1069 1313 
Q 1069 891 1326 650 
Q 1584 409 2034 409 
Q 2484 409 2743 651 
Q 3003 894 3003 1313 
Q 3003 1734 2745 1975 
Q 2488 2216 2034 2216 
z
M 1403 2484 
Q 997 2584 770 2862 
Q 544 3141 544 3541 
Q 544 4100 942 4425 
Q 1341 4750 2034 4750 
Q 2731 4750 3128 4425 
Q 3525 4100 3525 3541 
Q 3525 3141 3298 2862 
Q 3072 2584 2669 2484 
Q 3125 2378 3379 2068 
Q 3634 1759 3634 1313 
Q 3634 634 3220 271 
Q 2806 -91 2034 -91 
Q 1263 -91 848 271 
Q 434 634 434 1313 
Q 434 1759 690 2068 
Q 947 2378 1403 2484 
z
M 1172 3481 
Q 1172 3119 1398 2916 
Q 1625 2713 2034 2713 
Q 2441 2713 2670 2916 
Q 2900 3119 2900 3481 
Q 2900 3844 2670 4047 
Q 2441 4250 2034 4250 
Q 1625 4250 1398 4047 
Q 1172 3844 1172 3481 
z
" transform="scale(0.015625)"/>
       </defs>
       <use xlink:href="#DejaVuSans-38"/>
      </g>
     </g>
    </g>
   </g>
   <g id="patch_3">
    <path d="M 70.272 273.255777 
L 424.855486 273.255777 
" style="fill: none; stroke: #93a6b8; stroke-linejoin: miter; stroke-linecap: square"/>
   </g>
   <g id="line2d_13">
    <path d="M 70.272 273.255777 
L 208.725073 273.255777 
L 211.439839 265.06199 
L 216.781798 265.06199 
L 219.496564 259.940872 
L 222.123757 259.940872 
L 224.838523 254.088167 
L 240.776828 254.088167 
L 243.491594 262.281955 
L 248.833553 262.281955 
L 251.548319 267.403072 
L 254.175512 267.403072 
L 256.890278 273.255777 
L 264.947004 273.255777 
L 267.399051 266.952864 
L 288.85446 266.952864 
L 291.481653 261.490339 
L 296.911186 261.490339 
L 299.363232 267.793252 
L 302.077999 263.891448 
L 304.705192 259.071574 
L 326.160601 259.071574 
L 328.875367 251.622676 
L 331.327414 244.173778 
L 334.04218 248.075582 
L 336.669373 252.895457 
L 347.440865 252.895457 
L 350.068058 248.343353 
L 352.782824 248.343353 
L 355.410017 253.805878 
L 358.124783 245.61209 
L 360.839549 253.060988 
L 363.379169 254.206972 
L 376.777854 254.206972 
L 379.49262 249.654868 
L 382.119813 254.206972 
L 384.834579 254.206972 
L 387.461772 233.722504 
L 390.176538 241.916291 
L 395.343351 241.916291 
L 398.058117 236.453766 
L 403.400076 211.557258 
L 406.02727 207.005154 
L 408.742036 201.542629 
L 411.456802 206.094734 
L 416.798761 206.094734 
L 419.425954 226.579202 
L 424.855486 226.579202 
L 424.855486 226.579202 
" clip-path="url(#pef490ee101)" style="fill: none; stroke: #24539a; stroke-width: 2.6; stroke-linecap: square"/>
   </g>
   <g id="text_8">
    <!-- 5,697 papers -->
    <g style="fill: #627588" transform="translate(70.272 183.565572) scale(0.092 -0.092)">
     <defs>
      <path id="DejaVuSans-2c" d="M 750 794 
L 1409 794 
L 1409 256 
L 897 -744 
L 494 -744 
L 750 256 
L 750 794 
z
" transform="scale(0.015625)"/>
      <path id="DejaVuSans-39" d="M 703 97 
L 703 672 
Q 941 559 1184 500 
Q 1428 441 1663 441 
Q 2288 441 2617 861 
Q 2947 1281 2994 2138 
Q 2813 1869 2534 1725 
Q 2256 1581 1919 1581 
Q 1219 1581 811 2004 
Q 403 2428 403 3163 
Q 403 3881 828 4315 
Q 1253 4750 1959 4750 
Q 2769 4750 3195 4129 
Q 3622 3509 3622 2328 
Q 3622 1225 3098 567 
Q 2575 -91 1691 -91 
Q 1453 -91 1209 -44 
Q 966 3 703 97 
z
M 1959 2075 
Q 2384 2075 2632 2365 
Q 2881 2656 2881 3163 
Q 2881 3666 2632 3958 
Q 2384 4250 1959 4250 
Q 1534 4250 1286 3958 
Q 1038 3666 1038 3163 
Q 1038 2656 1286 2365 
Q 1534 2075 1959 2075 
z
" transform="scale(0.015625)"/>
      <path id="DejaVuSans-37" d="M 525 4666 
L 3525 4666 
L 3525 4397 
L 1831 0 
L 1172 0 
L 2766 4134 
L 525 4134 
L 525 4666 
z
" transform="scale(0.015625)"/>
      <path id="DejaVuSans-20" transform="scale(0.015625)"/>
      <path id="DejaVuSans-70" d="M 1159 525 
L 1159 -1331 
L 581 -1331 
L 581 3500 
L 1159 3500 
L 1159 2969 
Q 1341 3281 1617 3432 
Q 1894 3584 2278 3584 
Q 2916 3584 3314 3078 
Q 3713 2572 3713 1747 
Q 3713 922 3314 415 
Q 2916 -91 2278 -91 
Q 1894 -91 1617 61 
Q 1341 213 1159 525 
z
M 3116 1747 
Q 3116 2381 2855 2742 
Q 2594 3103 2138 3103 
Q 1681 3103 1420 2742 
Q 1159 2381 1159 1747 
Q 1159 1113 1420 752 
Q 1681 391 2138 391 
Q 2594 391 2855 752 
Q 3116 1113 3116 1747 
z
" transform="scale(0.015625)"/>
      <path id="DejaVuSans-61" d="M 2194 1759 
Q 1497 1759 1228 1600 
Q 959 1441 959 1056 
Q 959 750 1161 570 
Q 1363 391 1709 391 
Q 2188 391 2477 730 
Q 2766 1069 2766 1631 
L 2766 1759 
L 2194 1759 
z
M 3341 1997 
L 3341 0 
L 2766 0 
L 2766 531 
Q 2569 213 2275 61 
Q 1981 -91 1556 -91 
Q 1019 -91 701 211 
Q 384 513 384 1019 
Q 384 1609 779 1909 
Q 1175 2209 1959 2209 
L 2766 2209 
L 2766 2266 
Q 2766 2663 2505 2880 
Q 2244 3097 1772 3097 
Q 1472 3097 1187 3025 
Q 903 2953 641 2809 
L 641 3341 
Q 956 3463 1253 3523 
Q 1550 3584 1831 3584 
Q 2591 3584 2966 3190 
Q 3341 2797 3341 1997 
z
" transform="scale(0.015625)"/>
      <path id="DejaVuSans-65" d="M 3597 1894 
L 3597 1613 
L 953 1613 
Q 991 1019 1311 708 
Q 1631 397 2203 397 
Q 2534 397 2845 478 
Q 3156 559 3463 722 
L 3463 178 
Q 3153 47 2828 -22 
Q 2503 -91 2169 -91 
Q 1331 -91 842 396 
Q 353 884 353 1716 
Q 353 2575 817 3079 
Q 1281 3584 2069 3584 
Q 2775 3584 3186 3129 
Q 3597 2675 3597 1894 
z
M 3022 2063 
Q 3016 2534 2758 2815 
Q 2500 3097 2075 3097 
Q 1594 3097 1305 2825 
Q 1016 2553 972 2059 
L 3022 2063 
z
" transform="scale(0.015625)"/>
      <path id="DejaVuSans-72" d="M 2631 2963 
Q 2534 3019 2420 3045 
Q 2306 3072 2169 3072 
Q 1681 3072 1420 2755 
Q 1159 2438 1159 1844 
L 1159 0 
L 581 0 
L 581 3500 
L 1159 3500 
L 1159 2956 
Q 1341 3275 1631 3429 
Q 1922 3584 2338 3584 
Q 2397 3584 2469 3576 
Q 2541 3569 2628 3553 
L 2631 2963 
z
" transform="scale(0.015625)"/>
      <path id="DejaVuSans-73" d="M 2834 3397 
L 2834 2853 
Q 2591 2978 2328 3040 
Q 2066 3103 1784 3103 
Q 1356 3103 1142 2972 
Q 928 2841 928 2578 
Q 928 2378 1081 2264 
Q 1234 2150 1697 2047 
L 1894 2003 
Q 2506 1872 2764 1633 
Q 3022 1394 3022 966 
Q 3022 478 2636 193 
Q 2250 -91 1575 -91 
Q 1294 -91 989 -36 
Q 684 19 347 128 
L 347 722 
Q 666 556 975 473 
Q 1284 391 1588 391 
Q 1994 391 2212 530 
Q 2431 669 2431 922 
Q 2431 1156 2273 1281 
Q 2116 1406 1581 1522 
L 1381 1569 
Q 847 1681 609 1914 
Q 372 2147 372 2553 
Q 372 3047 722 3315 
Q 1072 3584 1716 3584 
Q 2034 3584 2315 3537 
Q 2597 3491 2834 3397 
z
" transform="scale(0.015625)"/>
     </defs>
     <use xlink:href="#DejaVuSans-35"/>
     <use xlink:href="#DejaVuSans-2c" x="63.623047"/>
     <use xlink:href="#DejaVuSans-36" x="95.410156"/>
     <use xlink:href="#DejaVuSans-39" x="159.033203"/>
     <use xlink:href="#DejaVuSans-37" x="222.65625"/>
     <use xlink:href="#DejaVuSans-20" x="286.279297"/>
     <use xlink:href="#DejaVuSans-70" x="318.066406"/>
     <use xlink:href="#DejaVuSans-61" x="381.542969"/>
     <use xlink:href="#DejaVuSans-70" x="442.822266"/>
     <use xlink:href="#DejaVuSans-65" x="506.298828"/>
     <use xlink:href="#DejaVuSans-72" x="567.822266"/>
     <use xlink:href="#DejaVuSans-73" x="608.935547"/>
    </g>
   </g>
   <g id="text_9">
    <!-- Labour -->
    <g style="fill: #18324a" transform="translate(70.272 179.2) scale(0.123 -0.123)">
     <defs>
      <path id="DejaVuSans-4c" d="M 628 4666 
L 1259 4666 
L 1259 531 
L 3531 531 
L 3531 0 
L 628 0 
L 628 4666 
z
" transform="scale(0.015625)"/>
      <path id="DejaVuSans-62" d="M 3116 1747 
Q 3116 2381 2855 2742 
Q 2594 3103 2138 3103 
Q 1681 3103 1420 2742 
Q 1159 2381 1159 1747 
Q 1159 1113 1420 752 
Q 1681 391 2138 391 
Q 2594 391 2855 752 
Q 3116 1113 3116 1747 
z
M 1159 2969 
Q 1341 3281 1617 3432 
Q 1894 3584 2278 3584 
Q 2916 3584 3314 3078 
Q 3713 2572 3713 1747 
Q 3713 922 3314 415 
Q 2916 -91 2278 -91 
Q 1894 -91 1617 61 
Q 1341 213 1159 525 
L 1159 0 
L 581 0 
L 581 4863 
L 1159 4863 
L 1159 2969 
z
" transform="scale(0.015625)"/>
      <path id="DejaVuSans-6f" d="M 1959 3097 
Q 1497 3097 1228 2736 
Q 959 2375 959 1747 
Q 959 1119 1226 758 
Q 1494 397 1959 397 
Q 2419 397 2687 759 
Q 2956 1122 2956 1747 
Q 2956 2369 2687 2733 
Q 2419 3097 1959 3097 
z
M 1959 3584 
Q 2709 3584 3137 3096 
Q 3566 2609 3566 1747 
Q 3566 888 3137 398 
Q 2709 -91 1959 -91 
Q 1206 -91 779 398 
Q 353 888 353 1747 
Q 353 2609 779 3096 
Q 1206 3584 1959 3584 
z
" transform="scale(0.015625)"/>
      <path id="DejaVuSans-75" d="M 544 1381 
L 544 3500 
L 1119 3500 
L 1119 1403 
Q 1119 906 1312 657 
Q 1506 409 1894 409 
Q 2359 409 2629 706 
Q 2900 1003 2900 1516 
L 2900 3500 
L 3475 3500 
L 3475 0 
L 2900 0 
L 2900 538 
Q 2691 219 2414 64 
Q 2138 -91 1772 -91 
Q 1169 -91 856 284 
Q 544 659 544 1381 
z
M 1991 3584 
L 1991 3584 
z
" transform="scale(0.015625)"/>
     </defs>
     <use xlink:href="#DejaVuSans-4c"/>
     <use xlink:href="#DejaVuSans-61" x="55.712891"/>
     <use xlink:href="#DejaVuSans-62" x="116.992188"/>
     <use xlink:href="#DejaVuSans-6f" x="180.46875"/>
     <use xlink:href="#DejaVuSans-75" x="241.650391"/>
     <use xlink:href="#DejaVuSans-72" x="305.029297"/>
    </g>
   </g>
  </g>
  <g id="axes_2">
   <g id="patch_4">
    <path d="M 488.680514 273.255777 
L 843.264 273.255777 
L 843.264 187.2 
L 488.680514 187.2 
z
" style="fill: #ffffff"/>
   </g>
   <g id="line2d_14">
    <path d="M 741.766776 273.255777 
L 741.766776 187.2 
" clip-path="url(#p2ac0ad2919)" style="fill: none; stroke-dasharray: 2.4,2.4; stroke-dashoffset: 0; stroke: #8396a8; stroke-width: 1.2"/>
   </g>
   <g id="matplotlib.axis_3">
    <g id="xtick_4">
     <g id="line2d_15"/>
     <g id="text_10">
      <!-- 2016 -->
      <g style="fill: #627588" transform="translate(509.192196 283.594371) scale(0.09 -0.09)">
       <use xlink:href="#DejaVuSans-32"/>
       <use xlink:href="#DejaVuSans-30" x="63.623047"/>
       <use xlink:href="#DejaVuSans-31" x="127.246094"/>
       <use xlink:href="#DejaVuSans-36" x="190.869141"/>
      </g>
     </g>
    </g>
    <g id="xtick_5">
     <g id="line2d_16"/>
     <g id="text_11">
      <!-- 2020 -->
      <g style="fill: #627588" transform="translate(637.136496 283.594371) scale(0.09 -0.09)">
       <use xlink:href="#DejaVuSans-32"/>
       <use xlink:href="#DejaVuSans-30" x="63.623047"/>
       <use xlink:href="#DejaVuSans-32" x="127.246094"/>
       <use xlink:href="#DejaVuSans-30" x="190.869141"/>
      </g>
     </g>
    </g>
    <g id="xtick_6">
     <g id="line2d_17"/>
     <g id="text_12">
      <!-- 2024 -->
      <g style="fill: #627588" transform="translate(765.080797 283.594371) scale(0.09 -0.09)">
       <use xlink:href="#DejaVuSans-32"/>
       <use xlink:href="#DejaVuSans-30" x="63.623047"/>
       <use xlink:href="#DejaVuSans-32" x="127.246094"/>
       <use xlink:href="#DejaVuSans-34" x="190.869141"/>
      </g>
     </g>
    </g>
   </g>
   <g id="matplotlib.axis_4">
    <g id="ytick_5">
     <g id="line2d_18">
      <path d="M 488.680514 273.255777 
L 843.264 273.255777 
" clip-path="url(#p2ac0ad2919)" style="fill: none; stroke: #d8e3ec; stroke-width: 0.85; stroke-linecap: square"/>
     </g>
     <g id="line2d_19"/>
     <g id="text_13">
      <!-- 0 -->
      <g style="fill: #627588" transform="translate(479.454264 276.675074) scale(0.09 -0.09)">
       <use xlink:href="#DejaVuSans-30"/>
      </g>
     </g>
    </g>
    <g id="ytick_6">
     <g id="line2d_20">
      <path d="M 488.680514 248.674415 
L 843.264 248.674415 
" clip-path="url(#p2ac0ad2919)" style="fill: none; stroke: #d8e3ec; stroke-width: 0.85; stroke-linecap: square"/>
     </g>
     <g id="line2d_21"/>
     <g id="text_14">
      <!-- 2 -->
      <g style="fill: #627588" transform="translate(479.454264 252.093712) scale(0.09 -0.09)">
       <use xlink:href="#DejaVuSans-32"/>
      </g>
     </g>
    </g>
    <g id="ytick_7">
     <g id="line2d_22">
      <path d="M 488.680514 224.093053 
L 843.264 224.093053 
" clip-path="url(#p2ac0ad2919)" style="fill: none; stroke: #d8e3ec; stroke-width: 0.85; stroke-linecap: square"/>
     </g>
     <g id="line2d_23"/>
     <g id="text_15">
      <!-- 5 -->
      <g style="fill: #627588" transform="translate(479.454264 227.51235) scale(0.09 -0.09)">
       <use xlink:href="#DejaVuSans-35"/>
      </g>
     </g>
    </g>
    <g id="ytick_8">
     <g id="line2d_24">
      <path d="M 488.680514 199.511691 
L 843.264 199.511691 
" clip-path="url(#p2ac0ad2919)" style="fill: none; stroke: #d8e3ec; stroke-width: 0.85; stroke-linecap: square"/>
     </g>
     <g id="line2d_25"/>
     <g id="text_16">
      <!-- 8 -->
      <g style="fill: #627588" transform="translate(479.454264 202.930988) scale(0.09 -0.09)">
       <use xlink:href="#DejaVuSans-38"/>
      </g>
     </g>
    </g>
   </g>
   <g id="patch_5">
    <path d="M 488.680514 273.255777 
L 843.264 273.255777 
" style="fill: none; stroke: #93a6b8; stroke-linejoin: miter; stroke-linecap: square"/>
   </g>
   <g id="line2d_26">
    <path d="M 488.680514 271.583409 
L 491.39528 272.594988 
L 499.189286 272.594988 
L 501.904052 271.557799 
L 509.960777 271.557799 
L 515.302736 269.245562 
L 517.92993 267.984979 
L 520.644696 268.298574 
L 523.359462 268.298574 
L 525.899082 267.470919 
L 531.241041 267.470919 
L 533.955807 268.508107 
L 542.012532 268.508107 
L 544.639725 268.770655 
L 547.354491 269.975624 
L 549.981685 270.128938 
L 552.696451 269.110501 
L 555.411217 269.110501 
L 557.863264 269.938157 
L 568.547182 269.938157 
L 571.261948 269.007045 
L 573.976714 269.007045 
L 576.603907 269.851765 
L 579.318673 269.851765 
L 581.945866 270.959033 
L 584.660633 270.652463 
L 587.375399 269.96391 
L 589.827445 268.551188 
L 592.542212 267.640767 
L 600.511364 267.640767 
L 603.22613 268.571879 
L 605.940896 267.760613 
L 608.568089 265.840194 
L 613.910048 264.213676 
L 616.624814 265.885877 
L 619.339581 266.574431 
L 621.791627 267.987153 
L 624.506394 268.225952 
L 627.133587 267.672317 
L 629.848353 266.884453 
L 632.475546 265.594093 
L 635.190312 265.594093 
L 637.905078 266.405359 
L 640.532271 268.325778 
L 643.247037 268.60227 
L 645.87423 269.375269 
L 648.588996 268.388066 
L 651.303762 267.622291 
L 653.843382 266.311285 
L 656.558149 266.187394 
L 659.185342 265.765577 
L 661.900108 265.9327 
L 664.527301 266.697817 
L 667.242067 265.069913 
L 669.956833 264.198233 
L 675.298792 264.14978 
L 677.925985 263.664941 
L 680.640751 264.652144 
L 685.807564 263.867831 
L 688.52233 264.663344 
L 691.149523 264.767116 
L 696.491483 264.204586 
L 701.921015 263.981097 
L 704.548208 263.981097 
L 707.262974 263.706161 
L 712.604933 262.205157 
L 715.319699 262.827148 
L 717.771746 264.534187 
L 720.486512 264.068631 
L 723.113705 263.052341 
L 725.828471 263.972991 
L 728.455664 262.681214 
L 731.170431 264.099915 
L 733.885197 261.461919 
L 736.51239 259.403179 
L 739.227156 259.597234 
L 741.854349 258.437788 
L 744.569115 257.875983 
L 747.283881 257.114291 
L 749.735928 255.230662 
L 752.450694 253.432741 
L 755.077887 253.738898 
L 757.792653 251.131784 
L 760.419846 252.147297 
L 763.134613 251.292955 
L 765.849379 254.131246 
L 768.476572 252.115728 
L 773.818531 249.21977 
L 776.533297 247.910389 
L 779.248063 249.204145 
L 781.787683 251.087775 
L 784.502449 253.351252 
L 787.129642 254.933064 
L 789.844408 257.540178 
L 792.471601 254.507413 
L 795.186368 255.724312 
L 797.901134 256.465831 
L 800.528327 260.54009 
L 803.243093 262.766663 
L 805.870286 261.920291 
L 808.585052 264.606779 
L 811.299818 261.455322 
L 821.80859 261.455322 
L 824.435783 265.552216 
L 835.207275 265.552216 
L 837.834468 270.10432 
L 840.549234 270.10432 
L 843.264 273.255777 
L 843.264 273.255777 
" clip-path="url(#p2ac0ad2919)" style="fill: none; stroke: #24539a; stroke-width: 2.6; stroke-linecap: square"/>
   </g>
   <g id="text_17">
    <!-- 41,535 papers -->
    <g style="fill: #627588" transform="translate(488.680514 183.565572) scale(0.092 -0.092)">
     <defs>
      <path id="DejaVuSans-33" d="M 2597 2516 
Q 3050 2419 3304 2112 
Q 3559 1806 3559 1356 
Q 3559 666 3084 287 
Q 2609 -91 1734 -91 
Q 1441 -91 1130 -33 
Q 819 25 488 141 
L 488 750 
Q 750 597 1062 519 
Q 1375 441 1716 441 
Q 2309 441 2620 675 
Q 2931 909 2931 1356 
Q 2931 1769 2642 2001 
Q 2353 2234 1838 2234 
L 1294 2234 
L 1294 2753 
L 1863 2753 
Q 2328 2753 2575 2939 
Q 2822 3125 2822 3475 
Q 2822 3834 2567 4026 
Q 2313 4219 1838 4219 
Q 1578 4219 1281 4162 
Q 984 4106 628 3988 
L 628 4550 
Q 988 4650 1302 4700 
Q 1616 4750 1894 4750 
Q 2613 4750 3031 4423 
Q 3450 4097 3450 3541 
Q 3450 3153 3228 2886 
Q 3006 2619 2597 2516 
z
" transform="scale(0.015625)"/>
     </defs>
     <use xlink:href="#DejaVuSans-34"/>
     <use xlink:href="#DejaVuSans-31" x="63.623047"/>
     <use xlink:href="#DejaVuSans-2c" x="127.246094"/>
     <use xlink:href="#DejaVuSans-35" x="159.033203"/>
     <use xlink:href="#DejaVuSans-33" x="222.65625"/>
     <use xlink:href="#DejaVuSans-35" x="286.279297"/>
     <use xlink:href="#DejaVuSans-20" x="349.902344"/>
     <use xlink:href="#DejaVuSans-70" x="381.689453"/>
     <use xlink:href="#DejaVuSans-61" x="445.166016"/>
     <use xlink:href="#DejaVuSans-70" x="506.445312"/>
     <use xlink:href="#DejaVuSans-65" x="569.921875"/>
     <use xlink:href="#DejaVuSans-72" x="631.445312"/>
     <use xlink:href="#DejaVuSans-73" x="672.558594"/>
    </g>
   </g>
   <g id="text_18">
    <!-- Macro -->
    <g style="fill: #18324a" transform="translate(488.680514 179.2) scale(0.123 -0.123)">
     <defs>
      <path id="DejaVuSans-4d" d="M 628 4666 
L 1569 4666 
L 2759 1491 
L 3956 4666 
L 4897 4666 
L 4897 0 
L 4281 0 
L 4281 4097 
L 3078 897 
L 2444 897 
L 1241 4097 
L 1241 0 
L 628 0 
L 628 4666 
z
" transform="scale(0.015625)"/>
      <path id="DejaVuSans-63" d="M 3122 3366 
L 3122 2828 
Q 2878 2963 2633 3030 
Q 2388 3097 2138 3097 
Q 1578 3097 1268 2742 
Q 959 2388 959 1747 
Q 959 1106 1268 751 
Q 1578 397 2138 397 
Q 2388 397 2633 464 
Q 2878 531 3122 666 
L 3122 134 
Q 2881 22 2623 -34 
Q 2366 -91 2075 -91 
Q 1284 -91 818 406 
Q 353 903 353 1747 
Q 353 2603 823 3093 
Q 1294 3584 2113 3584 
Q 2378 3584 2631 3529 
Q 2884 3475 3122 3366 
z
" transform="scale(0.015625)"/>
     </defs>
     <use xlink:href="#DejaVuSans-4d"/>
     <use xlink:href="#DejaVuSans-61" x="86.279297"/>
     <use xlink:href="#DejaVuSans-63" x="147.558594"/>
     <use xlink:href="#DejaVuSans-72" x="202.539062"/>
     <use xlink:href="#DejaVuSans-6f" x="241.402344"/>
    </g>
   </g>
  </g>
  <g id="axes_3">
   <g id="patch_6">
    <path d="M 70.272 388.570518 
L 424.855486 388.570518 
L 424.855486 302.514741 
L 70.272 302.514741 
z
" style="fill: #ffffff"/>
   </g>
   <g id="line2d_27">
    <path d="M 323.358262 388.570518 
L 323.358262 302.514741 
" clip-path="url(#p2c6f3ba1b3)" style="fill: none; stroke-dasharray: 2.4,2.4; stroke-dashoffset: 0; stroke: #8396a8; stroke-width: 1.2"/>
   </g>
   <g id="matplotlib.axis_5">
    <g id="xtick_7">
     <g id="line2d_28"/>
     <g id="text_19">
      <!-- 2016 -->
      <g style="fill: #627588" transform="translate(90.783682 398.909112) scale(0.09 -0.09)">
       <use xlink:href="#DejaVuSans-32"/>
       <use xlink:href="#DejaVuSans-30" x="63.623047"/>
       <use xlink:href="#DejaVuSans-31" x="127.246094"/>
       <use xlink:href="#DejaVuSans-36" x="190.869141"/>
      </g>
     </g>
    </g>
    <g id="xtick_8">
     <g id="line2d_29"/>
     <g id="text_20">
      <!-- 2020 -->
      <g style="fill: #627588" transform="translate(218.727983 398.909112) scale(0.09 -0.09)">
       <use xlink:href="#DejaVuSans-32"/>
       <use xlink:href="#DejaVuSans-30" x="63.623047"/>
       <use xlink:href="#DejaVuSans-32" x="127.246094"/>
       <use xlink:href="#DejaVuSans-30" x="190.869141"/>
      </g>
     </g>
    </g>
    <g id="xtick_9">
     <g id="line2d_30"/>
     <g id="text_21">
      <!-- 2024 -->
      <g style="fill: #627588" transform="translate(346.672283 398.909112) scale(0.09 -0.09)">
       <use xlink:href="#DejaVuSans-32"/>
       <use xlink:href="#DejaVuSans-30" x="63.623047"/>
       <use xlink:href="#DejaVuSans-32" x="127.246094"/>
       <use xlink:href="#DejaVuSans-34" x="190.869141"/>
      </g>
     </g>
    </g>
   </g>
   <g id="matplotlib.axis_6">
    <g id="ytick_9">
     <g id="line2d_31">
      <path d="M 70.272 388.570518 
L 424.855486 388.570518 
" clip-path="url(#p2c6f3ba1b3)" style="fill: none; stroke: #d8e3ec; stroke-width: 0.85; stroke-linecap: square"/>
     </g>
     <g id="line2d_32"/>
     <g id="text_22">
      <!-- 0 -->
      <g style="fill: #627588" transform="translate(61.04575 391.989815) scale(0.09 -0.09)">
       <use xlink:href="#DejaVuSans-30"/>
      </g>
     </g>
    </g>
    <g id="ytick_10">
     <g id="line2d_33">
      <path d="M 70.272 363.989156 
L 424.855486 363.989156 
" clip-path="url(#p2c6f3ba1b3)" style="fill: none; stroke: #d8e3ec; stroke-width: 0.85; stroke-linecap: square"/>
     </g>
     <g id="line2d_34"/>
     <g id="text_23">
      <!-- 2 -->
      <g style="fill: #627588" transform="translate(61.04575 367.408453) scale(0.09 -0.09)">
       <use xlink:href="#DejaVuSans-32"/>
      </g>
     </g>
    </g>
    <g id="ytick_11">
     <g id="line2d_35">
      <path d="M 70.272 339.407794 
L 424.855486 339.407794 
" clip-path="url(#p2c6f3ba1b3)" style="fill: none; stroke: #d8e3ec; stroke-width: 0.85; stroke-linecap: square"/>
     </g>
     <g id="line2d_36"/>
     <g id="text_24">
      <!-- 5 -->
      <g style="fill: #627588" transform="translate(61.04575 342.827091) scale(0.09 -0.09)">
       <use xlink:href="#DejaVuSans-35"/>
      </g>
     </g>
    </g>
    <g id="ytick_12">
     <g id="line2d_37">
      <path d="M 70.272 314.826432 
L 424.855486 314.826432 
" clip-path="url(#p2c6f3ba1b3)" style="fill: none; stroke: #d8e3ec; stroke-width: 0.85; stroke-linecap: square"/>
     </g>
     <g id="line2d_38"/>
     <g id="text_25">
      <!-- 8 -->
      <g style="fill: #627588" transform="translate(61.04575 318.245729) scale(0.09 -0.09)">
       <use xlink:href="#DejaVuSans-38"/>
      </g>
     </g>
    </g>
   </g>
   <g id="patch_7">
    <path d="M 70.272 388.570518 
L 424.855486 388.570518 
" style="fill: none; stroke: #93a6b8; stroke-linejoin: miter; stroke-linecap: square"/>
   </g>
   <g id="line2d_39">
    <path d="M 70.272 388.570518 
L 155.5682 388.570518 
L 158.195393 385.745074 
L 187.532382 385.745074 
L 190.159575 388.570518 
L 254.175512 388.570518 
L 256.890278 386.78926 
L 259.517471 386.78926 
L 262.232238 384.011705 
L 286.139694 384.011705 
L 288.85446 385.792963 
L 291.481653 385.792963 
L 294.196419 388.570518 
L 307.419958 388.570518 
L 310.047151 386.99479 
L 318.103876 386.99479 
L 320.818642 384.548883 
L 323.445835 383.160105 
L 331.327414 383.160105 
L 334.04218 380.558903 
L 339.38414 380.558903 
L 342.011333 382.134631 
L 347.440865 382.134631 
L 350.068058 380.721909 
L 352.782824 383.167816 
L 355.410017 382.073628 
L 363.379169 382.073628 
L 366.093935 384.67483 
L 379.49262 384.67483 
L 382.119813 386.087552 
L 384.834579 382.363103 
L 387.461772 384.846069 
L 398.058117 384.846069 
L 400.68531 382.363103 
L 403.400076 382.363103 
L 406.02727 376.900578 
L 414.083995 376.900578 
L 416.798761 380.625027 
L 424.855486 380.625027 
L 424.855486 380.625027 
" clip-path="url(#p2c6f3ba1b3)" style="fill: none; stroke: #24539a; stroke-width: 2.6; stroke-linecap: square"/>
   </g>
   <g id="text_26">
    <!-- 15,779 papers -->
    <g style="fill: #627588" transform="translate(70.272 298.880313) scale(0.092 -0.092)">
     <use xlink:href="#DejaVuSans-31"/>
     <use xlink:href="#DejaVuSans-35" x="63.623047"/>
     <use xlink:href="#DejaVuSans-2c" x="127.246094"/>
     <use xlink:href="#DejaVuSans-37" x="159.033203"/>
     <use xlink:href="#DejaVuSans-37" x="222.65625"/>
     <use xlink:href="#DejaVuSans-39" x="286.279297"/>
     <use xlink:href="#DejaVuSans-20" x="349.902344"/>
     <use xlink:href="#DejaVuSans-70" x="381.689453"/>
     <use xlink:href="#DejaVuSans-61" x="445.166016"/>
     <use xlink:href="#DejaVuSans-70" x="506.445312"/>
     <use xlink:href="#DejaVuSans-65" x="569.921875"/>
     <use xlink:href="#DejaVuSans-72" x="631.445312"/>
     <use xlink:href="#DejaVuSans-73" x="672.558594"/>
    </g>
   </g>
   <g id="text_27">
    <!-- Public finance -->
    <g style="fill: #18324a" transform="translate(70.272 294.514741) scale(0.123 -0.123)">
     <defs>
      <path id="DejaVuSans-50" d="M 1259 4147 
L 1259 2394 
L 2053 2394 
Q 2494 2394 2734 2622 
Q 2975 2850 2975 3272 
Q 2975 3691 2734 3919 
Q 2494 4147 2053 4147 
L 1259 4147 
z
M 628 4666 
L 2053 4666 
Q 2838 4666 3239 4311 
Q 3641 3956 3641 3272 
Q 3641 2581 3239 2228 
Q 2838 1875 2053 1875 
L 1259 1875 
L 1259 0 
L 628 0 
L 628 4666 
z
" transform="scale(0.015625)"/>
      <path id="DejaVuSans-6c" d="M 603 4863 
L 1178 4863 
L 1178 0 
L 603 0 
L 603 4863 
z
" transform="scale(0.015625)"/>
      <path id="DejaVuSans-69" d="M 603 3500 
L 1178 3500 
L 1178 0 
L 603 0 
L 603 3500 
z
M 603 4863 
L 1178 4863 
L 1178 4134 
L 603 4134 
L 603 4863 
z
" transform="scale(0.015625)"/>
      <path id="DejaVuSans-66" d="M 2375 4863 
L 2375 4384 
L 1825 4384 
Q 1516 4384 1395 4259 
Q 1275 4134 1275 3809 
L 1275 3500 
L 2222 3500 
L 2222 3053 
L 1275 3053 
L 1275 0 
L 697 0 
L 697 3053 
L 147 3053 
L 147 3500 
L 697 3500 
L 697 3744 
Q 697 4328 969 4595 
Q 1241 4863 1831 4863 
L 2375 4863 
z
" transform="scale(0.015625)"/>
      <path id="DejaVuSans-6e" d="M 3513 2113 
L 3513 0 
L 2938 0 
L 2938 2094 
Q 2938 2591 2744 2837 
Q 2550 3084 2163 3084 
Q 1697 3084 1428 2787 
Q 1159 2491 1159 1978 
L 1159 0 
L 581 0 
L 581 3500 
L 1159 3500 
L 1159 2956 
Q 1366 3272 1645 3428 
Q 1925 3584 2291 3584 
Q 2894 3584 3203 3211 
Q 3513 2838 3513 2113 
z
" transform="scale(0.015625)"/>
     </defs>
     <use xlink:href="#DejaVuSans-50"/>
     <use xlink:href="#DejaVuSans-75" x="58.552734"/>
     <use xlink:href="#DejaVuSans-62" x="121.931641"/>
     <use xlink:href="#DejaVuSans-6c" x="185.408203"/>
     <use xlink:href="#DejaVuSans-69" x="213.191406"/>
     <use xlink:href="#DejaVuSans-63" x="240.974609"/>
     <use xlink:href="#DejaVuSans-20" x="295.955078"/>
     <use xlink:href="#DejaVuSans-66" x="327.742188"/>
     <use xlink:href="#DejaVuSans-69" x="362.947266"/>
     <use xlink:href="#DejaVuSans-6e" x="390.730469"/>
     <use xlink:href="#DejaVuSans-61" x="454.109375"/>
     <use xlink:href="#DejaVuSans-6e" x="515.388672"/>
     <use xlink:href="#DejaVuSans-63" x="578.767578"/>
     <use xlink:href="#DejaVuSans-65" x="633.748047"/>
    </g>
   </g>
  </g>
  <g id="axes_4">
   <g id="patch_8">
    <path d="M 488.680514 388.570518 
L 843.264 388.570518 
L 843.264 302.514741 
L 488.680514 302.514741 
z
" style="fill: #ffffff"/>
   </g>
   <g id="line2d_40">
    <path d="M 741.766776 388.570518 
L 741.766776 302.514741 
" clip-path="url(#pa80902f1a2)" style="fill: none; stroke-dasharray: 2.4,2.4; stroke-dashoffset: 0; stroke: #8396a8; stroke-width: 1.2"/>
   </g>
   <g id="matplotlib.axis_7">
    <g id="xtick_10">
     <g id="line2d_41"/>
     <g id="text_28">
      <!-- 2016 -->
      <g style="fill: #627588" transform="translate(509.192196 398.909112) scale(0.09 -0.09)">
       <use xlink:href="#DejaVuSans-32"/>
       <use xlink:href="#DejaVuSans-30" x="63.623047"/>
       <use xlink:href="#DejaVuSans-31" x="127.246094"/>
       <use xlink:href="#DejaVuSans-36" x="190.869141"/>
      </g>
     </g>
    </g>
    <g id="xtick_11">
     <g id="line2d_42"/>
     <g id="text_29">
      <!-- 2020 -->
      <g style="fill: #627588" transform="translate(637.136496 398.909112) scale(0.09 -0.09)">
       <use xlink:href="#DejaVuSans-32"/>
       <use xlink:href="#DejaVuSans-30" x="63.623047"/>
       <use xlink:href="#DejaVuSans-32" x="127.246094"/>
       <use xlink:href="#DejaVuSans-30" x="190.869141"/>
      </g>
     </g>
    </g>
    <g id="xtick_12">
     <g id="line2d_43"/>
     <g id="text_30">
      <!-- 2024 -->
      <g style="fill: #627588" transform="translate(765.080797 398.909112) scale(0.09 -0.09)">
       <use xlink:href="#DejaVuSans-32"/>
       <use xlink:href="#DejaVuSans-30" x="63.623047"/>
       <use xlink:href="#DejaVuSans-32" x="127.246094"/>
       <use xlink:href="#DejaVuSans-34" x="190.869141"/>
      </g>
     </g>
    </g>
   </g>
   <g id="matplotlib.axis_8">
    <g id="ytick_13">
     <g id="line2d_44">
      <path d="M 488.680514 388.570518 
L 843.264 388.570518 
" clip-path="url(#pa80902f1a2)" style="fill: none; stroke: #d8e3ec; stroke-width: 0.85; stroke-linecap: square"/>
     </g>
     <g id="line2d_45"/>
     <g id="text_31">
      <!-- 0 -->
      <g style="fill: #627588" transform="translate(479.454264 391.989815) scale(0.09 -0.09)">
       <use xlink:href="#DejaVuSans-30"/>
      </g>
     </g>
    </g>
    <g id="ytick_14">
     <g id="line2d_46">
      <path d="M 488.680514 363.989156 
L 843.264 363.989156 
" clip-path="url(#pa80902f1a2)" style="fill: none; stroke: #d8e3ec; stroke-width: 0.85; stroke-linecap: square"/>
     </g>
     <g id="line2d_47"/>
     <g id="text_32">
      <!-- 2 -->
      <g style="fill: #627588" transform="translate(479.454264 367.408453) scale(0.09 -0.09)">
       <use xlink:href="#DejaVuSans-32"/>
      </g>
     </g>
    </g>
    <g id="ytick_15">
     <g id="line2d_48">
      <path d="M 488.680514 339.407794 
L 843.264 339.407794 
" clip-path="url(#pa80902f1a2)" style="fill: none; stroke: #d8e3ec; stroke-width: 0.85; stroke-linecap: square"/>
     </g>
     <g id="line2d_49"/>
     <g id="text_33">
      <!-- 5 -->
      <g style="fill: #627588" transform="translate(479.454264 342.827091) scale(0.09 -0.09)">
       <use xlink:href="#DejaVuSans-35"/>
      </g>
     </g>
    </g>
    <g id="ytick_16">
     <g id="line2d_50">
      <path d="M 488.680514 314.826432 
L 843.264 314.826432 
" clip-path="url(#pa80902f1a2)" style="fill: none; stroke: #d8e3ec; stroke-width: 0.85; stroke-linecap: square"/>
     </g>
     <g id="line2d_51"/>
     <g id="text_34">
      <!-- 8 -->
      <g style="fill: #627588" transform="translate(479.454264 318.245729) scale(0.09 -0.09)">
       <use xlink:href="#DejaVuSans-38"/>
      </g>
     </g>
    </g>
   </g>
   <g id="patch_9">
    <path d="M 488.680514 388.570518 
L 843.264 388.570518 
" style="fill: none; stroke: #93a6b8; stroke-linejoin: miter; stroke-linecap: square"/>
   </g>
   <g id="line2d_52">
    <path d="M 488.680514 388.570518 
L 619.339581 388.570518 
L 621.791627 385.419061 
L 635.190312 385.419061 
L 637.905078 381.106542 
L 651.303762 381.106542 
L 653.843382 381.614841 
L 667.242067 381.614841 
L 669.956833 383.517423 
L 683.355517 383.517423 
L 685.807564 386.16058 
L 699.206249 386.16058 
L 701.921015 388.570518 
L 739.227156 388.570518 
L 741.854349 385.419061 
L 760.419846 385.419061 
L 763.134613 383.31809 
L 768.476572 383.31809 
L 771.191338 381.455866 
L 773.818531 384.607322 
L 787.129642 384.607322 
L 789.844408 380.510429 
L 792.471601 380.510429 
L 795.186368 382.6114 
L 800.528327 382.6114 
L 803.243093 384.473624 
L 805.870286 377.918594 
L 808.585052 374.883858 
L 811.299818 371.15941 
L 813.751865 371.15941 
L 816.466631 366.607305 
L 819.093824 366.607305 
L 821.80859 370.704199 
L 835.207275 370.704199 
L 837.834468 377.259229 
L 840.549234 380.293965 
L 843.264 384.018414 
L 843.264 384.018414 
" clip-path="url(#pa80902f1a2)" style="fill: none; stroke: #24539a; stroke-width: 2.6; stroke-linecap: square"/>
   </g>
   <g id="text_35">
    <!-- 8,646 papers -->
    <g style="fill: #627588" transform="translate(488.680514 298.880313) scale(0.092 -0.092)">
     <use xlink:href="#DejaVuSans-38"/>
     <use xlink:href="#DejaVuSans-2c" x="63.623047"/>
     <use xlink:href="#DejaVuSans-36" x="95.410156"/>
     <use xlink:href="#DejaVuSans-34" x="159.033203"/>
     <use xlink:href="#DejaVuSans-36" x="222.65625"/>
     <use xlink:href="#DejaVuSans-20" x="286.279297"/>
     <use xlink:href="#DejaVuSans-70" x="318.066406"/>
     <use xlink:href="#DejaVuSans-61" x="381.542969"/>
     <use xlink:href="#DejaVuSans-70" x="442.822266"/>
     <use xlink:href="#DejaVuSans-65" x="506.298828"/>
     <use xlink:href="#DejaVuSans-72" x="567.822266"/>
     <use xlink:href="#DejaVuSans-73" x="608.935547"/>
    </g>
   </g>
   <g id="text_36">
    <!-- Trade -->
    <g style="fill: #18324a" transform="translate(488.680514 294.514741) scale(0.123 -0.123)">
     <defs>
      <path id="DejaVuSans-54" d="M -19 4666 
L 3928 4666 
L 3928 4134 
L 2272 4134 
L 2272 0 
L 1638 0 
L 1638 4134 
L -19 4134 
L -19 4666 
z
" transform="scale(0.015625)"/>
      <path id="DejaVuSans-64" d="M 2906 2969 
L 2906 4863 
L 3481 4863 
L 3481 0 
L 2906 0 
L 2906 525 
Q 2725 213 2448 61 
Q 2172 -91 1784 -91 
Q 1150 -91 751 415 
Q 353 922 353 1747 
Q 353 2572 751 3078 
Q 1150 3584 1784 3584 
Q 2172 3584 2448 3432 
Q 2725 3281 2906 2969 
z
M 947 1747 
Q 947 1113 1208 752 
Q 1469 391 1925 391 
Q 2381 391 2643 752 
Q 2906 1113 2906 1747 
Q 2906 2381 2643 2742 
Q 2381 3103 1925 3103 
Q 1469 3103 1208 2742 
Q 947 2381 947 1747 
z
" transform="scale(0.015625)"/>
     </defs>
     <use xlink:href="#DejaVuSans-54"/>
     <use xlink:href="#DejaVuSans-72" x="46.333984"/>
     <use xlink:href="#DejaVuSans-61" x="87.447266"/>
     <use xlink:href="#DejaVuSans-64" x="148.726562"/>
     <use xlink:href="#DejaVuSans-65" x="212.203125"/>
    </g>
   </g>
  </g>
  <g id="axes_5">
   <g id="patch_10">
    <path d="M 70.272 503.885259 
L 424.855486 503.885259 
L 424.855486 417.829482 
L 70.272 417.829482 
z
" style="fill: #ffffff"/>
   </g>
   <g id="line2d_53">
    <path d="M 323.358262 503.885259 
L 323.358262 417.829482 
" clip-path="url(#p4f38cc466f)" style="fill: none; stroke-dasharray: 2.4,2.4; stroke-dashoffset: 0; stroke: #8396a8; stroke-width: 1.2"/>
   </g>
   <g id="matplotlib.axis_9">
    <g id="xtick_13">
     <g id="line2d_54"/>
     <g id="text_37">
      <!-- 2016 -->
      <g style="fill: #627588" transform="translate(90.783682 514.223853) scale(0.09 -0.09)">
       <use xlink:href="#DejaVuSans-32"/>
       <use xlink:href="#DejaVuSans-30" x="63.623047"/>
       <use xlink:href="#DejaVuSans-31" x="127.246094"/>
       <use xlink:href="#DejaVuSans-36" x="190.869141"/>
      </g>
     </g>
    </g>
    <g id="xtick_14">
     <g id="line2d_55"/>
     <g id="text_38">
      <!-- 2020 -->
      <g style="fill: #627588" transform="translate(218.727983 514.223853) scale(0.09 -0.09)">
       <use xlink:href="#DejaVuSans-32"/>
       <use xlink:href="#DejaVuSans-30" x="63.623047"/>
       <use xlink:href="#DejaVuSans-32" x="127.246094"/>
       <use xlink:href="#DejaVuSans-30" x="190.869141"/>
      </g>
     </g>
    </g>
    <g id="xtick_15">
     <g id="line2d_56"/>
     <g id="text_39">
      <!-- 2024 -->
      <g style="fill: #627588" transform="translate(346.672283 514.223853) scale(0.09 -0.09)">
       <use xlink:href="#DejaVuSans-32"/>
       <use xlink:href="#DejaVuSans-30" x="63.623047"/>
       <use xlink:href="#DejaVuSans-32" x="127.246094"/>
       <use xlink:href="#DejaVuSans-34" x="190.869141"/>
      </g>
     </g>
    </g>
   </g>
   <g id="matplotlib.axis_10">
    <g id="ytick_17">
     <g id="line2d_57">
      <path d="M 70.272 503.885259 
L 424.855486 503.885259 
" clip-path="url(#p4f38cc466f)" style="fill: none; stroke: #d8e3ec; stroke-width: 0.85; stroke-linecap: square"/>
     </g>
     <g id="line2d_58"/>
     <g id="text_40">
      <!-- 0 -->
      <g style="fill: #627588" transform="translate(61.04575 507.304556) scale(0.09 -0.09)">
       <use xlink:href="#DejaVuSans-30"/>
      </g>
     </g>
    </g>
    <g id="ytick_18">
     <g id="line2d_59">
      <path d="M 70.272 479.303897 
L 424.855486 479.303897 
" clip-path="url(#p4f38cc466f)" style="fill: none; stroke: #d8e3ec; stroke-width: 0.85; stroke-linecap: square"/>
     </g>
     <g id="line2d_60"/>
     <g id="text_41">
      <!-- 2 -->
      <g style="fill: #627588" transform="translate(61.04575 482.723194) scale(0.09 -0.09)">
       <use xlink:href="#DejaVuSans-32"/>
      </g>
     </g>
    </g>
    <g id="ytick_19">
     <g id="line2d_61">
      <path d="M 70.272 454.722535 
L 424.855486 454.722535 
" clip-path="url(#p4f38cc466f)" style="fill: none; stroke: #d8e3ec; stroke-width: 0.85; stroke-linecap: square"/>
     </g>
     <g id="line2d_62"/>
     <g id="text_42">
      <!-- 5 -->
      <g style="fill: #627588" transform="translate(61.04575 458.141832) scale(0.09 -0.09)">
       <use xlink:href="#DejaVuSans-35"/>
      </g>
     </g>
    </g>
    <g id="ytick_20">
     <g id="line2d_63">
      <path d="M 70.272 430.141173 
L 424.855486 430.141173 
" clip-path="url(#p4f38cc466f)" style="fill: none; stroke: #d8e3ec; stroke-width: 0.85; stroke-linecap: square"/>
     </g>
     <g id="line2d_64"/>
     <g id="text_43">
      <!-- 8 -->
      <g style="fill: #627588" transform="translate(61.04575 433.56047) scale(0.09 -0.09)">
       <use xlink:href="#DejaVuSans-38"/>
      </g>
     </g>
    </g>
   </g>
   <g id="patch_11">
    <path d="M 70.272 503.885259 
L 424.855486 503.885259 
" style="fill: none; stroke: #93a6b8; stroke-linejoin: miter; stroke-linecap: square"/>
   </g>
   <g id="line2d_65">
    <path d="M 70.272 500.322743 
L 72.986766 503.885259 
L 115.547293 503.885259 
L 118.174486 501.544177 
L 147.511475 501.544177 
L 150.138668 503.885259 
L 163.537353 503.885259 
L 166.252119 500.733802 
L 195.501535 500.733802 
L 198.216301 503.885259 
L 206.09788 503.885259 
L 208.725073 501.728999 
L 216.781798 501.728999 
L 219.496564 499.823467 
L 224.838523 499.823467 
L 227.465716 497.547415 
L 232.895249 497.547415 
L 235.434869 495.726574 
L 238.149635 495.726574 
L 240.776828 497.882833 
L 248.833553 497.882833 
L 251.548319 499.788365 
L 256.890278 499.788365 
L 259.517471 502.064417 
L 264.947004 502.064417 
L 267.399051 502.395479 
L 278.082969 502.395479 
L 280.797735 500.982757 
L 286.139694 500.982757 
L 288.85446 499.344 
L 291.481653 499.344 
L 294.196419 497.880824 
L 296.911186 496.099566 
L 299.363232 497.589345 
L 302.077999 497.589345 
L 304.705192 496.200568 
L 307.419958 496.200568 
L 310.047151 494.338343 
L 312.761917 494.509582 
L 315.476683 494.509582 
L 318.103876 492.353322 
L 320.818642 492.691479 
L 323.445835 491.390878 
L 326.160601 492.854054 
L 328.875367 494.635312 
L 331.327414 493.481257 
L 334.04218 493.481257 
L 336.669373 494.870035 
L 339.38414 492.964503 
L 342.011333 493.43795 
L 344.726099 493.241926 
L 347.440865 493.241926 
L 350.068058 493.759429 
L 355.410017 496.360631 
L 358.124783 494.362146 
L 360.839549 494.362146 
L 363.379169 495.516201 
L 368.721128 495.516201 
L 371.435895 497.421733 
L 376.777854 500.248017 
L 379.49262 500.248017 
L 382.119813 501.886774 
L 384.834579 501.886774 
L 387.461772 495.817302 
L 390.176538 497.815787 
L 392.891304 495.255228 
L 403.400076 495.255228 
L 406.02727 490.435353 
L 408.742036 487.400617 
L 411.456802 487.400617 
L 414.083995 478.296409 
L 416.798761 475.886472 
L 419.425954 479.1305 
L 422.14072 476.569941 
L 424.855486 476.720562 
L 424.855486 476.720562 
" clip-path="url(#p4f38cc466f)" style="fill: none; stroke: #24539a; stroke-width: 2.6; stroke-linecap: square"/>
   </g>
   <g id="text_44">
    <!-- 12,767 papers -->
    <g style="fill: #627588" transform="translate(70.272 414.195054) scale(0.092 -0.092)">
     <use xlink:href="#DejaVuSans-31"/>
     <use xlink:href="#DejaVuSans-32" x="63.623047"/>
     <use xlink:href="#DejaVuSans-2c" x="127.246094"/>
     <use xlink:href="#DejaVuSans-37" x="159.033203"/>
     <use xlink:href="#DejaVuSans-36" x="222.65625"/>
     <use xlink:href="#DejaVuSans-37" x="286.279297"/>
     <use xlink:href="#DejaVuSans-20" x="349.902344"/>
     <use xlink:href="#DejaVuSans-70" x="381.689453"/>
     <use xlink:href="#DejaVuSans-61" x="445.166016"/>
     <use xlink:href="#DejaVuSans-70" x="506.445312"/>
     <use xlink:href="#DejaVuSans-65" x="569.921875"/>
     <use xlink:href="#DejaVuSans-72" x="631.445312"/>
     <use xlink:href="#DejaVuSans-73" x="672.558594"/>
    </g>
   </g>
   <g id="text_45">
    <!-- Development -->
    <g style="fill: #18324a" transform="translate(70.272 409.829482) scale(0.123 -0.123)">
     <defs>
      <path id="DejaVuSans-44" d="M 1259 4147 
L 1259 519 
L 2022 519 
Q 2988 519 3436 956 
Q 3884 1394 3884 2338 
Q 3884 3275 3436 3711 
Q 2988 4147 2022 4147 
L 1259 4147 
z
M 628 4666 
L 1925 4666 
Q 3281 4666 3915 4102 
Q 4550 3538 4550 2338 
Q 4550 1131 3912 565 
Q 3275 0 1925 0 
L 628 0 
L 628 4666 
z
" transform="scale(0.015625)"/>
      <path id="DejaVuSans-76" d="M 191 3500 
L 800 3500 
L 1894 563 
L 2988 3500 
L 3597 3500 
L 2284 0 
L 1503 0 
L 191 3500 
z
" transform="scale(0.015625)"/>
      <path id="DejaVuSans-6d" d="M 3328 2828 
Q 3544 3216 3844 3400 
Q 4144 3584 4550 3584 
Q 5097 3584 5394 3201 
Q 5691 2819 5691 2113 
L 5691 0 
L 5113 0 
L 5113 2094 
Q 5113 2597 4934 2840 
Q 4756 3084 4391 3084 
Q 3944 3084 3684 2787 
Q 3425 2491 3425 1978 
L 3425 0 
L 2847 0 
L 2847 2094 
Q 2847 2600 2669 2842 
Q 2491 3084 2119 3084 
Q 1678 3084 1418 2786 
Q 1159 2488 1159 1978 
L 1159 0 
L 581 0 
L 581 3500 
L 1159 3500 
L 1159 2956 
Q 1356 3278 1631 3431 
Q 1906 3584 2284 3584 
Q 2666 3584 2933 3390 
Q 3200 3197 3328 2828 
z
" transform="scale(0.015625)"/>
      <path id="DejaVuSans-74" d="M 1172 4494 
L 1172 3500 
L 2356 3500 
L 2356 3053 
L 1172 3053 
L 1172 1153 
Q 1172 725 1289 603 
Q 1406 481 1766 481 
L 2356 481 
L 2356 0 
L 1766 0 
Q 1100 0 847 248 
Q 594 497 594 1153 
L 594 3053 
L 172 3053 
L 172 3500 
L 594 3500 
L 594 4494 
L 1172 4494 
z
" transform="scale(0.015625)"/>
     </defs>
     <use xlink:href="#DejaVuSans-44"/>
     <use xlink:href="#DejaVuSans-65" x="77.001953"/>
     <use xlink:href="#DejaVuSans-76" x="138.525391"/>
     <use xlink:href="#DejaVuSans-65" x="197.705078"/>
     <use xlink:href="#DejaVuSans-6c" x="259.228516"/>
     <use xlink:href="#DejaVuSans-6f" x="287.011719"/>
     <use xlink:href="#DejaVuSans-70" x="348.193359"/>
     <use xlink:href="#DejaVuSans-6d" x="411.669922"/>
     <use xlink:href="#DejaVuSans-65" x="509.082031"/>
     <use xlink:href="#DejaVuSans-6e" x="570.605469"/>
     <use xlink:href="#DejaVuSans-74" x="633.984375"/>
    </g>
   </g>
  </g>
  <g id="axes_6">
   <g id="patch_12">
    <path d="M 488.680514 503.885259 
L 843.264 503.885259 
L 843.264 417.829482 
L 488.680514 417.829482 
z
" style="fill: #ffffff"/>
   </g>
   <g id="line2d_66">
    <path d="M 741.766776 503.885259 
L 741.766776 417.829482 
" clip-path="url(#pb0465b6abf)" style="fill: none; stroke-dasharray: 2.4,2.4; stroke-dashoffset: 0; stroke: #8396a8; stroke-width: 1.2"/>
   </g>
   <g id="matplotlib.axis_11">
    <g id="xtick_16">
     <g id="line2d_67"/>
     <g id="text_46">
      <!-- 2016 -->
      <g style="fill: #627588" transform="translate(509.192196 514.223853) scale(0.09 -0.09)">
       <use xlink:href="#DejaVuSans-32"/>
       <use xlink:href="#DejaVuSans-30" x="63.623047"/>
       <use xlink:href="#DejaVuSans-31" x="127.246094"/>
       <use xlink:href="#DejaVuSans-36" x="190.869141"/>
      </g>
     </g>
    </g>
    <g id="xtick_17">
     <g id="line2d_68"/>
     <g id="text_47">
      <!-- 2020 -->
      <g style="fill: #627588" transform="translate(637.136496 514.223853) scale(0.09 -0.09)">
       <use xlink:href="#DejaVuSans-32"/>
       <use xlink:href="#DejaVuSans-30" x="63.623047"/>
       <use xlink:href="#DejaVuSans-32" x="127.246094"/>
       <use xlink:href="#DejaVuSans-30" x="190.869141"/>
      </g>
     </g>
    </g>
    <g id="xtick_18">
     <g id="line2d_69"/>
     <g id="text_48">
      <!-- 2024 -->
      <g style="fill: #627588" transform="translate(765.080797 514.223853) scale(0.09 -0.09)">
       <use xlink:href="#DejaVuSans-32"/>
       <use xlink:href="#DejaVuSans-30" x="63.623047"/>
       <use xlink:href="#DejaVuSans-32" x="127.246094"/>
       <use xlink:href="#DejaVuSans-34" x="190.869141"/>
      </g>
     </g>
    </g>
   </g>
   <g id="matplotlib.axis_12">
    <g id="ytick_21">
     <g id="line2d_70">
      <path d="M 488.680514 503.885259 
L 843.264 503.885259 
" clip-path="url(#pb0465b6abf)" style="fill: none; stroke: #d8e3ec; stroke-width: 0.85; stroke-linecap: square"/>
     </g>
     <g id="line2d_71"/>
     <g id="text_49">
      <!-- 0 -->
      <g style="fill: #627588" transform="translate(479.454264 507.304556) scale(0.09 -0.09)">
       <use xlink:href="#DejaVuSans-30"/>
      </g>
     </g>
    </g>
    <g id="ytick_22">
     <g id="line2d_72">
      <path d="M 488.680514 479.303897 
L 843.264 479.303897 
" clip-path="url(#pb0465b6abf)" style="fill: none; stroke: #d8e3ec; stroke-width: 0.85; stroke-linecap: square"/>
     </g>
     <g id="line2d_73"/>
     <g id="text_50">
      <!-- 2 -->
      <g style="fill: #627588" transform="translate(479.454264 482.723194) scale(0.09 -0.09)">
       <use xlink:href="#DejaVuSans-32"/>
      </g>
     </g>
    </g>
    <g id="ytick_23">
     <g id="line2d_74">
      <path d="M 488.680514 454.722535 
L 843.264 454.722535 
" clip-path="url(#pb0465b6abf)" style="fill: none; stroke: #d8e3ec; stroke-width: 0.85; stroke-linecap: square"/>
     </g>
     <g id="line2d_75"/>
     <g id="text_51">
      <!-- 5 -->
      <g style="fill: #627588" transform="translate(479.454264 458.141832) scale(0.09 -0.09)">
       <use xlink:href="#DejaVuSans-35"/>
      </g>
     </g>
    </g>
    <g id="ytick_24">
     <g id="line2d_76">
      <path d="M 488.680514 430.141173 
L 843.264 430.141173 
" clip-path="url(#pb0465b6abf)" style="fill: none; stroke: #d8e3ec; stroke-width: 0.85; stroke-linecap: square"/>
     </g>
     <g id="line2d_77"/>
     <g id="text_52">
      <!-- 8 -->
      <g style="fill: #627588" transform="translate(479.454264 433.56047) scale(0.09 -0.09)">
       <use xlink:href="#DejaVuSans-38"/>
      </g>
     </g>
    </g>
   </g>
   <g id="patch_13">
    <path d="M 488.680514 503.885259 
L 843.264 503.885259 
" style="fill: none; stroke: #93a6b8; stroke-linejoin: miter; stroke-linecap: square"/>
   </g>
   <g id="line2d_78">
    <path d="M 488.680514 503.439944 
L 491.39528 502.984734 
L 496.562093 502.984734 
L 499.189286 502.516518 
L 501.904052 502.516518 
L 504.531245 502.961832 
L 509.960777 502.961832 
L 512.58797 502.580726 
L 525.899082 502.63428 
L 528.613848 502.17907 
L 531.241041 502.647286 
L 542.012532 502.647286 
L 544.639725 503.028392 
L 552.696451 503.028392 
L 555.411217 503.430049 
L 557.863264 503.430049 
L 560.57803 503.885259 
L 576.603907 503.885259 
L 579.318673 503.462899 
L 589.827445 503.462899 
L 592.542212 503.017584 
L 595.169405 502.198206 
L 608.568089 502.198206 
L 611.282855 502.620566 
L 613.910048 502.620566 
L 616.624814 502.182395 
L 619.339581 502.182395 
L 621.791627 501.286899 
L 624.506394 501.372837 
L 627.133587 501.85363 
L 629.848353 501.374461 
L 635.190312 501.374461 
L 637.905078 500.933935 
L 643.247037 500.933935 
L 645.87423 500.509386 
L 648.588996 500.568215 
L 653.843382 499.713939 
L 656.558149 500.073316 
L 659.185342 498.99918 
L 661.900108 499.114181 
L 664.527301 497.342551 
L 667.242067 496.523172 
L 672.584026 495.806015 
L 675.298792 495.277383 
L 680.640751 495.2092 
L 683.355517 494.381544 
L 685.807564 495.339894 
L 688.52233 494.945962 
L 691.149523 495.347105 
L 693.86429 494.186848 
L 696.491483 495.958478 
L 699.206249 494.489089 
L 701.921015 495.262088 
L 704.548208 495.147151 
L 709.890167 494.325763 
L 712.604933 494.752523 
L 715.319699 495.994006 
L 717.771746 495.906044 
L 720.486512 496.299976 
L 723.113705 496.95989 
L 725.828471 496.966947 
L 728.455664 496.245028 
L 731.170431 497.446124 
L 733.885197 497.055944 
L 736.51239 496.823977 
L 741.854349 497.817609 
L 744.569115 496.762615 
L 749.735928 495.139405 
L 752.450694 493.449964 
L 755.077887 493.43254 
L 757.792653 494.949908 
L 760.419846 494.916639 
L 763.134613 494.730665 
L 765.849379 494.385976 
L 768.476572 493.90666 
L 773.818531 491.545179 
L 776.533297 491.988696 
L 779.248063 492.111193 
L 784.502449 489.051743 
L 787.129642 488.655058 
L 789.844408 487.354457 
L 792.471601 486.619865 
L 795.186368 486.869287 
L 797.901134 485.698624 
L 803.243093 482.548622 
L 805.870286 483.234614 
L 808.585052 482.683851 
L 811.299818 480.922689 
L 813.751865 482.751235 
L 816.466631 485.004526 
L 819.093824 484.008196 
L 821.80859 482.774636 
L 824.435783 484.264415 
L 827.150549 482.430341 
L 829.865316 481.40952 
L 832.492509 482.580325 
L 835.207275 484.719554 
L 837.834468 483.396268 
L 843.264 485.602889 
L 843.264 485.602889 
" clip-path="url(#pb0465b6abf)" style="fill: none; stroke: #24539a; stroke-width: 2.6; stroke-linecap: square"/>
   </g>
   <g id="text_53">
    <!-- 54,089 papers -->
    <g style="fill: #627588" transform="translate(488.680514 414.195054) scale(0.092 -0.092)">
     <use xlink:href="#DejaVuSans-35"/>
     <use xlink:href="#DejaVuSans-34" x="63.623047"/>
     <use xlink:href="#DejaVuSans-2c" x="127.246094"/>
     <use xlink:href="#DejaVuSans-30" x="159.033203"/>
     <use xlink:href="#DejaVuSans-38" x="222.65625"/>
     <use xlink:href="#DejaVuSans-39" x="286.279297"/>
     <use xlink:href="#DejaVuSans-20" x="349.902344"/>
     <use xlink:href="#DejaVuSans-70" x="381.689453"/>
     <use xlink:href="#DejaVuSans-61" x="445.166016"/>
     <use xlink:href="#DejaVuSans-70" x="506.445312"/>
     <use xlink:href="#DejaVuSans-65" x="569.921875"/>
     <use xlink:href="#DejaVuSans-72" x="631.445312"/>
     <use xlink:href="#DejaVuSans-73" x="672.558594"/>
    </g>
   </g>
   <g id="text_54">
    <!-- Finance -->
    <g style="fill: #18324a" transform="translate(488.680514 409.829482) scale(0.123 -0.123)">
     <defs>
      <path id="DejaVuSans-46" d="M 628 4666 
L 3309 4666 
L 3309 4134 
L 1259 4134 
L 1259 2759 
L 3109 2759 
L 3109 2228 
L 1259 2228 
L 1259 0 
L 628 0 
L 628 4666 
z
" transform="scale(0.015625)"/>
     </defs>
     <use xlink:href="#DejaVuSans-46"/>
     <use xlink:href="#DejaVuSans-69" x="50.269531"/>
     <use xlink:href="#DejaVuSans-6e" x="78.052734"/>
     <use xlink:href="#DejaVuSans-61" x="141.431641"/>
     <use xlink:href="#DejaVuSans-6e" x="202.710938"/>
     <use xlink:href="#DejaVuSans-63" x="266.089844"/>
     <use xlink:href="#DejaVuSans-65" x="321.070312"/>
    </g>
   </g>
  </g>
  <g id="axes_7">
   <g id="patch_14">
    <path d="M 70.272 619.2 
L 424.855486 619.2 
L 424.855486 533.144223 
L 70.272 533.144223 
z
" style="fill: #ffffff"/>
   </g>
   <g id="line2d_79">
    <path d="M 323.358262 619.2 
L 323.358262 533.144223 
" clip-path="url(#pf57efc6a64)" style="fill: none; stroke-dasharray: 2.4,2.4; stroke-dashoffset: 0; stroke: #8396a8; stroke-width: 1.2"/>
   </g>
   <g id="matplotlib.axis_13">
    <g id="xtick_19">
     <g id="line2d_80"/>
     <g id="text_55">
      <!-- 2016 -->
      <g style="fill: #627588" transform="translate(90.783682 629.538594) scale(0.09 -0.09)">
       <use xlink:href="#DejaVuSans-32"/>
       <use xlink:href="#DejaVuSans-30" x="63.623047"/>
       <use xlink:href="#DejaVuSans-31" x="127.246094"/>
       <use xlink:href="#DejaVuSans-36" x="190.869141"/>
      </g>
     </g>
    </g>
    <g id="xtick_20">
     <g id="line2d_81"/>
     <g id="text_56">
      <!-- 2020 -->
      <g style="fill: #627588" transform="translate(218.727983 629.538594) scale(0.09 -0.09)">
       <use xlink:href="#DejaVuSans-32"/>
       <use xlink:href="#DejaVuSans-30" x="63.623047"/>
       <use xlink:href="#DejaVuSans-32" x="127.246094"/>
       <use xlink:href="#DejaVuSans-30" x="190.869141"/>
      </g>
     </g>
    </g>
    <g id="xtick_21">
     <g id="line2d_82"/>
     <g id="text_57">
      <!-- 2024 -->
      <g style="fill: #627588" transform="translate(346.672283 629.538594) scale(0.09 -0.09)">
       <use xlink:href="#DejaVuSans-32"/>
       <use xlink:href="#DejaVuSans-30" x="63.623047"/>
       <use xlink:href="#DejaVuSans-32" x="127.246094"/>
       <use xlink:href="#DejaVuSans-34" x="190.869141"/>
      </g>
     </g>
    </g>
   </g>
   <g id="matplotlib.axis_14">
    <g id="ytick_25">
     <g id="line2d_83">
      <path d="M 70.272 619.2 
L 424.855486 619.2 
" clip-path="url(#pf57efc6a64)" style="fill: none; stroke: #d8e3ec; stroke-width: 0.85; stroke-linecap: square"/>
     </g>
     <g id="line2d_84"/>
     <g id="text_58">
      <!-- 0 -->
      <g style="fill: #627588" transform="translate(61.04575 622.619297) scale(0.09 -0.09)">
       <use xlink:href="#DejaVuSans-30"/>
      </g>
     </g>
    </g>
    <g id="ytick_26">
     <g id="line2d_85">
      <path d="M 70.272 594.618638 
L 424.855486 594.618638 
" clip-path="url(#pf57efc6a64)" style="fill: none; stroke: #d8e3ec; stroke-width: 0.85; stroke-linecap: square"/>
     </g>
     <g id="line2d_86"/>
     <g id="text_59">
      <!-- 2 -->
      <g style="fill: #627588" transform="translate(61.04575 598.037935) scale(0.09 -0.09)">
       <use xlink:href="#DejaVuSans-32"/>
      </g>
     </g>
    </g>
    <g id="ytick_27">
     <g id="line2d_87">
      <path d="M 70.272 570.037276 
L 424.855486 570.037276 
" clip-path="url(#pf57efc6a64)" style="fill: none; stroke: #d8e3ec; stroke-width: 0.85; stroke-linecap: square"/>
     </g>
     <g id="line2d_88"/>
     <g id="text_60">
      <!-- 5 -->
      <g style="fill: #627588" transform="translate(61.04575 573.456573) scale(0.09 -0.09)">
       <use xlink:href="#DejaVuSans-35"/>
      </g>
     </g>
    </g>
    <g id="ytick_28">
     <g id="line2d_89">
      <path d="M 70.272 545.455914 
L 424.855486 545.455914 
" clip-path="url(#pf57efc6a64)" style="fill: none; stroke: #d8e3ec; stroke-width: 0.85; stroke-linecap: square"/>
     </g>
     <g id="line2d_90"/>
     <g id="text_61">
      <!-- 8 -->
      <g style="fill: #627588" transform="translate(61.04575 548.875211) scale(0.09 -0.09)">
       <use xlink:href="#DejaVuSans-38"/>
      </g>
     </g>
    </g>
   </g>
   <g id="patch_15">
    <path d="M 70.272 619.2 
L 424.855486 619.2 
" style="fill: none; stroke: #93a6b8; stroke-linejoin: miter; stroke-linecap: square"/>
   </g>
   <g id="line2d_91">
    <path d="M 70.272 619.2 
L 142.169516 619.2 
L 144.796709 618.564823 
L 174.133698 618.564823 
L 176.760891 619.2 
L 179.475657 619.2 
L 182.10285 618.474886 
L 190.159575 618.474886 
L 192.874342 617.287381 
L 195.501535 616.521606 
L 206.09788 616.521606 
L 208.725073 615.477812 
L 211.439839 615.477812 
L 214.067032 616.202926 
L 222.123757 616.202926 
L 224.838523 617.390431 
L 227.465716 618.156205 
L 230.180483 617.516066 
L 238.149635 617.516066 
L 240.776828 618.55986 
L 243.491594 617.801176 
L 246.118787 617.801176 
L 248.833553 617.322007 
L 251.548319 616.650386 
L 259.517471 616.650386 
L 262.232238 617.290525 
L 272.74101 617.290525 
L 275.455776 618.049209 
L 278.082969 618.049209 
L 280.797735 618.528378 
L 283.512501 619.2 
L 288.85446 619.2 
L 291.481653 618.517184 
L 296.911186 618.517184 
L 299.363232 617.606764 
L 320.818642 617.606764 
L 323.445835 618.289579 
L 328.875367 618.289579 
L 331.327414 619.2 
L 342.011333 619.2 
L 344.726099 618.309371 
L 374.063088 618.309371 
L 376.777854 617.379158 
L 379.49262 615.635799 
L 390.176538 615.635799 
L 392.891304 612.149081 
L 403.400076 612.149081 
L 406.02727 610.573353 
L 408.742036 610.848197 
L 411.456802 609.247153 
L 414.083995 607.966874 
L 416.798761 605.752337 
L 422.14072 605.752337 
L 424.855486 607.418213 
L 424.855486 607.418213 
" clip-path="url(#pf57efc6a64)" style="fill: none; stroke: #24539a; stroke-width: 2.6; stroke-linecap: square"/>
   </g>
   <g id="text_62">
    <!-- 38,115 papers -->
    <g style="fill: #627588" transform="translate(70.272 529.509795) scale(0.092 -0.092)">
     <use xlink:href="#DejaVuSans-33"/>
     <use xlink:href="#DejaVuSans-38" x="63.623047"/>
     <use xlink:href="#DejaVuSans-2c" x="127.246094"/>
     <use xlink:href="#DejaVuSans-31" x="159.033203"/>
     <use xlink:href="#DejaVuSans-31" x="222.65625"/>
     <use xlink:href="#DejaVuSans-35" x="286.279297"/>
     <use xlink:href="#DejaVuSans-20" x="349.902344"/>
     <use xlink:href="#DejaVuSans-70" x="381.689453"/>
     <use xlink:href="#DejaVuSans-61" x="445.166016"/>
     <use xlink:href="#DejaVuSans-70" x="506.445312"/>
     <use xlink:href="#DejaVuSans-65" x="569.921875"/>
     <use xlink:href="#DejaVuSans-72" x="631.445312"/>
     <use xlink:href="#DejaVuSans-73" x="672.558594"/>
    </g>
   </g>
   <g id="text_63">
    <!-- Health -->
    <g style="fill: #18324a" transform="translate(70.272 525.144223) scale(0.123 -0.123)">
     <defs>
      <path id="DejaVuSans-48" d="M 628 4666 
L 1259 4666 
L 1259 2753 
L 3553 2753 
L 3553 4666 
L 4184 4666 
L 4184 0 
L 3553 0 
L 3553 2222 
L 1259 2222 
L 1259 0 
L 628 0 
L 628 4666 
z
" transform="scale(0.015625)"/>
      <path id="DejaVuSans-68" d="M 3513 2113 
L 3513 0 
L 2938 0 
L 2938 2094 
Q 2938 2591 2744 2837 
Q 2550 3084 2163 3084 
Q 1697 3084 1428 2787 
Q 1159 2491 1159 1978 
L 1159 0 
L 581 0 
L 581 4863 
L 1159 4863 
L 1159 2956 
Q 1366 3272 1645 3428 
Q 1925 3584 2291 3584 
Q 2894 3584 3203 3211 
Q 3513 2838 3513 2113 
z
" transform="scale(0.015625)"/>
     </defs>
     <use xlink:href="#DejaVuSans-48"/>
     <use xlink:href="#DejaVuSans-65" x="75.195312"/>
     <use xlink:href="#DejaVuSans-61" x="136.71875"/>
     <use xlink:href="#DejaVuSans-6c" x="197.998047"/>
     <use xlink:href="#DejaVuSans-74" x="225.78125"/>
     <use xlink:href="#DejaVuSans-68" x="264.990234"/>
    </g>
   </g>
  </g>
  <g id="axes_8">
   <g id="patch_16">
    <path d="M 488.680514 619.2 
L 843.264 619.2 
L 843.264 533.144223 
L 488.680514 533.144223 
z
" style="fill: #ffffff"/>
   </g>
   <g id="line2d_92">
    <path d="M 741.766776 619.2 
L 741.766776 533.144223 
" clip-path="url(#p156804867e)" style="fill: none; stroke-dasharray: 2.4,2.4; stroke-dashoffset: 0; stroke: #8396a8; stroke-width: 1.2"/>
   </g>
   <g id="matplotlib.axis_15">
    <g id="xtick_22">
     <g id="line2d_93"/>
     <g id="text_64">
      <!-- 2016 -->
      <g style="fill: #627588" transform="translate(509.192196 629.538594) scale(0.09 -0.09)">
       <use xlink:href="#DejaVuSans-32"/>
       <use xlink:href="#DejaVuSans-30" x="63.623047"/>
       <use xlink:href="#DejaVuSans-31" x="127.246094"/>
       <use xlink:href="#DejaVuSans-36" x="190.869141"/>
      </g>
     </g>
    </g>
    <g id="xtick_23">
     <g id="line2d_94"/>
     <g id="text_65">
      <!-- 2020 -->
      <g style="fill: #627588" transform="translate(637.136496 629.538594) scale(0.09 -0.09)">
       <use xlink:href="#DejaVuSans-32"/>
       <use xlink:href="#DejaVuSans-30" x="63.623047"/>
       <use xlink:href="#DejaVuSans-32" x="127.246094"/>
       <use xlink:href="#DejaVuSans-30" x="190.869141"/>
      </g>
     </g>
    </g>
    <g id="xtick_24">
     <g id="line2d_95"/>
     <g id="text_66">
      <!-- 2024 -->
      <g style="fill: #627588" transform="translate(765.080797 629.538594) scale(0.09 -0.09)">
       <use xlink:href="#DejaVuSans-32"/>
       <use xlink:href="#DejaVuSans-30" x="63.623047"/>
       <use xlink:href="#DejaVuSans-32" x="127.246094"/>
       <use xlink:href="#DejaVuSans-34" x="190.869141"/>
      </g>
     </g>
    </g>
   </g>
   <g id="matplotlib.axis_16">
    <g id="ytick_29">
     <g id="line2d_96">
      <path d="M 488.680514 619.2 
L 843.264 619.2 
" clip-path="url(#p156804867e)" style="fill: none; stroke: #d8e3ec; stroke-width: 0.85; stroke-linecap: square"/>
     </g>
     <g id="line2d_97"/>
     <g id="text_67">
      <!-- 0 -->
      <g style="fill: #627588" transform="translate(479.454264 622.619297) scale(0.09 -0.09)">
       <use xlink:href="#DejaVuSans-30"/>
      </g>
     </g>
    </g>
    <g id="ytick_30">
     <g id="line2d_98">
      <path d="M 488.680514 594.618638 
L 843.264 594.618638 
" clip-path="url(#p156804867e)" style="fill: none; stroke: #d8e3ec; stroke-width: 0.85; stroke-linecap: square"/>
     </g>
     <g id="line2d_99"/>
     <g id="text_68">
      <!-- 2 -->
      <g style="fill: #627588" transform="translate(479.454264 598.037935) scale(0.09 -0.09)">
       <use xlink:href="#DejaVuSans-32"/>
      </g>
     </g>
    </g>
    <g id="ytick_31">
     <g id="line2d_100">
      <path d="M 488.680514 570.037276 
L 843.264 570.037276 
" clip-path="url(#p156804867e)" style="fill: none; stroke: #d8e3ec; stroke-width: 0.85; stroke-linecap: square"/>
     </g>
     <g id="line2d_101"/>
     <g id="text_69">
      <!-- 5 -->
      <g style="fill: #627588" transform="translate(479.454264 573.456573) scale(0.09 -0.09)">
       <use xlink:href="#DejaVuSans-35"/>
      </g>
     </g>
    </g>
    <g id="ytick_32">
     <g id="line2d_102">
      <path d="M 488.680514 545.455914 
L 843.264 545.455914 
" clip-path="url(#p156804867e)" style="fill: none; stroke: #d8e3ec; stroke-width: 0.85; stroke-linecap: square"/>
     </g>
     <g id="line2d_103"/>
     <g id="text_70">
      <!-- 8 -->
      <g style="fill: #627588" transform="translate(479.454264 548.875211) scale(0.09 -0.09)">
       <use xlink:href="#DejaVuSans-38"/>
      </g>
     </g>
    </g>
   </g>
   <g id="patch_17">
    <path d="M 488.680514 619.2 
L 843.264 619.2 
" style="fill: none; stroke: #93a6b8; stroke-linejoin: miter; stroke-linecap: square"/>
   </g>
   <g id="line2d_104">
    <path d="M 488.680514 619.2 
L 499.189286 619.2 
L 501.904052 617.811222 
L 520.644696 617.811222 
L 523.359462 616.398501 
L 531.241041 616.398501 
L 533.955807 617.787278 
L 536.583 617.787278 
L 539.297766 616.324102 
L 552.696451 616.324102 
L 555.411217 617.736824 
L 557.863264 617.736824 
L 560.57803 616.51387 
L 568.547182 616.51387 
L 571.261948 617.977047 
L 573.976714 616.869778 
L 579.318673 616.869778 
L 581.945866 614.941828 
L 589.827445 614.941828 
L 592.542212 616.164781 
L 595.169405 615.274152 
L 603.22613 615.274152 
L 605.940896 616.381421 
L 611.282855 616.381421 
L 613.910048 618.309371 
L 616.624814 617.637749 
L 619.339581 616.842236 
L 621.791627 616.842236 
L 624.506394 616.147847 
L 627.133587 617.038476 
L 632.475546 617.038476 
L 635.190312 614.843712 
L 637.905078 614.124958 
L 640.532271 614.124958 
L 643.247037 613.547931 
L 648.588996 613.553391 
L 651.303762 613.775913 
L 653.843382 613.775913 
L 656.558149 614.470301 
L 661.900108 613.31533 
L 664.527301 612.208062 
L 667.242067 613.887494 
L 669.956833 614.08435 
L 672.584026 613.530715 
L 675.298792 613.509656 
L 677.925985 612.832483 
L 680.640751 611.356478 
L 683.355517 611.929471 
L 685.807564 611.469145 
L 688.52233 611.469145 
L 691.149523 611.124973 
L 693.86429 611.339384 
L 696.491483 612.446652 
L 701.921015 612.664422 
L 707.262974 612.350601 
L 709.890167 612.251111 
L 712.604933 612.903498 
L 715.319699 612.144814 
L 717.771746 612.605139 
L 720.486512 610.80034 
L 723.113705 611.077855 
L 725.828471 609.934188 
L 728.455664 609.596995 
L 731.170431 609.500233 
L 736.51239 609.954967 
L 739.227156 609.54501 
L 741.854349 609.363334 
L 744.569115 608.421723 
L 747.283881 607.777361 
L 749.735928 606.90102 
L 752.450694 607.409334 
L 755.077887 606.920891 
L 757.792653 606.636446 
L 760.419846 605.501701 
L 763.134613 605.151176 
L 765.849379 604.571543 
L 768.476572 603.550967 
L 771.191338 603.819533 
L 773.818531 603.73805 
L 776.533297 605.46308 
L 779.248063 605.950619 
L 781.787683 605.839756 
L 784.502449 604.712044 
L 787.129642 604.580579 
L 789.844408 605.052088 
L 792.471601 605.683638 
L 795.186368 603.596033 
L 797.901134 603.894287 
L 800.528327 603.762891 
L 803.243093 602.854929 
L 805.870286 601.526603 
L 808.585052 600.543524 
L 811.299818 599.049093 
L 813.751865 598.119621 
L 816.466631 599.263539 
L 819.093824 595.468993 
L 821.80859 595.375788 
L 824.435783 592.837295 
L 827.150549 591.064168 
L 829.865316 586.065509 
L 832.492509 583.199458 
L 835.207275 581.070872 
L 837.834468 577.862095 
L 843.264 572.47393 
L 843.264 572.47393 
" clip-path="url(#p156804867e)" style="fill: none; stroke: #24539a; stroke-width: 2.6; stroke-linecap: square"/>
   </g>
   <g id="text_71">
    <!-- 28,018 papers -->
    <g style="fill: #627588" transform="translate(488.680514 529.509795) scale(0.092 -0.092)">
     <use xlink:href="#DejaVuSans-32"/>
     <use xlink:href="#DejaVuSans-38" x="63.623047"/>
     <use xlink:href="#DejaVuSans-2c" x="127.246094"/>
     <use xlink:href="#DejaVuSans-30" x="159.033203"/>
     <use xlink:href="#DejaVuSans-31" x="222.65625"/>
     <use xlink:href="#DejaVuSans-38" x="286.279297"/>
     <use xlink:href="#DejaVuSans-20" x="349.902344"/>
     <use xlink:href="#DejaVuSans-70" x="381.689453"/>
     <use xlink:href="#DejaVuSans-61" x="445.166016"/>
     <use xlink:href="#DejaVuSans-70" x="506.445312"/>
     <use xlink:href="#DejaVuSans-65" x="569.921875"/>
     <use xlink:href="#DejaVuSans-72" x="631.445312"/>
     <use xlink:href="#DejaVuSans-73" x="672.558594"/>
    </g>
   </g>
   <g id="text_72">
    <!-- Environment and energy -->
    <g style="fill: #18324a" transform="translate(488.680514 525.144223) scale(0.123 -0.123)">
     <defs>
      <path id="DejaVuSans-45" d="M 628 4666 
L 3578 4666 
L 3578 4134 
L 1259 4134 
L 1259 2753 
L 3481 2753 
L 3481 2222 
L 1259 2222 
L 1259 531 
L 3634 531 
L 3634 0 
L 628 0 
L 628 4666 
z
" transform="scale(0.015625)"/>
      <path id="DejaVuSans-67" d="M 2906 1791 
Q 2906 2416 2648 2759 
Q 2391 3103 1925 3103 
Q 1463 3103 1205 2759 
Q 947 2416 947 1791 
Q 947 1169 1205 825 
Q 1463 481 1925 481 
Q 2391 481 2648 825 
Q 2906 1169 2906 1791 
z
M 3481 434 
Q 3481 -459 3084 -895 
Q 2688 -1331 1869 -1331 
Q 1566 -1331 1297 -1286 
Q 1028 -1241 775 -1147 
L 775 -588 
Q 1028 -725 1275 -790 
Q 1522 -856 1778 -856 
Q 2344 -856 2625 -561 
Q 2906 -266 2906 331 
L 2906 616 
Q 2728 306 2450 153 
Q 2172 0 1784 0 
Q 1141 0 747 490 
Q 353 981 353 1791 
Q 353 2603 747 3093 
Q 1141 3584 1784 3584 
Q 2172 3584 2450 3431 
Q 2728 3278 2906 2969 
L 2906 3500 
L 3481 3500 
L 3481 434 
z
" transform="scale(0.015625)"/>
      <path id="DejaVuSans-79" d="M 2059 -325 
Q 1816 -950 1584 -1140 
Q 1353 -1331 966 -1331 
L 506 -1331 
L 506 -850 
L 844 -850 
Q 1081 -850 1212 -737 
Q 1344 -625 1503 -206 
L 1606 56 
L 191 3500 
L 800 3500 
L 1894 763 
L 2988 3500 
L 3597 3500 
L 2059 -325 
z
" transform="scale(0.015625)"/>
     </defs>
     <use xlink:href="#DejaVuSans-45"/>
     <use xlink:href="#DejaVuSans-6e" x="63.183594"/>
     <use xlink:href="#DejaVuSans-76" x="126.5625"/>
     <use xlink:href="#DejaVuSans-69" x="185.742188"/>
     <use xlink:href="#DejaVuSans-72" x="213.525391"/>
     <use xlink:href="#DejaVuSans-6f" x="252.388672"/>
     <use xlink:href="#DejaVuSans-6e" x="313.570312"/>
     <use xlink:href="#DejaVuSans-6d" x="376.949219"/>
     <use xlink:href="#DejaVuSans-65" x="474.361328"/>
     <use xlink:href="#DejaVuSans-6e" x="535.884766"/>
     <use xlink:href="#DejaVuSans-74" x="599.263672"/>
     <use xlink:href="#DejaVuSans-20" x="638.472656"/>
     <use xlink:href="#DejaVuSans-61" x="670.259766"/>
     <use xlink:href="#DejaVuSans-6e" x="731.539062"/>
     <use xlink:href="#DejaVuSans-64" x="794.917969"/>
     <use xlink:href="#DejaVuSans-20" x="858.394531"/>
     <use xlink:href="#DejaVuSans-65" x="890.181641"/>
     <use xlink:href="#DejaVuSans-6e" x="951.705078"/>
     <use xlink:href="#DejaVuSans-65" x="1015.083984"/>
     <use xlink:href="#DejaVuSans-72" x="1076.607422"/>
     <use xlink:href="#DejaVuSans-67" x="1115.970703"/>
     <use xlink:href="#DejaVuSans-79" x="1179.447266"/>
    </g>
   </g>
  </g>
  <g id="text_73">
   <!-- AI-term mentions across major field slices -->
   <g style="fill: #18324a" transform="translate(70.272 50.4) scale(0.215 -0.215)">
    <defs>
     <path id="DejaVuSans-41" d="M 2188 4044 
L 1331 1722 
L 3047 1722 
L 2188 4044 
z
M 1831 4666 
L 2547 4666 
L 4325 0 
L 3669 0 
L 3244 1197 
L 1141 1197 
L 716 0 
L 50 0 
L 1831 4666 
z
" transform="scale(0.015625)"/>
     <path id="DejaVuSans-49" d="M 628 4666 
L 1259 4666 
L 1259 0 
L 628 0 
L 628 4666 
z
" transform="scale(0.015625)"/>
     <path id="DejaVuSans-2d" d="M 313 2009 
L 1997 2009 
L 1997 1497 
L 313 1497 
L 313 2009 
z
" transform="scale(0.015625)"/>
     <path id="DejaVuSans-6a" d="M 603 3500 
L 1178 3500 
L 1178 -63 
Q 1178 -731 923 -1031 
Q 669 -1331 103 -1331 
L -116 -1331 
L -116 -844 
L 38 -844 
Q 366 -844 484 -692 
Q 603 -541 603 -63 
L 603 3500 
z
M 603 4863 
L 1178 4863 
L 1178 4134 
L 603 4134 
L 603 4863 
z
" transform="scale(0.015625)"/>
    </defs>
    <use xlink:href="#DejaVuSans-41"/>
    <use xlink:href="#DejaVuSans-49" x="68.408203"/>
    <use xlink:href="#DejaVuSans-2d" x="97.900391"/>
    <use xlink:href="#DejaVuSans-74" x="133.984375"/>
    <use xlink:href="#DejaVuSans-65" x="173.193359"/>
    <use xlink:href="#DejaVuSans-72" x="234.716797"/>
    <use xlink:href="#DejaVuSans-6d" x="274.080078"/>
    <use xlink:href="#DejaVuSans-20" x="371.492188"/>
    <use xlink:href="#DejaVuSans-6d" x="403.279297"/>
    <use xlink:href="#DejaVuSans-65" x="500.691406"/>
    <use xlink:href="#DejaVuSans-6e" x="562.214844"/>
    <use xlink:href="#DejaVuSans-74" x="625.59375"/>
    <use xlink:href="#DejaVuSans-69" x="664.802734"/>
    <use xlink:href="#DejaVuSans-6f" x="692.585938"/>
    <use xlink:href="#DejaVuSans-6e" x="753.767578"/>
    <use xlink:href="#DejaVuSans-73" x="817.146484"/>
    <use xlink:href="#DejaVuSans-20" x="869.246094"/>
    <use xlink:href="#DejaVuSans-61" x="901.033203"/>
    <use xlink:href="#DejaVuSans-63" x="962.3125"/>
    <use xlink:href="#DejaVuSans-72" x="1017.292969"/>
    <use xlink:href="#DejaVuSans-6f" x="1056.15625"/>
    <use xlink:href="#DejaVuSans-73" x="1117.337891"/>
    <use xlink:href="#DejaVuSans-73" x="1169.4375"/>
    <use xlink:href="#DejaVuSans-20" x="1221.537109"/>
    <use xlink:href="#DejaVuSans-6d" x="1253.324219"/>
    <use xlink:href="#DejaVuSans-61" x="1350.736328"/>
    <use xlink:href="#DejaVuSans-6a" x="1412.015625"/>
    <use xlink:href="#DejaVuSans-6f" x="1439.798828"/>
    <use xlink:href="#DejaVuSans-72" x="1500.980469"/>
    <use xlink:href="#DejaVuSans-20" x="1542.09375"/>
    <use xlink:href="#DejaVuSans-66" x="1573.880859"/>
    <use xlink:href="#DejaVuSans-69" x="1609.085938"/>
    <use xlink:href="#DejaVuSans-65" x="1636.869141"/>
    <use xlink:href="#DejaVuSans-6c" x="1698.392578"/>
    <use xlink:href="#DejaVuSans-64" x="1726.175781"/>
    <use xlink:href="#DejaVuSans-20" x="1789.652344"/>
    <use xlink:href="#DejaVuSans-73" x="1821.439453"/>
    <use xlink:href="#DejaVuSans-6c" x="1873.539062"/>
    <use xlink:href="#DejaVuSans-69" x="1901.322266"/>
    <use xlink:href="#DejaVuSans-63" x="1929.105469"/>
    <use xlink:href="#DejaVuSans-65" x="1984.085938"/>
    <use xlink:href="#DejaVuSans-73" x="2045.609375"/>
   </g>
  </g>
  <g id="text_74">
   <!-- 12-month rolling averages from paper-level primary-topic assignments -->
   <g style="fill: #627588" transform="translate(70.272 90) scale(0.136 -0.136)">
    <use xlink:href="#DejaVuSans-31"/>
    <use xlink:href="#DejaVuSans-32" x="63.623047"/>
    <use xlink:href="#DejaVuSans-2d" x="127.246094"/>
    <use xlink:href="#DejaVuSans-6d" x="163.330078"/>
    <use xlink:href="#DejaVuSans-6f" x="260.742188"/>
    <use xlink:href="#DejaVuSans-6e" x="321.923828"/>
    <use xlink:href="#DejaVuSans-74" x="385.302734"/>
    <use xlink:href="#DejaVuSans-68" x="424.511719"/>
    <use xlink:href="#DejaVuSans-20" x="487.890625"/>
    <use xlink:href="#DejaVuSans-72" x="519.677734"/>
    <use xlink:href="#DejaVuSans-6f" x="558.541016"/>
    <use xlink:href="#DejaVuSans-6c" x="619.722656"/>
    <use xlink:href="#DejaVuSans-6c" x="647.505859"/>
    <use xlink:href="#DejaVuSans-69" x="675.289062"/>
    <use xlink:href="#DejaVuSans-6e" x="703.072266"/>
    <use xlink:href="#DejaVuSans-67" x="766.451172"/>
    <use xlink:href="#DejaVuSans-20" x="829.927734"/>
    <use xlink:href="#DejaVuSans-61" x="861.714844"/>
    <use xlink:href="#DejaVuSans-76" x="922.994141"/>
    <use xlink:href="#DejaVuSans-65" x="982.173828"/>
    <use xlink:href="#DejaVuSans-72" x="1043.697266"/>
    <use xlink:href="#DejaVuSans-61" x="1084.810547"/>
    <use xlink:href="#DejaVuSans-67" x="1146.089844"/>
    <use xlink:href="#DejaVuSans-65" x="1209.566406"/>
    <use xlink:href="#DejaVuSans-73" x="1271.089844"/>
    <use xlink:href="#DejaVuSans-20" x="1323.189453"/>
    <use xlink:href="#DejaVuSans-66" x="1354.976562"/>
    <use xlink:href="#DejaVuSans-72" x="1390.181641"/>
    <use xlink:href="#DejaVuSans-6f" x="1429.044922"/>
    <use xlink:href="#DejaVuSans-6d" x="1490.226562"/>
    <use xlink:href="#DejaVuSans-20" x="1587.638672"/>
    <use xlink:href="#DejaVuSans-70" x="1619.425781"/>
    <use xlink:href="#DejaVuSans-61" x="1682.902344"/>
    <use xlink:href="#DejaVuSans-70" x="1744.181641"/>
    <use xlink:href="#DejaVuSans-65" x="1807.658203"/>
    <use xlink:href="#DejaVuSans-72" x="1869.181641"/>
    <use xlink:href="#DejaVuSans-2d" x="1903.919922"/>
    <use xlink:href="#DejaVuSans-6c" x="1940.003906"/>
    <use xlink:href="#DejaVuSans-65" x="1967.787109"/>
    <use xlink:href="#DejaVuSans-76" x="2029.310547"/>
    <use xlink:href="#DejaVuSans-65" x="2088.490234"/>
    <use xlink:href="#DejaVuSans-6c" x="2150.013672"/>
    <use xlink:href="#DejaVuSans-20" x="2177.796875"/>
    <use xlink:href="#DejaVuSans-70" x="2209.583984"/>
    <use xlink:href="#DejaVuSans-72" x="2273.060547"/>
    <use xlink:href="#DejaVuSans-69" x="2314.173828"/>
    <use xlink:href="#DejaVuSans-6d" x="2341.957031"/>
    <use xlink:href="#DejaVuSans-61" x="2439.369141"/>
    <use xlink:href="#DejaVuSans-72" x="2500.648438"/>
    <use xlink:href="#DejaVuSans-79" x="2541.761719"/>
    <use xlink:href="#DejaVuSans-2d" x="2599.191406"/>
    <use xlink:href="#DejaVuSans-74" x="2635.275391"/>
    <use xlink:href="#DejaVuSans-6f" x="2674.484375"/>
    <use xlink:href="#DejaVuSans-70" x="2735.666016"/>
    <use xlink:href="#DejaVuSans-69" x="2799.142578"/>
    <use xlink:href="#DejaVuSans-63" x="2826.925781"/>
    <use xlink:href="#DejaVuSans-20" x="2881.90625"/>
    <use xlink:href="#DejaVuSans-61" x="2913.693359"/>
    <use xlink:href="#DejaVuSans-73" x="2974.972656"/>
    <use xlink:href="#DejaVuSans-73" x="3027.072266"/>
    <use xlink:href="#DejaVuSans-69" x="3079.171875"/>
    <use xlink:href="#DejaVuSans-67" x="3106.955078"/>
    <use xlink:href="#DejaVuSans-6e" x="3170.431641"/>
    <use xlink:href="#DejaVuSans-6d" x="3233.810547"/>
    <use xlink:href="#DejaVuSans-65" x="3331.222656"/>
    <use xlink:href="#DejaVuSans-6e" x="3392.746094"/>
    <use xlink:href="#DejaVuSans-74" x="3456.125"/>
    <use xlink:href="#DejaVuSans-73" x="3495.333984"/>
   </g>
  </g>
  <g id="text_75">
   <!-- Source: published-journal corpus assembled for Frontier Graph -->
   <g style="fill: #627588" transform="translate(70.272 638.406192) scale(0.105 -0.105)">
    <defs>
     <path id="DejaVuSans-53" d="M 3425 4513 
L 3425 3897 
Q 3066 4069 2747 4153 
Q 2428 4238 2131 4238 
Q 1616 4238 1336 4038 
Q 1056 3838 1056 3469 
Q 1056 3159 1242 3001 
Q 1428 2844 1947 2747 
L 2328 2669 
Q 3034 2534 3370 2195 
Q 3706 1856 3706 1288 
Q 3706 609 3251 259 
Q 2797 -91 1919 -91 
Q 1588 -91 1214 -16 
Q 841 59 441 206 
L 441 856 
Q 825 641 1194 531 
Q 1563 422 1919 422 
Q 2459 422 2753 634 
Q 3047 847 3047 1241 
Q 3047 1584 2836 1778 
Q 2625 1972 2144 2069 
L 1759 2144 
Q 1053 2284 737 2584 
Q 422 2884 422 3419 
Q 422 4038 858 4394 
Q 1294 4750 2059 4750 
Q 2388 4750 2728 4690 
Q 3069 4631 3425 4513 
z
" transform="scale(0.015625)"/>
     <path id="DejaVuSans-3a" d="M 750 794 
L 1409 794 
L 1409 0 
L 750 0 
L 750 794 
z
M 750 3309 
L 1409 3309 
L 1409 2516 
L 750 2516 
L 750 3309 
z
" transform="scale(0.015625)"/>
     <path id="DejaVuSans-47" d="M 3809 666 
L 3809 1919 
L 2778 1919 
L 2778 2438 
L 4434 2438 
L 4434 434 
Q 4069 175 3628 42 
Q 3188 -91 2688 -91 
Q 1594 -91 976 548 
Q 359 1188 359 2328 
Q 359 3472 976 4111 
Q 1594 4750 2688 4750 
Q 3144 4750 3555 4637 
Q 3966 4525 4313 4306 
L 4313 3634 
Q 3963 3931 3569 4081 
Q 3175 4231 2741 4231 
Q 1884 4231 1454 3753 
Q 1025 3275 1025 2328 
Q 1025 1384 1454 906 
Q 1884 428 2741 428 
Q 3075 428 3337 486 
Q 3600 544 3809 666 
z
" transform="scale(0.015625)"/>
    </defs>
    <use xlink:href="#DejaVuSans-53"/>
    <use xlink:href="#DejaVuSans-6f" x="63.476562"/>
    <use xlink:href="#DejaVuSans-75" x="124.658203"/>
    <use xlink:href="#DejaVuSans-72" x="188.037109"/>
    <use xlink:href="#DejaVuSans-63" x="226.900391"/>
    <use xlink:href="#DejaVuSans-65" x="281.880859"/>
    <use xlink:href="#DejaVuSans-3a" x="343.404297"/>
    <use xlink:href="#DejaVuSans-20" x="377.095703"/>
    <use xlink:href="#DejaVuSans-70" x="408.882812"/>
    <use xlink:href="#DejaVuSans-75" x="472.359375"/>
    <use xlink:href="#DejaVuSans-62" x="535.738281"/>
    <use xlink:href="#DejaVuSans-6c" x="599.214844"/>
    <use xlink:href="#DejaVuSans-69" x="626.998047"/>
    <use xlink:href="#DejaVuSans-73" x="654.78125"/>
    <use xlink:href="#DejaVuSans-68" x="706.880859"/>
    <use xlink:href="#DejaVuSans-65" x="770.259766"/>
    <use xlink:href="#DejaVuSans-64" x="831.783203"/>
    <use xlink:href="#DejaVuSans-2d" x="895.259766"/>
    <use xlink:href="#DejaVuSans-6a" x="931.34375"/>
    <use xlink:href="#DejaVuSans-6f" x="959.126953"/>
    <use xlink:href="#DejaVuSans-75" x="1020.308594"/>
    <use xlink:href="#DejaVuSans-72" x="1083.6875"/>
    <use xlink:href="#DejaVuSans-6e" x="1123.050781"/>
    <use xlink:href="#DejaVuSans-61" x="1186.429688"/>
    <use xlink:href="#DejaVuSans-6c" x="1247.708984"/>
    <use xlink:href="#DejaVuSans-20" x="1275.492188"/>
    <use xlink:href="#DejaVuSans-63" x="1307.279297"/>
    <use xlink:href="#DejaVuSans-6f" x="1362.259766"/>
    <use xlink:href="#DejaVuSans-72" x="1423.441406"/>
    <use xlink:href="#DejaVuSans-70" x="1464.554688"/>
    <use xlink:href="#DejaVuSans-75" x="1528.03125"/>
    <use xlink:href="#DejaVuSans-73" x="1591.410156"/>
    <use xlink:href="#DejaVuSans-20" x="1643.509766"/>
    <use xlink:href="#DejaVuSans-61" x="1675.296875"/>
    <use xlink:href="#DejaVuSans-73" x="1736.576172"/>
    <use xlink:href="#DejaVuSans-73" x="1788.675781"/>
    <use xlink:href="#DejaVuSans-65" x="1840.775391"/>
    <use xlink:href="#DejaVuSans-6d" x="1902.298828"/>
    <use xlink:href="#DejaVuSans-62" x="1999.710938"/>
    <use xlink:href="#DejaVuSans-6c" x="2063.1875"/>
    <use xlink:href="#DejaVuSans-65" x="2090.970703"/>
    <use xlink:href="#DejaVuSans-64" x="2152.494141"/>
    <use xlink:href="#DejaVuSans-20" x="2215.970703"/>
    <use xlink:href="#DejaVuSans-66" x="2247.757812"/>
    <use xlink:href="#DejaVuSans-6f" x="2282.962891"/>
    <use xlink:href="#DejaVuSans-72" x="2344.144531"/>
    <use xlink:href="#DejaVuSans-20" x="2385.257812"/>
    <use xlink:href="#DejaVuSans-46" x="2417.044922"/>
    <use xlink:href="#DejaVuSans-72" x="2467.314453"/>
    <use xlink:href="#DejaVuSans-6f" x="2506.177734"/>
    <use xlink:href="#DejaVuSans-6e" x="2567.359375"/>
    <use xlink:href="#DejaVuSans-74" x="2630.738281"/>
    <use xlink:href="#DejaVuSans-69" x="2669.947266"/>
    <use xlink:href="#DejaVuSans-65" x="2697.730469"/>
    <use xlink:href="#DejaVuSans-72" x="2759.253906"/>
    <use xlink:href="#DejaVuSans-20" x="2800.367188"/>
    <use xlink:href="#DejaVuSans-47" x="2832.154297"/>
    <use xlink:href="#DejaVuSans-72" x="2909.644531"/>
    <use xlink:href="#DejaVuSans-61" x="2950.757812"/>
    <use xlink:href="#DejaVuSans-70" x="3012.037109"/>
    <use xlink:href="#DejaVuSans-68" x="3075.513672"/>
   </g>
   <!-- Fields are assigned with a transparent keyword map over each paper's OpenAlex primary topic label. -->
   <g style="fill: #627588" transform="translate(70.272 651.6) scale(0.105 -0.105)">
    <defs>
     <path id="DejaVuSans-77" d="M 269 3500 
L 844 3500 
L 1563 769 
L 2278 3500 
L 2956 3500 
L 3675 769 
L 4391 3500 
L 4966 3500 
L 4050 0 
L 3372 0 
L 2619 2869 
L 1863 0 
L 1184 0 
L 269 3500 
z
" transform="scale(0.015625)"/>
     <path id="DejaVuSans-6b" d="M 581 4863 
L 1159 4863 
L 1159 1991 
L 2875 3500 
L 3609 3500 
L 1753 1863 
L 3688 0 
L 2938 0 
L 1159 1709 
L 1159 0 
L 581 0 
L 581 4863 
z
" transform="scale(0.015625)"/>
     <path id="DejaVuSans-27" d="M 1147 4666 
L 1147 2931 
L 616 2931 
L 616 4666 
L 1147 4666 
z
" transform="scale(0.015625)"/>
     <path id="DejaVuSans-4f" d="M 2522 4238 
Q 1834 4238 1429 3725 
Q 1025 3213 1025 2328 
Q 1025 1447 1429 934 
Q 1834 422 2522 422 
Q 3209 422 3611 934 
Q 4013 1447 4013 2328 
Q 4013 3213 3611 3725 
Q 3209 4238 2522 4238 
z
M 2522 4750 
Q 3503 4750 4090 4092 
Q 4678 3434 4678 2328 
Q 4678 1225 4090 567 
Q 3503 -91 2522 -91 
Q 1538 -91 948 565 
Q 359 1222 359 2328 
Q 359 3434 948 4092 
Q 1538 4750 2522 4750 
z
" transform="scale(0.015625)"/>
     <path id="DejaVuSans-78" d="M 3513 3500 
L 2247 1797 
L 3578 0 
L 2900 0 
L 1881 1375 
L 863 0 
L 184 0 
L 1544 1831 
L 300 3500 
L 978 3500 
L 1906 2253 
L 2834 3500 
L 3513 3500 
z
" transform="scale(0.015625)"/>
     <path id="DejaVuSans-2e" d="M 684 794 
L 1344 794 
L 1344 0 
L 684 0 
L 684 794 
z
" transform="scale(0.015625)"/>
    </defs>
    <use xlink:href="#DejaVuSans-46"/>
    <use xlink:href="#DejaVuSans-69" x="50.269531"/>
    <use xlink:href="#DejaVuSans-65" x="78.052734"/>
    <use xlink:href="#DejaVuSans-6c" x="139.576172"/>
    <use xlink:href="#DejaVuSans-64" x="167.359375"/>
    <use xlink:href="#DejaVuSans-73" x="230.835938"/>
    <use xlink:href="#DejaVuSans-20" x="282.935547"/>
    <use xlink:href="#DejaVuSans-61" x="314.722656"/>
    <use xlink:href="#DejaVuSans-72" x="376.001953"/>
    <use xlink:href="#DejaVuSans-65" x="414.865234"/>
    <use xlink:href="#DejaVuSans-20" x="476.388672"/>
    <use xlink:href="#DejaVuSans-61" x="508.175781"/>
    <use xlink:href="#DejaVuSans-73" x="569.455078"/>
    <use xlink:href="#DejaVuSans-73" x="621.554688"/>
    <use xlink:href="#DejaVuSans-69" x="673.654297"/>
    <use xlink:href="#DejaVuSans-67" x="701.4375"/>
    <use xlink:href="#DejaVuSans-6e" x="764.914062"/>
    <use xlink:href="#DejaVuSans-65" x="828.292969"/>
    <use xlink:href="#DejaVuSans-64" x="889.816406"/>
    <use xlink:href="#DejaVuSans-20" x="953.292969"/>
    <use xlink:href="#DejaVuSans-77" x="985.080078"/>
    <use xlink:href="#DejaVuSans-69" x="1066.867188"/>
    <use xlink:href="#DejaVuSans-74" x="1094.650391"/>
    <use xlink:href="#DejaVuSans-68" x="1133.859375"/>
    <use xlink:href="#DejaVuSans-20" x="1197.238281"/>
    <use xlink:href="#DejaVuSans-61" x="1229.025391"/>
    <use xlink:href="#DejaVuSans-20" x="1290.304688"/>
    <use xlink:href="#DejaVuSans-74" x="1322.091797"/>
    <use xlink:href="#DejaVuSans-72" x="1361.300781"/>
    <use xlink:href="#DejaVuSans-61" x="1402.414062"/>
    <use xlink:href="#DejaVuSans-6e" x="1463.693359"/>
    <use xlink:href="#DejaVuSans-73" x="1527.072266"/>
    <use xlink:href="#DejaVuSans-70" x="1579.171875"/>
    <use xlink:href="#DejaVuSans-61" x="1642.648438"/>
    <use xlink:href="#DejaVuSans-72" x="1703.927734"/>
    <use xlink:href="#DejaVuSans-65" x="1742.791016"/>
    <use xlink:href="#DejaVuSans-6e" x="1804.314453"/>
    <use xlink:href="#DejaVuSans-74" x="1867.693359"/>
    <use xlink:href="#DejaVuSans-20" x="1906.902344"/>
    <use xlink:href="#DejaVuSans-6b" x="1938.689453"/>
    <use xlink:href="#DejaVuSans-65" x="1992.974609"/>
    <use xlink:href="#DejaVuSans-79" x="2054.498047"/>
    <use xlink:href="#DejaVuSans-77" x="2113.677734"/>
    <use xlink:href="#DejaVuSans-6f" x="2195.464844"/>
    <use xlink:href="#DejaVuSans-72" x="2256.646484"/>
    <use xlink:href="#DejaVuSans-64" x="2296.009766"/>
    <use xlink:href="#DejaVuSans-20" x="2359.486328"/>
    <use xlink:href="#DejaVuSans-6d" x="2391.273438"/>
    <use xlink:href="#DejaVuSans-61" x="2488.685547"/>
    <use xlink:href="#DejaVuSans-70" x="2549.964844"/>
    <use xlink:href="#DejaVuSans-20" x="2613.441406"/>
    <use xlink:href="#DejaVuSans-6f" x="2645.228516"/>
    <use xlink:href="#DejaVuSans-76" x="2706.410156"/>
    <use xlink:href="#DejaVuSans-65" x="2765.589844"/>
    <use xlink:href="#DejaVuSans-72" x="2827.113281"/>
    <use xlink:href="#DejaVuSans-20" x="2868.226562"/>
    <use xlink:href="#DejaVuSans-65" x="2900.013672"/>
    <use xlink:href="#DejaVuSans-61" x="2961.537109"/>
    <use xlink:href="#DejaVuSans-63" x="3022.816406"/>
    <use xlink:href="#DejaVuSans-68" x="3077.796875"/>
    <use xlink:href="#DejaVuSans-20" x="3141.175781"/>
    <use xlink:href="#DejaVuSans-70" x="3172.962891"/>
    <use xlink:href="#DejaVuSans-61" x="3236.439453"/>
    <use xlink:href="#DejaVuSans-70" x="3297.71875"/>
    <use xlink:href="#DejaVuSans-65" x="3361.195312"/>
    <use xlink:href="#DejaVuSans-72" x="3422.71875"/>
    <use xlink:href="#DejaVuSans-27" x="3463.832031"/>
    <use xlink:href="#DejaVuSans-73" x="3491.322266"/>
    <use xlink:href="#DejaVuSans-20" x="3543.421875"/>
    <use xlink:href="#DejaVuSans-4f" x="3575.208984"/>
    <use xlink:href="#DejaVuSans-70" x="3653.919922"/>
    <use xlink:href="#DejaVuSans-65" x="3717.396484"/>
    <use xlink:href="#DejaVuSans-6e" x="3778.919922"/>
    <use xlink:href="#DejaVuSans-41" x="3842.298828"/>
    <use xlink:href="#DejaVuSans-6c" x="3910.707031"/>
    <use xlink:href="#DejaVuSans-65" x="3938.490234"/>
    <use xlink:href="#DejaVuSans-78" x="3998.263672"/>
    <use xlink:href="#DejaVuSans-20" x="4057.443359"/>
    <use xlink:href="#DejaVuSans-70" x="4089.230469"/>
    <use xlink:href="#DejaVuSans-72" x="4152.707031"/>
    <use xlink:href="#DejaVuSans-69" x="4193.820312"/>
    <use xlink:href="#DejaVuSans-6d" x="4221.603516"/>
    <use xlink:href="#DejaVuSans-61" x="4319.015625"/>
    <use xlink:href="#DejaVuSans-72" x="4380.294922"/>
    <use xlink:href="#DejaVuSans-79" x="4421.408203"/>
    <use xlink:href="#DejaVuSans-20" x="4480.587891"/>
    <use xlink:href="#DejaVuSans-74" x="4512.375"/>
    <use xlink:href="#DejaVuSans-6f" x="4551.583984"/>
    <use xlink:href="#DejaVuSans-70" x="4612.765625"/>
    <use xlink:href="#DejaVuSans-69" x="4676.242188"/>
    <use xlink:href="#DejaVuSans-63" x="4704.025391"/>
    <use xlink:href="#DejaVuSans-20" x="4759.005859"/>
    <use xlink:href="#DejaVuSans-6c" x="4790.792969"/>
    <use xlink:href="#DejaVuSans-61" x="4818.576172"/>
    <use xlink:href="#DejaVuSans-62" x="4879.855469"/>
    <use xlink:href="#DejaVuSans-65" x="4943.332031"/>
    <use xlink:href="#DejaVuSans-6c" x="5004.855469"/>
    <use xlink:href="#DejaVuSans-2e" x="5032.638672"/>
   </g>
  </g>
 </g>
 <defs>
  <clipPath id="pef490ee101">
   <rect x="70.272" y="187.2" width="354.583486" height="86.055777"/>
  </clipPath>
  <clipPath id="p2ac0ad2919">
   <rect x="488.680514" y="187.2" width="354.583486" height="86.055777"/>
  </clipPath>
  <clipPath id="p2c6f3ba1b3">
   <rect x="70.272" y="302.514741" width="354.583486" height="86.055777"/>
  </clipPath>
  <clipPath id="pa80902f1a2">
   <rect x="488.680514" y="302.514741" width="354.583486" height="86.055777"/>
  </clipPath>
  <clipPath id="p4f38cc466f">
   <rect x="70.272" y="417.829482" width="354.583486" height="86.055777"/>
  </clipPath>
  <clipPath id="pb0465b6abf">
   <rect x="488.680514" y="417.829482" width="354.583486" height="86.055777"/>
  </clipPath>
  <clipPath id="pf57efc6a64">
   <rect x="70.272" y="533.144223" width="354.583486" height="86.055777"/>
  </clipPath>
  <clipPath id="p156804867e">
   <rect x="488.680514" y="533.144223" width="354.583486" height="86.055777"/>
  </clipPath>
 </defs>
</svg>
