<?xml version="1.0" encoding="utf-8" standalone="no"?>
<!DOCTYPE svg PUBLIC "-//W3C//DTD SVG 1.1//EN"
  "http://www.w3.org/Graphics/SVG/1.1/DTD/svg11.dtd">
<svg xmlns:xlink="http://www.w3.org/1999/xlink" width="590.4pt" height="763.2pt" viewBox="0 0 590.4 763.2" xmlns="http://www.w3.org/2000/svg" version="1.1">
 <metadata>
  <rdf:RDF xmlns:dc="http://purl.org/dc/elements/1.1/" xmlns:cc="http://creativecommons.org/ns#" xmlns:rdf="http://www.w3.org/1999/02/22-rdf-syntax-ns#">
   <cc:Work>
    <dc:type rdf:resource="http://purl.org/dc/dcmitype/StillImage"/>
    <dc:date>2026-03-19T18:30:54.949789</dc:date>
    <dc:format>image/svg+xml</dc:format>
    <dc:creator>
     <cc:Agent>
      <dc:title>Matplotlib v3.9.4, https://matplotlib.org/</dc:title>
     </cc:Agent>
    </dc:creator>
   </cc:Work>
  </rdf:RDF>
 </metadata>
 <defs>
  <style type="text/css">*{stroke-linejoin: round; stroke-linecap: butt}</style>
 </defs>
 <g id="figure_1">
  <g id="patch_1">
   <path d="M 0 763.2 
L 590.4 763.2 
L 590.4 0 
L 0 0 
z
" style="fill: #faf7f2"/>
  </g>
  <g id="axes_1">
   <g id="patch_2">
    <path d="M 70.848 583.848 
L 495.936 583.848 
L 495.936 183.168 
L 70.848 183.168 
z
" style="fill: #faf7f2"/>
   </g>
   <g id="line2d_1">
    <path d="M 353.133 583.848 
L 353.133 183.168 
" clip-path="url(#p62077da045)" style="fill: none; stroke-dasharray: 2,3.3; stroke-dashoffset: 0; stroke: #152238; stroke-width: 2"/>
   </g>
   <g id="matplotlib.axis_1">
    <g id="xtick_1">
     <g id="line2d_2"/>
     <g id="text_1">
      <!-- 2016 -->
      <g style="fill: #6a625c" transform="translate(91.229912 596.466125) scale(0.12 -0.12)">
       <defs>
        <path id="DejaVuSans-32" d="M 1228 531 
L 3431 531 
L 3431 0 
L 469 0 
L 469 531 
Q 828 903 1448 1529 
Q 2069 2156 2228 2338 
Q 2531 2678 2651 2914 
Q 2772 3150 2772 3378 
Q 2772 3750 2511 3984 
Q 2250 4219 1831 4219 
Q 1534 4219 1204 4116 
Q 875 4013 500 3803 
L 500 4441 
Q 881 4594 1212 4672 
Q 1544 4750 1819 4750 
Q 2544 4750 2975 4387 
Q 3406 4025 3406 3419 
Q 3406 3131 3298 2873 
Q 3191 2616 2906 2266 
Q 2828 2175 2409 1742 
Q 1991 1309 1228 531 
z
" transform="scale(0.015625)"/>
        <path id="DejaVuSans-30" d="M 2034 4250 
Q 1547 4250 1301 3770 
Q 1056 3291 1056 2328 
Q 1056 1369 1301 889 
Q 1547 409 2034 409 
Q 2525 409 2770 889 
Q 3016 1369 3016 2328 
Q 3016 3291 2770 3770 
Q 2525 4250 2034 4250 
z
M 2034 4750 
Q 2819 4750 3233 4129 
Q 3647 3509 3647 2328 
Q 3647 1150 3233 529 
Q 2819 -91 2034 -91 
Q 1250 -91 836 529 
Q 422 1150 422 2328 
Q 422 3509 836 4129 
Q 1250 4750 2034 4750 
z
" transform="scale(0.015625)"/>
        <path id="DejaVuSans-31" d="M 794 531 
L 1825 531 
L 1825 4091 
L 703 3866 
L 703 4441 
L 1819 4666 
L 2450 4666 
L 2450 531 
L 3481 531 
L 3481 0 
L 794 0 
L 794 531 
z
" transform="scale(0.015625)"/>
        <path id="DejaVuSans-36" d="M 2113 2584 
Q 1688 2584 1439 2293 
Q 1191 2003 1191 1497 
Q 1191 994 1439 701 
Q 1688 409 2113 409 
Q 2538 409 2786 701 
Q 3034 994 3034 1497 
Q 3034 2003 2786 2293 
Q 2538 2584 2113 2584 
z
M 3366 4563 
L 3366 3988 
Q 3128 4100 2886 4159 
Q 2644 4219 2406 4219 
Q 1781 4219 1451 3797 
Q 1122 3375 1075 2522 
Q 1259 2794 1537 2939 
Q 1816 3084 2150 3084 
Q 2853 3084 3261 2657 
Q 3669 2231 3669 1497 
Q 3669 778 3244 343 
Q 2819 -91 2113 -91 
Q 1303 -91 875 529 
Q 447 1150 447 2328 
Q 447 3434 972 4092 
Q 1497 4750 2381 4750 
Q 2619 4750 2861 4703 
Q 3103 4656 3366 4563 
z
" transform="scale(0.015625)"/>
       </defs>
       <use xlink:href="#DejaVuSans-32"/>
       <use xlink:href="#DejaVuSans-30" x="63.623047"/>
       <use xlink:href="#DejaVuSans-31" x="127.246094"/>
       <use xlink:href="#DejaVuSans-36" x="190.869141"/>
      </g>
     </g>
    </g>
    <g id="xtick_2">
     <g id="line2d_3"/>
     <g id="text_2">
      <!-- 2018 -->
      <g style="fill: #6a625c" transform="translate(162.631412 596.466125) scale(0.12 -0.12)">
       <defs>
        <path id="DejaVuSans-38" d="M 2034 2216 
Q 1584 2216 1326 1975 
Q 1069 1734 1069 1313 
Q 1069 891 1326 650 
Q 1584 409 2034 409 
Q 2484 409 2743 651 
Q 3003 894 3003 1313 
Q 3003 1734 2745 1975 
Q 2488 2216 2034 2216 
z
M 1403 2484 
Q 997 2584 770 2862 
Q 544 3141 544 3541 
Q 544 4100 942 4425 
Q 1341 4750 2034 4750 
Q 2731 4750 3128 4425 
Q 3525 4100 3525 3541 
Q 3525 3141 3298 2862 
Q 3072 2584 2669 2484 
Q 3125 2378 3379 2068 
Q 3634 1759 3634 1313 
Q 3634 634 3220 271 
Q 2806 -91 2034 -91 
Q 1263 -91 848 271 
Q 434 634 434 1313 
Q 434 1759 690 2068 
Q 947 2378 1403 2484 
z
M 1172 3481 
Q 1172 3119 1398 2916 
Q 1625 2713 2034 2713 
Q 2441 2713 2670 2916 
Q 2900 3119 2900 3481 
Q 2900 3844 2670 4047 
Q 2441 4250 2034 4250 
Q 1625 4250 1398 4047 
Q 1172 3844 1172 3481 
z
" transform="scale(0.015625)"/>
       </defs>
       <use xlink:href="#DejaVuSans-32"/>
       <use xlink:href="#DejaVuSans-30" x="63.623047"/>
       <use xlink:href="#DejaVuSans-31" x="127.246094"/>
       <use xlink:href="#DejaVuSans-38" x="190.869141"/>
      </g>
     </g>
    </g>
    <g id="xtick_3">
     <g id="line2d_4"/>
     <g id="text_3">
      <!-- 2020 -->
      <g style="fill: #6a625c" transform="translate(233.935235 596.466125) scale(0.12 -0.12)">
       <use xlink:href="#DejaVuSans-32"/>
       <use xlink:href="#DejaVuSans-30" x="63.623047"/>
       <use xlink:href="#DejaVuSans-32" x="127.246094"/>
       <use xlink:href="#DejaVuSans-30" x="190.869141"/>
      </g>
     </g>
    </g>
    <g id="xtick_4">
     <g id="line2d_5"/>
     <g id="text_4">
      <!-- 2022 -->
      <g style="fill: #6a625c" transform="translate(305.336735 596.466125) scale(0.12 -0.12)">
       <use xlink:href="#DejaVuSans-32"/>
       <use xlink:href="#DejaVuSans-30" x="63.623047"/>
       <use xlink:href="#DejaVuSans-32" x="127.246094"/>
       <use xlink:href="#DejaVuSans-32" x="190.869141"/>
      </g>
     </g>
    </g>
    <g id="xtick_5">
     <g id="line2d_6"/>
     <g id="text_5">
      <!-- 2024 -->
      <g style="fill: #6a625c" transform="translate(376.640559 596.466125) scale(0.12 -0.12)">
       <defs>
        <path id="DejaVuSans-34" d="M 2419 4116 
L 825 1625 
L 2419 1625 
L 2419 4116 
z
M 2253 4666 
L 3047 4666 
L 3047 1625 
L 3713 1625 
L 3713 1100 
L 3047 1100 
L 3047 0 
L 2419 0 
L 2419 1100 
L 313 1100 
L 313 1709 
L 2253 4666 
z
" transform="scale(0.015625)"/>
       </defs>
       <use xlink:href="#DejaVuSans-32"/>
       <use xlink:href="#DejaVuSans-30" x="63.623047"/>
       <use xlink:href="#DejaVuSans-32" x="127.246094"/>
       <use xlink:href="#DejaVuSans-34" x="190.869141"/>
      </g>
     </g>
    </g>
    <g id="xtick_6">
     <g id="line2d_7"/>
     <g id="text_6">
      <!-- 2026 -->
      <g style="fill: #6a625c" transform="translate(448.042059 596.466125) scale(0.12 -0.12)">
       <use xlink:href="#DejaVuSans-32"/>
       <use xlink:href="#DejaVuSans-30" x="63.623047"/>
       <use xlink:href="#DejaVuSans-32" x="127.246094"/>
       <use xlink:href="#DejaVuSans-36" x="190.869141"/>
      </g>
     </g>
    </g>
   </g>
   <g id="matplotlib.axis_2">
    <g id="ytick_1">
     <g id="line2d_8">
      <path d="M 70.848 583.848 
L 495.936 583.848 
" clip-path="url(#p62077da045)" style="fill: none; stroke: #ded8cf; stroke-linecap: square"/>
     </g>
     <g id="line2d_9"/>
     <g id="text_7">
      <!-- 0 -->
      <g style="fill: #6a625c" transform="translate(59.713 588.407062) scale(0.12 -0.12)">
       <use xlink:href="#DejaVuSans-30"/>
      </g>
     </g>
    </g>
    <g id="ytick_2">
     <g id="line2d_10">
      <path d="M 70.848 512.540542 
L 495.936 512.540542 
" clip-path="url(#p62077da045)" style="fill: none; stroke: #ded8cf; stroke-linecap: square"/>
     </g>
     <g id="line2d_11"/>
     <g id="text_8">
      <!-- 0 -->
      <g style="fill: #6a625c" transform="translate(59.713 517.099605) scale(0.12 -0.12)">
       <use xlink:href="#DejaVuSans-30"/>
      </g>
     </g>
    </g>
    <g id="ytick_3">
     <g id="line2d_12">
      <path d="M 70.848 441.233085 
L 495.936 441.233085 
" clip-path="url(#p62077da045)" style="fill: none; stroke: #ded8cf; stroke-linecap: square"/>
     </g>
     <g id="line2d_13"/>
     <g id="text_9">
      <!-- 1 -->
      <g style="fill: #6a625c" transform="translate(59.713 445.792147) scale(0.12 -0.12)">
       <use xlink:href="#DejaVuSans-31"/>
      </g>
     </g>
    </g>
    <g id="ytick_4">
     <g id="line2d_14">
      <path d="M 70.848 369.925627 
L 495.936 369.925627 
" clip-path="url(#p62077da045)" style="fill: none; stroke: #ded8cf; stroke-linecap: square"/>
     </g>
     <g id="line2d_15"/>
     <g id="text_10">
      <!-- 2 -->
      <g style="fill: #6a625c" transform="translate(59.713 374.48469) scale(0.12 -0.12)">
       <use xlink:href="#DejaVuSans-32"/>
      </g>
     </g>
    </g>
    <g id="ytick_5">
     <g id="line2d_16">
      <path d="M 70.848 298.618169 
L 495.936 298.618169 
" clip-path="url(#p62077da045)" style="fill: none; stroke: #ded8cf; stroke-linecap: square"/>
     </g>
     <g id="line2d_17"/>
     <g id="text_11">
      <!-- 2 -->
      <g style="fill: #6a625c" transform="translate(59.713 303.177232) scale(0.12 -0.12)">
       <use xlink:href="#DejaVuSans-32"/>
      </g>
     </g>
    </g>
    <g id="ytick_6">
     <g id="line2d_18">
      <path d="M 70.848 227.310712 
L 495.936 227.310712 
" clip-path="url(#p62077da045)" style="fill: none; stroke: #ded8cf; stroke-linecap: square"/>
     </g>
     <g id="line2d_19"/>
     <g id="text_12">
      <!-- 2 -->
      <g style="fill: #6a625c" transform="translate(59.713 231.869774) scale(0.12 -0.12)">
       <use xlink:href="#DejaVuSans-32"/>
      </g>
     </g>
    </g>
   </g>
   <g id="line2d_20">
    <path d="M 70.848 583.848 
L 246.177265 583.848 
L 249.205235 244.288678 
L 252.233206 583.848 
L 466.340029 583.848 
L 466.340029 583.848 
" clip-path="url(#p62077da045)" style="fill: none; stroke: #79d3e1; stroke-width: 3.3; stroke-linecap: square"/>
   </g>
   <g id="patch_3">
    <path d="M 70.848 583.848 
L 495.936 583.848 
" style="fill: none; stroke: #9a8f84; stroke-width: 1.1; stroke-linejoin: miter; stroke-linecap: square"/>
   </g>
   <g id="line2d_21">
    <path d="M 70.848 561.839525 
L 79.638882 561.839525 
L 82.569176 583.848 
L 246.177265 583.848 
L 249.205235 555.55139 
L 281.926853 555.55139 
L 284.954824 583.848 
L 466.340029 583.848 
L 466.340029 583.848 
" clip-path="url(#p62077da045)" style="fill: none; stroke: #24539a; stroke-width: 3.6; stroke-linecap: square"/>
   </g>
   <g id="text_13">
    <!-- ChatGPT -->
    <g style="fill: #152238" transform="translate(295.938994 236.740847) scale(0.125 -0.125)">
     <defs>
      <path id="DejaVuSans-43" d="M 4122 4306 
L 4122 3641 
Q 3803 3938 3442 4084 
Q 3081 4231 2675 4231 
Q 1875 4231 1450 3742 
Q 1025 3253 1025 2328 
Q 1025 1406 1450 917 
Q 1875 428 2675 428 
Q 3081 428 3442 575 
Q 3803 722 4122 1019 
L 4122 359 
Q 3791 134 3420 21 
Q 3050 -91 2638 -91 
Q 1578 -91 968 557 
Q 359 1206 359 2328 
Q 359 3453 968 4101 
Q 1578 4750 2638 4750 
Q 3056 4750 3426 4639 
Q 3797 4528 4122 4306 
z
" transform="scale(0.015625)"/>
      <path id="DejaVuSans-68" d="M 3513 2113 
L 3513 0 
L 2938 0 
L 2938 2094 
Q 2938 2591 2744 2837 
Q 2550 3084 2163 3084 
Q 1697 3084 1428 2787 
Q 1159 2491 1159 1978 
L 1159 0 
L 581 0 
L 581 4863 
L 1159 4863 
L 1159 2956 
Q 1366 3272 1645 3428 
Q 1925 3584 2291 3584 
Q 2894 3584 3203 3211 
Q 3513 2838 3513 2113 
z
" transform="scale(0.015625)"/>
      <path id="DejaVuSans-61" d="M 2194 1759 
Q 1497 1759 1228 1600 
Q 959 1441 959 1056 
Q 959 750 1161 570 
Q 1363 391 1709 391 
Q 2188 391 2477 730 
Q 2766 1069 2766 1631 
L 2766 1759 
L 2194 1759 
z
M 3341 1997 
L 3341 0 
L 2766 0 
L 2766 531 
Q 2569 213 2275 61 
Q 1981 -91 1556 -91 
Q 1019 -91 701 211 
Q 384 513 384 1019 
Q 384 1609 779 1909 
Q 1175 2209 1959 2209 
L 2766 2209 
L 2766 2266 
Q 2766 2663 2505 2880 
Q 2244 3097 1772 3097 
Q 1472 3097 1187 3025 
Q 903 2953 641 2809 
L 641 3341 
Q 956 3463 1253 3523 
Q 1550 3584 1831 3584 
Q 2591 3584 2966 3190 
Q 3341 2797 3341 1997 
z
" transform="scale(0.015625)"/>
      <path id="DejaVuSans-74" d="M 1172 4494 
L 1172 3500 
L 2356 3500 
L 2356 3053 
L 1172 3053 
L 1172 1153 
Q 1172 725 1289 603 
Q 1406 481 1766 481 
L 2356 481 
L 2356 0 
L 1766 0 
Q 1100 0 847 248 
Q 594 497 594 1153 
L 594 3053 
L 172 3053 
L 172 3500 
L 594 3500 
L 594 4494 
L 1172 4494 
z
" transform="scale(0.015625)"/>
      <path id="DejaVuSans-47" d="M 3809 666 
L 3809 1919 
L 2778 1919 
L 2778 2438 
L 4434 2438 
L 4434 434 
Q 4069 175 3628 42 
Q 3188 -91 2688 -91 
Q 1594 -91 976 548 
Q 359 1188 359 2328 
Q 359 3472 976 4111 
Q 1594 4750 2688 4750 
Q 3144 4750 3555 4637 
Q 3966 4525 4313 4306 
L 4313 3634 
Q 3963 3931 3569 4081 
Q 3175 4231 2741 4231 
Q 1884 4231 1454 3753 
Q 1025 3275 1025 2328 
Q 1025 1384 1454 906 
Q 1884 428 2741 428 
Q 3075 428 3337 486 
Q 3600 544 3809 666 
z
" transform="scale(0.015625)"/>
      <path id="DejaVuSans-50" d="M 1259 4147 
L 1259 2394 
L 2053 2394 
Q 2494 2394 2734 2622 
Q 2975 2850 2975 3272 
Q 2975 3691 2734 3919 
Q 2494 4147 2053 4147 
L 1259 4147 
z
M 628 4666 
L 2053 4666 
Q 2838 4666 3239 4311 
Q 3641 3956 3641 3272 
Q 3641 2581 3239 2228 
Q 2838 1875 2053 1875 
L 1259 1875 
L 1259 0 
L 628 0 
L 628 4666 
z
" transform="scale(0.015625)"/>
      <path id="DejaVuSans-54" d="M -19 4666 
L 3928 4666 
L 3928 4134 
L 2272 4134 
L 2272 0 
L 1638 0 
L 1638 4134 
L -19 4134 
L -19 4666 
z
" transform="scale(0.015625)"/>
     </defs>
     <use xlink:href="#DejaVuSans-43"/>
     <use xlink:href="#DejaVuSans-68" x="69.824219"/>
     <use xlink:href="#DejaVuSans-61" x="133.203125"/>
     <use xlink:href="#DejaVuSans-74" x="194.482422"/>
     <use xlink:href="#DejaVuSans-47" x="233.691406"/>
     <use xlink:href="#DejaVuSans-50" x="311.181641"/>
     <use xlink:href="#DejaVuSans-54" x="371.484375"/>
    </g>
    <!-- released -->
    <g style="fill: #152238" transform="translate(296.495634 250.738112) scale(0.125 -0.125)">
     <defs>
      <path id="DejaVuSans-72" d="M 2631 2963 
Q 2534 3019 2420 3045 
Q 2306 3072 2169 3072 
Q 1681 3072 1420 2755 
Q 1159 2438 1159 1844 
L 1159 0 
L 581 0 
L 581 3500 
L 1159 3500 
L 1159 2956 
Q 1341 3275 1631 3429 
Q 1922 3584 2338 3584 
Q 2397 3584 2469 3576 
Q 2541 3569 2628 3553 
L 2631 2963 
z
" transform="scale(0.015625)"/>
      <path id="DejaVuSans-65" d="M 3597 1894 
L 3597 1613 
L 953 1613 
Q 991 1019 1311 708 
Q 1631 397 2203 397 
Q 2534 397 2845 478 
Q 3156 559 3463 722 
L 3463 178 
Q 3153 47 2828 -22 
Q 2503 -91 2169 -91 
Q 1331 -91 842 396 
Q 353 884 353 1716 
Q 353 2575 817 3079 
Q 1281 3584 2069 3584 
Q 2775 3584 3186 3129 
Q 3597 2675 3597 1894 
z
M 3022 2063 
Q 3016 2534 2758 2815 
Q 2500 3097 2075 3097 
Q 1594 3097 1305 2825 
Q 1016 2553 972 2059 
L 3022 2063 
z
" transform="scale(0.015625)"/>
      <path id="DejaVuSans-6c" d="M 603 4863 
L 1178 4863 
L 1178 0 
L 603 0 
L 603 4863 
z
" transform="scale(0.015625)"/>
      <path id="DejaVuSans-73" d="M 2834 3397 
L 2834 2853 
Q 2591 2978 2328 3040 
Q 2066 3103 1784 3103 
Q 1356 3103 1142 2972 
Q 928 2841 928 2578 
Q 928 2378 1081 2264 
Q 1234 2150 1697 2047 
L 1894 2003 
Q 2506 1872 2764 1633 
Q 3022 1394 3022 966 
Q 3022 478 2636 193 
Q 2250 -91 1575 -91 
Q 1294 -91 989 -36 
Q 684 19 347 128 
L 347 722 
Q 666 556 975 473 
Q 1284 391 1588 391 
Q 1994 391 2212 530 
Q 2431 669 2431 922 
Q 2431 1156 2273 1281 
Q 2116 1406 1581 1522 
L 1381 1569 
Q 847 1681 609 1914 
Q 372 2147 372 2553 
Q 372 3047 722 3315 
Q 1072 3584 1716 3584 
Q 2034 3584 2315 3537 
Q 2597 3491 2834 3397 
z
" transform="scale(0.015625)"/>
      <path id="DejaVuSans-64" d="M 2906 2969 
L 2906 4863 
L 3481 4863 
L 3481 0 
L 2906 0 
L 2906 525 
Q 2725 213 2448 61 
Q 2172 -91 1784 -91 
Q 1150 -91 751 415 
Q 353 922 353 1747 
Q 353 2572 751 3078 
Q 1150 3584 1784 3584 
Q 2172 3584 2448 3432 
Q 2725 3281 2906 2969 
z
M 947 1747 
Q 947 1113 1208 752 
Q 1469 391 1925 391 
Q 2381 391 2643 752 
Q 2906 1113 2906 1747 
Q 2906 2381 2643 2742 
Q 2381 3103 1925 3103 
Q 1469 3103 1208 2742 
Q 947 2381 947 1747 
z
" transform="scale(0.015625)"/>
     </defs>
     <use xlink:href="#DejaVuSans-72"/>
     <use xlink:href="#DejaVuSans-65" x="38.863281"/>
     <use xlink:href="#DejaVuSans-6c" x="100.386719"/>
     <use xlink:href="#DejaVuSans-65" x="128.169922"/>
     <use xlink:href="#DejaVuSans-61" x="189.693359"/>
     <use xlink:href="#DejaVuSans-73" x="250.972656"/>
     <use xlink:href="#DejaVuSans-65" x="303.072266"/>
     <use xlink:href="#DejaVuSans-64" x="364.595703"/>
    </g>
   </g>
   <g id="text_14">
    <!-- monthly -->
    <g style="fill: #152238" transform="translate(469.661029 496.957388) scale(0.145 -0.145)">
     <defs>
      <path id="DejaVuSans-Bold-6d" d="M 3781 2919 
Q 3994 3244 4286 3414 
Q 4578 3584 4928 3584 
Q 5531 3584 5847 3212 
Q 6163 2841 6163 2131 
L 6163 0 
L 5038 0 
L 5038 1825 
Q 5041 1866 5042 1909 
Q 5044 1953 5044 2034 
Q 5044 2406 4934 2573 
Q 4825 2741 4581 2741 
Q 4263 2741 4089 2478 
Q 3916 2216 3909 1719 
L 3909 0 
L 2784 0 
L 2784 1825 
Q 2784 2406 2684 2573 
Q 2584 2741 2328 2741 
Q 2006 2741 1831 2477 
Q 1656 2213 1656 1722 
L 1656 0 
L 531 0 
L 531 3500 
L 1656 3500 
L 1656 2988 
Q 1863 3284 2130 3434 
Q 2397 3584 2719 3584 
Q 3081 3584 3359 3409 
Q 3638 3234 3781 2919 
z
" transform="scale(0.015625)"/>
      <path id="DejaVuSans-Bold-6f" d="M 2203 2784 
Q 1831 2784 1636 2517 
Q 1441 2250 1441 1747 
Q 1441 1244 1636 976 
Q 1831 709 2203 709 
Q 2569 709 2762 976 
Q 2956 1244 2956 1747 
Q 2956 2250 2762 2517 
Q 2569 2784 2203 2784 
z
M 2203 3584 
Q 3106 3584 3614 3096 
Q 4122 2609 4122 1747 
Q 4122 884 3614 396 
Q 3106 -91 2203 -91 
Q 1297 -91 786 396 
Q 275 884 275 1747 
Q 275 2609 786 3096 
Q 1297 3584 2203 3584 
z
" transform="scale(0.015625)"/>
      <path id="DejaVuSans-Bold-6e" d="M 4056 2131 
L 4056 0 
L 2931 0 
L 2931 347 
L 2931 1631 
Q 2931 2084 2911 2256 
Q 2891 2428 2841 2509 
Q 2775 2619 2662 2680 
Q 2550 2741 2406 2741 
Q 2056 2741 1856 2470 
Q 1656 2200 1656 1722 
L 1656 0 
L 538 0 
L 538 3500 
L 1656 3500 
L 1656 2988 
Q 1909 3294 2193 3439 
Q 2478 3584 2822 3584 
Q 3428 3584 3742 3212 
Q 4056 2841 4056 2131 
z
" transform="scale(0.015625)"/>
      <path id="DejaVuSans-Bold-74" d="M 1759 4494 
L 1759 3500 
L 2913 3500 
L 2913 2700 
L 1759 2700 
L 1759 1216 
Q 1759 972 1856 886 
Q 1953 800 2241 800 
L 2816 800 
L 2816 0 
L 1856 0 
Q 1194 0 917 276 
Q 641 553 641 1216 
L 641 2700 
L 84 2700 
L 84 3500 
L 641 3500 
L 641 4494 
L 1759 4494 
z
" transform="scale(0.015625)"/>
      <path id="DejaVuSans-Bold-68" d="M 4056 2131 
L 4056 0 
L 2931 0 
L 2931 347 
L 2931 1625 
Q 2931 2084 2911 2256 
Q 2891 2428 2841 2509 
Q 2775 2619 2662 2680 
Q 2550 2741 2406 2741 
Q 2056 2741 1856 2470 
Q 1656 2200 1656 1722 
L 1656 0 
L 538 0 
L 538 4863 
L 1656 4863 
L 1656 2988 
Q 1909 3294 2193 3439 
Q 2478 3584 2822 3584 
Q 3428 3584 3742 3212 
Q 4056 2841 4056 2131 
z
" transform="scale(0.015625)"/>
      <path id="DejaVuSans-Bold-6c" d="M 538 4863 
L 1656 4863 
L 1656 0 
L 538 0 
L 538 4863 
z
" transform="scale(0.015625)"/>
      <path id="DejaVuSans-Bold-79" d="M 78 3500 
L 1197 3500 
L 2138 1125 
L 2938 3500 
L 4056 3500 
L 2584 -331 
Q 2363 -916 2067 -1148 
Q 1772 -1381 1288 -1381 
L 641 -1381 
L 641 -647 
L 991 -647 
Q 1275 -647 1404 -556 
Q 1534 -466 1606 -231 
L 1638 -134 
L 78 3500 
z
" transform="scale(0.015625)"/>
     </defs>
     <use xlink:href="#DejaVuSans-Bold-6d"/>
     <use xlink:href="#DejaVuSans-Bold-6f" x="104.199219"/>
     <use xlink:href="#DejaVuSans-Bold-6e" x="172.900391"/>
     <use xlink:href="#DejaVuSans-Bold-74" x="244.091797"/>
     <use xlink:href="#DejaVuSans-Bold-68" x="291.894531"/>
     <use xlink:href="#DejaVuSans-Bold-6c" x="363.085938"/>
     <use xlink:href="#DejaVuSans-Bold-79" x="397.363281"/>
    </g>
    <!-- share -->
    <g style="fill: #152238" transform="translate(469.661029 513.307498) scale(0.145 -0.145)">
     <defs>
      <path id="DejaVuSans-Bold-73" d="M 3272 3391 
L 3272 2541 
Q 2913 2691 2578 2766 
Q 2244 2841 1947 2841 
Q 1628 2841 1473 2761 
Q 1319 2681 1319 2516 
Q 1319 2381 1436 2309 
Q 1553 2238 1856 2203 
L 2053 2175 
Q 2913 2066 3209 1816 
Q 3506 1566 3506 1031 
Q 3506 472 3093 190 
Q 2681 -91 1863 -91 
Q 1516 -91 1145 -36 
Q 775 19 384 128 
L 384 978 
Q 719 816 1070 734 
Q 1422 653 1784 653 
Q 2113 653 2278 743 
Q 2444 834 2444 1013 
Q 2444 1163 2330 1236 
Q 2216 1309 1875 1350 
L 1678 1375 
Q 931 1469 631 1722 
Q 331 1975 331 2491 
Q 331 3047 712 3315 
Q 1094 3584 1881 3584 
Q 2191 3584 2531 3537 
Q 2872 3491 3272 3391 
z
" transform="scale(0.015625)"/>
      <path id="DejaVuSans-Bold-61" d="M 2106 1575 
Q 1756 1575 1579 1456 
Q 1403 1338 1403 1106 
Q 1403 894 1545 773 
Q 1688 653 1941 653 
Q 2256 653 2472 879 
Q 2688 1106 2688 1447 
L 2688 1575 
L 2106 1575 
z
M 3816 1997 
L 3816 0 
L 2688 0 
L 2688 519 
Q 2463 200 2181 54 
Q 1900 -91 1497 -91 
Q 953 -91 614 226 
Q 275 544 275 1050 
Q 275 1666 698 1953 
Q 1122 2241 2028 2241 
L 2688 2241 
L 2688 2328 
Q 2688 2594 2478 2717 
Q 2269 2841 1825 2841 
Q 1466 2841 1156 2769 
Q 847 2697 581 2553 
L 581 3406 
Q 941 3494 1303 3539 
Q 1666 3584 2028 3584 
Q 2975 3584 3395 3211 
Q 3816 2838 3816 1997 
z
" transform="scale(0.015625)"/>
      <path id="DejaVuSans-Bold-72" d="M 3138 2547 
Q 2991 2616 2845 2648 
Q 2700 2681 2553 2681 
Q 2122 2681 1889 2404 
Q 1656 2128 1656 1613 
L 1656 0 
L 538 0 
L 538 3500 
L 1656 3500 
L 1656 2925 
Q 1872 3269 2151 3426 
Q 2431 3584 2822 3584 
Q 2878 3584 2943 3579 
Q 3009 3575 3134 3559 
L 3138 2547 
z
" transform="scale(0.015625)"/>
      <path id="DejaVuSans-Bold-65" d="M 4031 1759 
L 4031 1441 
L 1416 1441 
Q 1456 1047 1700 850 
Q 1944 653 2381 653 
Q 2734 653 3104 758 
Q 3475 863 3866 1075 
L 3866 213 
Q 3469 63 3072 -14 
Q 2675 -91 2278 -91 
Q 1328 -91 801 392 
Q 275 875 275 1747 
Q 275 2603 792 3093 
Q 1309 3584 2216 3584 
Q 3041 3584 3536 3087 
Q 4031 2591 4031 1759 
z
M 2881 2131 
Q 2881 2450 2695 2645 
Q 2509 2841 2209 2841 
Q 1884 2841 1681 2658 
Q 1478 2475 1428 2131 
L 2881 2131 
z
" transform="scale(0.015625)"/>
     </defs>
     <use xlink:href="#DejaVuSans-Bold-73"/>
     <use xlink:href="#DejaVuSans-Bold-68" x="59.521484"/>
     <use xlink:href="#DejaVuSans-Bold-61" x="130.712891"/>
     <use xlink:href="#DejaVuSans-Bold-72" x="198.193359"/>
     <use xlink:href="#DejaVuSans-Bold-65" x="247.509766"/>
    </g>
   </g>
   <g id="text_15">
    <!-- 12-month -->
    <g style="fill: #152238" transform="translate(469.661029 540.123703) scale(0.145 -0.145)">
     <defs>
      <path id="DejaVuSans-Bold-31" d="M 750 831 
L 1813 831 
L 1813 3847 
L 722 3622 
L 722 4441 
L 1806 4666 
L 2950 4666 
L 2950 831 
L 4013 831 
L 4013 0 
L 750 0 
L 750 831 
z
" transform="scale(0.015625)"/>
      <path id="DejaVuSans-Bold-32" d="M 1844 884 
L 3897 884 
L 3897 0 
L 506 0 
L 506 884 
L 2209 2388 
Q 2438 2594 2547 2791 
Q 2656 2988 2656 3200 
Q 2656 3528 2436 3728 
Q 2216 3928 1850 3928 
Q 1569 3928 1234 3808 
Q 900 3688 519 3450 
L 519 4475 
Q 925 4609 1322 4679 
Q 1719 4750 2100 4750 
Q 2938 4750 3402 4381 
Q 3866 4013 3866 3353 
Q 3866 2972 3669 2642 
Q 3472 2313 2841 1759 
L 1844 884 
z
" transform="scale(0.015625)"/>
      <path id="DejaVuSans-Bold-2d" d="M 347 2297 
L 2309 2297 
L 2309 1388 
L 347 1388 
L 347 2297 
z
" transform="scale(0.015625)"/>
     </defs>
     <use xlink:href="#DejaVuSans-Bold-31"/>
     <use xlink:href="#DejaVuSans-Bold-32" x="69.580078"/>
     <use xlink:href="#DejaVuSans-Bold-2d" x="139.160156"/>
     <use xlink:href="#DejaVuSans-Bold-6d" x="180.664062"/>
     <use xlink:href="#DejaVuSans-Bold-6f" x="284.863281"/>
     <use xlink:href="#DejaVuSans-Bold-6e" x="353.564453"/>
     <use xlink:href="#DejaVuSans-Bold-74" x="424.755859"/>
     <use xlink:href="#DejaVuSans-Bold-68" x="472.558594"/>
    </g>
    <!-- rolling -->
    <g style="fill: #152238" transform="translate(469.661029 556.360531) scale(0.145 -0.145)">
     <defs>
      <path id="DejaVuSans-Bold-69" d="M 538 3500 
L 1656 3500 
L 1656 0 
L 538 0 
L 538 3500 
z
M 538 4863 
L 1656 4863 
L 1656 3950 
L 538 3950 
L 538 4863 
z
" transform="scale(0.015625)"/>
      <path id="DejaVuSans-Bold-67" d="M 2919 594 
Q 2688 288 2409 144 
Q 2131 0 1766 0 
Q 1125 0 706 504 
Q 288 1009 288 1791 
Q 288 2575 706 3076 
Q 1125 3578 1766 3578 
Q 2131 3578 2409 3434 
Q 2688 3291 2919 2981 
L 2919 3500 
L 4044 3500 
L 4044 353 
Q 4044 -491 3511 -936 
Q 2978 -1381 1966 -1381 
Q 1638 -1381 1331 -1331 
Q 1025 -1281 716 -1178 
L 716 -306 
Q 1009 -475 1290 -558 
Q 1572 -641 1856 -641 
Q 2406 -641 2662 -400 
Q 2919 -159 2919 353 
L 2919 594 
z
M 2181 2772 
Q 1834 2772 1640 2515 
Q 1447 2259 1447 1791 
Q 1447 1309 1634 1061 
Q 1822 813 2181 813 
Q 2531 813 2725 1069 
Q 2919 1325 2919 1791 
Q 2919 2259 2725 2515 
Q 2531 2772 2181 2772 
z
" transform="scale(0.015625)"/>
     </defs>
     <use xlink:href="#DejaVuSans-Bold-72"/>
     <use xlink:href="#DejaVuSans-Bold-6f" x="49.316406"/>
     <use xlink:href="#DejaVuSans-Bold-6c" x="118.017578"/>
     <use xlink:href="#DejaVuSans-Bold-6c" x="152.294922"/>
     <use xlink:href="#DejaVuSans-Bold-69" x="186.572266"/>
     <use xlink:href="#DejaVuSans-Bold-6e" x="220.849609"/>
     <use xlink:href="#DejaVuSans-Bold-67" x="292.041016"/>
    </g>
    <!-- average -->
    <g style="fill: #152238" transform="translate(469.661029 572.710641) scale(0.145 -0.145)">
     <defs>
      <path id="DejaVuSans-Bold-76" d="M 97 3500 
L 1216 3500 
L 2088 1081 
L 2956 3500 
L 4078 3500 
L 2700 0 
L 1472 0 
L 97 3500 
z
" transform="scale(0.015625)"/>
     </defs>
     <use xlink:href="#DejaVuSans-Bold-61"/>
     <use xlink:href="#DejaVuSans-Bold-76" x="67.480469"/>
     <use xlink:href="#DejaVuSans-Bold-65" x="132.666016"/>
     <use xlink:href="#DejaVuSans-Bold-72" x="200.488281"/>
     <use xlink:href="#DejaVuSans-Bold-61" x="249.804688"/>
     <use xlink:href="#DejaVuSans-Bold-67" x="317.285156"/>
     <use xlink:href="#DejaVuSans-Bold-65" x="388.867188"/>
    </g>
   </g>
  </g>
  <g id="line2d_22">
   <path d="M 38.376 38.16 
L 82.656 38.16 
" style="fill: none; stroke: #295d5f; stroke-width: 4.5; stroke-linecap: round"/>
  </g>
  <g id="text_16">
   <!-- AI-related terms in five general-interest -->
   <g style="fill: #152238" transform="translate(38.376 64.1102) scale(0.23 -0.23)">
    <defs>
     <path id="DejaVuSans-41" d="M 2188 4044 
L 1331 1722 
L 3047 1722 
L 2188 4044 
z
M 1831 4666 
L 2547 4666 
L 4325 0 
L 3669 0 
L 3244 1197 
L 1141 1197 
L 716 0 
L 50 0 
L 1831 4666 
z
" transform="scale(0.015625)"/>
     <path id="DejaVuSans-49" d="M 628 4666 
L 1259 4666 
L 1259 0 
L 628 0 
L 628 4666 
z
" transform="scale(0.015625)"/>
     <path id="DejaVuSans-2d" d="M 313 2009 
L 1997 2009 
L 1997 1497 
L 313 1497 
L 313 2009 
z
" transform="scale(0.015625)"/>
     <path id="DejaVuSans-20" transform="scale(0.015625)"/>
     <path id="DejaVuSans-6d" d="M 3328 2828 
Q 3544 3216 3844 3400 
Q 4144 3584 4550 3584 
Q 5097 3584 5394 3201 
Q 5691 2819 5691 2113 
L 5691 0 
L 5113 0 
L 5113 2094 
Q 5113 2597 4934 2840 
Q 4756 3084 4391 3084 
Q 3944 3084 3684 2787 
Q 3425 2491 3425 1978 
L 3425 0 
L 2847 0 
L 2847 2094 
Q 2847 2600 2669 2842 
Q 2491 3084 2119 3084 
Q 1678 3084 1418 2786 
Q 1159 2488 1159 1978 
L 1159 0 
L 581 0 
L 581 3500 
L 1159 3500 
L 1159 2956 
Q 1356 3278 1631 3431 
Q 1906 3584 2284 3584 
Q 2666 3584 2933 3390 
Q 3200 3197 3328 2828 
z
" transform="scale(0.015625)"/>
     <path id="DejaVuSans-69" d="M 603 3500 
L 1178 3500 
L 1178 0 
L 603 0 
L 603 3500 
z
M 603 4863 
L 1178 4863 
L 1178 4134 
L 603 4134 
L 603 4863 
z
" transform="scale(0.015625)"/>
     <path id="DejaVuSans-6e" d="M 3513 2113 
L 3513 0 
L 2938 0 
L 2938 2094 
Q 2938 2591 2744 2837 
Q 2550 3084 2163 3084 
Q 1697 3084 1428 2787 
Q 1159 2491 1159 1978 
L 1159 0 
L 581 0 
L 581 3500 
L 1159 3500 
L 1159 2956 
Q 1366 3272 1645 3428 
Q 1925 3584 2291 3584 
Q 2894 3584 3203 3211 
Q 3513 2838 3513 2113 
z
" transform="scale(0.015625)"/>
     <path id="DejaVuSans-66" d="M 2375 4863 
L 2375 4384 
L 1825 4384 
Q 1516 4384 1395 4259 
Q 1275 4134 1275 3809 
L 1275 3500 
L 2222 3500 
L 2222 3053 
L 1275 3053 
L 1275 0 
L 697 0 
L 697 3053 
L 147 3053 
L 147 3500 
L 697 3500 
L 697 3744 
Q 697 4328 969 4595 
Q 1241 4863 1831 4863 
L 2375 4863 
z
" transform="scale(0.015625)"/>
     <path id="DejaVuSans-76" d="M 191 3500 
L 800 3500 
L 1894 563 
L 2988 3500 
L 3597 3500 
L 2284 0 
L 1503 0 
L 191 3500 
z
" transform="scale(0.015625)"/>
     <path id="DejaVuSans-67" d="M 2906 1791 
Q 2906 2416 2648 2759 
Q 2391 3103 1925 3103 
Q 1463 3103 1205 2759 
Q 947 2416 947 1791 
Q 947 1169 1205 825 
Q 1463 481 1925 481 
Q 2391 481 2648 825 
Q 2906 1169 2906 1791 
z
M 3481 434 
Q 3481 -459 3084 -895 
Q 2688 -1331 1869 -1331 
Q 1566 -1331 1297 -1286 
Q 1028 -1241 775 -1147 
L 775 -588 
Q 1028 -725 1275 -790 
Q 1522 -856 1778 -856 
Q 2344 -856 2625 -561 
Q 2906 -266 2906 331 
L 2906 616 
Q 2728 306 2450 153 
Q 2172 0 1784 0 
Q 1141 0 747 490 
Q 353 981 353 1791 
Q 353 2603 747 3093 
Q 1141 3584 1784 3584 
Q 2172 3584 2450 3431 
Q 2728 3278 2906 2969 
L 2906 3500 
L 3481 3500 
L 3481 434 
z
" transform="scale(0.015625)"/>
    </defs>
    <use xlink:href="#DejaVuSans-41"/>
    <use xlink:href="#DejaVuSans-49" x="68.408203"/>
    <use xlink:href="#DejaVuSans-2d" x="97.900391"/>
    <use xlink:href="#DejaVuSans-72" x="133.984375"/>
    <use xlink:href="#DejaVuSans-65" x="172.847656"/>
    <use xlink:href="#DejaVuSans-6c" x="234.371094"/>
    <use xlink:href="#DejaVuSans-61" x="262.154297"/>
    <use xlink:href="#DejaVuSans-74" x="323.433594"/>
    <use xlink:href="#DejaVuSans-65" x="362.642578"/>
    <use xlink:href="#DejaVuSans-64" x="424.166016"/>
    <use xlink:href="#DejaVuSans-20" x="487.642578"/>
    <use xlink:href="#DejaVuSans-74" x="519.429688"/>
    <use xlink:href="#DejaVuSans-65" x="558.638672"/>
    <use xlink:href="#DejaVuSans-72" x="620.162109"/>
    <use xlink:href="#DejaVuSans-6d" x="659.525391"/>
    <use xlink:href="#DejaVuSans-73" x="756.9375"/>
    <use xlink:href="#DejaVuSans-20" x="809.037109"/>
    <use xlink:href="#DejaVuSans-69" x="840.824219"/>
    <use xlink:href="#DejaVuSans-6e" x="868.607422"/>
    <use xlink:href="#DejaVuSans-20" x="931.986328"/>
    <use xlink:href="#DejaVuSans-66" x="963.773438"/>
    <use xlink:href="#DejaVuSans-69" x="998.978516"/>
    <use xlink:href="#DejaVuSans-76" x="1026.761719"/>
    <use xlink:href="#DejaVuSans-65" x="1085.941406"/>
    <use xlink:href="#DejaVuSans-20" x="1147.464844"/>
    <use xlink:href="#DejaVuSans-67" x="1179.251953"/>
    <use xlink:href="#DejaVuSans-65" x="1242.728516"/>
    <use xlink:href="#DejaVuSans-6e" x="1304.251953"/>
    <use xlink:href="#DejaVuSans-65" x="1367.630859"/>
    <use xlink:href="#DejaVuSans-72" x="1429.154297"/>
    <use xlink:href="#DejaVuSans-61" x="1470.267578"/>
    <use xlink:href="#DejaVuSans-6c" x="1531.546875"/>
    <use xlink:href="#DejaVuSans-2d" x="1559.330078"/>
    <use xlink:href="#DejaVuSans-69" x="1595.414062"/>
    <use xlink:href="#DejaVuSans-6e" x="1623.197266"/>
    <use xlink:href="#DejaVuSans-74" x="1686.576172"/>
    <use xlink:href="#DejaVuSans-65" x="1725.785156"/>
    <use xlink:href="#DejaVuSans-72" x="1787.308594"/>
    <use xlink:href="#DejaVuSans-65" x="1826.171875"/>
    <use xlink:href="#DejaVuSans-73" x="1887.695312"/>
    <use xlink:href="#DejaVuSans-74" x="1939.794922"/>
   </g>
   <!-- economics journals -->
   <g style="fill: #152238" transform="translate(38.376 87.768) scale(0.23 -0.23)">
    <defs>
     <path id="DejaVuSans-63" d="M 3122 3366 
L 3122 2828 
Q 2878 2963 2633 3030 
Q 2388 3097 2138 3097 
Q 1578 3097 1268 2742 
Q 959 2388 959 1747 
Q 959 1106 1268 751 
Q 1578 397 2138 397 
Q 2388 397 2633 464 
Q 2878 531 3122 666 
L 3122 134 
Q 2881 22 2623 -34 
Q 2366 -91 2075 -91 
Q 1284 -91 818 406 
Q 353 903 353 1747 
Q 353 2603 823 3093 
Q 1294 3584 2113 3584 
Q 2378 3584 2631 3529 
Q 2884 3475 3122 3366 
z
" transform="scale(0.015625)"/>
     <path id="DejaVuSans-6f" d="M 1959 3097 
Q 1497 3097 1228 2736 
Q 959 2375 959 1747 
Q 959 1119 1226 758 
Q 1494 397 1959 397 
Q 2419 397 2687 759 
Q 2956 1122 2956 1747 
Q 2956 2369 2687 2733 
Q 2419 3097 1959 3097 
z
M 1959 3584 
Q 2709 3584 3137 3096 
Q 3566 2609 3566 1747 
Q 3566 888 3137 398 
Q 2709 -91 1959 -91 
Q 1206 -91 779 398 
Q 353 888 353 1747 
Q 353 2609 779 3096 
Q 1206 3584 1959 3584 
z
" transform="scale(0.015625)"/>
     <path id="DejaVuSans-6a" d="M 603 3500 
L 1178 3500 
L 1178 -63 
Q 1178 -731 923 -1031 
Q 669 -1331 103 -1331 
L -116 -1331 
L -116 -844 
L 38 -844 
Q 366 -844 484 -692 
Q 603 -541 603 -63 
L 603 3500 
z
M 603 4863 
L 1178 4863 
L 1178 4134 
L 603 4134 
L 603 4863 
z
" transform="scale(0.015625)"/>
     <path id="DejaVuSans-75" d="M 544 1381 
L 544 3500 
L 1119 3500 
L 1119 1403 
Q 1119 906 1312 657 
Q 1506 409 1894 409 
Q 2359 409 2629 706 
Q 2900 1003 2900 1516 
L 2900 3500 
L 3475 3500 
L 3475 0 
L 2900 0 
L 2900 538 
Q 2691 219 2414 64 
Q 2138 -91 1772 -91 
Q 1169 -91 856 284 
Q 544 659 544 1381 
z
M 1991 3584 
L 1991 3584 
z
" transform="scale(0.015625)"/>
    </defs>
    <use xlink:href="#DejaVuSans-65"/>
    <use xlink:href="#DejaVuSans-63" x="61.523438"/>
    <use xlink:href="#DejaVuSans-6f" x="116.503906"/>
    <use xlink:href="#DejaVuSans-6e" x="177.685547"/>
    <use xlink:href="#DejaVuSans-6f" x="241.064453"/>
    <use xlink:href="#DejaVuSans-6d" x="302.246094"/>
    <use xlink:href="#DejaVuSans-69" x="399.658203"/>
    <use xlink:href="#DejaVuSans-63" x="427.441406"/>
    <use xlink:href="#DejaVuSans-73" x="482.421875"/>
    <use xlink:href="#DejaVuSans-20" x="534.521484"/>
    <use xlink:href="#DejaVuSans-6a" x="566.308594"/>
    <use xlink:href="#DejaVuSans-6f" x="594.091797"/>
    <use xlink:href="#DejaVuSans-75" x="655.273438"/>
    <use xlink:href="#DejaVuSans-72" x="718.652344"/>
    <use xlink:href="#DejaVuSans-6e" x="758.015625"/>
    <use xlink:href="#DejaVuSans-61" x="821.394531"/>
    <use xlink:href="#DejaVuSans-6c" x="882.673828"/>
    <use xlink:href="#DejaVuSans-73" x="910.457031"/>
   </g>
  </g>
  <g id="text_17">
   <!-- Monthly share of papers in AER, Econometrica, JPE, QJE and ReStud -->
   <g style="fill: #5d5a56" transform="translate(38.376 115.261184) scale(0.155 -0.155)">
    <defs>
     <path id="DejaVuSans-4d" d="M 628 4666 
L 1569 4666 
L 2759 1491 
L 3956 4666 
L 4897 4666 
L 4897 0 
L 4281 0 
L 4281 4097 
L 3078 897 
L 2444 897 
L 1241 4097 
L 1241 0 
L 628 0 
L 628 4666 
z
" transform="scale(0.015625)"/>
     <path id="DejaVuSans-79" d="M 2059 -325 
Q 1816 -950 1584 -1140 
Q 1353 -1331 966 -1331 
L 506 -1331 
L 506 -850 
L 844 -850 
Q 1081 -850 1212 -737 
Q 1344 -625 1503 -206 
L 1606 56 
L 191 3500 
L 800 3500 
L 1894 763 
L 2988 3500 
L 3597 3500 
L 2059 -325 
z
" transform="scale(0.015625)"/>
     <path id="DejaVuSans-70" d="M 1159 525 
L 1159 -1331 
L 581 -1331 
L 581 3500 
L 1159 3500 
L 1159 2969 
Q 1341 3281 1617 3432 
Q 1894 3584 2278 3584 
Q 2916 3584 3314 3078 
Q 3713 2572 3713 1747 
Q 3713 922 3314 415 
Q 2916 -91 2278 -91 
Q 1894 -91 1617 61 
Q 1341 213 1159 525 
z
M 3116 1747 
Q 3116 2381 2855 2742 
Q 2594 3103 2138 3103 
Q 1681 3103 1420 2742 
Q 1159 2381 1159 1747 
Q 1159 1113 1420 752 
Q 1681 391 2138 391 
Q 2594 391 2855 752 
Q 3116 1113 3116 1747 
z
" transform="scale(0.015625)"/>
     <path id="DejaVuSans-45" d="M 628 4666 
L 3578 4666 
L 3578 4134 
L 1259 4134 
L 1259 2753 
L 3481 2753 
L 3481 2222 
L 1259 2222 
L 1259 531 
L 3634 531 
L 3634 0 
L 628 0 
L 628 4666 
z
" transform="scale(0.015625)"/>
     <path id="DejaVuSans-52" d="M 2841 2188 
Q 3044 2119 3236 1894 
Q 3428 1669 3622 1275 
L 4263 0 
L 3584 0 
L 2988 1197 
Q 2756 1666 2539 1819 
Q 2322 1972 1947 1972 
L 1259 1972 
L 1259 0 
L 628 0 
L 628 4666 
L 2053 4666 
Q 2853 4666 3247 4331 
Q 3641 3997 3641 3322 
Q 3641 2881 3436 2590 
Q 3231 2300 2841 2188 
z
M 1259 4147 
L 1259 2491 
L 2053 2491 
Q 2509 2491 2742 2702 
Q 2975 2913 2975 3322 
Q 2975 3731 2742 3939 
Q 2509 4147 2053 4147 
L 1259 4147 
z
" transform="scale(0.015625)"/>
     <path id="DejaVuSans-2c" d="M 750 794 
L 1409 794 
L 1409 256 
L 897 -744 
L 494 -744 
L 750 256 
L 750 794 
z
" transform="scale(0.015625)"/>
     <path id="DejaVuSans-4a" d="M 628 4666 
L 1259 4666 
L 1259 325 
Q 1259 -519 939 -900 
Q 619 -1281 -91 -1281 
L -331 -1281 
L -331 -750 
L -134 -750 
Q 284 -750 456 -515 
Q 628 -281 628 325 
L 628 4666 
z
" transform="scale(0.015625)"/>
     <path id="DejaVuSans-51" d="M 2522 4238 
Q 1834 4238 1429 3725 
Q 1025 3213 1025 2328 
Q 1025 1447 1429 934 
Q 1834 422 2522 422 
Q 3209 422 3611 934 
Q 4013 1447 4013 2328 
Q 4013 3213 3611 3725 
Q 3209 4238 2522 4238 
z
M 3406 84 
L 4238 -825 
L 3475 -825 
L 2784 -78 
Q 2681 -84 2626 -87 
Q 2572 -91 2522 -91 
Q 1538 -91 948 567 
Q 359 1225 359 2328 
Q 359 3434 948 4092 
Q 1538 4750 2522 4750 
Q 3503 4750 4090 4092 
Q 4678 3434 4678 2328 
Q 4678 1516 4351 937 
Q 4025 359 3406 84 
z
" transform="scale(0.015625)"/>
     <path id="DejaVuSans-53" d="M 3425 4513 
L 3425 3897 
Q 3066 4069 2747 4153 
Q 2428 4238 2131 4238 
Q 1616 4238 1336 4038 
Q 1056 3838 1056 3469 
Q 1056 3159 1242 3001 
Q 1428 2844 1947 2747 
L 2328 2669 
Q 3034 2534 3370 2195 
Q 3706 1856 3706 1288 
Q 3706 609 3251 259 
Q 2797 -91 1919 -91 
Q 1588 -91 1214 -16 
Q 841 59 441 206 
L 441 856 
Q 825 641 1194 531 
Q 1563 422 1919 422 
Q 2459 422 2753 634 
Q 3047 847 3047 1241 
Q 3047 1584 2836 1778 
Q 2625 1972 2144 2069 
L 1759 2144 
Q 1053 2284 737 2584 
Q 422 2884 422 3419 
Q 422 4038 858 4394 
Q 1294 4750 2059 4750 
Q 2388 4750 2728 4690 
Q 3069 4631 3425 4513 
z
" transform="scale(0.015625)"/>
    </defs>
    <use xlink:href="#DejaVuSans-4d"/>
    <use xlink:href="#DejaVuSans-6f" x="86.279297"/>
    <use xlink:href="#DejaVuSans-6e" x="147.460938"/>
    <use xlink:href="#DejaVuSans-74" x="210.839844"/>
    <use xlink:href="#DejaVuSans-68" x="250.048828"/>
    <use xlink:href="#DejaVuSans-6c" x="313.427734"/>
    <use xlink:href="#DejaVuSans-79" x="341.210938"/>
    <use xlink:href="#DejaVuSans-20" x="400.390625"/>
    <use xlink:href="#DejaVuSans-73" x="432.177734"/>
    <use xlink:href="#DejaVuSans-68" x="484.277344"/>
    <use xlink:href="#DejaVuSans-61" x="547.65625"/>
    <use xlink:href="#DejaVuSans-72" x="608.935547"/>
    <use xlink:href="#DejaVuSans-65" x="647.798828"/>
    <use xlink:href="#DejaVuSans-20" x="709.322266"/>
    <use xlink:href="#DejaVuSans-6f" x="741.109375"/>
    <use xlink:href="#DejaVuSans-66" x="802.291016"/>
    <use xlink:href="#DejaVuSans-20" x="837.496094"/>
    <use xlink:href="#DejaVuSans-70" x="869.283203"/>
    <use xlink:href="#DejaVuSans-61" x="932.759766"/>
    <use xlink:href="#DejaVuSans-70" x="994.039062"/>
    <use xlink:href="#DejaVuSans-65" x="1057.515625"/>
    <use xlink:href="#DejaVuSans-72" x="1119.039062"/>
    <use xlink:href="#DejaVuSans-73" x="1160.152344"/>
    <use xlink:href="#DejaVuSans-20" x="1212.251953"/>
    <use xlink:href="#DejaVuSans-69" x="1244.039062"/>
    <use xlink:href="#DejaVuSans-6e" x="1271.822266"/>
    <use xlink:href="#DejaVuSans-20" x="1335.201172"/>
    <use xlink:href="#DejaVuSans-41" x="1366.988281"/>
    <use xlink:href="#DejaVuSans-45" x="1435.396484"/>
    <use xlink:href="#DejaVuSans-52" x="1498.580078"/>
    <use xlink:href="#DejaVuSans-2c" x="1568.0625"/>
    <use xlink:href="#DejaVuSans-20" x="1599.849609"/>
    <use xlink:href="#DejaVuSans-45" x="1631.636719"/>
    <use xlink:href="#DejaVuSans-63" x="1694.820312"/>
    <use xlink:href="#DejaVuSans-6f" x="1749.800781"/>
    <use xlink:href="#DejaVuSans-6e" x="1810.982422"/>
    <use xlink:href="#DejaVuSans-6f" x="1874.361328"/>
    <use xlink:href="#DejaVuSans-6d" x="1935.542969"/>
    <use xlink:href="#DejaVuSans-65" x="2032.955078"/>
    <use xlink:href="#DejaVuSans-74" x="2094.478516"/>
    <use xlink:href="#DejaVuSans-72" x="2133.6875"/>
    <use xlink:href="#DejaVuSans-69" x="2174.800781"/>
    <use xlink:href="#DejaVuSans-63" x="2202.583984"/>
    <use xlink:href="#DejaVuSans-61" x="2257.564453"/>
    <use xlink:href="#DejaVuSans-2c" x="2318.84375"/>
    <use xlink:href="#DejaVuSans-20" x="2350.630859"/>
    <use xlink:href="#DejaVuSans-4a" x="2382.417969"/>
    <use xlink:href="#DejaVuSans-50" x="2411.910156"/>
    <use xlink:href="#DejaVuSans-45" x="2472.212891"/>
    <use xlink:href="#DejaVuSans-2c" x="2535.396484"/>
    <use xlink:href="#DejaVuSans-20" x="2567.183594"/>
    <use xlink:href="#DejaVuSans-51" x="2598.970703"/>
    <use xlink:href="#DejaVuSans-4a" x="2677.681641"/>
    <use xlink:href="#DejaVuSans-45" x="2707.173828"/>
    <use xlink:href="#DejaVuSans-20" x="2770.357422"/>
    <use xlink:href="#DejaVuSans-61" x="2802.144531"/>
    <use xlink:href="#DejaVuSans-6e" x="2863.423828"/>
    <use xlink:href="#DejaVuSans-64" x="2926.802734"/>
    <use xlink:href="#DejaVuSans-20" x="2990.279297"/>
    <use xlink:href="#DejaVuSans-52" x="3022.066406"/>
    <use xlink:href="#DejaVuSans-65" x="3087.048828"/>
    <use xlink:href="#DejaVuSans-53" x="3148.572266"/>
    <use xlink:href="#DejaVuSans-74" x="3212.048828"/>
    <use xlink:href="#DejaVuSans-75" x="3251.257812"/>
    <use xlink:href="#DejaVuSans-64" x="3314.636719"/>
   </g>
   <!-- mentioning selected AI-related terms in their title or abstract -->
   <g style="fill: #5d5a56" transform="translate(38.376 133.56) scale(0.155 -0.155)">
    <defs>
     <path id="DejaVuSans-62" d="M 3116 1747 
Q 3116 2381 2855 2742 
Q 2594 3103 2138 3103 
Q 1681 3103 1420 2742 
Q 1159 2381 1159 1747 
Q 1159 1113 1420 752 
Q 1681 391 2138 391 
Q 2594 391 2855 752 
Q 3116 1113 3116 1747 
z
M 1159 2969 
Q 1341 3281 1617 3432 
Q 1894 3584 2278 3584 
Q 2916 3584 3314 3078 
Q 3713 2572 3713 1747 
Q 3713 922 3314 415 
Q 2916 -91 2278 -91 
Q 1894 -91 1617 61 
Q 1341 213 1159 525 
L 1159 0 
L 581 0 
L 581 4863 
L 1159 4863 
L 1159 2969 
z
" transform="scale(0.015625)"/>
    </defs>
    <use xlink:href="#DejaVuSans-6d"/>
    <use xlink:href="#DejaVuSans-65" x="97.412109"/>
    <use xlink:href="#DejaVuSans-6e" x="158.935547"/>
    <use xlink:href="#DejaVuSans-74" x="222.314453"/>
    <use xlink:href="#DejaVuSans-69" x="261.523438"/>
    <use xlink:href="#DejaVuSans-6f" x="289.306641"/>
    <use xlink:href="#DejaVuSans-6e" x="350.488281"/>
    <use xlink:href="#DejaVuSans-69" x="413.867188"/>
    <use xlink:href="#DejaVuSans-6e" x="441.650391"/>
    <use xlink:href="#DejaVuSans-67" x="505.029297"/>
    <use xlink:href="#DejaVuSans-20" x="568.505859"/>
    <use xlink:href="#DejaVuSans-73" x="600.292969"/>
    <use xlink:href="#DejaVuSans-65" x="652.392578"/>
    <use xlink:href="#DejaVuSans-6c" x="713.916016"/>
    <use xlink:href="#DejaVuSans-65" x="741.699219"/>
    <use xlink:href="#DejaVuSans-63" x="803.222656"/>
    <use xlink:href="#DejaVuSans-74" x="858.203125"/>
    <use xlink:href="#DejaVuSans-65" x="897.412109"/>
    <use xlink:href="#DejaVuSans-64" x="958.935547"/>
    <use xlink:href="#DejaVuSans-20" x="1022.412109"/>
    <use xlink:href="#DejaVuSans-41" x="1054.199219"/>
    <use xlink:href="#DejaVuSans-49" x="1122.607422"/>
    <use xlink:href="#DejaVuSans-2d" x="1152.099609"/>
    <use xlink:href="#DejaVuSans-72" x="1188.183594"/>
    <use xlink:href="#DejaVuSans-65" x="1227.046875"/>
    <use xlink:href="#DejaVuSans-6c" x="1288.570312"/>
    <use xlink:href="#DejaVuSans-61" x="1316.353516"/>
    <use xlink:href="#DejaVuSans-74" x="1377.632812"/>
    <use xlink:href="#DejaVuSans-65" x="1416.841797"/>
    <use xlink:href="#DejaVuSans-64" x="1478.365234"/>
    <use xlink:href="#DejaVuSans-20" x="1541.841797"/>
    <use xlink:href="#DejaVuSans-74" x="1573.628906"/>
    <use xlink:href="#DejaVuSans-65" x="1612.837891"/>
    <use xlink:href="#DejaVuSans-72" x="1674.361328"/>
    <use xlink:href="#DejaVuSans-6d" x="1713.724609"/>
    <use xlink:href="#DejaVuSans-73" x="1811.136719"/>
    <use xlink:href="#DejaVuSans-20" x="1863.236328"/>
    <use xlink:href="#DejaVuSans-69" x="1895.023438"/>
    <use xlink:href="#DejaVuSans-6e" x="1922.806641"/>
    <use xlink:href="#DejaVuSans-20" x="1986.185547"/>
    <use xlink:href="#DejaVuSans-74" x="2017.972656"/>
    <use xlink:href="#DejaVuSans-68" x="2057.181641"/>
    <use xlink:href="#DejaVuSans-65" x="2120.560547"/>
    <use xlink:href="#DejaVuSans-69" x="2182.083984"/>
    <use xlink:href="#DejaVuSans-72" x="2209.867188"/>
    <use xlink:href="#DejaVuSans-20" x="2250.980469"/>
    <use xlink:href="#DejaVuSans-74" x="2282.767578"/>
    <use xlink:href="#DejaVuSans-69" x="2321.976562"/>
    <use xlink:href="#DejaVuSans-74" x="2349.759766"/>
    <use xlink:href="#DejaVuSans-6c" x="2388.96875"/>
    <use xlink:href="#DejaVuSans-65" x="2416.751953"/>
    <use xlink:href="#DejaVuSans-20" x="2478.275391"/>
    <use xlink:href="#DejaVuSans-6f" x="2510.0625"/>
    <use xlink:href="#DejaVuSans-72" x="2571.244141"/>
    <use xlink:href="#DejaVuSans-20" x="2612.357422"/>
    <use xlink:href="#DejaVuSans-61" x="2644.144531"/>
    <use xlink:href="#DejaVuSans-62" x="2705.423828"/>
    <use xlink:href="#DejaVuSans-73" x="2768.900391"/>
    <use xlink:href="#DejaVuSans-74" x="2821"/>
    <use xlink:href="#DejaVuSans-72" x="2860.208984"/>
    <use xlink:href="#DejaVuSans-61" x="2901.322266"/>
    <use xlink:href="#DejaVuSans-63" x="2962.601562"/>
    <use xlink:href="#DejaVuSans-74" x="3017.582031"/>
   </g>
  </g>
  <g id="text_18">
   <!-- Source: Frontier Graph screened corpus, five general-interest economics journals -->
   <g style="fill: #5d5a56" transform="translate(38.376 686.0751) scale(0.113 -0.113)">
    <defs>
     <path id="DejaVuSans-3a" d="M 750 794 
L 1409 794 
L 1409 0 
L 750 0 
L 750 794 
z
M 750 3309 
L 1409 3309 
L 1409 2516 
L 750 2516 
L 750 3309 
z
" transform="scale(0.015625)"/>
     <path id="DejaVuSans-46" d="M 628 4666 
L 3309 4666 
L 3309 4134 
L 1259 4134 
L 1259 2759 
L 3109 2759 
L 3109 2228 
L 1259 2228 
L 1259 0 
L 628 0 
L 628 4666 
z
" transform="scale(0.015625)"/>
    </defs>
    <use xlink:href="#DejaVuSans-53"/>
    <use xlink:href="#DejaVuSans-6f" x="63.476562"/>
    <use xlink:href="#DejaVuSans-75" x="124.658203"/>
    <use xlink:href="#DejaVuSans-72" x="188.037109"/>
    <use xlink:href="#DejaVuSans-63" x="226.900391"/>
    <use xlink:href="#DejaVuSans-65" x="281.880859"/>
    <use xlink:href="#DejaVuSans-3a" x="343.404297"/>
    <use xlink:href="#DejaVuSans-20" x="377.095703"/>
    <use xlink:href="#DejaVuSans-46" x="408.882812"/>
    <use xlink:href="#DejaVuSans-72" x="459.152344"/>
    <use xlink:href="#DejaVuSans-6f" x="498.015625"/>
    <use xlink:href="#DejaVuSans-6e" x="559.197266"/>
    <use xlink:href="#DejaVuSans-74" x="622.576172"/>
    <use xlink:href="#DejaVuSans-69" x="661.785156"/>
    <use xlink:href="#DejaVuSans-65" x="689.568359"/>
    <use xlink:href="#DejaVuSans-72" x="751.091797"/>
    <use xlink:href="#DejaVuSans-20" x="792.205078"/>
    <use xlink:href="#DejaVuSans-47" x="823.992188"/>
    <use xlink:href="#DejaVuSans-72" x="901.482422"/>
    <use xlink:href="#DejaVuSans-61" x="942.595703"/>
    <use xlink:href="#DejaVuSans-70" x="1003.875"/>
    <use xlink:href="#DejaVuSans-68" x="1067.351562"/>
    <use xlink:href="#DejaVuSans-20" x="1130.730469"/>
    <use xlink:href="#DejaVuSans-73" x="1162.517578"/>
    <use xlink:href="#DejaVuSans-63" x="1214.617188"/>
    <use xlink:href="#DejaVuSans-72" x="1269.597656"/>
    <use xlink:href="#DejaVuSans-65" x="1308.460938"/>
    <use xlink:href="#DejaVuSans-65" x="1369.984375"/>
    <use xlink:href="#DejaVuSans-6e" x="1431.507812"/>
    <use xlink:href="#DejaVuSans-65" x="1494.886719"/>
    <use xlink:href="#DejaVuSans-64" x="1556.410156"/>
    <use xlink:href="#DejaVuSans-20" x="1619.886719"/>
    <use xlink:href="#DejaVuSans-63" x="1651.673828"/>
    <use xlink:href="#DejaVuSans-6f" x="1706.654297"/>
    <use xlink:href="#DejaVuSans-72" x="1767.835938"/>
    <use xlink:href="#DejaVuSans-70" x="1808.949219"/>
    <use xlink:href="#DejaVuSans-75" x="1872.425781"/>
    <use xlink:href="#DejaVuSans-73" x="1935.804688"/>
    <use xlink:href="#DejaVuSans-2c" x="1987.904297"/>
    <use xlink:href="#DejaVuSans-20" x="2019.691406"/>
    <use xlink:href="#DejaVuSans-66" x="2051.478516"/>
    <use xlink:href="#DejaVuSans-69" x="2086.683594"/>
    <use xlink:href="#DejaVuSans-76" x="2114.466797"/>
    <use xlink:href="#DejaVuSans-65" x="2173.646484"/>
    <use xlink:href="#DejaVuSans-20" x="2235.169922"/>
    <use xlink:href="#DejaVuSans-67" x="2266.957031"/>
    <use xlink:href="#DejaVuSans-65" x="2330.433594"/>
    <use xlink:href="#DejaVuSans-6e" x="2391.957031"/>
    <use xlink:href="#DejaVuSans-65" x="2455.335938"/>
    <use xlink:href="#DejaVuSans-72" x="2516.859375"/>
    <use xlink:href="#DejaVuSans-61" x="2557.972656"/>
    <use xlink:href="#DejaVuSans-6c" x="2619.251953"/>
    <use xlink:href="#DejaVuSans-2d" x="2647.035156"/>
    <use xlink:href="#DejaVuSans-69" x="2683.119141"/>
    <use xlink:href="#DejaVuSans-6e" x="2710.902344"/>
    <use xlink:href="#DejaVuSans-74" x="2774.28125"/>
    <use xlink:href="#DejaVuSans-65" x="2813.490234"/>
    <use xlink:href="#DejaVuSans-72" x="2875.013672"/>
    <use xlink:href="#DejaVuSans-65" x="2913.876953"/>
    <use xlink:href="#DejaVuSans-73" x="2975.400391"/>
    <use xlink:href="#DejaVuSans-74" x="3027.5"/>
    <use xlink:href="#DejaVuSans-20" x="3066.708984"/>
    <use xlink:href="#DejaVuSans-65" x="3098.496094"/>
    <use xlink:href="#DejaVuSans-63" x="3160.019531"/>
    <use xlink:href="#DejaVuSans-6f" x="3215"/>
    <use xlink:href="#DejaVuSans-6e" x="3276.181641"/>
    <use xlink:href="#DejaVuSans-6f" x="3339.560547"/>
    <use xlink:href="#DejaVuSans-6d" x="3400.742188"/>
    <use xlink:href="#DejaVuSans-69" x="3498.154297"/>
    <use xlink:href="#DejaVuSans-63" x="3525.9375"/>
    <use xlink:href="#DejaVuSans-73" x="3580.917969"/>
    <use xlink:href="#DejaVuSans-20" x="3633.017578"/>
    <use xlink:href="#DejaVuSans-6a" x="3664.804688"/>
    <use xlink:href="#DejaVuSans-6f" x="3692.587891"/>
    <use xlink:href="#DejaVuSans-75" x="3753.769531"/>
    <use xlink:href="#DejaVuSans-72" x="3817.148438"/>
    <use xlink:href="#DejaVuSans-6e" x="3856.511719"/>
    <use xlink:href="#DejaVuSans-61" x="3919.890625"/>
    <use xlink:href="#DejaVuSans-6c" x="3981.169922"/>
    <use xlink:href="#DejaVuSans-73" x="4008.953125"/>
   </g>
   <!-- * Same AI-term list as the main chart. Lines show monthly share and 12-month rolling average. -->
   <g style="fill: #5d5a56" transform="translate(38.376 700.6176) scale(0.113 -0.113)">
    <defs>
     <path id="DejaVuSans-2a" d="M 3009 3897 
L 1888 3291 
L 3009 2681 
L 2828 2375 
L 1778 3009 
L 1778 1831 
L 1422 1831 
L 1422 3009 
L 372 2375 
L 191 2681 
L 1313 3291 
L 191 3897 
L 372 4206 
L 1422 3572 
L 1422 4750 
L 1778 4750 
L 1778 3572 
L 2828 4206 
L 3009 3897 
z
" transform="scale(0.015625)"/>
     <path id="DejaVuSans-2e" d="M 684 794 
L 1344 794 
L 1344 0 
L 684 0 
L 684 794 
z
" transform="scale(0.015625)"/>
     <path id="DejaVuSans-4c" d="M 628 4666 
L 1259 4666 
L 1259 531 
L 3531 531 
L 3531 0 
L 628 0 
L 628 4666 
z
" transform="scale(0.015625)"/>
     <path id="DejaVuSans-77" d="M 269 3500 
L 844 3500 
L 1563 769 
L 2278 3500 
L 2956 3500 
L 3675 769 
L 4391 3500 
L 4966 3500 
L 4050 0 
L 3372 0 
L 2619 2869 
L 1863 0 
L 1184 0 
L 269 3500 
z
" transform="scale(0.015625)"/>
    </defs>
    <use xlink:href="#DejaVuSans-2a"/>
    <use xlink:href="#DejaVuSans-20" x="50"/>
    <use xlink:href="#DejaVuSans-53" x="81.787109"/>
    <use xlink:href="#DejaVuSans-61" x="145.263672"/>
    <use xlink:href="#DejaVuSans-6d" x="206.542969"/>
    <use xlink:href="#DejaVuSans-65" x="303.955078"/>
    <use xlink:href="#DejaVuSans-20" x="365.478516"/>
    <use xlink:href="#DejaVuSans-41" x="397.265625"/>
    <use xlink:href="#DejaVuSans-49" x="465.673828"/>
    <use xlink:href="#DejaVuSans-2d" x="495.166016"/>
    <use xlink:href="#DejaVuSans-74" x="531.25"/>
    <use xlink:href="#DejaVuSans-65" x="570.458984"/>
    <use xlink:href="#DejaVuSans-72" x="631.982422"/>
    <use xlink:href="#DejaVuSans-6d" x="671.345703"/>
    <use xlink:href="#DejaVuSans-20" x="768.757812"/>
    <use xlink:href="#DejaVuSans-6c" x="800.544922"/>
    <use xlink:href="#DejaVuSans-69" x="828.328125"/>
    <use xlink:href="#DejaVuSans-73" x="856.111328"/>
    <use xlink:href="#DejaVuSans-74" x="908.210938"/>
    <use xlink:href="#DejaVuSans-20" x="947.419922"/>
    <use xlink:href="#DejaVuSans-61" x="979.207031"/>
    <use xlink:href="#DejaVuSans-73" x="1040.486328"/>
    <use xlink:href="#DejaVuSans-20" x="1092.585938"/>
    <use xlink:href="#DejaVuSans-74" x="1124.373047"/>
    <use xlink:href="#DejaVuSans-68" x="1163.582031"/>
    <use xlink:href="#DejaVuSans-65" x="1226.960938"/>
    <use xlink:href="#DejaVuSans-20" x="1288.484375"/>
    <use xlink:href="#DejaVuSans-6d" x="1320.271484"/>
    <use xlink:href="#DejaVuSans-61" x="1417.683594"/>
    <use xlink:href="#DejaVuSans-69" x="1478.962891"/>
    <use xlink:href="#DejaVuSans-6e" x="1506.746094"/>
    <use xlink:href="#DejaVuSans-20" x="1570.125"/>
    <use xlink:href="#DejaVuSans-63" x="1601.912109"/>
    <use xlink:href="#DejaVuSans-68" x="1656.892578"/>
    <use xlink:href="#DejaVuSans-61" x="1720.271484"/>
    <use xlink:href="#DejaVuSans-72" x="1781.550781"/>
    <use xlink:href="#DejaVuSans-74" x="1822.664062"/>
    <use xlink:href="#DejaVuSans-2e" x="1861.873047"/>
    <use xlink:href="#DejaVuSans-20" x="1893.660156"/>
    <use xlink:href="#DejaVuSans-4c" x="1925.447266"/>
    <use xlink:href="#DejaVuSans-69" x="1981.160156"/>
    <use xlink:href="#DejaVuSans-6e" x="2008.943359"/>
    <use xlink:href="#DejaVuSans-65" x="2072.322266"/>
    <use xlink:href="#DejaVuSans-73" x="2133.845703"/>
    <use xlink:href="#DejaVuSans-20" x="2185.945312"/>
    <use xlink:href="#DejaVuSans-73" x="2217.732422"/>
    <use xlink:href="#DejaVuSans-68" x="2269.832031"/>
    <use xlink:href="#DejaVuSans-6f" x="2333.210938"/>
    <use xlink:href="#DejaVuSans-77" x="2394.392578"/>
    <use xlink:href="#DejaVuSans-20" x="2476.179688"/>
    <use xlink:href="#DejaVuSans-6d" x="2507.966797"/>
    <use xlink:href="#DejaVuSans-6f" x="2605.378906"/>
    <use xlink:href="#DejaVuSans-6e" x="2666.560547"/>
    <use xlink:href="#DejaVuSans-74" x="2729.939453"/>
    <use xlink:href="#DejaVuSans-68" x="2769.148438"/>
    <use xlink:href="#DejaVuSans-6c" x="2832.527344"/>
    <use xlink:href="#DejaVuSans-79" x="2860.310547"/>
    <use xlink:href="#DejaVuSans-20" x="2919.490234"/>
    <use xlink:href="#DejaVuSans-73" x="2951.277344"/>
    <use xlink:href="#DejaVuSans-68" x="3003.376953"/>
    <use xlink:href="#DejaVuSans-61" x="3066.755859"/>
    <use xlink:href="#DejaVuSans-72" x="3128.035156"/>
    <use xlink:href="#DejaVuSans-65" x="3166.898438"/>
    <use xlink:href="#DejaVuSans-20" x="3228.421875"/>
    <use xlink:href="#DejaVuSans-61" x="3260.208984"/>
    <use xlink:href="#DejaVuSans-6e" x="3321.488281"/>
    <use xlink:href="#DejaVuSans-64" x="3384.867188"/>
    <use xlink:href="#DejaVuSans-20" x="3448.34375"/>
    <use xlink:href="#DejaVuSans-31" x="3480.130859"/>
    <use xlink:href="#DejaVuSans-32" x="3543.753906"/>
    <use xlink:href="#DejaVuSans-2d" x="3607.376953"/>
    <use xlink:href="#DejaVuSans-6d" x="3643.460938"/>
    <use xlink:href="#DejaVuSans-6f" x="3740.873047"/>
    <use xlink:href="#DejaVuSans-6e" x="3802.054688"/>
    <use xlink:href="#DejaVuSans-74" x="3865.433594"/>
    <use xlink:href="#DejaVuSans-68" x="3904.642578"/>
    <use xlink:href="#DejaVuSans-20" x="3968.021484"/>
    <use xlink:href="#DejaVuSans-72" x="3999.808594"/>
    <use xlink:href="#DejaVuSans-6f" x="4038.671875"/>
    <use xlink:href="#DejaVuSans-6c" x="4099.853516"/>
    <use xlink:href="#DejaVuSans-6c" x="4127.636719"/>
    <use xlink:href="#DejaVuSans-69" x="4155.419922"/>
    <use xlink:href="#DejaVuSans-6e" x="4183.203125"/>
    <use xlink:href="#DejaVuSans-67" x="4246.582031"/>
    <use xlink:href="#DejaVuSans-20" x="4310.058594"/>
    <use xlink:href="#DejaVuSans-61" x="4341.845703"/>
    <use xlink:href="#DejaVuSans-76" x="4403.125"/>
    <use xlink:href="#DejaVuSans-65" x="4462.304688"/>
    <use xlink:href="#DejaVuSans-72" x="4523.828125"/>
    <use xlink:href="#DejaVuSans-61" x="4564.941406"/>
    <use xlink:href="#DejaVuSans-67" x="4626.220703"/>
    <use xlink:href="#DejaVuSans-65" x="4689.697266"/>
    <use xlink:href="#DejaVuSans-2e" x="4751.220703"/>
   </g>
  </g>
 </g>
 <defs>
  <clipPath id="p62077da045">
   <rect x="70.848" y="183.168" width="425.088" height="400.68"/>
  </clipPath>
 </defs>
</svg>
