<?xml version="1.0" encoding="utf-8" standalone="no"?>
<!DOCTYPE svg PUBLIC "-//W3C//DTD SVG 1.1//EN"
  "http://www.w3.org/Graphics/SVG/1.1/DTD/svg11.dtd">
<svg xmlns:xlink="http://www.w3.org/1999/xlink" width="806.4pt" height="561.6pt" viewBox="0 0 806.4 561.6" xmlns="http://www.w3.org/2000/svg" version="1.1">
 <metadata>
  <rdf:RDF xmlns:dc="http://purl.org/dc/elements/1.1/" xmlns:cc="http://creativecommons.org/ns#" xmlns:rdf="http://www.w3.org/1999/02/22-rdf-syntax-ns#">
   <cc:Work>
    <dc:type rdf:resource="http://purl.org/dc/dcmitype/StillImage"/>
    <dc:date>2026-03-19T19:08:39.978308</dc:date>
    <dc:format>image/svg+xml</dc:format>
    <dc:creator>
     <cc:Agent>
      <dc:title>Matplotlib v3.9.4, https://matplotlib.org/</dc:title>
     </cc:Agent>
    </dc:creator>
   </cc:Work>
  </rdf:RDF>
 </metadata>
 <defs>
  <style type="text/css">*{stroke-linejoin: round; stroke-linecap: butt}</style>
 </defs>
 <g id="figure_1">
  <g id="patch_1">
   <path d="M 0 561.6 
L 806.4 561.6 
L 806.4 0 
L 0 0 
z
" style="fill: #f4f8fb"/>
  </g>
  <g id="axes_1">
   <g id="patch_2">
    <path d="M 64.512 438.048 
L 741.888 438.048 
L 741.888 168.48 
L 64.512 168.48 
z
" style="fill: #ffffff"/>
   </g>
   <g id="line2d_1">
    <path d="M 547.993511 438.048 
L 547.993511 168.48 
" clip-path="url(#pcd2fa36122)" style="fill: none; stroke-dasharray: 3.6,3.6; stroke-dashoffset: 0; stroke: #8396a8; stroke-width: 1.8"/>
   </g>
   <g id="matplotlib.axis_1">
    <g id="xtick_1">
     <g id="line2d_2"/>
     <g id="text_1">
      <!-- 2016 -->
      <g style="fill: #627588" transform="translate(110.940794 450.286203) scale(0.115 -0.115)">
       <defs>
        <path id="DejaVuSans-32" d="M 1228 531 
L 3431 531 
L 3431 0 
L 469 0 
L 469 531 
Q 828 903 1448 1529 
Q 2069 2156 2228 2338 
Q 2531 2678 2651 2914 
Q 2772 3150 2772 3378 
Q 2772 3750 2511 3984 
Q 2250 4219 1831 4219 
Q 1534 4219 1204 4116 
Q 875 4013 500 3803 
L 500 4441 
Q 881 4594 1212 4672 
Q 1544 4750 1819 4750 
Q 2544 4750 2975 4387 
Q 3406 4025 3406 3419 
Q 3406 3131 3298 2873 
Q 3191 2616 2906 2266 
Q 2828 2175 2409 1742 
Q 1991 1309 1228 531 
z
" transform="scale(0.015625)"/>
        <path id="DejaVuSans-30" d="M 2034 4250 
Q 1547 4250 1301 3770 
Q 1056 3291 1056 2328 
Q 1056 1369 1301 889 
Q 1547 409 2034 409 
Q 2525 409 2770 889 
Q 3016 1369 3016 2328 
Q 3016 3291 2770 3770 
Q 2525 4250 2034 4250 
z
M 2034 4750 
Q 2819 4750 3233 4129 
Q 3647 3509 3647 2328 
Q 3647 1150 3233 529 
Q 2819 -91 2034 -91 
Q 1250 -91 836 529 
Q 422 1150 422 2328 
Q 422 3509 836 4129 
Q 1250 4750 2034 4750 
z
" transform="scale(0.015625)"/>
        <path id="DejaVuSans-31" d="M 794 531 
L 1825 531 
L 1825 4091 
L 703 3866 
L 703 4441 
L 1819 4666 
L 2450 4666 
L 2450 531 
L 3481 531 
L 3481 0 
L 794 0 
L 794 531 
z
" transform="scale(0.015625)"/>
        <path id="DejaVuSans-36" d="M 2113 2584 
Q 1688 2584 1439 2293 
Q 1191 2003 1191 1497 
Q 1191 994 1439 701 
Q 1688 409 2113 409 
Q 2538 409 2786 701 
Q 3034 994 3034 1497 
Q 3034 2003 2786 2293 
Q 2538 2584 2113 2584 
z
M 3366 4563 
L 3366 3988 
Q 3128 4100 2886 4159 
Q 2644 4219 2406 4219 
Q 1781 4219 1451 3797 
Q 1122 3375 1075 2522 
Q 1259 2794 1537 2939 
Q 1816 3084 2150 3084 
Q 2853 3084 3261 2657 
Q 3669 2231 3669 1497 
Q 3669 778 3244 343 
Q 2819 -91 2113 -91 
Q 1303 -91 875 529 
Q 447 1150 447 2328 
Q 447 3434 972 4092 
Q 1497 4750 2381 4750 
Q 2619 4750 2861 4703 
Q 3103 4656 3366 4563 
z
" transform="scale(0.015625)"/>
       </defs>
       <use xlink:href="#DejaVuSans-32"/>
       <use xlink:href="#DejaVuSans-30" x="63.623047"/>
       <use xlink:href="#DejaVuSans-31" x="127.246094"/>
       <use xlink:href="#DejaVuSans-36" x="190.869141"/>
      </g>
     </g>
    </g>
    <g id="xtick_2">
     <g id="line2d_3"/>
     <g id="text_2">
      <!-- 2018 -->
      <g style="fill: #627588" transform="translate(233.233176 450.286203) scale(0.115 -0.115)">
       <defs>
        <path id="DejaVuSans-38" d="M 2034 2216 
Q 1584 2216 1326 1975 
Q 1069 1734 1069 1313 
Q 1069 891 1326 650 
Q 1584 409 2034 409 
Q 2484 409 2743 651 
Q 3003 894 3003 1313 
Q 3003 1734 2745 1975 
Q 2488 2216 2034 2216 
z
M 1403 2484 
Q 997 2584 770 2862 
Q 544 3141 544 3541 
Q 544 4100 942 4425 
Q 1341 4750 2034 4750 
Q 2731 4750 3128 4425 
Q 3525 4100 3525 3541 
Q 3525 3141 3298 2862 
Q 3072 2584 2669 2484 
Q 3125 2378 3379 2068 
Q 3634 1759 3634 1313 
Q 3634 634 3220 271 
Q 2806 -91 2034 -91 
Q 1263 -91 848 271 
Q 434 634 434 1313 
Q 434 1759 690 2068 
Q 947 2378 1403 2484 
z
M 1172 3481 
Q 1172 3119 1398 2916 
Q 1625 2713 2034 2713 
Q 2441 2713 2670 2916 
Q 2900 3119 2900 3481 
Q 2900 3844 2670 4047 
Q 2441 4250 2034 4250 
Q 1625 4250 1398 4047 
Q 1172 3844 1172 3481 
z
" transform="scale(0.015625)"/>
       </defs>
       <use xlink:href="#DejaVuSans-32"/>
       <use xlink:href="#DejaVuSans-30" x="63.623047"/>
       <use xlink:href="#DejaVuSans-31" x="127.246094"/>
       <use xlink:href="#DejaVuSans-38" x="190.869141"/>
      </g>
     </g>
    </g>
    <g id="xtick_3">
     <g id="line2d_4"/>
     <g id="text_3">
      <!-- 2020 -->
      <g style="fill: #627588" transform="translate(355.358264 450.286203) scale(0.115 -0.115)">
       <use xlink:href="#DejaVuSans-32"/>
       <use xlink:href="#DejaVuSans-30" x="63.623047"/>
       <use xlink:href="#DejaVuSans-32" x="127.246094"/>
       <use xlink:href="#DejaVuSans-30" x="190.869141"/>
      </g>
     </g>
    </g>
    <g id="xtick_4">
     <g id="line2d_5"/>
     <g id="text_4">
      <!-- 2022 -->
      <g style="fill: #627588" transform="translate(477.650646 450.286203) scale(0.115 -0.115)">
       <use xlink:href="#DejaVuSans-32"/>
       <use xlink:href="#DejaVuSans-30" x="63.623047"/>
       <use xlink:href="#DejaVuSans-32" x="127.246094"/>
       <use xlink:href="#DejaVuSans-32" x="190.869141"/>
      </g>
     </g>
    </g>
    <g id="xtick_5">
     <g id="line2d_6"/>
     <g id="text_5">
      <!-- 2024 -->
      <g style="fill: #627588" transform="translate(599.775734 450.286203) scale(0.115 -0.115)">
       <defs>
        <path id="DejaVuSans-34" d="M 2419 4116 
L 825 1625 
L 2419 1625 
L 2419 4116 
z
M 2253 4666 
L 3047 4666 
L 3047 1625 
L 3713 1625 
L 3713 1100 
L 3047 1100 
L 3047 0 
L 2419 0 
L 2419 1100 
L 313 1100 
L 313 1709 
L 2253 4666 
z
" transform="scale(0.015625)"/>
       </defs>
       <use xlink:href="#DejaVuSans-32"/>
       <use xlink:href="#DejaVuSans-30" x="63.623047"/>
       <use xlink:href="#DejaVuSans-32" x="127.246094"/>
       <use xlink:href="#DejaVuSans-34" x="190.869141"/>
      </g>
     </g>
    </g>
    <g id="xtick_6">
     <g id="line2d_7"/>
     <g id="text_6">
      <!-- 2026 -->
      <g style="fill: #627588" transform="translate(722.068116 450.286203) scale(0.115 -0.115)">
       <use xlink:href="#DejaVuSans-32"/>
       <use xlink:href="#DejaVuSans-30" x="63.623047"/>
       <use xlink:href="#DejaVuSans-32" x="127.246094"/>
       <use xlink:href="#DejaVuSans-36" x="190.869141"/>
      </g>
     </g>
    </g>
   </g>
   <g id="matplotlib.axis_2">
    <g id="ytick_1">
     <g id="line2d_8">
      <path d="M 64.512 438.048 
L 741.888 438.048 
" clip-path="url(#pcd2fa36122)" style="fill: none; stroke: #d8e3ec; stroke-linecap: square"/>
     </g>
     <g id="line2d_9"/>
     <g id="text_7">
      <!-- 0 -->
      <g style="fill: #627588" transform="translate(53.695125 442.417102) scale(0.115 -0.115)">
       <use xlink:href="#DejaVuSans-30"/>
      </g>
     </g>
    </g>
    <g id="ytick_2">
     <g id="line2d_10">
      <path d="M 64.512 396.217396 
L 741.888 396.217396 
" clip-path="url(#pcd2fa36122)" style="fill: none; stroke: #d8e3ec; stroke-linecap: square"/>
     </g>
     <g id="line2d_11"/>
     <g id="text_8">
      <!-- 1 -->
      <g style="fill: #627588" transform="translate(53.695125 400.586498) scale(0.115 -0.115)">
       <use xlink:href="#DejaVuSans-31"/>
      </g>
     </g>
    </g>
    <g id="ytick_3">
     <g id="line2d_12">
      <path d="M 64.512 354.386792 
L 741.888 354.386792 
" clip-path="url(#pcd2fa36122)" style="fill: none; stroke: #d8e3ec; stroke-linecap: square"/>
     </g>
     <g id="line2d_13"/>
     <g id="text_9">
      <!-- 2 -->
      <g style="fill: #627588" transform="translate(53.695125 358.755894) scale(0.115 -0.115)">
       <use xlink:href="#DejaVuSans-32"/>
      </g>
     </g>
    </g>
    <g id="ytick_4">
     <g id="line2d_14">
      <path d="M 64.512 312.556188 
L 741.888 312.556188 
" clip-path="url(#pcd2fa36122)" style="fill: none; stroke: #d8e3ec; stroke-linecap: square"/>
     </g>
     <g id="line2d_15"/>
     <g id="text_10">
      <!-- 3 -->
      <g style="fill: #627588" transform="translate(53.695125 316.92529) scale(0.115 -0.115)">
       <defs>
        <path id="DejaVuSans-33" d="M 2597 2516 
Q 3050 2419 3304 2112 
Q 3559 1806 3559 1356 
Q 3559 666 3084 287 
Q 2609 -91 1734 -91 
Q 1441 -91 1130 -33 
Q 819 25 488 141 
L 488 750 
Q 750 597 1062 519 
Q 1375 441 1716 441 
Q 2309 441 2620 675 
Q 2931 909 2931 1356 
Q 2931 1769 2642 2001 
Q 2353 2234 1838 2234 
L 1294 2234 
L 1294 2753 
L 1863 2753 
Q 2328 2753 2575 2939 
Q 2822 3125 2822 3475 
Q 2822 3834 2567 4026 
Q 2313 4219 1838 4219 
Q 1578 4219 1281 4162 
Q 984 4106 628 3988 
L 628 4550 
Q 988 4650 1302 4700 
Q 1616 4750 1894 4750 
Q 2613 4750 3031 4423 
Q 3450 4097 3450 3541 
Q 3450 3153 3228 2886 
Q 3006 2619 2597 2516 
z
" transform="scale(0.015625)"/>
       </defs>
       <use xlink:href="#DejaVuSans-33"/>
      </g>
     </g>
    </g>
    <g id="ytick_5">
     <g id="line2d_16">
      <path d="M 64.512 270.725584 
L 741.888 270.725584 
" clip-path="url(#pcd2fa36122)" style="fill: none; stroke: #d8e3ec; stroke-linecap: square"/>
     </g>
     <g id="line2d_17"/>
     <g id="text_11">
      <!-- 4 -->
      <g style="fill: #627588" transform="translate(53.695125 275.094686) scale(0.115 -0.115)">
       <use xlink:href="#DejaVuSans-34"/>
      </g>
     </g>
    </g>
    <g id="ytick_6">
     <g id="line2d_18">
      <path d="M 64.512 228.89498 
L 741.888 228.89498 
" clip-path="url(#pcd2fa36122)" style="fill: none; stroke: #d8e3ec; stroke-linecap: square"/>
     </g>
     <g id="line2d_19"/>
     <g id="text_12">
      <!-- 5 -->
      <g style="fill: #627588" transform="translate(53.695125 233.264082) scale(0.115 -0.115)">
       <defs>
        <path id="DejaVuSans-35" d="M 691 4666 
L 3169 4666 
L 3169 4134 
L 1269 4134 
L 1269 2991 
Q 1406 3038 1543 3061 
Q 1681 3084 1819 3084 
Q 2600 3084 3056 2656 
Q 3513 2228 3513 1497 
Q 3513 744 3044 326 
Q 2575 -91 1722 -91 
Q 1428 -91 1123 -41 
Q 819 9 494 109 
L 494 744 
Q 775 591 1075 516 
Q 1375 441 1709 441 
Q 2250 441 2565 725 
Q 2881 1009 2881 1497 
Q 2881 1984 2565 2268 
Q 2250 2553 1709 2553 
Q 1456 2553 1204 2497 
Q 953 2441 691 2322 
L 691 4666 
z
" transform="scale(0.015625)"/>
       </defs>
       <use xlink:href="#DejaVuSans-35"/>
      </g>
     </g>
    </g>
    <g id="ytick_7">
     <g id="line2d_20">
      <path d="M 64.512 187.064376 
L 741.888 187.064376 
" clip-path="url(#pcd2fa36122)" style="fill: none; stroke: #d8e3ec; stroke-linecap: square"/>
     </g>
     <g id="line2d_21"/>
     <g id="text_13">
      <!-- 6 -->
      <g style="fill: #627588" transform="translate(53.695125 191.433478) scale(0.115 -0.115)">
       <use xlink:href="#DejaVuSans-36"/>
      </g>
     </g>
    </g>
   </g>
   <g id="patch_3">
    <path d="M 64.512 438.048 
L 741.888 438.048 
" style="fill: none; stroke: #93a6b8; stroke-width: 1.1; stroke-linejoin: miter; stroke-linecap: square"/>
   </g>
   <g id="line2d_22">
    <path d="M 64.512 435.799043 
L 69.698134 435.799043 
L 74.382384 433.699113 
L 79.568518 433.699113 
L 84.587357 435.94807 
L 130.760678 435.94807 
L 135.612222 438.048 
L 140.798356 435.259293 
L 196.674766 435.259293 
L 201.8609 438.048 
L 217.084712 438.048 
L 222.270846 435.643942 
L 242.680792 435.643942 
L 247.866926 433.779833 
L 262.923444 433.779833 
L 267.942283 428.457874 
L 273.128417 426.020193 
L 278.147256 426.020193 
L 283.33339 428.42425 
L 288.519524 428.42425 
L 293.538363 426.245573 
L 303.743336 426.245573 
L 308.92947 428.109682 
L 323.985988 428.109682 
L 329.004827 431.47328 
L 334.190961 433.910961 
L 339.2098 429.470345 
L 344.395934 429.470345 
L 349.582068 426.490957 
L 354.600907 428.669635 
L 359.787041 426.345712 
L 364.80588 423.287919 
L 369.992014 421.798225 
L 375.178148 419.17726 
L 385.215826 419.17726 
L 390.234665 418.143447 
L 395.420799 416.174021 
L 400.439638 418.476059 
L 405.625772 416.669901 
L 410.811906 417.775158 
L 415.830745 417.775158 
L 421.016879 420.09908 
L 426.035718 418.879715 
L 431.221852 420.369409 
L 436.407986 422.990374 
L 441.092236 421.17481 
L 446.27837 421.17481 
L 451.297209 424.166985 
L 456.483343 422.768407 
L 461.502182 419.161024 
L 466.688316 416.319336 
L 471.87445 418.193467 
L 476.893289 415.973159 
L 482.079423 413.885804 
L 497.47053 413.832671 
L 502.15478 415.648236 
L 512.359753 412.30352 
L 517.545887 414.003636 
L 522.564726 418.233997 
L 527.75086 419.530031 
L 532.936994 417.723873 
L 537.955833 414.767126 
L 543.141967 416.854482 
L 548.160806 416.772261 
L 553.34694 413.879412 
L 558.533074 412.242847 
L 563.217324 407.715725 
L 568.403458 406.096267 
L 573.422297 403.557491 
L 578.608431 400.136497 
L 583.62727 393.450019 
L 588.813404 391.418226 
L 593.999538 389.529101 
L 599.018377 384.403051 
L 604.204511 378.734948 
L 609.22335 379.046419 
L 614.409484 375.562652 
L 619.595618 377.199217 
L 629.633296 370.464754 
L 634.652135 374.647814 
L 639.838269 376.143001 
L 644.857108 381.415766 
L 650.043242 376.236086 
L 655.229376 371.631646 
L 660.248215 381.934751 
L 665.434349 371.160007 
L 670.453188 361.03295 
L 675.639322 362.940485 
L 680.825456 346.913433 
L 685.509706 347.891135 
L 690.69584 346.979793 
L 695.714679 337.806415 
L 700.900813 341.40011 
L 705.919652 341.071589 
L 711.105786 348.113778 
L 716.29192 356.413501 
L 721.310759 352.452269 
L 726.496893 368.895117 
L 731.515732 370.05115 
L 736.701866 374.520231 
L 741.888 385.495277 
L 741.888 385.495277 
" clip-path="url(#pcd2fa36122)" style="fill: none; stroke: #163b7a; stroke-width: 3; stroke-linecap: square"/>
   </g>
   <g id="line2d_23">
    <path d="M 64.512 436.897543 
L 74.382384 434.314665 
L 79.568518 434.314665 
L 84.587357 435.465121 
L 115.369571 435.465121 
L 120.38841 434.103448 
L 125.574544 433.604752 
L 130.760678 433.710911 
L 135.612222 434.942672 
L 140.798356 433.622262 
L 176.599409 433.622262 
L 181.618248 434.983935 
L 186.804382 435.482631 
L 191.990516 436.72759 
L 196.674766 436.72759 
L 201.8609 438.048 
L 217.084712 438.048 
L 222.270846 436.803042 
L 242.680792 436.803042 
L 253.05306 434.687135 
L 262.923444 434.687135 
L 267.942283 432.266383 
L 273.128417 431.064354 
L 278.147256 431.064354 
L 283.33339 432.309312 
L 288.519524 432.309312 
L 298.724497 430.131229 
L 303.743336 430.131229 
L 314.115604 432.247136 
L 318.799854 430.931708 
L 323.985988 430.931708 
L 329.004827 431.415859 
L 334.190961 432.617888 
L 339.2098 429.318944 
L 344.395934 429.318944 
L 349.582068 426.746336 
L 354.600907 427.796301 
L 359.787041 427.883856 
L 364.80588 425.202407 
L 369.992014 424.384125 
L 375.178148 423.202469 
L 380.029692 420.948733 
L 385.215826 420.948733 
L 390.234665 419.37311 
L 395.420799 417.304336 
L 400.439638 419.574995 
L 405.625772 417.60557 
L 410.811906 418.430867 
L 415.830745 418.430867 
L 421.016879 416.90828 
L 426.035718 417.563052 
L 431.221852 416.717429 
L 436.407986 413.555304 
L 441.092236 411.182621 
L 446.27837 411.182621 
L 451.297209 412.92086 
L 456.483343 411.423512 
L 461.502182 409.463896 
L 466.688316 407.062308 
L 471.87445 408.809618 
L 476.893289 406.454291 
L 482.079423 405.48445 
L 487.098262 403.594404 
L 492.284396 405.25831 
L 497.47053 409.60209 
L 502.15478 415.543937 
L 507.340914 413.6848 
L 512.359753 412.041253 
L 517.545887 414.733719 
L 522.564726 416.092702 
L 527.75086 418.619333 
L 532.936994 414.9403 
L 537.955833 411.877155 
L 543.141967 415.410145 
L 548.160806 415.343002 
L 553.34694 413.168854 
L 558.533074 411.304745 
L 563.217324 408.344334 
L 568.403458 406.102432 
L 573.422297 407.216518 
L 578.608431 403.459967 
L 583.62727 400.73153 
L 588.813404 398.605658 
L 593.999538 400.106014 
L 599.018377 397.500713 
L 604.204511 394.212143 
L 609.22335 394.860236 
L 614.409484 392.242792 
L 619.595618 394.1069 
L 624.447162 392.833444 
L 629.633296 391.679383 
L 634.652135 392.282399 
L 639.838269 394.774026 
L 644.857108 397.361897 
L 650.043242 395.58619 
L 655.229376 392.112083 
L 660.248215 400.135856 
L 665.434349 391.34463 
L 670.453188 381.442871 
L 675.639322 381.070192 
L 680.825456 367.998128 
L 685.509706 365.495988 
L 690.69584 364.973381 
L 695.714679 360.374022 
L 700.900813 356.890208 
L 711.105786 353.541127 
L 716.29192 352.490289 
L 721.310759 346.074552 
L 726.496893 356.04169 
L 731.515732 359.921146 
L 736.701866 362.807063 
L 741.888 367.644756 
L 741.888 367.644756 
" clip-path="url(#pcd2fa36122)" style="fill: none; stroke: #3f6cb7; stroke-width: 3; stroke-linecap: square"/>
   </g>
   <g id="line2d_24">
    <path d="M 64.512 437.105869 
L 74.382384 435.056852 
L 79.568518 435.056852 
L 84.587357 435.998982 
L 115.369571 435.998982 
L 120.38841 434.926403 
L 125.574544 434.472512 
L 130.760678 434.571381 
L 135.612222 435.547819 
L 140.798356 434.525566 
L 145.817195 434.525566 
L 151.003329 433.567905 
L 176.599409 433.567905 
L 181.618248 434.640485 
L 186.804382 435.094376 
L 191.990516 436.068086 
L 196.674766 436.068086 
L 201.8609 437.09034 
L 206.879739 437.09034 
L 212.065873 438.048 
L 217.084712 438.048 
L 222.270846 437.074289 
L 242.680792 437.074289 
L 257.73731 434.563755 
L 262.923444 434.563755 
L 267.942283 432.91947 
L 273.128417 431.959172 
L 278.147256 431.959172 
L 283.33339 432.932882 
L 288.519524 432.932882 
L 298.724497 431.219209 
L 303.743336 431.219209 
L 314.115604 432.909536 
L 318.799854 432.774707 
L 323.985988 432.774707 
L 329.004827 433.013394 
L 334.190961 432.983385 
L 339.2098 430.493468 
L 344.395934 430.493468 
L 349.582068 428.546047 
L 354.600907 429.368189 
L 359.787041 428.703521 
L 364.80588 425.581834 
L 369.992014 424.283554 
L 375.178148 423.343962 
L 380.029692 420.830458 
L 385.215826 420.830458 
L 390.234665 419.032119 
L 395.420799 418.445104 
L 400.439638 419.339651 
L 405.625772 417.793804 
L 410.811906 417.66217 
L 415.830745 417.66217 
L 421.016879 416.204635 
L 426.035718 417.716214 
L 431.221852 416.413089 
L 436.407986 413.976522 
L 441.092236 413.051092 
L 446.27837 413.051092 
L 451.297209 413.599118 
L 456.483343 412.301485 
L 461.502182 411.588323 
L 466.688316 409.080816 
L 471.87445 411.159872 
L 476.893289 409.344308 
L 482.079423 406.689937 
L 487.098262 405.301435 
L 492.284396 406.579925 
L 497.47053 409.130044 
L 502.15478 413.524015 
L 507.340914 411.303707 
L 512.359753 411.328763 
L 517.545887 412.809365 
L 522.564726 412.496932 
L 527.75086 415.204384 
L 532.936994 412.305521 
L 537.955833 409.661532 
L 543.141967 415.329636 
L 548.160806 413.961794 
L 553.34694 412.36521 
L 558.533074 409.238999 
L 563.217324 406.223529 
L 568.403458 404.277442 
L 573.422297 404.655707 
L 578.608431 402.139614 
L 583.62727 400.472146 
L 588.813404 398.61411 
L 593.999538 399.181279 
L 599.018377 397.290032 
L 604.204511 393.944654 
L 609.22335 393.698405 
L 614.409484 393.087896 
L 619.595618 397.040145 
L 624.447162 395.855756 
L 629.633296 394.163523 
L 634.652135 394.209858 
L 639.838269 394.616903 
L 644.857108 397.569749 
L 650.043242 394.684807 
L 655.229376 391.278421 
L 660.248215 394.637047 
L 665.434349 386.916127 
L 670.453188 378.37455 
L 675.639322 376.924725 
L 680.825456 366.12774 
L 685.509706 364.859547 
L 690.69584 364.521048 
L 695.714679 357.48443 
L 700.900813 356.701908 
L 705.919652 355.520613 
L 711.105786 355.599348 
L 716.29192 352.917419 
L 721.310759 350.706783 
L 726.496893 358.604095 
L 731.515732 364.821291 
L 736.701866 367.994967 
L 741.888 368.292303 
L 741.888 368.292303 
" clip-path="url(#pcd2fa36122)" style="fill: none; stroke: #9fb9e3; stroke-width: 3; stroke-linecap: square"/>
   </g>
   <g id="line2d_25">
    <path d="M 64.512 419.96527 
L 69.698134 429.64828 
L 84.587357 429.64828 
L 89.773491 422.070272 
L 94.79233 426.270132 
L 105.164598 426.270132 
L 110.183437 422.308901 
L 120.38841 422.308901 
L 125.574544 426.508761 
L 130.760678 422.501998 
L 135.612222 418.495235 
L 145.817195 418.495235 
L 151.003329 426.073243 
L 156.022168 422.875184 
L 166.394436 422.875184 
L 171.413275 423.95552 
L 186.804382 423.95552 
L 191.990516 427.962283 
L 196.674766 431.969046 
L 201.8609 431.969046 
L 206.879739 425.688175 
L 212.065873 425.688175 
L 217.084712 424.582673 
L 222.270846 424.582673 
L 227.45698 421.49782 
L 232.475819 424.378716 
L 237.661953 424.378716 
L 242.680792 418.41994 
L 247.866926 414.11638 
L 253.05306 414.11638 
L 257.73731 408.208103 
L 262.923444 404.888213 
L 267.942283 411.169085 
L 273.128417 411.169085 
L 278.147256 413.238104 
L 283.33339 413.238104 
L 288.519524 413.095287 
L 293.538363 409.897229 
L 298.724497 409.897229 
L 303.743336 412.598169 
L 308.92947 414.338579 
L 314.115604 411.549872 
L 318.799854 414.373297 
L 323.985988 412.288715 
L 329.004827 412.288715 
L 334.190961 409.203862 
L 339.2098 411.438403 
L 344.395934 408.5335 
L 349.582068 408.676317 
L 354.600907 411.874376 
L 359.787041 411.874376 
L 364.80588 415.132211 
L 369.992014 412.679701 
L 375.178148 410.452748 
L 380.029692 411.150009 
L 385.215826 416.55448 
L 390.234665 416.55448 
L 395.420799 415.514027 
L 400.439638 411.575175 
L 405.625772 410.670369 
L 410.811906 404.581844 
L 415.830745 402.074014 
L 421.016879 395.811947 
L 426.035718 395.811947 
L 431.221852 396.470253 
L 436.407986 401.485913 
L 441.092236 401.858543 
L 446.27837 401.858543 
L 451.297209 398.027901 
L 456.483343 398.801396 
L 461.502182 402.740248 
L 466.688316 401.796479 
L 471.87445 409.065003 
L 476.893289 411.572832 
L 482.079423 416.319297 
L 487.098262 410.900825 
L 492.284396 412.38914 
L 497.47053 406.30911 
L 502.15478 408.324072 
L 507.340914 404.939719 
L 512.359753 405.90132 
L 517.545887 404.78405 
L 522.564726 394.470784 
L 527.75086 396.743206 
L 532.936994 393.703545 
L 537.955833 392.269025 
L 543.141967 385.007221 
L 548.160806 381.07658 
L 553.34694 374.487796 
L 558.533074 377.166964 
L 563.217324 364.911904 
L 568.403458 356.118498 
L 573.422297 355.305266 
L 578.608431 353.593703 
L 583.62727 357.098602 
L 588.813404 357.141977 
L 593.999538 358.338231 
L 599.018377 347.142737 
L 604.204511 348.149064 
L 609.22335 347.761072 
L 614.409484 352.239062 
L 619.595618 355.639924 
L 624.447162 363.053479 
L 629.633296 365.809931 
L 634.652135 369.492203 
L 639.838269 375.672848 
L 644.857108 382.481214 
L 650.043242 378.908751 
L 655.229376 376.748735 
L 660.248215 389.378749 
L 665.434349 392.737316 
L 670.453188 381.663175 
L 675.639322 386.643009 
L 680.825456 374.411839 
L 685.509706 363.039931 
L 690.69584 364.964714 
L 695.714679 352.054034 
L 700.900813 352.054034 
L 705.919652 328.131303 
L 711.105786 318.818882 
L 716.29192 294.082028 
L 721.310759 267.844194 
L 726.496893 259.184641 
L 731.515732 236.422341 
L 736.701866 218.266697 
L 741.888 217.090623 
L 741.888 217.090623 
" clip-path="url(#pcd2fa36122)" style="fill: none; stroke: #116a6c; stroke-width: 3; stroke-linecap: square"/>
   </g>
   <g id="line2d_26">
    <path d="M 64.512 429.141845 
L 69.698134 434.157505 
L 79.568518 434.157505 
L 84.587357 431.978828 
L 89.773491 427.566317 
L 94.79233 429.641247 
L 105.164598 429.641247 
L 110.183437 427.347903 
L 120.38841 427.347903 
L 125.574544 429.163467 
L 135.612222 424.679598 
L 140.798356 424.679598 
L 145.817195 426.858276 
L 151.003329 431.270787 
L 156.022168 429.426404 
L 166.394436 429.426404 
L 171.413275 429.835487 
L 186.804382 429.835487 
L 191.990516 432.099048 
L 196.674766 434.319356 
L 201.8609 434.319356 
L 206.879739 430.571094 
L 212.065873 430.571094 
L 217.084712 429.943219 
L 222.270846 429.943219 
L 227.45698 426.070015 
L 232.475819 427.954276 
L 237.661953 427.954276 
L 242.680792 424.485735 
L 247.866926 418.817632 
L 253.05306 418.817632 
L 257.73731 415.109245 
L 262.923444 413.046592 
L 267.942283 416.794854 
L 273.128417 416.794854 
L 278.147256 417.696894 
L 283.33339 417.696894 
L 288.519524 419.665243 
L 293.538363 417.526664 
L 298.724497 417.526664 
L 303.743336 418.980244 
L 308.92947 421.280344 
L 314.115604 419.253667 
L 318.799854 421.003692 
L 323.985988 419.614975 
L 329.004827 419.614975 
L 334.190961 417.623042 
L 339.2098 419.19326 
L 349.582068 415.878564 
L 354.600907 418.017143 
L 359.787041 418.017143 
L 364.80588 420.032105 
L 369.992014 419.006137 
L 375.178148 417.863829 
L 380.029692 416.964909 
L 385.215826 418.748392 
L 390.234665 417.365104 
L 395.420799 415.483834 
L 400.439638 411.708509 
L 405.625772 410.989482 
L 410.811906 407.327619 
L 415.830745 404.410562 
L 421.016879 400.142133 
L 426.035718 398.528298 
L 436.407986 401.999498 
L 441.092236 402.401932 
L 446.27837 404.069819 
L 451.297209 403.089796 
L 456.483343 403.556599 
L 461.502182 407.331924 
L 466.688316 404.126731 
L 471.87445 408.651109 
L 476.893289 411.568167 
L 482.079423 414.715733 
L 487.098262 411.454206 
L 492.284396 411.9257 
L 497.47053 407.921183 
L 502.15478 409.178132 
L 507.340914 406.814821 
L 512.359753 404.914054 
L 517.545887 404.095142 
L 522.564726 396.646672 
L 527.75086 399.484719 
L 532.936994 397.829194 
L 537.955833 396.763175 
L 543.141967 391.411574 
L 548.160806 389.024679 
L 553.34694 383.367283 
L 558.533074 385.262475 
L 563.217324 378.138635 
L 568.403458 370.697899 
L 573.422297 369.039359 
L 578.608431 368.80702 
L 583.62727 369.642702 
L 588.813404 368.751462 
L 593.999538 368.929973 
L 599.018377 359.905277 
L 604.204511 360.08269 
L 609.22335 358.31026 
L 614.409484 360.542808 
L 619.595618 361.194805 
L 624.447162 367.177024 
L 629.633296 368.811032 
L 634.652135 372.295969 
L 639.838269 374.171485 
L 644.857108 378.412923 
L 650.043242 373.734897 
L 655.229376 372.302268 
L 660.248215 379.885154 
L 665.434349 381.682289 
L 670.453188 376.070407 
L 675.639322 375.054638 
L 680.825456 367.856486 
L 685.509706 360.306974 
L 690.69584 363.701831 
L 695.714679 356.843822 
L 700.900813 354.06306 
L 705.919652 335.04862 
L 711.105786 328.081699 
L 716.29192 313.198894 
L 721.310759 300.064938 
L 726.496893 292.542564 
L 731.515732 277.918355 
L 736.701866 271.763531 
L 741.888 272.068241 
L 741.888 272.068241 
" clip-path="url(#pcd2fa36122)" style="fill: none; stroke: #24a09a; stroke-width: 3; stroke-linecap: square"/>
   </g>
   <g id="line2d_27">
    <path d="M 64.512 432.355179 
L 69.698134 435.553238 
L 79.568518 435.553238 
L 84.587357 434.164439 
L 89.773491 431.222765 
L 94.79233 432.485767 
L 105.164598 432.485767 
L 110.183437 429.804318 
L 115.369571 428.4532 
L 120.38841 428.4532 
L 125.574544 429.684961 
L 130.760678 426.940171 
L 135.612222 425.604583 
L 140.798356 425.604583 
L 145.817195 426.993381 
L 151.003329 429.935055 
L 156.022168 428.716215 
L 161.208302 427.281695 
L 166.394436 427.281695 
L 171.413275 428.831364 
L 176.599409 430.182481 
L 181.618248 428.876907 
L 186.804382 426.613346 
L 191.990516 429.358136 
L 196.674766 430.693724 
L 201.8609 429.499928 
L 206.879739 427.128579 
L 212.065873 427.128579 
L 217.084712 426.791221 
L 222.270846 428.225741 
L 227.45698 425.924828 
L 232.475819 425.639582 
L 237.661953 423.284255 
L 247.866926 421.471146 
L 253.05306 421.471146 
L 257.73731 418.140684 
L 262.923444 416.870958 
L 267.942283 417.103728 
L 273.128417 417.103728 
L 278.147256 417.606789 
L 288.519524 417.708407 
L 293.538363 416.854499 
L 298.724497 417.310161 
L 303.743336 417.168094 
L 308.92947 418.437415 
L 314.115604 416.033357 
L 318.799854 416.28804 
L 323.985988 416.194679 
L 329.004827 414.924081 
L 334.190961 410.724221 
L 339.2098 409.796742 
L 344.395934 406.96269 
L 349.582068 406.216169 
L 354.600907 408.487103 
L 359.787041 408.661082 
L 364.80588 409.058047 
L 369.992014 407.373255 
L 380.029692 408.492414 
L 385.215826 409.270785 
L 390.234665 409.270785 
L 395.420799 410.16649 
L 400.439638 407.415137 
L 405.625772 406.858251 
L 410.811906 404.522426 
L 415.830745 402.061803 
L 421.016879 400.369955 
L 426.035718 400.483933 
L 431.221852 400.848174 
L 436.407986 401.824257 
L 441.092236 401.567119 
L 446.27837 402.536842 
L 451.297209 401.588664 
L 456.483343 402.058768 
L 461.502182 406.790736 
L 466.688316 404.756174 
L 471.87445 406.376173 
L 476.893289 407.35028 
L 482.079423 409.555331 
L 487.098262 408.002167 
L 492.284396 407.088924 
L 497.47053 403.995267 
L 502.15478 404.674252 
L 507.340914 401.829076 
L 512.359753 401.852294 
L 517.545887 399.733048 
L 522.564726 393.576962 
L 527.75086 395.876109 
L 532.936994 394.820014 
L 537.955833 392.837991 
L 543.141967 387.163468 
L 548.160806 384.315947 
L 553.34694 381.187148 
L 558.533074 380.932296 
L 563.217324 375.719754 
L 568.403458 372.705073 
L 573.422297 371.158117 
L 578.608431 369.37791 
L 583.62727 370.416059 
L 588.813404 367.377666 
L 593.999538 368.842635 
L 599.018377 364.707738 
L 604.204511 365.425037 
L 609.22335 364.253332 
L 614.409484 364.116308 
L 619.595618 359.670506 
L 624.447162 362.61619 
L 629.633296 359.032238 
L 634.652135 360.177075 
L 639.838269 360.667206 
L 644.857108 357.460644 
L 650.043242 356.163254 
L 655.229376 356.020681 
L 660.248215 353.270009 
L 665.434349 353.877134 
L 670.453188 349.712899 
L 675.639322 350.690816 
L 680.825456 347.646122 
L 685.509706 344.485906 
L 690.69584 350.394725 
L 695.714679 338.895358 
L 700.900813 336.285693 
L 705.919652 327.678757 
L 711.105786 317.765772 
L 716.29192 302.374914 
L 721.310759 294.852697 
L 726.496893 287.71835 
L 731.515732 276.460811 
L 736.701866 267.572551 
L 741.888 266.698108 
L 741.888 266.698108 
" clip-path="url(#pcd2fa36122)" style="fill: none; stroke: #a4e0db; stroke-width: 3; stroke-linecap: square"/>
   </g>
   <g id="text_14">
    <!-- Nov 2022 -->
    <g style="fill: #627588" transform="translate(551.339404 193.025565) scale(0.108 -0.108)">
     <defs>
      <path id="DejaVuSans-4e" d="M 628 4666 
L 1478 4666 
L 3547 763 
L 3547 4666 
L 4159 4666 
L 4159 0 
L 3309 0 
L 1241 3903 
L 1241 0 
L 628 0 
L 628 4666 
z
" transform="scale(0.015625)"/>
      <path id="DejaVuSans-6f" d="M 1959 3097 
Q 1497 3097 1228 2736 
Q 959 2375 959 1747 
Q 959 1119 1226 758 
Q 1494 397 1959 397 
Q 2419 397 2687 759 
Q 2956 1122 2956 1747 
Q 2956 2369 2687 2733 
Q 2419 3097 1959 3097 
z
M 1959 3584 
Q 2709 3584 3137 3096 
Q 3566 2609 3566 1747 
Q 3566 888 3137 398 
Q 2709 -91 1959 -91 
Q 1206 -91 779 398 
Q 353 888 353 1747 
Q 353 2609 779 3096 
Q 1206 3584 1959 3584 
z
" transform="scale(0.015625)"/>
      <path id="DejaVuSans-76" d="M 191 3500 
L 800 3500 
L 1894 563 
L 2988 3500 
L 3597 3500 
L 2284 0 
L 1503 0 
L 191 3500 
z
" transform="scale(0.015625)"/>
      <path id="DejaVuSans-20" transform="scale(0.015625)"/>
     </defs>
     <use xlink:href="#DejaVuSans-4e"/>
     <use xlink:href="#DejaVuSans-6f" x="74.804688"/>
     <use xlink:href="#DejaVuSans-76" x="135.986328"/>
     <use xlink:href="#DejaVuSans-20" x="195.166016"/>
     <use xlink:href="#DejaVuSans-32" x="226.953125"/>
     <use xlink:href="#DejaVuSans-30" x="290.576172"/>
     <use xlink:href="#DejaVuSans-32" x="354.199219"/>
     <use xlink:href="#DejaVuSans-32" x="417.822266"/>
    </g>
   </g>
  </g>
  <g id="text_15">
   <!-- AI-term mentions by journal-set cutoff -->
   <g style="fill: #18324a" transform="translate(64.512 44.928) scale(0.215 -0.215)">
    <defs>
     <path id="DejaVuSans-41" d="M 2188 4044 
L 1331 1722 
L 3047 1722 
L 2188 4044 
z
M 1831 4666 
L 2547 4666 
L 4325 0 
L 3669 0 
L 3244 1197 
L 1141 1197 
L 716 0 
L 50 0 
L 1831 4666 
z
" transform="scale(0.015625)"/>
     <path id="DejaVuSans-49" d="M 628 4666 
L 1259 4666 
L 1259 0 
L 628 0 
L 628 4666 
z
" transform="scale(0.015625)"/>
     <path id="DejaVuSans-2d" d="M 313 2009 
L 1997 2009 
L 1997 1497 
L 313 1497 
L 313 2009 
z
" transform="scale(0.015625)"/>
     <path id="DejaVuSans-74" d="M 1172 4494 
L 1172 3500 
L 2356 3500 
L 2356 3053 
L 1172 3053 
L 1172 1153 
Q 1172 725 1289 603 
Q 1406 481 1766 481 
L 2356 481 
L 2356 0 
L 1766 0 
Q 1100 0 847 248 
Q 594 497 594 1153 
L 594 3053 
L 172 3053 
L 172 3500 
L 594 3500 
L 594 4494 
L 1172 4494 
z
" transform="scale(0.015625)"/>
     <path id="DejaVuSans-65" d="M 3597 1894 
L 3597 1613 
L 953 1613 
Q 991 1019 1311 708 
Q 1631 397 2203 397 
Q 2534 397 2845 478 
Q 3156 559 3463 722 
L 3463 178 
Q 3153 47 2828 -22 
Q 2503 -91 2169 -91 
Q 1331 -91 842 396 
Q 353 884 353 1716 
Q 353 2575 817 3079 
Q 1281 3584 2069 3584 
Q 2775 3584 3186 3129 
Q 3597 2675 3597 1894 
z
M 3022 2063 
Q 3016 2534 2758 2815 
Q 2500 3097 2075 3097 
Q 1594 3097 1305 2825 
Q 1016 2553 972 2059 
L 3022 2063 
z
" transform="scale(0.015625)"/>
     <path id="DejaVuSans-72" d="M 2631 2963 
Q 2534 3019 2420 3045 
Q 2306 3072 2169 3072 
Q 1681 3072 1420 2755 
Q 1159 2438 1159 1844 
L 1159 0 
L 581 0 
L 581 3500 
L 1159 3500 
L 1159 2956 
Q 1341 3275 1631 3429 
Q 1922 3584 2338 3584 
Q 2397 3584 2469 3576 
Q 2541 3569 2628 3553 
L 2631 2963 
z
" transform="scale(0.015625)"/>
     <path id="DejaVuSans-6d" d="M 3328 2828 
Q 3544 3216 3844 3400 
Q 4144 3584 4550 3584 
Q 5097 3584 5394 3201 
Q 5691 2819 5691 2113 
L 5691 0 
L 5113 0 
L 5113 2094 
Q 5113 2597 4934 2840 
Q 4756 3084 4391 3084 
Q 3944 3084 3684 2787 
Q 3425 2491 3425 1978 
L 3425 0 
L 2847 0 
L 2847 2094 
Q 2847 2600 2669 2842 
Q 2491 3084 2119 3084 
Q 1678 3084 1418 2786 
Q 1159 2488 1159 1978 
L 1159 0 
L 581 0 
L 581 3500 
L 1159 3500 
L 1159 2956 
Q 1356 3278 1631 3431 
Q 1906 3584 2284 3584 
Q 2666 3584 2933 3390 
Q 3200 3197 3328 2828 
z
" transform="scale(0.015625)"/>
     <path id="DejaVuSans-6e" d="M 3513 2113 
L 3513 0 
L 2938 0 
L 2938 2094 
Q 2938 2591 2744 2837 
Q 2550 3084 2163 3084 
Q 1697 3084 1428 2787 
Q 1159 2491 1159 1978 
L 1159 0 
L 581 0 
L 581 3500 
L 1159 3500 
L 1159 2956 
Q 1366 3272 1645 3428 
Q 1925 3584 2291 3584 
Q 2894 3584 3203 3211 
Q 3513 2838 3513 2113 
z
" transform="scale(0.015625)"/>
     <path id="DejaVuSans-69" d="M 603 3500 
L 1178 3500 
L 1178 0 
L 603 0 
L 603 3500 
z
M 603 4863 
L 1178 4863 
L 1178 4134 
L 603 4134 
L 603 4863 
z
" transform="scale(0.015625)"/>
     <path id="DejaVuSans-73" d="M 2834 3397 
L 2834 2853 
Q 2591 2978 2328 3040 
Q 2066 3103 1784 3103 
Q 1356 3103 1142 2972 
Q 928 2841 928 2578 
Q 928 2378 1081 2264 
Q 1234 2150 1697 2047 
L 1894 2003 
Q 2506 1872 2764 1633 
Q 3022 1394 3022 966 
Q 3022 478 2636 193 
Q 2250 -91 1575 -91 
Q 1294 -91 989 -36 
Q 684 19 347 128 
L 347 722 
Q 666 556 975 473 
Q 1284 391 1588 391 
Q 1994 391 2212 530 
Q 2431 669 2431 922 
Q 2431 1156 2273 1281 
Q 2116 1406 1581 1522 
L 1381 1569 
Q 847 1681 609 1914 
Q 372 2147 372 2553 
Q 372 3047 722 3315 
Q 1072 3584 1716 3584 
Q 2034 3584 2315 3537 
Q 2597 3491 2834 3397 
z
" transform="scale(0.015625)"/>
     <path id="DejaVuSans-62" d="M 3116 1747 
Q 3116 2381 2855 2742 
Q 2594 3103 2138 3103 
Q 1681 3103 1420 2742 
Q 1159 2381 1159 1747 
Q 1159 1113 1420 752 
Q 1681 391 2138 391 
Q 2594 391 2855 752 
Q 3116 1113 3116 1747 
z
M 1159 2969 
Q 1341 3281 1617 3432 
Q 1894 3584 2278 3584 
Q 2916 3584 3314 3078 
Q 3713 2572 3713 1747 
Q 3713 922 3314 415 
Q 2916 -91 2278 -91 
Q 1894 -91 1617 61 
Q 1341 213 1159 525 
L 1159 0 
L 581 0 
L 581 4863 
L 1159 4863 
L 1159 2969 
z
" transform="scale(0.015625)"/>
     <path id="DejaVuSans-79" d="M 2059 -325 
Q 1816 -950 1584 -1140 
Q 1353 -1331 966 -1331 
L 506 -1331 
L 506 -850 
L 844 -850 
Q 1081 -850 1212 -737 
Q 1344 -625 1503 -206 
L 1606 56 
L 191 3500 
L 800 3500 
L 1894 763 
L 2988 3500 
L 3597 3500 
L 2059 -325 
z
" transform="scale(0.015625)"/>
     <path id="DejaVuSans-6a" d="M 603 3500 
L 1178 3500 
L 1178 -63 
Q 1178 -731 923 -1031 
Q 669 -1331 103 -1331 
L -116 -1331 
L -116 -844 
L 38 -844 
Q 366 -844 484 -692 
Q 603 -541 603 -63 
L 603 3500 
z
M 603 4863 
L 1178 4863 
L 1178 4134 
L 603 4134 
L 603 4863 
z
" transform="scale(0.015625)"/>
     <path id="DejaVuSans-75" d="M 544 1381 
L 544 3500 
L 1119 3500 
L 1119 1403 
Q 1119 906 1312 657 
Q 1506 409 1894 409 
Q 2359 409 2629 706 
Q 2900 1003 2900 1516 
L 2900 3500 
L 3475 3500 
L 3475 0 
L 2900 0 
L 2900 538 
Q 2691 219 2414 64 
Q 2138 -91 1772 -91 
Q 1169 -91 856 284 
Q 544 659 544 1381 
z
M 1991 3584 
L 1991 3584 
z
" transform="scale(0.015625)"/>
     <path id="DejaVuSans-61" d="M 2194 1759 
Q 1497 1759 1228 1600 
Q 959 1441 959 1056 
Q 959 750 1161 570 
Q 1363 391 1709 391 
Q 2188 391 2477 730 
Q 2766 1069 2766 1631 
L 2766 1759 
L 2194 1759 
z
M 3341 1997 
L 3341 0 
L 2766 0 
L 2766 531 
Q 2569 213 2275 61 
Q 1981 -91 1556 -91 
Q 1019 -91 701 211 
Q 384 513 384 1019 
Q 384 1609 779 1909 
Q 1175 2209 1959 2209 
L 2766 2209 
L 2766 2266 
Q 2766 2663 2505 2880 
Q 2244 3097 1772 3097 
Q 1472 3097 1187 3025 
Q 903 2953 641 2809 
L 641 3341 
Q 956 3463 1253 3523 
Q 1550 3584 1831 3584 
Q 2591 3584 2966 3190 
Q 3341 2797 3341 1997 
z
" transform="scale(0.015625)"/>
     <path id="DejaVuSans-6c" d="M 603 4863 
L 1178 4863 
L 1178 0 
L 603 0 
L 603 4863 
z
" transform="scale(0.015625)"/>
     <path id="DejaVuSans-63" d="M 3122 3366 
L 3122 2828 
Q 2878 2963 2633 3030 
Q 2388 3097 2138 3097 
Q 1578 3097 1268 2742 
Q 959 2388 959 1747 
Q 959 1106 1268 751 
Q 1578 397 2138 397 
Q 2388 397 2633 464 
Q 2878 531 3122 666 
L 3122 134 
Q 2881 22 2623 -34 
Q 2366 -91 2075 -91 
Q 1284 -91 818 406 
Q 353 903 353 1747 
Q 353 2603 823 3093 
Q 1294 3584 2113 3584 
Q 2378 3584 2631 3529 
Q 2884 3475 3122 3366 
z
" transform="scale(0.015625)"/>
     <path id="DejaVuSans-66" d="M 2375 4863 
L 2375 4384 
L 1825 4384 
Q 1516 4384 1395 4259 
Q 1275 4134 1275 3809 
L 1275 3500 
L 2222 3500 
L 2222 3053 
L 1275 3053 
L 1275 0 
L 697 0 
L 697 3053 
L 147 3053 
L 147 3500 
L 697 3500 
L 697 3744 
Q 697 4328 969 4595 
Q 1241 4863 1831 4863 
L 2375 4863 
z
" transform="scale(0.015625)"/>
    </defs>
    <use xlink:href="#DejaVuSans-41"/>
    <use xlink:href="#DejaVuSans-49" x="68.408203"/>
    <use xlink:href="#DejaVuSans-2d" x="97.900391"/>
    <use xlink:href="#DejaVuSans-74" x="133.984375"/>
    <use xlink:href="#DejaVuSans-65" x="173.193359"/>
    <use xlink:href="#DejaVuSans-72" x="234.716797"/>
    <use xlink:href="#DejaVuSans-6d" x="274.080078"/>
    <use xlink:href="#DejaVuSans-20" x="371.492188"/>
    <use xlink:href="#DejaVuSans-6d" x="403.279297"/>
    <use xlink:href="#DejaVuSans-65" x="500.691406"/>
    <use xlink:href="#DejaVuSans-6e" x="562.214844"/>
    <use xlink:href="#DejaVuSans-74" x="625.59375"/>
    <use xlink:href="#DejaVuSans-69" x="664.802734"/>
    <use xlink:href="#DejaVuSans-6f" x="692.585938"/>
    <use xlink:href="#DejaVuSans-6e" x="753.767578"/>
    <use xlink:href="#DejaVuSans-73" x="817.146484"/>
    <use xlink:href="#DejaVuSans-20" x="869.246094"/>
    <use xlink:href="#DejaVuSans-62" x="901.033203"/>
    <use xlink:href="#DejaVuSans-79" x="964.509766"/>
    <use xlink:href="#DejaVuSans-20" x="1023.689453"/>
    <use xlink:href="#DejaVuSans-6a" x="1055.476562"/>
    <use xlink:href="#DejaVuSans-6f" x="1083.259766"/>
    <use xlink:href="#DejaVuSans-75" x="1144.441406"/>
    <use xlink:href="#DejaVuSans-72" x="1207.820312"/>
    <use xlink:href="#DejaVuSans-6e" x="1247.183594"/>
    <use xlink:href="#DejaVuSans-61" x="1310.5625"/>
    <use xlink:href="#DejaVuSans-6c" x="1371.841797"/>
    <use xlink:href="#DejaVuSans-2d" x="1399.625"/>
    <use xlink:href="#DejaVuSans-73" x="1435.708984"/>
    <use xlink:href="#DejaVuSans-65" x="1487.808594"/>
    <use xlink:href="#DejaVuSans-74" x="1549.332031"/>
    <use xlink:href="#DejaVuSans-20" x="1588.541016"/>
    <use xlink:href="#DejaVuSans-63" x="1620.328125"/>
    <use xlink:href="#DejaVuSans-75" x="1675.308594"/>
    <use xlink:href="#DejaVuSans-74" x="1738.6875"/>
    <use xlink:href="#DejaVuSans-6f" x="1777.896484"/>
    <use xlink:href="#DejaVuSans-66" x="1839.078125"/>
    <use xlink:href="#DejaVuSans-66" x="1874.283203"/>
   </g>
  </g>
  <g id="text_16">
   <!-- 12-month rolling averages for the top 50, 100, and 150 core and adjacent sets -->
   <g style="fill: #627588" transform="translate(64.512 75.816) scale(0.136 -0.136)">
    <defs>
     <path id="DejaVuSans-68" d="M 3513 2113 
L 3513 0 
L 2938 0 
L 2938 2094 
Q 2938 2591 2744 2837 
Q 2550 3084 2163 3084 
Q 1697 3084 1428 2787 
Q 1159 2491 1159 1978 
L 1159 0 
L 581 0 
L 581 4863 
L 1159 4863 
L 1159 2956 
Q 1366 3272 1645 3428 
Q 1925 3584 2291 3584 
Q 2894 3584 3203 3211 
Q 3513 2838 3513 2113 
z
" transform="scale(0.015625)"/>
     <path id="DejaVuSans-67" d="M 2906 1791 
Q 2906 2416 2648 2759 
Q 2391 3103 1925 3103 
Q 1463 3103 1205 2759 
Q 947 2416 947 1791 
Q 947 1169 1205 825 
Q 1463 481 1925 481 
Q 2391 481 2648 825 
Q 2906 1169 2906 1791 
z
M 3481 434 
Q 3481 -459 3084 -895 
Q 2688 -1331 1869 -1331 
Q 1566 -1331 1297 -1286 
Q 1028 -1241 775 -1147 
L 775 -588 
Q 1028 -725 1275 -790 
Q 1522 -856 1778 -856 
Q 2344 -856 2625 -561 
Q 2906 -266 2906 331 
L 2906 616 
Q 2728 306 2450 153 
Q 2172 0 1784 0 
Q 1141 0 747 490 
Q 353 981 353 1791 
Q 353 2603 747 3093 
Q 1141 3584 1784 3584 
Q 2172 3584 2450 3431 
Q 2728 3278 2906 2969 
L 2906 3500 
L 3481 3500 
L 3481 434 
z
" transform="scale(0.015625)"/>
     <path id="DejaVuSans-70" d="M 1159 525 
L 1159 -1331 
L 581 -1331 
L 581 3500 
L 1159 3500 
L 1159 2969 
Q 1341 3281 1617 3432 
Q 1894 3584 2278 3584 
Q 2916 3584 3314 3078 
Q 3713 2572 3713 1747 
Q 3713 922 3314 415 
Q 2916 -91 2278 -91 
Q 1894 -91 1617 61 
Q 1341 213 1159 525 
z
M 3116 1747 
Q 3116 2381 2855 2742 
Q 2594 3103 2138 3103 
Q 1681 3103 1420 2742 
Q 1159 2381 1159 1747 
Q 1159 1113 1420 752 
Q 1681 391 2138 391 
Q 2594 391 2855 752 
Q 3116 1113 3116 1747 
z
" transform="scale(0.015625)"/>
     <path id="DejaVuSans-2c" d="M 750 794 
L 1409 794 
L 1409 256 
L 897 -744 
L 494 -744 
L 750 256 
L 750 794 
z
" transform="scale(0.015625)"/>
     <path id="DejaVuSans-64" d="M 2906 2969 
L 2906 4863 
L 3481 4863 
L 3481 0 
L 2906 0 
L 2906 525 
Q 2725 213 2448 61 
Q 2172 -91 1784 -91 
Q 1150 -91 751 415 
Q 353 922 353 1747 
Q 353 2572 751 3078 
Q 1150 3584 1784 3584 
Q 2172 3584 2448 3432 
Q 2725 3281 2906 2969 
z
M 947 1747 
Q 947 1113 1208 752 
Q 1469 391 1925 391 
Q 2381 391 2643 752 
Q 2906 1113 2906 1747 
Q 2906 2381 2643 2742 
Q 2381 3103 1925 3103 
Q 1469 3103 1208 2742 
Q 947 2381 947 1747 
z
" transform="scale(0.015625)"/>
    </defs>
    <use xlink:href="#DejaVuSans-31"/>
    <use xlink:href="#DejaVuSans-32" x="63.623047"/>
    <use xlink:href="#DejaVuSans-2d" x="127.246094"/>
    <use xlink:href="#DejaVuSans-6d" x="163.330078"/>
    <use xlink:href="#DejaVuSans-6f" x="260.742188"/>
    <use xlink:href="#DejaVuSans-6e" x="321.923828"/>
    <use xlink:href="#DejaVuSans-74" x="385.302734"/>
    <use xlink:href="#DejaVuSans-68" x="424.511719"/>
    <use xlink:href="#DejaVuSans-20" x="487.890625"/>
    <use xlink:href="#DejaVuSans-72" x="519.677734"/>
    <use xlink:href="#DejaVuSans-6f" x="558.541016"/>
    <use xlink:href="#DejaVuSans-6c" x="619.722656"/>
    <use xlink:href="#DejaVuSans-6c" x="647.505859"/>
    <use xlink:href="#DejaVuSans-69" x="675.289062"/>
    <use xlink:href="#DejaVuSans-6e" x="703.072266"/>
    <use xlink:href="#DejaVuSans-67" x="766.451172"/>
    <use xlink:href="#DejaVuSans-20" x="829.927734"/>
    <use xlink:href="#DejaVuSans-61" x="861.714844"/>
    <use xlink:href="#DejaVuSans-76" x="922.994141"/>
    <use xlink:href="#DejaVuSans-65" x="982.173828"/>
    <use xlink:href="#DejaVuSans-72" x="1043.697266"/>
    <use xlink:href="#DejaVuSans-61" x="1084.810547"/>
    <use xlink:href="#DejaVuSans-67" x="1146.089844"/>
    <use xlink:href="#DejaVuSans-65" x="1209.566406"/>
    <use xlink:href="#DejaVuSans-73" x="1271.089844"/>
    <use xlink:href="#DejaVuSans-20" x="1323.189453"/>
    <use xlink:href="#DejaVuSans-66" x="1354.976562"/>
    <use xlink:href="#DejaVuSans-6f" x="1390.181641"/>
    <use xlink:href="#DejaVuSans-72" x="1451.363281"/>
    <use xlink:href="#DejaVuSans-20" x="1492.476562"/>
    <use xlink:href="#DejaVuSans-74" x="1524.263672"/>
    <use xlink:href="#DejaVuSans-68" x="1563.472656"/>
    <use xlink:href="#DejaVuSans-65" x="1626.851562"/>
    <use xlink:href="#DejaVuSans-20" x="1688.375"/>
    <use xlink:href="#DejaVuSans-74" x="1720.162109"/>
    <use xlink:href="#DejaVuSans-6f" x="1759.371094"/>
    <use xlink:href="#DejaVuSans-70" x="1820.552734"/>
    <use xlink:href="#DejaVuSans-20" x="1884.029297"/>
    <use xlink:href="#DejaVuSans-35" x="1915.816406"/>
    <use xlink:href="#DejaVuSans-30" x="1979.439453"/>
    <use xlink:href="#DejaVuSans-2c" x="2043.0625"/>
    <use xlink:href="#DejaVuSans-20" x="2074.849609"/>
    <use xlink:href="#DejaVuSans-31" x="2106.636719"/>
    <use xlink:href="#DejaVuSans-30" x="2170.259766"/>
    <use xlink:href="#DejaVuSans-30" x="2233.882812"/>
    <use xlink:href="#DejaVuSans-2c" x="2297.505859"/>
    <use xlink:href="#DejaVuSans-20" x="2329.292969"/>
    <use xlink:href="#DejaVuSans-61" x="2361.080078"/>
    <use xlink:href="#DejaVuSans-6e" x="2422.359375"/>
    <use xlink:href="#DejaVuSans-64" x="2485.738281"/>
    <use xlink:href="#DejaVuSans-20" x="2549.214844"/>
    <use xlink:href="#DejaVuSans-31" x="2581.001953"/>
    <use xlink:href="#DejaVuSans-35" x="2644.625"/>
    <use xlink:href="#DejaVuSans-30" x="2708.248047"/>
    <use xlink:href="#DejaVuSans-20" x="2771.871094"/>
    <use xlink:href="#DejaVuSans-63" x="2803.658203"/>
    <use xlink:href="#DejaVuSans-6f" x="2858.638672"/>
    <use xlink:href="#DejaVuSans-72" x="2919.820312"/>
    <use xlink:href="#DejaVuSans-65" x="2958.683594"/>
    <use xlink:href="#DejaVuSans-20" x="3020.207031"/>
    <use xlink:href="#DejaVuSans-61" x="3051.994141"/>
    <use xlink:href="#DejaVuSans-6e" x="3113.273438"/>
    <use xlink:href="#DejaVuSans-64" x="3176.652344"/>
    <use xlink:href="#DejaVuSans-20" x="3240.128906"/>
    <use xlink:href="#DejaVuSans-61" x="3271.916016"/>
    <use xlink:href="#DejaVuSans-64" x="3333.195312"/>
    <use xlink:href="#DejaVuSans-6a" x="3396.671875"/>
    <use xlink:href="#DejaVuSans-61" x="3424.455078"/>
    <use xlink:href="#DejaVuSans-63" x="3485.734375"/>
    <use xlink:href="#DejaVuSans-65" x="3540.714844"/>
    <use xlink:href="#DejaVuSans-6e" x="3602.238281"/>
    <use xlink:href="#DejaVuSans-74" x="3665.617188"/>
    <use xlink:href="#DejaVuSans-20" x="3704.826172"/>
    <use xlink:href="#DejaVuSans-73" x="3736.613281"/>
    <use xlink:href="#DejaVuSans-65" x="3788.712891"/>
    <use xlink:href="#DejaVuSans-74" x="3850.236328"/>
    <use xlink:href="#DejaVuSans-73" x="3889.445312"/>
   </g>
  </g>
  <g id="text_17">
   <!-- Source: published-journal corpus assembled for Frontier Graph -->
   <g style="fill: #627588" transform="translate(64.512 495.054192) scale(0.105 -0.105)">
    <defs>
     <path id="DejaVuSans-53" d="M 3425 4513 
L 3425 3897 
Q 3066 4069 2747 4153 
Q 2428 4238 2131 4238 
Q 1616 4238 1336 4038 
Q 1056 3838 1056 3469 
Q 1056 3159 1242 3001 
Q 1428 2844 1947 2747 
L 2328 2669 
Q 3034 2534 3370 2195 
Q 3706 1856 3706 1288 
Q 3706 609 3251 259 
Q 2797 -91 1919 -91 
Q 1588 -91 1214 -16 
Q 841 59 441 206 
L 441 856 
Q 825 641 1194 531 
Q 1563 422 1919 422 
Q 2459 422 2753 634 
Q 3047 847 3047 1241 
Q 3047 1584 2836 1778 
Q 2625 1972 2144 2069 
L 1759 2144 
Q 1053 2284 737 2584 
Q 422 2884 422 3419 
Q 422 4038 858 4394 
Q 1294 4750 2059 4750 
Q 2388 4750 2728 4690 
Q 3069 4631 3425 4513 
z
" transform="scale(0.015625)"/>
     <path id="DejaVuSans-3a" d="M 750 794 
L 1409 794 
L 1409 0 
L 750 0 
L 750 794 
z
M 750 3309 
L 1409 3309 
L 1409 2516 
L 750 2516 
L 750 3309 
z
" transform="scale(0.015625)"/>
     <path id="DejaVuSans-46" d="M 628 4666 
L 3309 4666 
L 3309 4134 
L 1259 4134 
L 1259 2759 
L 3109 2759 
L 3109 2228 
L 1259 2228 
L 1259 0 
L 628 0 
L 628 4666 
z
" transform="scale(0.015625)"/>
     <path id="DejaVuSans-47" d="M 3809 666 
L 3809 1919 
L 2778 1919 
L 2778 2438 
L 4434 2438 
L 4434 434 
Q 4069 175 3628 42 
Q 3188 -91 2688 -91 
Q 1594 -91 976 548 
Q 359 1188 359 2328 
Q 359 3472 976 4111 
Q 1594 4750 2688 4750 
Q 3144 4750 3555 4637 
Q 3966 4525 4313 4306 
L 4313 3634 
Q 3963 3931 3569 4081 
Q 3175 4231 2741 4231 
Q 1884 4231 1454 3753 
Q 1025 3275 1025 2328 
Q 1025 1384 1454 906 
Q 1884 428 2741 428 
Q 3075 428 3337 486 
Q 3600 544 3809 666 
z
" transform="scale(0.015625)"/>
    </defs>
    <use xlink:href="#DejaVuSans-53"/>
    <use xlink:href="#DejaVuSans-6f" x="63.476562"/>
    <use xlink:href="#DejaVuSans-75" x="124.658203"/>
    <use xlink:href="#DejaVuSans-72" x="188.037109"/>
    <use xlink:href="#DejaVuSans-63" x="226.900391"/>
    <use xlink:href="#DejaVuSans-65" x="281.880859"/>
    <use xlink:href="#DejaVuSans-3a" x="343.404297"/>
    <use xlink:href="#DejaVuSans-20" x="377.095703"/>
    <use xlink:href="#DejaVuSans-70" x="408.882812"/>
    <use xlink:href="#DejaVuSans-75" x="472.359375"/>
    <use xlink:href="#DejaVuSans-62" x="535.738281"/>
    <use xlink:href="#DejaVuSans-6c" x="599.214844"/>
    <use xlink:href="#DejaVuSans-69" x="626.998047"/>
    <use xlink:href="#DejaVuSans-73" x="654.78125"/>
    <use xlink:href="#DejaVuSans-68" x="706.880859"/>
    <use xlink:href="#DejaVuSans-65" x="770.259766"/>
    <use xlink:href="#DejaVuSans-64" x="831.783203"/>
    <use xlink:href="#DejaVuSans-2d" x="895.259766"/>
    <use xlink:href="#DejaVuSans-6a" x="931.34375"/>
    <use xlink:href="#DejaVuSans-6f" x="959.126953"/>
    <use xlink:href="#DejaVuSans-75" x="1020.308594"/>
    <use xlink:href="#DejaVuSans-72" x="1083.6875"/>
    <use xlink:href="#DejaVuSans-6e" x="1123.050781"/>
    <use xlink:href="#DejaVuSans-61" x="1186.429688"/>
    <use xlink:href="#DejaVuSans-6c" x="1247.708984"/>
    <use xlink:href="#DejaVuSans-20" x="1275.492188"/>
    <use xlink:href="#DejaVuSans-63" x="1307.279297"/>
    <use xlink:href="#DejaVuSans-6f" x="1362.259766"/>
    <use xlink:href="#DejaVuSans-72" x="1423.441406"/>
    <use xlink:href="#DejaVuSans-70" x="1464.554688"/>
    <use xlink:href="#DejaVuSans-75" x="1528.03125"/>
    <use xlink:href="#DejaVuSans-73" x="1591.410156"/>
    <use xlink:href="#DejaVuSans-20" x="1643.509766"/>
    <use xlink:href="#DejaVuSans-61" x="1675.296875"/>
    <use xlink:href="#DejaVuSans-73" x="1736.576172"/>
    <use xlink:href="#DejaVuSans-73" x="1788.675781"/>
    <use xlink:href="#DejaVuSans-65" x="1840.775391"/>
    <use xlink:href="#DejaVuSans-6d" x="1902.298828"/>
    <use xlink:href="#DejaVuSans-62" x="1999.710938"/>
    <use xlink:href="#DejaVuSans-6c" x="2063.1875"/>
    <use xlink:href="#DejaVuSans-65" x="2090.970703"/>
    <use xlink:href="#DejaVuSans-64" x="2152.494141"/>
    <use xlink:href="#DejaVuSans-20" x="2215.970703"/>
    <use xlink:href="#DejaVuSans-66" x="2247.757812"/>
    <use xlink:href="#DejaVuSans-6f" x="2282.962891"/>
    <use xlink:href="#DejaVuSans-72" x="2344.144531"/>
    <use xlink:href="#DejaVuSans-20" x="2385.257812"/>
    <use xlink:href="#DejaVuSans-46" x="2417.044922"/>
    <use xlink:href="#DejaVuSans-72" x="2467.314453"/>
    <use xlink:href="#DejaVuSans-6f" x="2506.177734"/>
    <use xlink:href="#DejaVuSans-6e" x="2567.359375"/>
    <use xlink:href="#DejaVuSans-74" x="2630.738281"/>
    <use xlink:href="#DejaVuSans-69" x="2669.947266"/>
    <use xlink:href="#DejaVuSans-65" x="2697.730469"/>
    <use xlink:href="#DejaVuSans-72" x="2759.253906"/>
    <use xlink:href="#DejaVuSans-20" x="2800.367188"/>
    <use xlink:href="#DejaVuSans-47" x="2832.154297"/>
    <use xlink:href="#DejaVuSans-72" x="2909.644531"/>
    <use xlink:href="#DejaVuSans-61" x="2950.757812"/>
    <use xlink:href="#DejaVuSans-70" x="3012.037109"/>
    <use xlink:href="#DejaVuSans-68" x="3075.513672"/>
   </g>
   <!-- Cutoffs are nested subsets of the mean-FWCI ranked source lists used to build the current corpus. -->
   <g style="fill: #627588" transform="translate(64.512 508.248) scale(0.105 -0.105)">
    <defs>
     <path id="DejaVuSans-43" d="M 4122 4306 
L 4122 3641 
Q 3803 3938 3442 4084 
Q 3081 4231 2675 4231 
Q 1875 4231 1450 3742 
Q 1025 3253 1025 2328 
Q 1025 1406 1450 917 
Q 1875 428 2675 428 
Q 3081 428 3442 575 
Q 3803 722 4122 1019 
L 4122 359 
Q 3791 134 3420 21 
Q 3050 -91 2638 -91 
Q 1578 -91 968 557 
Q 359 1206 359 2328 
Q 359 3453 968 4101 
Q 1578 4750 2638 4750 
Q 3056 4750 3426 4639 
Q 3797 4528 4122 4306 
z
" transform="scale(0.015625)"/>
     <path id="DejaVuSans-57" d="M 213 4666 
L 850 4666 
L 1831 722 
L 2809 4666 
L 3519 4666 
L 4500 722 
L 5478 4666 
L 6119 4666 
L 4947 0 
L 4153 0 
L 3169 4050 
L 2175 0 
L 1381 0 
L 213 4666 
z
" transform="scale(0.015625)"/>
     <path id="DejaVuSans-6b" d="M 581 4863 
L 1159 4863 
L 1159 1991 
L 2875 3500 
L 3609 3500 
L 1753 1863 
L 3688 0 
L 2938 0 
L 1159 1709 
L 1159 0 
L 581 0 
L 581 4863 
z
" transform="scale(0.015625)"/>
     <path id="DejaVuSans-2e" d="M 684 794 
L 1344 794 
L 1344 0 
L 684 0 
L 684 794 
z
" transform="scale(0.015625)"/>
    </defs>
    <use xlink:href="#DejaVuSans-43"/>
    <use xlink:href="#DejaVuSans-75" x="69.824219"/>
    <use xlink:href="#DejaVuSans-74" x="133.203125"/>
    <use xlink:href="#DejaVuSans-6f" x="172.412109"/>
    <use xlink:href="#DejaVuSans-66" x="233.59375"/>
    <use xlink:href="#DejaVuSans-66" x="268.798828"/>
    <use xlink:href="#DejaVuSans-73" x="304.003906"/>
    <use xlink:href="#DejaVuSans-20" x="356.103516"/>
    <use xlink:href="#DejaVuSans-61" x="387.890625"/>
    <use xlink:href="#DejaVuSans-72" x="449.169922"/>
    <use xlink:href="#DejaVuSans-65" x="488.033203"/>
    <use xlink:href="#DejaVuSans-20" x="549.556641"/>
    <use xlink:href="#DejaVuSans-6e" x="581.34375"/>
    <use xlink:href="#DejaVuSans-65" x="644.722656"/>
    <use xlink:href="#DejaVuSans-73" x="706.246094"/>
    <use xlink:href="#DejaVuSans-74" x="758.345703"/>
    <use xlink:href="#DejaVuSans-65" x="797.554688"/>
    <use xlink:href="#DejaVuSans-64" x="859.078125"/>
    <use xlink:href="#DejaVuSans-20" x="922.554688"/>
    <use xlink:href="#DejaVuSans-73" x="954.341797"/>
    <use xlink:href="#DejaVuSans-75" x="1006.441406"/>
    <use xlink:href="#DejaVuSans-62" x="1069.820312"/>
    <use xlink:href="#DejaVuSans-73" x="1133.296875"/>
    <use xlink:href="#DejaVuSans-65" x="1185.396484"/>
    <use xlink:href="#DejaVuSans-74" x="1246.919922"/>
    <use xlink:href="#DejaVuSans-73" x="1286.128906"/>
    <use xlink:href="#DejaVuSans-20" x="1338.228516"/>
    <use xlink:href="#DejaVuSans-6f" x="1370.015625"/>
    <use xlink:href="#DejaVuSans-66" x="1431.197266"/>
    <use xlink:href="#DejaVuSans-20" x="1466.402344"/>
    <use xlink:href="#DejaVuSans-74" x="1498.189453"/>
    <use xlink:href="#DejaVuSans-68" x="1537.398438"/>
    <use xlink:href="#DejaVuSans-65" x="1600.777344"/>
    <use xlink:href="#DejaVuSans-20" x="1662.300781"/>
    <use xlink:href="#DejaVuSans-6d" x="1694.087891"/>
    <use xlink:href="#DejaVuSans-65" x="1791.5"/>
    <use xlink:href="#DejaVuSans-61" x="1853.023438"/>
    <use xlink:href="#DejaVuSans-6e" x="1914.302734"/>
    <use xlink:href="#DejaVuSans-2d" x="1977.681641"/>
    <use xlink:href="#DejaVuSans-46" x="2013.765625"/>
    <use xlink:href="#DejaVuSans-57" x="2071.285156"/>
    <use xlink:href="#DejaVuSans-43" x="2170.162109"/>
    <use xlink:href="#DejaVuSans-49" x="2239.986328"/>
    <use xlink:href="#DejaVuSans-20" x="2269.478516"/>
    <use xlink:href="#DejaVuSans-72" x="2301.265625"/>
    <use xlink:href="#DejaVuSans-61" x="2342.378906"/>
    <use xlink:href="#DejaVuSans-6e" x="2403.658203"/>
    <use xlink:href="#DejaVuSans-6b" x="2467.037109"/>
    <use xlink:href="#DejaVuSans-65" x="2521.322266"/>
    <use xlink:href="#DejaVuSans-64" x="2582.845703"/>
    <use xlink:href="#DejaVuSans-20" x="2646.322266"/>
    <use xlink:href="#DejaVuSans-73" x="2678.109375"/>
    <use xlink:href="#DejaVuSans-6f" x="2730.208984"/>
    <use xlink:href="#DejaVuSans-75" x="2791.390625"/>
    <use xlink:href="#DejaVuSans-72" x="2854.769531"/>
    <use xlink:href="#DejaVuSans-63" x="2893.632812"/>
    <use xlink:href="#DejaVuSans-65" x="2948.613281"/>
    <use xlink:href="#DejaVuSans-20" x="3010.136719"/>
    <use xlink:href="#DejaVuSans-6c" x="3041.923828"/>
    <use xlink:href="#DejaVuSans-69" x="3069.707031"/>
    <use xlink:href="#DejaVuSans-73" x="3097.490234"/>
    <use xlink:href="#DejaVuSans-74" x="3149.589844"/>
    <use xlink:href="#DejaVuSans-73" x="3188.798828"/>
    <use xlink:href="#DejaVuSans-20" x="3240.898438"/>
    <use xlink:href="#DejaVuSans-75" x="3272.685547"/>
    <use xlink:href="#DejaVuSans-73" x="3336.064453"/>
    <use xlink:href="#DejaVuSans-65" x="3388.164062"/>
    <use xlink:href="#DejaVuSans-64" x="3449.6875"/>
    <use xlink:href="#DejaVuSans-20" x="3513.164062"/>
    <use xlink:href="#DejaVuSans-74" x="3544.951172"/>
    <use xlink:href="#DejaVuSans-6f" x="3584.160156"/>
    <use xlink:href="#DejaVuSans-20" x="3645.341797"/>
    <use xlink:href="#DejaVuSans-62" x="3677.128906"/>
    <use xlink:href="#DejaVuSans-75" x="3740.605469"/>
    <use xlink:href="#DejaVuSans-69" x="3803.984375"/>
    <use xlink:href="#DejaVuSans-6c" x="3831.767578"/>
    <use xlink:href="#DejaVuSans-64" x="3859.550781"/>
    <use xlink:href="#DejaVuSans-20" x="3923.027344"/>
    <use xlink:href="#DejaVuSans-74" x="3954.814453"/>
    <use xlink:href="#DejaVuSans-68" x="3994.023438"/>
    <use xlink:href="#DejaVuSans-65" x="4057.402344"/>
    <use xlink:href="#DejaVuSans-20" x="4118.925781"/>
    <use xlink:href="#DejaVuSans-63" x="4150.712891"/>
    <use xlink:href="#DejaVuSans-75" x="4205.693359"/>
    <use xlink:href="#DejaVuSans-72" x="4269.072266"/>
    <use xlink:href="#DejaVuSans-72" x="4308.435547"/>
    <use xlink:href="#DejaVuSans-65" x="4347.298828"/>
    <use xlink:href="#DejaVuSans-6e" x="4408.822266"/>
    <use xlink:href="#DejaVuSans-74" x="4472.201172"/>
    <use xlink:href="#DejaVuSans-20" x="4511.410156"/>
    <use xlink:href="#DejaVuSans-63" x="4543.197266"/>
    <use xlink:href="#DejaVuSans-6f" x="4598.177734"/>
    <use xlink:href="#DejaVuSans-72" x="4659.359375"/>
    <use xlink:href="#DejaVuSans-70" x="4700.472656"/>
    <use xlink:href="#DejaVuSans-75" x="4763.949219"/>
    <use xlink:href="#DejaVuSans-73" x="4827.328125"/>
    <use xlink:href="#DejaVuSans-2e" x="4879.427734"/>
   </g>
  </g>
  <g id="legend_1">
   <g id="line2d_28">
    <path d="M 74.412 121.112281 
L 88.162 121.112281 
L 101.912 121.112281 
" style="fill: none; stroke: #163b7a; stroke-width: 3.6; stroke-linecap: square"/>
   </g>
   <g id="text_18">
    <!-- core 50 -->
    <g style="fill: #18324a" transform="translate(110.712 124.962281) scale(0.11 -0.11)">
     <use xlink:href="#DejaVuSans-63"/>
     <use xlink:href="#DejaVuSans-6f" x="54.980469"/>
     <use xlink:href="#DejaVuSans-72" x="116.162109"/>
     <use xlink:href="#DejaVuSans-65" x="155.025391"/>
     <use xlink:href="#DejaVuSans-20" x="216.548828"/>
     <use xlink:href="#DejaVuSans-35" x="248.335938"/>
     <use xlink:href="#DejaVuSans-30" x="311.958984"/>
    </g>
   </g>
   <g id="line2d_29">
    <path d="M 74.412 137.258219 
L 88.162 137.258219 
L 101.912 137.258219 
" style="fill: none; stroke: #3f6cb7; stroke-width: 3.6; stroke-linecap: square"/>
   </g>
   <g id="text_19">
    <!-- core 100 -->
    <g style="fill: #18324a" transform="translate(110.712 141.108219) scale(0.11 -0.11)">
     <use xlink:href="#DejaVuSans-63"/>
     <use xlink:href="#DejaVuSans-6f" x="54.980469"/>
     <use xlink:href="#DejaVuSans-72" x="116.162109"/>
     <use xlink:href="#DejaVuSans-65" x="155.025391"/>
     <use xlink:href="#DejaVuSans-20" x="216.548828"/>
     <use xlink:href="#DejaVuSans-31" x="248.335938"/>
     <use xlink:href="#DejaVuSans-30" x="311.958984"/>
     <use xlink:href="#DejaVuSans-30" x="375.582031"/>
    </g>
   </g>
   <g id="line2d_30">
    <path d="M 74.412 153.404156 
L 88.162 153.404156 
L 101.912 153.404156 
" style="fill: none; stroke: #9fb9e3; stroke-width: 3.6; stroke-linecap: square"/>
   </g>
   <g id="text_20">
    <!-- core 150 -->
    <g style="fill: #18324a" transform="translate(110.712 157.254156) scale(0.11 -0.11)">
     <use xlink:href="#DejaVuSans-63"/>
     <use xlink:href="#DejaVuSans-6f" x="54.980469"/>
     <use xlink:href="#DejaVuSans-72" x="116.162109"/>
     <use xlink:href="#DejaVuSans-65" x="155.025391"/>
     <use xlink:href="#DejaVuSans-20" x="216.548828"/>
     <use xlink:href="#DejaVuSans-31" x="248.335938"/>
     <use xlink:href="#DejaVuSans-35" x="311.958984"/>
     <use xlink:href="#DejaVuSans-30" x="375.582031"/>
    </g>
   </g>
   <g id="line2d_31">
    <path d="M 181.026063 121.112281 
L 194.776063 121.112281 
L 208.526063 121.112281 
" style="fill: none; stroke: #116a6c; stroke-width: 3.6; stroke-linecap: square"/>
   </g>
   <g id="text_21">
    <!-- adjacent 50 -->
    <g style="fill: #18324a" transform="translate(217.326063 124.962281) scale(0.11 -0.11)">
     <use xlink:href="#DejaVuSans-61"/>
     <use xlink:href="#DejaVuSans-64" x="61.279297"/>
     <use xlink:href="#DejaVuSans-6a" x="124.755859"/>
     <use xlink:href="#DejaVuSans-61" x="152.539062"/>
     <use xlink:href="#DejaVuSans-63" x="213.818359"/>
     <use xlink:href="#DejaVuSans-65" x="268.798828"/>
     <use xlink:href="#DejaVuSans-6e" x="330.322266"/>
     <use xlink:href="#DejaVuSans-74" x="393.701172"/>
     <use xlink:href="#DejaVuSans-20" x="432.910156"/>
     <use xlink:href="#DejaVuSans-35" x="464.697266"/>
     <use xlink:href="#DejaVuSans-30" x="528.320312"/>
    </g>
   </g>
   <g id="line2d_32">
    <path d="M 181.026063 137.258219 
L 194.776063 137.258219 
L 208.526063 137.258219 
" style="fill: none; stroke: #24a09a; stroke-width: 3.6; stroke-linecap: square"/>
   </g>
   <g id="text_22">
    <!-- adjacent 100 -->
    <g style="fill: #18324a" transform="translate(217.326063 141.108219) scale(0.11 -0.11)">
     <use xlink:href="#DejaVuSans-61"/>
     <use xlink:href="#DejaVuSans-64" x="61.279297"/>
     <use xlink:href="#DejaVuSans-6a" x="124.755859"/>
     <use xlink:href="#DejaVuSans-61" x="152.539062"/>
     <use xlink:href="#DejaVuSans-63" x="213.818359"/>
     <use xlink:href="#DejaVuSans-65" x="268.798828"/>
     <use xlink:href="#DejaVuSans-6e" x="330.322266"/>
     <use xlink:href="#DejaVuSans-74" x="393.701172"/>
     <use xlink:href="#DejaVuSans-20" x="432.910156"/>
     <use xlink:href="#DejaVuSans-31" x="464.697266"/>
     <use xlink:href="#DejaVuSans-30" x="528.320312"/>
     <use xlink:href="#DejaVuSans-30" x="591.943359"/>
    </g>
   </g>
   <g id="line2d_33">
    <path d="M 181.026063 153.404156 
L 194.776063 153.404156 
L 208.526063 153.404156 
" style="fill: none; stroke: #a4e0db; stroke-width: 3.6; stroke-linecap: square"/>
   </g>
   <g id="text_23">
    <!-- adjacent 150 -->
    <g style="fill: #18324a" transform="translate(217.326063 157.254156) scale(0.11 -0.11)">
     <use xlink:href="#DejaVuSans-61"/>
     <use xlink:href="#DejaVuSans-64" x="61.279297"/>
     <use xlink:href="#DejaVuSans-6a" x="124.755859"/>
     <use xlink:href="#DejaVuSans-61" x="152.539062"/>
     <use xlink:href="#DejaVuSans-63" x="213.818359"/>
     <use xlink:href="#DejaVuSans-65" x="268.798828"/>
     <use xlink:href="#DejaVuSans-6e" x="330.322266"/>
     <use xlink:href="#DejaVuSans-74" x="393.701172"/>
     <use xlink:href="#DejaVuSans-20" x="432.910156"/>
     <use xlink:href="#DejaVuSans-31" x="464.697266"/>
     <use xlink:href="#DejaVuSans-35" x="528.320312"/>
     <use xlink:href="#DejaVuSans-30" x="591.943359"/>
    </g>
   </g>
  </g>
 </g>
 <defs>
  <clipPath id="pcd2fa36122">
   <rect x="64.512" y="168.48" width="677.376" height="269.568"/>
  </clipPath>
 </defs>
</svg>
