<?xml version="1.0" encoding="utf-8" standalone="no"?>
<!DOCTYPE svg PUBLIC "-//W3C//DTD SVG 1.1//EN"
  "http://www.w3.org/Graphics/SVG/1.1/DTD/svg11.dtd">
<svg xmlns:xlink="http://www.w3.org/1999/xlink" width="590.4pt" height="763.2pt" viewBox="0 0 590.4 763.2" xmlns="http://www.w3.org/2000/svg" version="1.1">
 <metadata>
  <rdf:RDF xmlns:dc="http://purl.org/dc/elements/1.1/" xmlns:cc="http://creativecommons.org/ns#" xmlns:rdf="http://www.w3.org/1999/02/22-rdf-syntax-ns#">
   <cc:Work>
    <dc:type rdf:resource="http://purl.org/dc/dcmitype/StillImage"/>
    <dc:date>2026-03-19T18:41:14.259873</dc:date>
    <dc:format>image/svg+xml</dc:format>
    <dc:creator>
     <cc:Agent>
      <dc:title>Matplotlib v3.9.4, https://matplotlib.org/</dc:title>
     </cc:Agent>
    </dc:creator>
   </cc:Work>
  </rdf:RDF>
 </metadata>
 <defs>
  <style type="text/css">*{stroke-linejoin: round; stroke-linecap: butt}</style>
 </defs>
 <g id="figure_1">
  <g id="patch_1">
   <path d="M 0 763.2 
L 590.4 763.2 
L 590.4 0 
L 0 0 
z
" style="fill: #faf7f2"/>
  </g>
  <g id="axes_1">
   <g id="patch_2">
    <path d="M 70.848 583.848 
L 495.936 583.848 
L 495.936 183.168 
L 70.848 183.168 
z
" style="fill: #faf7f2"/>
   </g>
   <g id="line2d_1">
    <path d="M 351.13646 583.848 
L 351.13646 183.168 
" clip-path="url(#p740ed57db2)" style="fill: none; stroke-dasharray: 2,3.3; stroke-dashoffset: 0; stroke: #152238; stroke-width: 2"/>
   </g>
   <g id="matplotlib.axis_1">
    <g id="xtick_1">
     <g id="line2d_2"/>
     <g id="text_1">
      <!-- 2016 -->
      <g style="fill: #6a625c" transform="translate(90.977754 596.466125) scale(0.12 -0.12)">
       <defs>
        <path id="DejaVuSans-32" d="M 1228 531 
L 3431 531 
L 3431 0 
L 469 0 
L 469 531 
Q 828 903 1448 1529 
Q 2069 2156 2228 2338 
Q 2531 2678 2651 2914 
Q 2772 3150 2772 3378 
Q 2772 3750 2511 3984 
Q 2250 4219 1831 4219 
Q 1534 4219 1204 4116 
Q 875 4013 500 3803 
L 500 4441 
Q 881 4594 1212 4672 
Q 1544 4750 1819 4750 
Q 2544 4750 2975 4387 
Q 3406 4025 3406 3419 
Q 3406 3131 3298 2873 
Q 3191 2616 2906 2266 
Q 2828 2175 2409 1742 
Q 1991 1309 1228 531 
z
" transform="scale(0.015625)"/>
        <path id="DejaVuSans-30" d="M 2034 4250 
Q 1547 4250 1301 3770 
Q 1056 3291 1056 2328 
Q 1056 1369 1301 889 
Q 1547 409 2034 409 
Q 2525 409 2770 889 
Q 3016 1369 3016 2328 
Q 3016 3291 2770 3770 
Q 2525 4250 2034 4250 
z
M 2034 4750 
Q 2819 4750 3233 4129 
Q 3647 3509 3647 2328 
Q 3647 1150 3233 529 
Q 2819 -91 2034 -91 
Q 1250 -91 836 529 
Q 422 1150 422 2328 
Q 422 3509 836 4129 
Q 1250 4750 2034 4750 
z
" transform="scale(0.015625)"/>
        <path id="DejaVuSans-31" d="M 794 531 
L 1825 531 
L 1825 4091 
L 703 3866 
L 703 4441 
L 1819 4666 
L 2450 4666 
L 2450 531 
L 3481 531 
L 3481 0 
L 794 0 
L 794 531 
z
" transform="scale(0.015625)"/>
        <path id="DejaVuSans-36" d="M 2113 2584 
Q 1688 2584 1439 2293 
Q 1191 2003 1191 1497 
Q 1191 994 1439 701 
Q 1688 409 2113 409 
Q 2538 409 2786 701 
Q 3034 994 3034 1497 
Q 3034 2003 2786 2293 
Q 2538 2584 2113 2584 
z
M 3366 4563 
L 3366 3988 
Q 3128 4100 2886 4159 
Q 2644 4219 2406 4219 
Q 1781 4219 1451 3797 
Q 1122 3375 1075 2522 
Q 1259 2794 1537 2939 
Q 1816 3084 2150 3084 
Q 2853 3084 3261 2657 
Q 3669 2231 3669 1497 
Q 3669 778 3244 343 
Q 2819 -91 2113 -91 
Q 1303 -91 875 529 
Q 447 1150 447 2328 
Q 447 3434 972 4092 
Q 1497 4750 2381 4750 
Q 2619 4750 2861 4703 
Q 3103 4656 3366 4563 
z
" transform="scale(0.015625)"/>
       </defs>
       <use xlink:href="#DejaVuSans-32"/>
       <use xlink:href="#DejaVuSans-30" x="63.623047"/>
       <use xlink:href="#DejaVuSans-31" x="127.246094"/>
       <use xlink:href="#DejaVuSans-36" x="190.869141"/>
      </g>
     </g>
    </g>
    <g id="xtick_2">
     <g id="line2d_3"/>
     <g id="text_2">
      <!-- 2018 -->
      <g style="fill: #6a625c" transform="translate(161.874246 596.466125) scale(0.12 -0.12)">
       <defs>
        <path id="DejaVuSans-38" d="M 2034 2216 
Q 1584 2216 1326 1975 
Q 1069 1734 1069 1313 
Q 1069 891 1326 650 
Q 1584 409 2034 409 
Q 2484 409 2743 651 
Q 3003 894 3003 1313 
Q 3003 1734 2745 1975 
Q 2488 2216 2034 2216 
z
M 1403 2484 
Q 997 2584 770 2862 
Q 544 3141 544 3541 
Q 544 4100 942 4425 
Q 1341 4750 2034 4750 
Q 2731 4750 3128 4425 
Q 3525 4100 3525 3541 
Q 3525 3141 3298 2862 
Q 3072 2584 2669 2484 
Q 3125 2378 3379 2068 
Q 3634 1759 3634 1313 
Q 3634 634 3220 271 
Q 2806 -91 2034 -91 
Q 1263 -91 848 271 
Q 434 634 434 1313 
Q 434 1759 690 2068 
Q 947 2378 1403 2484 
z
M 1172 3481 
Q 1172 3119 1398 2916 
Q 1625 2713 2034 2713 
Q 2441 2713 2670 2916 
Q 2900 3119 2900 3481 
Q 2900 3844 2670 4047 
Q 2441 4250 2034 4250 
Q 1625 4250 1398 4047 
Q 1172 3844 1172 3481 
z
" transform="scale(0.015625)"/>
       </defs>
       <use xlink:href="#DejaVuSans-32"/>
       <use xlink:href="#DejaVuSans-30" x="63.623047"/>
       <use xlink:href="#DejaVuSans-31" x="127.246094"/>
       <use xlink:href="#DejaVuSans-38" x="190.869141"/>
      </g>
     </g>
    </g>
    <g id="xtick_3">
     <g id="line2d_4"/>
     <g id="text_3">
      <!-- 2020 -->
      <g style="fill: #6a625c" transform="translate(232.673754 596.466125) scale(0.12 -0.12)">
       <use xlink:href="#DejaVuSans-32"/>
       <use xlink:href="#DejaVuSans-30" x="63.623047"/>
       <use xlink:href="#DejaVuSans-32" x="127.246094"/>
       <use xlink:href="#DejaVuSans-30" x="190.869141"/>
      </g>
     </g>
    </g>
    <g id="xtick_4">
     <g id="line2d_5"/>
     <g id="text_4">
      <!-- 2022 -->
      <g style="fill: #6a625c" transform="translate(303.570246 596.466125) scale(0.12 -0.12)">
       <use xlink:href="#DejaVuSans-32"/>
       <use xlink:href="#DejaVuSans-30" x="63.623047"/>
       <use xlink:href="#DejaVuSans-32" x="127.246094"/>
       <use xlink:href="#DejaVuSans-32" x="190.869141"/>
      </g>
     </g>
    </g>
    <g id="xtick_5">
     <g id="line2d_6"/>
     <g id="text_5">
      <!-- 2024 -->
      <g style="fill: #6a625c" transform="translate(374.369754 596.466125) scale(0.12 -0.12)">
       <defs>
        <path id="DejaVuSans-34" d="M 2419 4116 
L 825 1625 
L 2419 1625 
L 2419 4116 
z
M 2253 4666 
L 3047 4666 
L 3047 1625 
L 3713 1625 
L 3713 1100 
L 3047 1100 
L 3047 0 
L 2419 0 
L 2419 1100 
L 313 1100 
L 313 1709 
L 2253 4666 
z
" transform="scale(0.015625)"/>
       </defs>
       <use xlink:href="#DejaVuSans-32"/>
       <use xlink:href="#DejaVuSans-30" x="63.623047"/>
       <use xlink:href="#DejaVuSans-32" x="127.246094"/>
       <use xlink:href="#DejaVuSans-34" x="190.869141"/>
      </g>
     </g>
    </g>
    <g id="xtick_6">
     <g id="line2d_7"/>
     <g id="text_6">
      <!-- 2026 -->
      <g style="fill: #6a625c" transform="translate(445.266246 596.466125) scale(0.12 -0.12)">
       <use xlink:href="#DejaVuSans-32"/>
       <use xlink:href="#DejaVuSans-30" x="63.623047"/>
       <use xlink:href="#DejaVuSans-32" x="127.246094"/>
       <use xlink:href="#DejaVuSans-36" x="190.869141"/>
      </g>
     </g>
    </g>
   </g>
   <g id="matplotlib.axis_2">
    <g id="ytick_1">
     <g id="line2d_8">
      <path d="M 70.848 583.848 
L 495.936 583.848 
" clip-path="url(#p740ed57db2)" style="fill: none; stroke: #ded8cf; stroke-linecap: square"/>
     </g>
     <g id="line2d_9"/>
     <g id="text_7">
      <!-- 0 -->
      <g style="fill: #6a625c" transform="translate(59.713 588.407062) scale(0.12 -0.12)">
       <use xlink:href="#DejaVuSans-30"/>
      </g>
     </g>
    </g>
    <g id="ytick_2">
     <g id="line2d_10">
      <path d="M 70.848 503.671308 
L 495.936 503.671308 
" clip-path="url(#p740ed57db2)" style="fill: none; stroke: #ded8cf; stroke-linecap: square"/>
     </g>
     <g id="line2d_11"/>
     <g id="text_8">
      <!-- 1 -->
      <g style="fill: #6a625c" transform="translate(59.713 508.23037) scale(0.12 -0.12)">
       <use xlink:href="#DejaVuSans-31"/>
      </g>
     </g>
    </g>
    <g id="ytick_3">
     <g id="line2d_12">
      <path d="M 70.848 423.494615 
L 495.936 423.494615 
" clip-path="url(#p740ed57db2)" style="fill: none; stroke: #ded8cf; stroke-linecap: square"/>
     </g>
     <g id="line2d_13"/>
     <g id="text_9">
      <!-- 2 -->
      <g style="fill: #6a625c" transform="translate(59.713 428.053678) scale(0.12 -0.12)">
       <use xlink:href="#DejaVuSans-32"/>
      </g>
     </g>
    </g>
    <g id="ytick_4">
     <g id="line2d_14">
      <path d="M 70.848 343.317923 
L 495.936 343.317923 
" clip-path="url(#p740ed57db2)" style="fill: none; stroke: #ded8cf; stroke-linecap: square"/>
     </g>
     <g id="line2d_15"/>
     <g id="text_10">
      <!-- 3 -->
      <g style="fill: #6a625c" transform="translate(59.713 347.876986) scale(0.12 -0.12)">
       <defs>
        <path id="DejaVuSans-33" d="M 2597 2516 
Q 3050 2419 3304 2112 
Q 3559 1806 3559 1356 
Q 3559 666 3084 287 
Q 2609 -91 1734 -91 
Q 1441 -91 1130 -33 
Q 819 25 488 141 
L 488 750 
Q 750 597 1062 519 
Q 1375 441 1716 441 
Q 2309 441 2620 675 
Q 2931 909 2931 1356 
Q 2931 1769 2642 2001 
Q 2353 2234 1838 2234 
L 1294 2234 
L 1294 2753 
L 1863 2753 
Q 2328 2753 2575 2939 
Q 2822 3125 2822 3475 
Q 2822 3834 2567 4026 
Q 2313 4219 1838 4219 
Q 1578 4219 1281 4162 
Q 984 4106 628 3988 
L 628 4550 
Q 988 4650 1302 4700 
Q 1616 4750 1894 4750 
Q 2613 4750 3031 4423 
Q 3450 4097 3450 3541 
Q 3450 3153 3228 2886 
Q 3006 2619 2597 2516 
z
" transform="scale(0.015625)"/>
       </defs>
       <use xlink:href="#DejaVuSans-33"/>
      </g>
     </g>
    </g>
    <g id="ytick_5">
     <g id="line2d_16">
      <path d="M 70.848 263.141231 
L 495.936 263.141231 
" clip-path="url(#p740ed57db2)" style="fill: none; stroke: #ded8cf; stroke-linecap: square"/>
     </g>
     <g id="line2d_17"/>
     <g id="text_11">
      <!-- 4 -->
      <g style="fill: #6a625c" transform="translate(59.713 267.700293) scale(0.12 -0.12)">
       <use xlink:href="#DejaVuSans-34"/>
      </g>
     </g>
    </g>
   </g>
   <g id="line2d_18">
    <path d="M 70.848 572.936574 
L 73.854554 579.066291 
L 79.576706 579.066291 
L 82.486275 576.404382 
L 85.49283 570.766077 
L 88.402398 573.186871 
L 94.415507 573.186871 
L 97.325076 568.047339 
L 100.33163 565.457653 
L 103.241199 565.457653 
L 106.247754 567.818569 
L 109.254308 562.557631 
L 112.066891 559.997711 
L 115.073446 559.997711 
L 117.983014 562.65962 
L 120.989569 568.297924 
L 123.899138 565.961774 
L 126.905692 563.21223 
L 129.912246 563.21223 
L 132.821815 566.182479 
L 135.82837 568.772165 
L 138.737938 566.269771 
L 141.744493 561.931206 
L 144.751047 567.192144 
L 147.466645 569.752064 
L 150.473199 567.463916 
L 153.382768 562.918752 
L 156.389322 562.918752 
L 159.298891 562.272139 
L 162.305446 565.021683 
L 165.312 560.611523 
L 168.221569 560.064794 
L 171.228123 555.55034 
L 177.144246 552.075155 
L 180.150801 552.075155 
L 182.866398 545.69166 
L 185.872953 543.257977 
L 188.782522 543.704128 
L 191.789076 543.704128 
L 194.698645 544.668344 
L 197.705199 544.668344 
L 200.711754 544.863115 
L 203.621322 543.22643 
L 206.627877 544.099798 
L 209.537446 543.827498 
L 212.544 546.260404 
L 215.550554 541.652549 
L 218.266152 542.140698 
L 221.272706 541.961753 
L 224.182275 539.526399 
L 227.18883 531.47653 
L 230.098398 529.698832 
L 233.104953 524.266807 
L 236.111507 522.83595 
L 239.021076 527.188647 
L 242.02763 527.522113 
L 244.937199 528.282976 
L 247.943754 525.053736 
L 253.762891 527.198828 
L 256.769446 528.690731 
L 259.679014 528.690731 
L 262.685569 530.407527 
L 265.595138 525.13401 
L 268.601692 524.066628 
L 271.608246 519.589554 
L 274.517815 514.873278 
L 277.52437 511.630514 
L 280.433938 511.848977 
L 283.440493 512.547116 
L 286.447047 514.417975 
L 289.162645 513.925119 
L 292.169199 515.783785 
L 295.078768 513.966414 
L 298.085322 514.867461 
L 300.994891 523.937223 
L 304.001446 520.037578 
L 307.008 523.14263 
L 309.917569 525.009699 
L 312.924123 529.23612 
L 315.833692 526.25917 
L 318.840246 524.508758 
L 321.846801 518.579148 
L 324.562398 519.880559 
L 327.568953 514.427211 
L 330.478522 514.471714 
L 333.485076 510.409755 
L 336.394645 498.610389 
L 339.401199 503.017163 
L 342.407754 500.992946 
L 345.317322 497.194003 
L 348.323877 486.317649 
L 351.233446 480.859807 
L 354.24 474.862841 
L 357.246554 474.374366 
L 359.962152 464.38349 
L 362.968706 458.605253 
L 365.878275 455.640203 
L 368.88483 452.228082 
L 371.794398 454.217902 
L 374.800953 448.394216 
L 377.807507 451.202121 
L 380.717076 443.276767 
L 383.72363 444.651613 
L 386.633199 442.405806 
L 389.639754 442.143173 
L 392.646308 433.621907 
L 395.458891 439.267897 
L 398.465446 432.398538 
L 401.375014 434.592847 
L 404.381569 435.532281 
L 407.291138 429.386266 
L 410.297692 426.899559 
L 413.304246 426.62629 
L 416.213815 421.354078 
L 419.22037 422.517755 
L 422.129938 414.536168 
L 425.136493 416.410541 
L 428.143047 410.574779 
L 430.858645 404.517594 
L 433.865199 415.843023 
L 436.774768 393.802193 
L 439.781322 388.800251 
L 442.690891 372.303341 
L 445.697446 353.303129 
L 448.704 323.803481 
L 451.613569 309.385654 
L 454.620123 295.711255 
L 457.529692 274.133937 
L 460.536246 257.097815 
L 463.542801 255.42177 
L 463.542801 255.42177 
" clip-path="url(#p740ed57db2)" style="fill: none; stroke: #138b8f; stroke-width: 3.6; stroke-linecap: square"/>
   </g>
   <g id="patch_3">
    <path d="M 70.848 583.848 
L 495.936 583.848 
" style="fill: none; stroke: #9a8f84; stroke-width: 1.1; stroke-linejoin: miter; stroke-linecap: square"/>
   </g>
   <g id="line2d_19">
    <path d="M 70.848 582.042219 
L 76.570152 578.114868 
L 79.576706 578.114868 
L 82.486275 579.920649 
L 100.33163 579.920649 
L 103.241199 577.864837 
L 106.247754 576.994864 
L 109.254308 577.184366 
L 112.066891 579.055904 
L 115.073446 577.096552 
L 117.983014 577.096552 
L 120.989569 575.261005 
L 135.82837 575.261005 
L 138.737938 577.316818 
L 141.744493 578.18679 
L 144.751047 580.053101 
L 147.466645 580.053101 
L 150.473199 582.012453 
L 153.382768 582.012453 
L 156.389322 583.848 
L 159.298891 583.848 
L 162.305446 581.98169 
L 174.137692 581.98169 
L 180.150801 578.741842 
L 182.866398 577.16975 
L 185.872953 577.16975 
L 188.782522 574.01815 
L 191.789076 572.177547 
L 194.698645 572.177547 
L 197.705199 574.043857 
L 200.711754 574.043857 
L 206.627877 570.759262 
L 209.537446 570.759262 
L 215.550554 573.999109 
L 218.266152 573.740683 
L 221.272706 573.740683 
L 224.182275 574.198174 
L 227.18883 574.140655 
L 230.098398 569.368233 
L 233.104953 569.368233 
L 236.111507 565.635612 
L 239.021076 567.211412 
L 242.02763 565.937443 
L 244.937199 559.954108 
L 247.943754 557.465694 
L 250.950308 555.66478 
L 253.762891 550.847148 
L 256.769446 550.847148 
L 259.679014 547.400273 
L 262.685569 546.275142 
L 265.595138 547.989719 
L 268.601692 545.026796 
L 271.608246 544.774492 
L 274.517815 544.774492 
L 277.52437 541.980837 
L 280.433938 544.878079 
L 283.440493 542.38038 
L 286.447047 537.710214 
L 289.162645 535.936442 
L 292.169199 535.936442 
L 295.078768 536.986843 
L 298.085322 534.499671 
L 300.994891 533.132754 
L 304.001446 528.326617 
L 307.008 532.311543 
L 309.917569 528.831651 
L 312.924123 523.74402 
L 315.833692 521.082679 
L 318.840246 523.53316 
L 321.846801 528.420973 
L 324.562398 536.842894 
L 327.568953 532.587231 
L 330.478522 532.635255 
L 333.485076 535.473125 
L 336.394645 534.874285 
L 339.401199 540.063656 
L 342.407754 534.507406 
L 345.317322 529.439675 
L 348.323877 540.303726 
L 351.233446 537.681984 
L 354.24 534.621812 
L 357.246554 528.629807 
L 359.962152 522.850057 
L 362.968706 519.119993 
L 365.878275 519.845014 
L 368.88483 515.02242 
L 371.794398 511.826385 
L 374.800953 508.265088 
L 377.807507 509.352181 
L 380.717076 505.727228 
L 383.72363 499.315144 
L 386.633199 498.843159 
L 389.639754 497.672998 
L 392.646308 505.248271 
L 395.458891 502.978152 
L 398.465446 499.73465 
L 401.375014 499.82346 
L 404.381569 500.603645 
L 407.291138 506.263362 
L 410.297692 500.733795 
L 413.304246 494.204778 
L 416.213815 500.642253 
L 419.22037 485.843571 
L 422.129938 469.471935 
L 425.136493 466.693057 
L 428.143047 445.998483 
L 430.858645 443.567738 
L 433.865199 442.918938 
L 436.774768 429.431857 
L 439.781322 427.931998 
L 442.690891 425.667809 
L 445.697446 425.818721 
L 448.704 420.67827 
L 451.613569 416.441144 
L 454.620123 431.577917 
L 457.529692 443.494413 
L 460.536246 449.577397 
L 463.542801 450.147299 
L 463.542801 450.147299 
" clip-path="url(#p740ed57db2)" style="fill: none; stroke: #24539a; stroke-width: 3.6; stroke-linecap: square"/>
   </g>
   <g id="text_12">
    <!-- ChatGPT -->
    <g style="fill: #152238" transform="translate(293.964561 236.740847) scale(0.125 -0.125)">
     <defs>
      <path id="DejaVuSans-43" d="M 4122 4306 
L 4122 3641 
Q 3803 3938 3442 4084 
Q 3081 4231 2675 4231 
Q 1875 4231 1450 3742 
Q 1025 3253 1025 2328 
Q 1025 1406 1450 917 
Q 1875 428 2675 428 
Q 3081 428 3442 575 
Q 3803 722 4122 1019 
L 4122 359 
Q 3791 134 3420 21 
Q 3050 -91 2638 -91 
Q 1578 -91 968 557 
Q 359 1206 359 2328 
Q 359 3453 968 4101 
Q 1578 4750 2638 4750 
Q 3056 4750 3426 4639 
Q 3797 4528 4122 4306 
z
" transform="scale(0.015625)"/>
      <path id="DejaVuSans-68" d="M 3513 2113 
L 3513 0 
L 2938 0 
L 2938 2094 
Q 2938 2591 2744 2837 
Q 2550 3084 2163 3084 
Q 1697 3084 1428 2787 
Q 1159 2491 1159 1978 
L 1159 0 
L 581 0 
L 581 4863 
L 1159 4863 
L 1159 2956 
Q 1366 3272 1645 3428 
Q 1925 3584 2291 3584 
Q 2894 3584 3203 3211 
Q 3513 2838 3513 2113 
z
" transform="scale(0.015625)"/>
      <path id="DejaVuSans-61" d="M 2194 1759 
Q 1497 1759 1228 1600 
Q 959 1441 959 1056 
Q 959 750 1161 570 
Q 1363 391 1709 391 
Q 2188 391 2477 730 
Q 2766 1069 2766 1631 
L 2766 1759 
L 2194 1759 
z
M 3341 1997 
L 3341 0 
L 2766 0 
L 2766 531 
Q 2569 213 2275 61 
Q 1981 -91 1556 -91 
Q 1019 -91 701 211 
Q 384 513 384 1019 
Q 384 1609 779 1909 
Q 1175 2209 1959 2209 
L 2766 2209 
L 2766 2266 
Q 2766 2663 2505 2880 
Q 2244 3097 1772 3097 
Q 1472 3097 1187 3025 
Q 903 2953 641 2809 
L 641 3341 
Q 956 3463 1253 3523 
Q 1550 3584 1831 3584 
Q 2591 3584 2966 3190 
Q 3341 2797 3341 1997 
z
" transform="scale(0.015625)"/>
      <path id="DejaVuSans-74" d="M 1172 4494 
L 1172 3500 
L 2356 3500 
L 2356 3053 
L 1172 3053 
L 1172 1153 
Q 1172 725 1289 603 
Q 1406 481 1766 481 
L 2356 481 
L 2356 0 
L 1766 0 
Q 1100 0 847 248 
Q 594 497 594 1153 
L 594 3053 
L 172 3053 
L 172 3500 
L 594 3500 
L 594 4494 
L 1172 4494 
z
" transform="scale(0.015625)"/>
      <path id="DejaVuSans-47" d="M 3809 666 
L 3809 1919 
L 2778 1919 
L 2778 2438 
L 4434 2438 
L 4434 434 
Q 4069 175 3628 42 
Q 3188 -91 2688 -91 
Q 1594 -91 976 548 
Q 359 1188 359 2328 
Q 359 3472 976 4111 
Q 1594 4750 2688 4750 
Q 3144 4750 3555 4637 
Q 3966 4525 4313 4306 
L 4313 3634 
Q 3963 3931 3569 4081 
Q 3175 4231 2741 4231 
Q 1884 4231 1454 3753 
Q 1025 3275 1025 2328 
Q 1025 1384 1454 906 
Q 1884 428 2741 428 
Q 3075 428 3337 486 
Q 3600 544 3809 666 
z
" transform="scale(0.015625)"/>
      <path id="DejaVuSans-50" d="M 1259 4147 
L 1259 2394 
L 2053 2394 
Q 2494 2394 2734 2622 
Q 2975 2850 2975 3272 
Q 2975 3691 2734 3919 
Q 2494 4147 2053 4147 
L 1259 4147 
z
M 628 4666 
L 2053 4666 
Q 2838 4666 3239 4311 
Q 3641 3956 3641 3272 
Q 3641 2581 3239 2228 
Q 2838 1875 2053 1875 
L 1259 1875 
L 1259 0 
L 628 0 
L 628 4666 
z
" transform="scale(0.015625)"/>
      <path id="DejaVuSans-54" d="M -19 4666 
L 3928 4666 
L 3928 4134 
L 2272 4134 
L 2272 0 
L 1638 0 
L 1638 4134 
L -19 4134 
L -19 4666 
z
" transform="scale(0.015625)"/>
     </defs>
     <use xlink:href="#DejaVuSans-43"/>
     <use xlink:href="#DejaVuSans-68" x="69.824219"/>
     <use xlink:href="#DejaVuSans-61" x="133.203125"/>
     <use xlink:href="#DejaVuSans-74" x="194.482422"/>
     <use xlink:href="#DejaVuSans-47" x="233.691406"/>
     <use xlink:href="#DejaVuSans-50" x="311.181641"/>
     <use xlink:href="#DejaVuSans-54" x="371.484375"/>
    </g>
    <!-- released -->
    <g style="fill: #152238" transform="translate(294.521201 250.738112) scale(0.125 -0.125)">
     <defs>
      <path id="DejaVuSans-72" d="M 2631 2963 
Q 2534 3019 2420 3045 
Q 2306 3072 2169 3072 
Q 1681 3072 1420 2755 
Q 1159 2438 1159 1844 
L 1159 0 
L 581 0 
L 581 3500 
L 1159 3500 
L 1159 2956 
Q 1341 3275 1631 3429 
Q 1922 3584 2338 3584 
Q 2397 3584 2469 3576 
Q 2541 3569 2628 3553 
L 2631 2963 
z
" transform="scale(0.015625)"/>
      <path id="DejaVuSans-65" d="M 3597 1894 
L 3597 1613 
L 953 1613 
Q 991 1019 1311 708 
Q 1631 397 2203 397 
Q 2534 397 2845 478 
Q 3156 559 3463 722 
L 3463 178 
Q 3153 47 2828 -22 
Q 2503 -91 2169 -91 
Q 1331 -91 842 396 
Q 353 884 353 1716 
Q 353 2575 817 3079 
Q 1281 3584 2069 3584 
Q 2775 3584 3186 3129 
Q 3597 2675 3597 1894 
z
M 3022 2063 
Q 3016 2534 2758 2815 
Q 2500 3097 2075 3097 
Q 1594 3097 1305 2825 
Q 1016 2553 972 2059 
L 3022 2063 
z
" transform="scale(0.015625)"/>
      <path id="DejaVuSans-6c" d="M 603 4863 
L 1178 4863 
L 1178 0 
L 603 0 
L 603 4863 
z
" transform="scale(0.015625)"/>
      <path id="DejaVuSans-73" d="M 2834 3397 
L 2834 2853 
Q 2591 2978 2328 3040 
Q 2066 3103 1784 3103 
Q 1356 3103 1142 2972 
Q 928 2841 928 2578 
Q 928 2378 1081 2264 
Q 1234 2150 1697 2047 
L 1894 2003 
Q 2506 1872 2764 1633 
Q 3022 1394 3022 966 
Q 3022 478 2636 193 
Q 2250 -91 1575 -91 
Q 1294 -91 989 -36 
Q 684 19 347 128 
L 347 722 
Q 666 556 975 473 
Q 1284 391 1588 391 
Q 1994 391 2212 530 
Q 2431 669 2431 922 
Q 2431 1156 2273 1281 
Q 2116 1406 1581 1522 
L 1381 1569 
Q 847 1681 609 1914 
Q 372 2147 372 2553 
Q 372 3047 722 3315 
Q 1072 3584 1716 3584 
Q 2034 3584 2315 3537 
Q 2597 3491 2834 3397 
z
" transform="scale(0.015625)"/>
      <path id="DejaVuSans-64" d="M 2906 2969 
L 2906 4863 
L 3481 4863 
L 3481 0 
L 2906 0 
L 2906 525 
Q 2725 213 2448 61 
Q 2172 -91 1784 -91 
Q 1150 -91 751 415 
Q 353 922 353 1747 
Q 353 2572 751 3078 
Q 1150 3584 1784 3584 
Q 2172 3584 2448 3432 
Q 2725 3281 2906 2969 
z
M 947 1747 
Q 947 1113 1208 752 
Q 1469 391 1925 391 
Q 2381 391 2643 752 
Q 2906 1113 2906 1747 
Q 2906 2381 2643 2742 
Q 2381 3103 1925 3103 
Q 1469 3103 1208 2742 
Q 947 2381 947 1747 
z
" transform="scale(0.015625)"/>
     </defs>
     <use xlink:href="#DejaVuSans-72"/>
     <use xlink:href="#DejaVuSans-65" x="38.863281"/>
     <use xlink:href="#DejaVuSans-6c" x="100.386719"/>
     <use xlink:href="#DejaVuSans-65" x="128.169922"/>
     <use xlink:href="#DejaVuSans-61" x="189.693359"/>
     <use xlink:href="#DejaVuSans-73" x="250.972656"/>
     <use xlink:href="#DejaVuSans-65" x="303.072266"/>
     <use xlink:href="#DejaVuSans-64" x="364.595703"/>
    </g>
   </g>
   <g id="text_13">
    <!-- core -->
    <g style="fill: #24539a" transform="translate(467.228255 447.734257) scale(0.145 -0.145)">
     <defs>
      <path id="DejaVuSans-Bold-63" d="M 3366 3391 
L 3366 2478 
Q 3138 2634 2908 2709 
Q 2678 2784 2431 2784 
Q 1963 2784 1702 2511 
Q 1441 2238 1441 1747 
Q 1441 1256 1702 982 
Q 1963 709 2431 709 
Q 2694 709 2930 787 
Q 3166 866 3366 1019 
L 3366 103 
Q 3103 6 2833 -42 
Q 2563 -91 2291 -91 
Q 1344 -91 809 395 
Q 275 881 275 1747 
Q 275 2613 809 3098 
Q 1344 3584 2291 3584 
Q 2566 3584 2833 3536 
Q 3100 3488 3366 3391 
z
" transform="scale(0.015625)"/>
      <path id="DejaVuSans-Bold-6f" d="M 2203 2784 
Q 1831 2784 1636 2517 
Q 1441 2250 1441 1747 
Q 1441 1244 1636 976 
Q 1831 709 2203 709 
Q 2569 709 2762 976 
Q 2956 1244 2956 1747 
Q 2956 2250 2762 2517 
Q 2569 2784 2203 2784 
z
M 2203 3584 
Q 3106 3584 3614 3096 
Q 4122 2609 4122 1747 
Q 4122 884 3614 396 
Q 3106 -91 2203 -91 
Q 1297 -91 786 396 
Q 275 884 275 1747 
Q 275 2609 786 3096 
Q 1297 3584 2203 3584 
z
" transform="scale(0.015625)"/>
      <path id="DejaVuSans-Bold-72" d="M 3138 2547 
Q 2991 2616 2845 2648 
Q 2700 2681 2553 2681 
Q 2122 2681 1889 2404 
Q 1656 2128 1656 1613 
L 1656 0 
L 538 0 
L 538 3500 
L 1656 3500 
L 1656 2925 
Q 1872 3269 2151 3426 
Q 2431 3584 2822 3584 
Q 2878 3584 2943 3579 
Q 3009 3575 3134 3559 
L 3138 2547 
z
" transform="scale(0.015625)"/>
      <path id="DejaVuSans-Bold-65" d="M 4031 1759 
L 4031 1441 
L 1416 1441 
Q 1456 1047 1700 850 
Q 1944 653 2381 653 
Q 2734 653 3104 758 
Q 3475 863 3866 1075 
L 3866 213 
Q 3469 63 3072 -14 
Q 2675 -91 2278 -91 
Q 1328 -91 801 392 
Q 275 875 275 1747 
Q 275 2603 792 3093 
Q 1309 3584 2216 3584 
Q 3041 3584 3536 3087 
Q 4031 2591 4031 1759 
z
M 2881 2131 
Q 2881 2450 2695 2645 
Q 2509 2841 2209 2841 
Q 1884 2841 1681 2658 
Q 1478 2475 1428 2131 
L 2881 2131 
z
" transform="scale(0.015625)"/>
     </defs>
     <use xlink:href="#DejaVuSans-Bold-63"/>
     <use xlink:href="#DejaVuSans-Bold-6f" x="59.277344"/>
     <use xlink:href="#DejaVuSans-Bold-72" x="127.978516"/>
     <use xlink:href="#DejaVuSans-Bold-65" x="177.294922"/>
    </g>
   </g>
   <g id="text_14">
    <!-- adjacent -->
    <g style="fill: #138b8f" transform="translate(467.228255 265.780359) scale(0.145 -0.145)">
     <defs>
      <path id="DejaVuSans-Bold-61" d="M 2106 1575 
Q 1756 1575 1579 1456 
Q 1403 1338 1403 1106 
Q 1403 894 1545 773 
Q 1688 653 1941 653 
Q 2256 653 2472 879 
Q 2688 1106 2688 1447 
L 2688 1575 
L 2106 1575 
z
M 3816 1997 
L 3816 0 
L 2688 0 
L 2688 519 
Q 2463 200 2181 54 
Q 1900 -91 1497 -91 
Q 953 -91 614 226 
Q 275 544 275 1050 
Q 275 1666 698 1953 
Q 1122 2241 2028 2241 
L 2688 2241 
L 2688 2328 
Q 2688 2594 2478 2717 
Q 2269 2841 1825 2841 
Q 1466 2841 1156 2769 
Q 847 2697 581 2553 
L 581 3406 
Q 941 3494 1303 3539 
Q 1666 3584 2028 3584 
Q 2975 3584 3395 3211 
Q 3816 2838 3816 1997 
z
" transform="scale(0.015625)"/>
      <path id="DejaVuSans-Bold-64" d="M 2919 2988 
L 2919 4863 
L 4044 4863 
L 4044 0 
L 2919 0 
L 2919 506 
Q 2688 197 2409 53 
Q 2131 -91 1766 -91 
Q 1119 -91 703 423 
Q 288 938 288 1747 
Q 288 2556 703 3070 
Q 1119 3584 1766 3584 
Q 2128 3584 2408 3439 
Q 2688 3294 2919 2988 
z
M 2181 722 
Q 2541 722 2730 984 
Q 2919 1247 2919 1747 
Q 2919 2247 2730 2509 
Q 2541 2772 2181 2772 
Q 1825 2772 1636 2509 
Q 1447 2247 1447 1747 
Q 1447 1247 1636 984 
Q 1825 722 2181 722 
z
" transform="scale(0.015625)"/>
      <path id="DejaVuSans-Bold-6a" d="M 538 3500 
L 1656 3500 
L 1656 63 
Q 1656 -641 1318 -1011 
Q 981 -1381 341 -1381 
L -213 -1381 
L -213 -647 
L -19 -647 
Q 300 -647 419 -503 
Q 538 -359 538 63 
L 538 3500 
z
M 538 4863 
L 1656 4863 
L 1656 3950 
L 538 3950 
L 538 4863 
z
" transform="scale(0.015625)"/>
      <path id="DejaVuSans-Bold-6e" d="M 4056 2131 
L 4056 0 
L 2931 0 
L 2931 347 
L 2931 1631 
Q 2931 2084 2911 2256 
Q 2891 2428 2841 2509 
Q 2775 2619 2662 2680 
Q 2550 2741 2406 2741 
Q 2056 2741 1856 2470 
Q 1656 2200 1656 1722 
L 1656 0 
L 538 0 
L 538 3500 
L 1656 3500 
L 1656 2988 
Q 1909 3294 2193 3439 
Q 2478 3584 2822 3584 
Q 3428 3584 3742 3212 
Q 4056 2841 4056 2131 
z
" transform="scale(0.015625)"/>
      <path id="DejaVuSans-Bold-74" d="M 1759 4494 
L 1759 3500 
L 2913 3500 
L 2913 2700 
L 1759 2700 
L 1759 1216 
Q 1759 972 1856 886 
Q 1953 800 2241 800 
L 2816 800 
L 2816 0 
L 1856 0 
Q 1194 0 917 276 
Q 641 553 641 1216 
L 641 2700 
L 84 2700 
L 84 3500 
L 641 3500 
L 641 4494 
L 1759 4494 
z
" transform="scale(0.015625)"/>
     </defs>
     <use xlink:href="#DejaVuSans-Bold-61"/>
     <use xlink:href="#DejaVuSans-Bold-64" x="67.480469"/>
     <use xlink:href="#DejaVuSans-Bold-6a" x="139.0625"/>
     <use xlink:href="#DejaVuSans-Bold-61" x="173.339844"/>
     <use xlink:href="#DejaVuSans-Bold-63" x="240.820312"/>
     <use xlink:href="#DejaVuSans-Bold-65" x="300.097656"/>
     <use xlink:href="#DejaVuSans-Bold-6e" x="367.919922"/>
     <use xlink:href="#DejaVuSans-Bold-74" x="439.111328"/>
    </g>
   </g>
  </g>
  <g id="line2d_20">
   <path d="M 38.376 38.16 
L 82.656 38.16 
" style="fill: none; stroke: #295d5f; stroke-width: 4.5; stroke-linecap: round"/>
  </g>
  <g id="text_15">
   <!-- AI-related terms in core and adjacent journals -->
   <g style="fill: #152238" transform="translate(38.376 87.768) scale(0.23 -0.23)">
    <defs>
     <path id="DejaVuSans-41" d="M 2188 4044 
L 1331 1722 
L 3047 1722 
L 2188 4044 
z
M 1831 4666 
L 2547 4666 
L 4325 0 
L 3669 0 
L 3244 1197 
L 1141 1197 
L 716 0 
L 50 0 
L 1831 4666 
z
" transform="scale(0.015625)"/>
     <path id="DejaVuSans-49" d="M 628 4666 
L 1259 4666 
L 1259 0 
L 628 0 
L 628 4666 
z
" transform="scale(0.015625)"/>
     <path id="DejaVuSans-2d" d="M 313 2009 
L 1997 2009 
L 1997 1497 
L 313 1497 
L 313 2009 
z
" transform="scale(0.015625)"/>
     <path id="DejaVuSans-20" transform="scale(0.015625)"/>
     <path id="DejaVuSans-6d" d="M 3328 2828 
Q 3544 3216 3844 3400 
Q 4144 3584 4550 3584 
Q 5097 3584 5394 3201 
Q 5691 2819 5691 2113 
L 5691 0 
L 5113 0 
L 5113 2094 
Q 5113 2597 4934 2840 
Q 4756 3084 4391 3084 
Q 3944 3084 3684 2787 
Q 3425 2491 3425 1978 
L 3425 0 
L 2847 0 
L 2847 2094 
Q 2847 2600 2669 2842 
Q 2491 3084 2119 3084 
Q 1678 3084 1418 2786 
Q 1159 2488 1159 1978 
L 1159 0 
L 581 0 
L 581 3500 
L 1159 3500 
L 1159 2956 
Q 1356 3278 1631 3431 
Q 1906 3584 2284 3584 
Q 2666 3584 2933 3390 
Q 3200 3197 3328 2828 
z
" transform="scale(0.015625)"/>
     <path id="DejaVuSans-69" d="M 603 3500 
L 1178 3500 
L 1178 0 
L 603 0 
L 603 3500 
z
M 603 4863 
L 1178 4863 
L 1178 4134 
L 603 4134 
L 603 4863 
z
" transform="scale(0.015625)"/>
     <path id="DejaVuSans-6e" d="M 3513 2113 
L 3513 0 
L 2938 0 
L 2938 2094 
Q 2938 2591 2744 2837 
Q 2550 3084 2163 3084 
Q 1697 3084 1428 2787 
Q 1159 2491 1159 1978 
L 1159 0 
L 581 0 
L 581 3500 
L 1159 3500 
L 1159 2956 
Q 1366 3272 1645 3428 
Q 1925 3584 2291 3584 
Q 2894 3584 3203 3211 
Q 3513 2838 3513 2113 
z
" transform="scale(0.015625)"/>
     <path id="DejaVuSans-63" d="M 3122 3366 
L 3122 2828 
Q 2878 2963 2633 3030 
Q 2388 3097 2138 3097 
Q 1578 3097 1268 2742 
Q 959 2388 959 1747 
Q 959 1106 1268 751 
Q 1578 397 2138 397 
Q 2388 397 2633 464 
Q 2878 531 3122 666 
L 3122 134 
Q 2881 22 2623 -34 
Q 2366 -91 2075 -91 
Q 1284 -91 818 406 
Q 353 903 353 1747 
Q 353 2603 823 3093 
Q 1294 3584 2113 3584 
Q 2378 3584 2631 3529 
Q 2884 3475 3122 3366 
z
" transform="scale(0.015625)"/>
     <path id="DejaVuSans-6f" d="M 1959 3097 
Q 1497 3097 1228 2736 
Q 959 2375 959 1747 
Q 959 1119 1226 758 
Q 1494 397 1959 397 
Q 2419 397 2687 759 
Q 2956 1122 2956 1747 
Q 2956 2369 2687 2733 
Q 2419 3097 1959 3097 
z
M 1959 3584 
Q 2709 3584 3137 3096 
Q 3566 2609 3566 1747 
Q 3566 888 3137 398 
Q 2709 -91 1959 -91 
Q 1206 -91 779 398 
Q 353 888 353 1747 
Q 353 2609 779 3096 
Q 1206 3584 1959 3584 
z
" transform="scale(0.015625)"/>
     <path id="DejaVuSans-6a" d="M 603 3500 
L 1178 3500 
L 1178 -63 
Q 1178 -731 923 -1031 
Q 669 -1331 103 -1331 
L -116 -1331 
L -116 -844 
L 38 -844 
Q 366 -844 484 -692 
Q 603 -541 603 -63 
L 603 3500 
z
M 603 4863 
L 1178 4863 
L 1178 4134 
L 603 4134 
L 603 4863 
z
" transform="scale(0.015625)"/>
     <path id="DejaVuSans-75" d="M 544 1381 
L 544 3500 
L 1119 3500 
L 1119 1403 
Q 1119 906 1312 657 
Q 1506 409 1894 409 
Q 2359 409 2629 706 
Q 2900 1003 2900 1516 
L 2900 3500 
L 3475 3500 
L 3475 0 
L 2900 0 
L 2900 538 
Q 2691 219 2414 64 
Q 2138 -91 1772 -91 
Q 1169 -91 856 284 
Q 544 659 544 1381 
z
M 1991 3584 
L 1991 3584 
z
" transform="scale(0.015625)"/>
    </defs>
    <use xlink:href="#DejaVuSans-41"/>
    <use xlink:href="#DejaVuSans-49" x="68.408203"/>
    <use xlink:href="#DejaVuSans-2d" x="97.900391"/>
    <use xlink:href="#DejaVuSans-72" x="133.984375"/>
    <use xlink:href="#DejaVuSans-65" x="172.847656"/>
    <use xlink:href="#DejaVuSans-6c" x="234.371094"/>
    <use xlink:href="#DejaVuSans-61" x="262.154297"/>
    <use xlink:href="#DejaVuSans-74" x="323.433594"/>
    <use xlink:href="#DejaVuSans-65" x="362.642578"/>
    <use xlink:href="#DejaVuSans-64" x="424.166016"/>
    <use xlink:href="#DejaVuSans-20" x="487.642578"/>
    <use xlink:href="#DejaVuSans-74" x="519.429688"/>
    <use xlink:href="#DejaVuSans-65" x="558.638672"/>
    <use xlink:href="#DejaVuSans-72" x="620.162109"/>
    <use xlink:href="#DejaVuSans-6d" x="659.525391"/>
    <use xlink:href="#DejaVuSans-73" x="756.9375"/>
    <use xlink:href="#DejaVuSans-20" x="809.037109"/>
    <use xlink:href="#DejaVuSans-69" x="840.824219"/>
    <use xlink:href="#DejaVuSans-6e" x="868.607422"/>
    <use xlink:href="#DejaVuSans-20" x="931.986328"/>
    <use xlink:href="#DejaVuSans-63" x="963.773438"/>
    <use xlink:href="#DejaVuSans-6f" x="1018.753906"/>
    <use xlink:href="#DejaVuSans-72" x="1079.935547"/>
    <use xlink:href="#DejaVuSans-65" x="1118.798828"/>
    <use xlink:href="#DejaVuSans-20" x="1180.322266"/>
    <use xlink:href="#DejaVuSans-61" x="1212.109375"/>
    <use xlink:href="#DejaVuSans-6e" x="1273.388672"/>
    <use xlink:href="#DejaVuSans-64" x="1336.767578"/>
    <use xlink:href="#DejaVuSans-20" x="1400.244141"/>
    <use xlink:href="#DejaVuSans-61" x="1432.03125"/>
    <use xlink:href="#DejaVuSans-64" x="1493.310547"/>
    <use xlink:href="#DejaVuSans-6a" x="1556.787109"/>
    <use xlink:href="#DejaVuSans-61" x="1584.570312"/>
    <use xlink:href="#DejaVuSans-63" x="1645.849609"/>
    <use xlink:href="#DejaVuSans-65" x="1700.830078"/>
    <use xlink:href="#DejaVuSans-6e" x="1762.353516"/>
    <use xlink:href="#DejaVuSans-74" x="1825.732422"/>
    <use xlink:href="#DejaVuSans-20" x="1864.941406"/>
    <use xlink:href="#DejaVuSans-6a" x="1896.728516"/>
    <use xlink:href="#DejaVuSans-6f" x="1924.511719"/>
    <use xlink:href="#DejaVuSans-75" x="1985.693359"/>
    <use xlink:href="#DejaVuSans-72" x="2049.072266"/>
    <use xlink:href="#DejaVuSans-6e" x="2088.435547"/>
    <use xlink:href="#DejaVuSans-61" x="2151.814453"/>
    <use xlink:href="#DejaVuSans-6c" x="2213.09375"/>
    <use xlink:href="#DejaVuSans-73" x="2240.876953"/>
   </g>
  </g>
  <g id="text_16">
   <!-- 12-month rolling share of published papers mentioning selected -->
   <g style="fill: #5d5a56" transform="translate(38.376 115.261184) scale(0.155 -0.155)">
    <defs>
     <path id="DejaVuSans-67" d="M 2906 1791 
Q 2906 2416 2648 2759 
Q 2391 3103 1925 3103 
Q 1463 3103 1205 2759 
Q 947 2416 947 1791 
Q 947 1169 1205 825 
Q 1463 481 1925 481 
Q 2391 481 2648 825 
Q 2906 1169 2906 1791 
z
M 3481 434 
Q 3481 -459 3084 -895 
Q 2688 -1331 1869 -1331 
Q 1566 -1331 1297 -1286 
Q 1028 -1241 775 -1147 
L 775 -588 
Q 1028 -725 1275 -790 
Q 1522 -856 1778 -856 
Q 2344 -856 2625 -561 
Q 2906 -266 2906 331 
L 2906 616 
Q 2728 306 2450 153 
Q 2172 0 1784 0 
Q 1141 0 747 490 
Q 353 981 353 1791 
Q 353 2603 747 3093 
Q 1141 3584 1784 3584 
Q 2172 3584 2450 3431 
Q 2728 3278 2906 2969 
L 2906 3500 
L 3481 3500 
L 3481 434 
z
" transform="scale(0.015625)"/>
     <path id="DejaVuSans-66" d="M 2375 4863 
L 2375 4384 
L 1825 4384 
Q 1516 4384 1395 4259 
Q 1275 4134 1275 3809 
L 1275 3500 
L 2222 3500 
L 2222 3053 
L 1275 3053 
L 1275 0 
L 697 0 
L 697 3053 
L 147 3053 
L 147 3500 
L 697 3500 
L 697 3744 
Q 697 4328 969 4595 
Q 1241 4863 1831 4863 
L 2375 4863 
z
" transform="scale(0.015625)"/>
     <path id="DejaVuSans-70" d="M 1159 525 
L 1159 -1331 
L 581 -1331 
L 581 3500 
L 1159 3500 
L 1159 2969 
Q 1341 3281 1617 3432 
Q 1894 3584 2278 3584 
Q 2916 3584 3314 3078 
Q 3713 2572 3713 1747 
Q 3713 922 3314 415 
Q 2916 -91 2278 -91 
Q 1894 -91 1617 61 
Q 1341 213 1159 525 
z
M 3116 1747 
Q 3116 2381 2855 2742 
Q 2594 3103 2138 3103 
Q 1681 3103 1420 2742 
Q 1159 2381 1159 1747 
Q 1159 1113 1420 752 
Q 1681 391 2138 391 
Q 2594 391 2855 752 
Q 3116 1113 3116 1747 
z
" transform="scale(0.015625)"/>
     <path id="DejaVuSans-62" d="M 3116 1747 
Q 3116 2381 2855 2742 
Q 2594 3103 2138 3103 
Q 1681 3103 1420 2742 
Q 1159 2381 1159 1747 
Q 1159 1113 1420 752 
Q 1681 391 2138 391 
Q 2594 391 2855 752 
Q 3116 1113 3116 1747 
z
M 1159 2969 
Q 1341 3281 1617 3432 
Q 1894 3584 2278 3584 
Q 2916 3584 3314 3078 
Q 3713 2572 3713 1747 
Q 3713 922 3314 415 
Q 2916 -91 2278 -91 
Q 1894 -91 1617 61 
Q 1341 213 1159 525 
L 1159 0 
L 581 0 
L 581 4863 
L 1159 4863 
L 1159 2969 
z
" transform="scale(0.015625)"/>
    </defs>
    <use xlink:href="#DejaVuSans-31"/>
    <use xlink:href="#DejaVuSans-32" x="63.623047"/>
    <use xlink:href="#DejaVuSans-2d" x="127.246094"/>
    <use xlink:href="#DejaVuSans-6d" x="163.330078"/>
    <use xlink:href="#DejaVuSans-6f" x="260.742188"/>
    <use xlink:href="#DejaVuSans-6e" x="321.923828"/>
    <use xlink:href="#DejaVuSans-74" x="385.302734"/>
    <use xlink:href="#DejaVuSans-68" x="424.511719"/>
    <use xlink:href="#DejaVuSans-20" x="487.890625"/>
    <use xlink:href="#DejaVuSans-72" x="519.677734"/>
    <use xlink:href="#DejaVuSans-6f" x="558.541016"/>
    <use xlink:href="#DejaVuSans-6c" x="619.722656"/>
    <use xlink:href="#DejaVuSans-6c" x="647.505859"/>
    <use xlink:href="#DejaVuSans-69" x="675.289062"/>
    <use xlink:href="#DejaVuSans-6e" x="703.072266"/>
    <use xlink:href="#DejaVuSans-67" x="766.451172"/>
    <use xlink:href="#DejaVuSans-20" x="829.927734"/>
    <use xlink:href="#DejaVuSans-73" x="861.714844"/>
    <use xlink:href="#DejaVuSans-68" x="913.814453"/>
    <use xlink:href="#DejaVuSans-61" x="977.193359"/>
    <use xlink:href="#DejaVuSans-72" x="1038.472656"/>
    <use xlink:href="#DejaVuSans-65" x="1077.335938"/>
    <use xlink:href="#DejaVuSans-20" x="1138.859375"/>
    <use xlink:href="#DejaVuSans-6f" x="1170.646484"/>
    <use xlink:href="#DejaVuSans-66" x="1231.828125"/>
    <use xlink:href="#DejaVuSans-20" x="1267.033203"/>
    <use xlink:href="#DejaVuSans-70" x="1298.820312"/>
    <use xlink:href="#DejaVuSans-75" x="1362.296875"/>
    <use xlink:href="#DejaVuSans-62" x="1425.675781"/>
    <use xlink:href="#DejaVuSans-6c" x="1489.152344"/>
    <use xlink:href="#DejaVuSans-69" x="1516.935547"/>
    <use xlink:href="#DejaVuSans-73" x="1544.71875"/>
    <use xlink:href="#DejaVuSans-68" x="1596.818359"/>
    <use xlink:href="#DejaVuSans-65" x="1660.197266"/>
    <use xlink:href="#DejaVuSans-64" x="1721.720703"/>
    <use xlink:href="#DejaVuSans-20" x="1785.197266"/>
    <use xlink:href="#DejaVuSans-70" x="1816.984375"/>
    <use xlink:href="#DejaVuSans-61" x="1880.460938"/>
    <use xlink:href="#DejaVuSans-70" x="1941.740234"/>
    <use xlink:href="#DejaVuSans-65" x="2005.216797"/>
    <use xlink:href="#DejaVuSans-72" x="2066.740234"/>
    <use xlink:href="#DejaVuSans-73" x="2107.853516"/>
    <use xlink:href="#DejaVuSans-20" x="2159.953125"/>
    <use xlink:href="#DejaVuSans-6d" x="2191.740234"/>
    <use xlink:href="#DejaVuSans-65" x="2289.152344"/>
    <use xlink:href="#DejaVuSans-6e" x="2350.675781"/>
    <use xlink:href="#DejaVuSans-74" x="2414.054688"/>
    <use xlink:href="#DejaVuSans-69" x="2453.263672"/>
    <use xlink:href="#DejaVuSans-6f" x="2481.046875"/>
    <use xlink:href="#DejaVuSans-6e" x="2542.228516"/>
    <use xlink:href="#DejaVuSans-69" x="2605.607422"/>
    <use xlink:href="#DejaVuSans-6e" x="2633.390625"/>
    <use xlink:href="#DejaVuSans-67" x="2696.769531"/>
    <use xlink:href="#DejaVuSans-20" x="2760.246094"/>
    <use xlink:href="#DejaVuSans-73" x="2792.033203"/>
    <use xlink:href="#DejaVuSans-65" x="2844.132812"/>
    <use xlink:href="#DejaVuSans-6c" x="2905.65625"/>
    <use xlink:href="#DejaVuSans-65" x="2933.439453"/>
    <use xlink:href="#DejaVuSans-63" x="2994.962891"/>
    <use xlink:href="#DejaVuSans-74" x="3049.943359"/>
    <use xlink:href="#DejaVuSans-65" x="3089.152344"/>
    <use xlink:href="#DejaVuSans-64" x="3150.675781"/>
   </g>
   <!-- AI-related terms -->
   <g style="fill: #5d5a56" transform="translate(38.376 133.56) scale(0.155 -0.155)">
    <use xlink:href="#DejaVuSans-41"/>
    <use xlink:href="#DejaVuSans-49" x="68.408203"/>
    <use xlink:href="#DejaVuSans-2d" x="97.900391"/>
    <use xlink:href="#DejaVuSans-72" x="133.984375"/>
    <use xlink:href="#DejaVuSans-65" x="172.847656"/>
    <use xlink:href="#DejaVuSans-6c" x="234.371094"/>
    <use xlink:href="#DejaVuSans-61" x="262.154297"/>
    <use xlink:href="#DejaVuSans-74" x="323.433594"/>
    <use xlink:href="#DejaVuSans-65" x="362.642578"/>
    <use xlink:href="#DejaVuSans-64" x="424.166016"/>
    <use xlink:href="#DejaVuSans-20" x="487.642578"/>
    <use xlink:href="#DejaVuSans-74" x="519.429688"/>
    <use xlink:href="#DejaVuSans-65" x="558.638672"/>
    <use xlink:href="#DejaVuSans-72" x="620.162109"/>
    <use xlink:href="#DejaVuSans-6d" x="659.525391"/>
    <use xlink:href="#DejaVuSans-73" x="756.9375"/>
   </g>
  </g>
  <g id="text_17">
   <!-- Source: Frontier Graph screened corpus -->
   <g style="fill: #5d5a56" transform="translate(38.376 686.0751) scale(0.113 -0.113)">
    <defs>
     <path id="DejaVuSans-53" d="M 3425 4513 
L 3425 3897 
Q 3066 4069 2747 4153 
Q 2428 4238 2131 4238 
Q 1616 4238 1336 4038 
Q 1056 3838 1056 3469 
Q 1056 3159 1242 3001 
Q 1428 2844 1947 2747 
L 2328 2669 
Q 3034 2534 3370 2195 
Q 3706 1856 3706 1288 
Q 3706 609 3251 259 
Q 2797 -91 1919 -91 
Q 1588 -91 1214 -16 
Q 841 59 441 206 
L 441 856 
Q 825 641 1194 531 
Q 1563 422 1919 422 
Q 2459 422 2753 634 
Q 3047 847 3047 1241 
Q 3047 1584 2836 1778 
Q 2625 1972 2144 2069 
L 1759 2144 
Q 1053 2284 737 2584 
Q 422 2884 422 3419 
Q 422 4038 858 4394 
Q 1294 4750 2059 4750 
Q 2388 4750 2728 4690 
Q 3069 4631 3425 4513 
z
" transform="scale(0.015625)"/>
     <path id="DejaVuSans-3a" d="M 750 794 
L 1409 794 
L 1409 0 
L 750 0 
L 750 794 
z
M 750 3309 
L 1409 3309 
L 1409 2516 
L 750 2516 
L 750 3309 
z
" transform="scale(0.015625)"/>
     <path id="DejaVuSans-46" d="M 628 4666 
L 3309 4666 
L 3309 4134 
L 1259 4134 
L 1259 2759 
L 3109 2759 
L 3109 2228 
L 1259 2228 
L 1259 0 
L 628 0 
L 628 4666 
z
" transform="scale(0.015625)"/>
    </defs>
    <use xlink:href="#DejaVuSans-53"/>
    <use xlink:href="#DejaVuSans-6f" x="63.476562"/>
    <use xlink:href="#DejaVuSans-75" x="124.658203"/>
    <use xlink:href="#DejaVuSans-72" x="188.037109"/>
    <use xlink:href="#DejaVuSans-63" x="226.900391"/>
    <use xlink:href="#DejaVuSans-65" x="281.880859"/>
    <use xlink:href="#DejaVuSans-3a" x="343.404297"/>
    <use xlink:href="#DejaVuSans-20" x="377.095703"/>
    <use xlink:href="#DejaVuSans-46" x="408.882812"/>
    <use xlink:href="#DejaVuSans-72" x="459.152344"/>
    <use xlink:href="#DejaVuSans-6f" x="498.015625"/>
    <use xlink:href="#DejaVuSans-6e" x="559.197266"/>
    <use xlink:href="#DejaVuSans-74" x="622.576172"/>
    <use xlink:href="#DejaVuSans-69" x="661.785156"/>
    <use xlink:href="#DejaVuSans-65" x="689.568359"/>
    <use xlink:href="#DejaVuSans-72" x="751.091797"/>
    <use xlink:href="#DejaVuSans-20" x="792.205078"/>
    <use xlink:href="#DejaVuSans-47" x="823.992188"/>
    <use xlink:href="#DejaVuSans-72" x="901.482422"/>
    <use xlink:href="#DejaVuSans-61" x="942.595703"/>
    <use xlink:href="#DejaVuSans-70" x="1003.875"/>
    <use xlink:href="#DejaVuSans-68" x="1067.351562"/>
    <use xlink:href="#DejaVuSans-20" x="1130.730469"/>
    <use xlink:href="#DejaVuSans-73" x="1162.517578"/>
    <use xlink:href="#DejaVuSans-63" x="1214.617188"/>
    <use xlink:href="#DejaVuSans-72" x="1269.597656"/>
    <use xlink:href="#DejaVuSans-65" x="1308.460938"/>
    <use xlink:href="#DejaVuSans-65" x="1369.984375"/>
    <use xlink:href="#DejaVuSans-6e" x="1431.507812"/>
    <use xlink:href="#DejaVuSans-65" x="1494.886719"/>
    <use xlink:href="#DejaVuSans-64" x="1556.410156"/>
    <use xlink:href="#DejaVuSans-20" x="1619.886719"/>
    <use xlink:href="#DejaVuSans-63" x="1651.673828"/>
    <use xlink:href="#DejaVuSans-6f" x="1706.654297"/>
    <use xlink:href="#DejaVuSans-72" x="1767.835938"/>
    <use xlink:href="#DejaVuSans-70" x="1808.949219"/>
    <use xlink:href="#DejaVuSans-75" x="1872.425781"/>
    <use xlink:href="#DejaVuSans-73" x="1935.804688"/>
   </g>
   <!-- * Core and adjacent follow the project's published-journal bucket definitions. -->
   <g style="fill: #5d5a56" transform="translate(38.376 700.6176) scale(0.113 -0.113)">
    <defs>
     <path id="DejaVuSans-2a" d="M 3009 3897 
L 1888 3291 
L 3009 2681 
L 2828 2375 
L 1778 3009 
L 1778 1831 
L 1422 1831 
L 1422 3009 
L 372 2375 
L 191 2681 
L 1313 3291 
L 191 3897 
L 372 4206 
L 1422 3572 
L 1422 4750 
L 1778 4750 
L 1778 3572 
L 2828 4206 
L 3009 3897 
z
" transform="scale(0.015625)"/>
     <path id="DejaVuSans-77" d="M 269 3500 
L 844 3500 
L 1563 769 
L 2278 3500 
L 2956 3500 
L 3675 769 
L 4391 3500 
L 4966 3500 
L 4050 0 
L 3372 0 
L 2619 2869 
L 1863 0 
L 1184 0 
L 269 3500 
z
" transform="scale(0.015625)"/>
     <path id="DejaVuSans-27" d="M 1147 4666 
L 1147 2931 
L 616 2931 
L 616 4666 
L 1147 4666 
z
" transform="scale(0.015625)"/>
     <path id="DejaVuSans-6b" d="M 581 4863 
L 1159 4863 
L 1159 1991 
L 2875 3500 
L 3609 3500 
L 1753 1863 
L 3688 0 
L 2938 0 
L 1159 1709 
L 1159 0 
L 581 0 
L 581 4863 
z
" transform="scale(0.015625)"/>
     <path id="DejaVuSans-2e" d="M 684 794 
L 1344 794 
L 1344 0 
L 684 0 
L 684 794 
z
" transform="scale(0.015625)"/>
    </defs>
    <use xlink:href="#DejaVuSans-2a"/>
    <use xlink:href="#DejaVuSans-20" x="50"/>
    <use xlink:href="#DejaVuSans-43" x="81.787109"/>
    <use xlink:href="#DejaVuSans-6f" x="151.611328"/>
    <use xlink:href="#DejaVuSans-72" x="212.792969"/>
    <use xlink:href="#DejaVuSans-65" x="251.65625"/>
    <use xlink:href="#DejaVuSans-20" x="313.179688"/>
    <use xlink:href="#DejaVuSans-61" x="344.966797"/>
    <use xlink:href="#DejaVuSans-6e" x="406.246094"/>
    <use xlink:href="#DejaVuSans-64" x="469.625"/>
    <use xlink:href="#DejaVuSans-20" x="533.101562"/>
    <use xlink:href="#DejaVuSans-61" x="564.888672"/>
    <use xlink:href="#DejaVuSans-64" x="626.167969"/>
    <use xlink:href="#DejaVuSans-6a" x="689.644531"/>
    <use xlink:href="#DejaVuSans-61" x="717.427734"/>
    <use xlink:href="#DejaVuSans-63" x="778.707031"/>
    <use xlink:href="#DejaVuSans-65" x="833.6875"/>
    <use xlink:href="#DejaVuSans-6e" x="895.210938"/>
    <use xlink:href="#DejaVuSans-74" x="958.589844"/>
    <use xlink:href="#DejaVuSans-20" x="997.798828"/>
    <use xlink:href="#DejaVuSans-66" x="1029.585938"/>
    <use xlink:href="#DejaVuSans-6f" x="1064.791016"/>
    <use xlink:href="#DejaVuSans-6c" x="1125.972656"/>
    <use xlink:href="#DejaVuSans-6c" x="1153.755859"/>
    <use xlink:href="#DejaVuSans-6f" x="1181.539062"/>
    <use xlink:href="#DejaVuSans-77" x="1242.720703"/>
    <use xlink:href="#DejaVuSans-20" x="1324.507812"/>
    <use xlink:href="#DejaVuSans-74" x="1356.294922"/>
    <use xlink:href="#DejaVuSans-68" x="1395.503906"/>
    <use xlink:href="#DejaVuSans-65" x="1458.882812"/>
    <use xlink:href="#DejaVuSans-20" x="1520.40625"/>
    <use xlink:href="#DejaVuSans-70" x="1552.193359"/>
    <use xlink:href="#DejaVuSans-72" x="1615.669922"/>
    <use xlink:href="#DejaVuSans-6f" x="1654.533203"/>
    <use xlink:href="#DejaVuSans-6a" x="1715.714844"/>
    <use xlink:href="#DejaVuSans-65" x="1743.498047"/>
    <use xlink:href="#DejaVuSans-63" x="1805.021484"/>
    <use xlink:href="#DejaVuSans-74" x="1860.001953"/>
    <use xlink:href="#DejaVuSans-27" x="1899.210938"/>
    <use xlink:href="#DejaVuSans-73" x="1926.701172"/>
    <use xlink:href="#DejaVuSans-20" x="1978.800781"/>
    <use xlink:href="#DejaVuSans-70" x="2010.587891"/>
    <use xlink:href="#DejaVuSans-75" x="2074.064453"/>
    <use xlink:href="#DejaVuSans-62" x="2137.443359"/>
    <use xlink:href="#DejaVuSans-6c" x="2200.919922"/>
    <use xlink:href="#DejaVuSans-69" x="2228.703125"/>
    <use xlink:href="#DejaVuSans-73" x="2256.486328"/>
    <use xlink:href="#DejaVuSans-68" x="2308.585938"/>
    <use xlink:href="#DejaVuSans-65" x="2371.964844"/>
    <use xlink:href="#DejaVuSans-64" x="2433.488281"/>
    <use xlink:href="#DejaVuSans-2d" x="2496.964844"/>
    <use xlink:href="#DejaVuSans-6a" x="2533.048828"/>
    <use xlink:href="#DejaVuSans-6f" x="2560.832031"/>
    <use xlink:href="#DejaVuSans-75" x="2622.013672"/>
    <use xlink:href="#DejaVuSans-72" x="2685.392578"/>
    <use xlink:href="#DejaVuSans-6e" x="2724.755859"/>
    <use xlink:href="#DejaVuSans-61" x="2788.134766"/>
    <use xlink:href="#DejaVuSans-6c" x="2849.414062"/>
    <use xlink:href="#DejaVuSans-20" x="2877.197266"/>
    <use xlink:href="#DejaVuSans-62" x="2908.984375"/>
    <use xlink:href="#DejaVuSans-75" x="2972.460938"/>
    <use xlink:href="#DejaVuSans-63" x="3035.839844"/>
    <use xlink:href="#DejaVuSans-6b" x="3090.820312"/>
    <use xlink:href="#DejaVuSans-65" x="3145.105469"/>
    <use xlink:href="#DejaVuSans-74" x="3206.628906"/>
    <use xlink:href="#DejaVuSans-20" x="3245.837891"/>
    <use xlink:href="#DejaVuSans-64" x="3277.625"/>
    <use xlink:href="#DejaVuSans-65" x="3341.101562"/>
    <use xlink:href="#DejaVuSans-66" x="3402.625"/>
    <use xlink:href="#DejaVuSans-69" x="3437.830078"/>
    <use xlink:href="#DejaVuSans-6e" x="3465.613281"/>
    <use xlink:href="#DejaVuSans-69" x="3528.992188"/>
    <use xlink:href="#DejaVuSans-74" x="3556.775391"/>
    <use xlink:href="#DejaVuSans-69" x="3595.984375"/>
    <use xlink:href="#DejaVuSans-6f" x="3623.767578"/>
    <use xlink:href="#DejaVuSans-6e" x="3684.949219"/>
    <use xlink:href="#DejaVuSans-73" x="3748.328125"/>
    <use xlink:href="#DejaVuSans-2e" x="3800.427734"/>
   </g>
  </g>
 </g>
 <defs>
  <clipPath id="p740ed57db2">
   <rect x="70.848" y="183.168" width="425.088" height="400.68"/>
  </clipPath>
 </defs>
</svg>
