<?xml version="1.0" encoding="utf-8" standalone="no"?>
<!DOCTYPE svg PUBLIC "-//W3C//DTD SVG 1.1//EN"
  "http://www.w3.org/Graphics/SVG/1.1/DTD/svg11.dtd">
<svg xmlns:xlink="http://www.w3.org/1999/xlink" width="878.4pt" height="806.4pt" viewBox="0 0 878.4 806.4" xmlns="http://www.w3.org/2000/svg" version="1.1">
 <metadata>
  <rdf:RDF xmlns:dc="http://purl.org/dc/elements/1.1/" xmlns:cc="http://creativecommons.org/ns#" xmlns:rdf="http://www.w3.org/1999/02/22-rdf-syntax-ns#">
   <cc:Work>
    <dc:type rdf:resource="http://purl.org/dc/dcmitype/StillImage"/>
    <dc:date>2026-03-19T19:17:20.825511</dc:date>
    <dc:format>image/svg+xml</dc:format>
    <dc:creator>
     <cc:Agent>
      <dc:title>Matplotlib v3.9.4, https://matplotlib.org/</dc:title>
     </cc:Agent>
    </dc:creator>
   </cc:Work>
  </rdf:RDF>
 </metadata>
 <defs>
  <style type="text/css">*{stroke-linejoin: round; stroke-linecap: butt}</style>
 </defs>
 <g id="figure_1">
  <g id="patch_1">
   <path d="M 0 806.4 
L 878.4 806.4 
L 878.4 0 
L 0 0 
z
" style="fill: #f4f8fb"/>
  </g>
  <g id="axes_1">
   <g id="patch_2">
    <path d="M 70.272 289.433784 
L 424.855486 289.433784 
L 424.855486 209.664 
L 70.272 209.664 
z
" style="fill: #ffffff"/>
   </g>
   <g id="line2d_1">
    <path d="M 323.358262 289.433784 
L 323.358262 209.664 
" clip-path="url(#p6ffef12a3f)" style="fill: none; stroke-dasharray: 2.4,2.4; stroke-dashoffset: 0; stroke: #8396a8; stroke-width: 1.2"/>
   </g>
   <g id="matplotlib.axis_1">
    <g id="xtick_1">
     <g id="line2d_2"/>
     <g id="text_1">
      <!-- 2016 -->
      <g style="fill: #627588" transform="translate(90.783682 299.772378) scale(0.09 -0.09)">
       <defs>
        <path id="DejaVuSans-32" d="M 1228 531 
L 3431 531 
L 3431 0 
L 469 0 
L 469 531 
Q 828 903 1448 1529 
Q 2069 2156 2228 2338 
Q 2531 2678 2651 2914 
Q 2772 3150 2772 3378 
Q 2772 3750 2511 3984 
Q 2250 4219 1831 4219 
Q 1534 4219 1204 4116 
Q 875 4013 500 3803 
L 500 4441 
Q 881 4594 1212 4672 
Q 1544 4750 1819 4750 
Q 2544 4750 2975 4387 
Q 3406 4025 3406 3419 
Q 3406 3131 3298 2873 
Q 3191 2616 2906 2266 
Q 2828 2175 2409 1742 
Q 1991 1309 1228 531 
z
" transform="scale(0.015625)"/>
        <path id="DejaVuSans-30" d="M 2034 4250 
Q 1547 4250 1301 3770 
Q 1056 3291 1056 2328 
Q 1056 1369 1301 889 
Q 1547 409 2034 409 
Q 2525 409 2770 889 
Q 3016 1369 3016 2328 
Q 3016 3291 2770 3770 
Q 2525 4250 2034 4250 
z
M 2034 4750 
Q 2819 4750 3233 4129 
Q 3647 3509 3647 2328 
Q 3647 1150 3233 529 
Q 2819 -91 2034 -91 
Q 1250 -91 836 529 
Q 422 1150 422 2328 
Q 422 3509 836 4129 
Q 1250 4750 2034 4750 
z
" transform="scale(0.015625)"/>
        <path id="DejaVuSans-31" d="M 794 531 
L 1825 531 
L 1825 4091 
L 703 3866 
L 703 4441 
L 1819 4666 
L 2450 4666 
L 2450 531 
L 3481 531 
L 3481 0 
L 794 0 
L 794 531 
z
" transform="scale(0.015625)"/>
        <path id="DejaVuSans-36" d="M 2113 2584 
Q 1688 2584 1439 2293 
Q 1191 2003 1191 1497 
Q 1191 994 1439 701 
Q 1688 409 2113 409 
Q 2538 409 2786 701 
Q 3034 994 3034 1497 
Q 3034 2003 2786 2293 
Q 2538 2584 2113 2584 
z
M 3366 4563 
L 3366 3988 
Q 3128 4100 2886 4159 
Q 2644 4219 2406 4219 
Q 1781 4219 1451 3797 
Q 1122 3375 1075 2522 
Q 1259 2794 1537 2939 
Q 1816 3084 2150 3084 
Q 2853 3084 3261 2657 
Q 3669 2231 3669 1497 
Q 3669 778 3244 343 
Q 2819 -91 2113 -91 
Q 1303 -91 875 529 
Q 447 1150 447 2328 
Q 447 3434 972 4092 
Q 1497 4750 2381 4750 
Q 2619 4750 2861 4703 
Q 3103 4656 3366 4563 
z
" transform="scale(0.015625)"/>
       </defs>
       <use xlink:href="#DejaVuSans-32"/>
       <use xlink:href="#DejaVuSans-30" x="63.623047"/>
       <use xlink:href="#DejaVuSans-31" x="127.246094"/>
       <use xlink:href="#DejaVuSans-36" x="190.869141"/>
      </g>
     </g>
    </g>
    <g id="xtick_2">
     <g id="line2d_3"/>
     <g id="text_2">
      <!-- 2020 -->
      <g style="fill: #627588" transform="translate(218.727983 299.772378) scale(0.09 -0.09)">
       <use xlink:href="#DejaVuSans-32"/>
       <use xlink:href="#DejaVuSans-30" x="63.623047"/>
       <use xlink:href="#DejaVuSans-32" x="127.246094"/>
       <use xlink:href="#DejaVuSans-30" x="190.869141"/>
      </g>
     </g>
    </g>
    <g id="xtick_3">
     <g id="line2d_4"/>
     <g id="text_3">
      <!-- 2024 -->
      <g style="fill: #627588" transform="translate(346.672283 299.772378) scale(0.09 -0.09)">
       <defs>
        <path id="DejaVuSans-34" d="M 2419 4116 
L 825 1625 
L 2419 1625 
L 2419 4116 
z
M 2253 4666 
L 3047 4666 
L 3047 1625 
L 3713 1625 
L 3713 1100 
L 3047 1100 
L 3047 0 
L 2419 0 
L 2419 1100 
L 313 1100 
L 313 1709 
L 2253 4666 
z
" transform="scale(0.015625)"/>
       </defs>
       <use xlink:href="#DejaVuSans-32"/>
       <use xlink:href="#DejaVuSans-30" x="63.623047"/>
       <use xlink:href="#DejaVuSans-32" x="127.246094"/>
       <use xlink:href="#DejaVuSans-34" x="190.869141"/>
      </g>
     </g>
    </g>
   </g>
   <g id="matplotlib.axis_2">
    <g id="ytick_1">
     <g id="line2d_5">
      <path d="M 70.272 289.433784 
L 424.855486 289.433784 
" clip-path="url(#p6ffef12a3f)" style="fill: none; stroke: #d8e3ec; stroke-width: 0.85; stroke-linecap: square"/>
     </g>
     <g id="line2d_6"/>
     <g id="text_4">
      <!-- 0 -->
      <g style="fill: #627588" transform="translate(61.04575 292.853081) scale(0.09 -0.09)">
       <use xlink:href="#DejaVuSans-30"/>
      </g>
     </g>
    </g>
    <g id="ytick_2">
     <g id="line2d_7">
      <path d="M 70.272 266.647982 
L 424.855486 266.647982 
" clip-path="url(#p6ffef12a3f)" style="fill: none; stroke: #d8e3ec; stroke-width: 0.85; stroke-linecap: square"/>
     </g>
     <g id="line2d_8"/>
     <g id="text_5">
      <!-- 2 -->
      <g style="fill: #627588" transform="translate(61.04575 270.067278) scale(0.09 -0.09)">
       <use xlink:href="#DejaVuSans-32"/>
      </g>
     </g>
    </g>
    <g id="ytick_3">
     <g id="line2d_9">
      <path d="M 70.272 243.862179 
L 424.855486 243.862179 
" clip-path="url(#p6ffef12a3f)" style="fill: none; stroke: #d8e3ec; stroke-width: 0.85; stroke-linecap: square"/>
     </g>
     <g id="line2d_10"/>
     <g id="text_6">
      <!-- 5 -->
      <g style="fill: #627588" transform="translate(61.04575 247.281476) scale(0.09 -0.09)">
       <defs>
        <path id="DejaVuSans-35" d="M 691 4666 
L 3169 4666 
L 3169 4134 
L 1269 4134 
L 1269 2991 
Q 1406 3038 1543 3061 
Q 1681 3084 1819 3084 
Q 2600 3084 3056 2656 
Q 3513 2228 3513 1497 
Q 3513 744 3044 326 
Q 2575 -91 1722 -91 
Q 1428 -91 1123 -41 
Q 819 9 494 109 
L 494 744 
Q 775 591 1075 516 
Q 1375 441 1709 441 
Q 2250 441 2565 725 
Q 2881 1009 2881 1497 
Q 2881 1984 2565 2268 
Q 2250 2553 1709 2553 
Q 1456 2553 1204 2497 
Q 953 2441 691 2322 
L 691 4666 
z
" transform="scale(0.015625)"/>
       </defs>
       <use xlink:href="#DejaVuSans-35"/>
      </g>
     </g>
    </g>
    <g id="ytick_4">
     <g id="line2d_11">
      <path d="M 70.272 221.076376 
L 424.855486 221.076376 
" clip-path="url(#p6ffef12a3f)" style="fill: none; stroke: #d8e3ec; stroke-width: 0.85; stroke-linecap: square"/>
     </g>
     <g id="line2d_12"/>
     <g id="text_7">
      <!-- 8 -->
      <g style="fill: #627588" transform="translate(61.04575 224.495673) scale(0.09 -0.09)">
       <defs>
        <path id="DejaVuSans-38" d="M 2034 2216 
Q 1584 2216 1326 1975 
Q 1069 1734 1069 1313 
Q 1069 891 1326 650 
Q 1584 409 2034 409 
Q 2484 409 2743 651 
Q 3003 894 3003 1313 
Q 3003 1734 2745 1975 
Q 2488 2216 2034 2216 
z
M 1403 2484 
Q 997 2584 770 2862 
Q 544 3141 544 3541 
Q 544 4100 942 4425 
Q 1341 4750 2034 4750 
Q 2731 4750 3128 4425 
Q 3525 4100 3525 3541 
Q 3525 3141 3298 2862 
Q 3072 2584 2669 2484 
Q 3125 2378 3379 2068 
Q 3634 1759 3634 1313 
Q 3634 634 3220 271 
Q 2806 -91 2034 -91 
Q 1263 -91 848 271 
Q 434 634 434 1313 
Q 434 1759 690 2068 
Q 947 2378 1403 2484 
z
M 1172 3481 
Q 1172 3119 1398 2916 
Q 1625 2713 2034 2713 
Q 2441 2713 2670 2916 
Q 2900 3119 2900 3481 
Q 2900 3844 2670 4047 
Q 2441 4250 2034 4250 
Q 1625 4250 1398 4047 
Q 1172 3844 1172 3481 
z
" transform="scale(0.015625)"/>
       </defs>
       <use xlink:href="#DejaVuSans-38"/>
      </g>
     </g>
    </g>
   </g>
   <g id="patch_3">
    <path d="M 70.272 289.433784 
L 424.855486 289.433784 
" style="fill: none; stroke: #93a6b8; stroke-linejoin: miter; stroke-linecap: square"/>
   </g>
   <g id="line2d_13">
    <path d="M 70.272 289.433784 
L 208.725073 289.433784 
L 211.439839 281.838517 
L 216.781798 281.838517 
L 219.496564 277.091474 
L 222.123757 277.091474 
L 224.838523 271.666283 
L 240.776828 271.666283 
L 243.491594 279.261551 
L 248.833553 279.261551 
L 251.548319 284.008593 
L 254.175512 284.008593 
L 256.890278 289.433784 
L 264.947004 289.433784 
L 267.399051 283.591271 
L 288.85446 283.591271 
L 291.481653 278.527759 
L 296.911186 278.527759 
L 299.363232 284.370272 
L 302.077999 280.753478 
L 304.705192 276.285674 
L 326.160601 276.285674 
L 328.875367 269.380885 
L 331.327414 262.476097 
L 334.04218 266.092891 
L 336.669373 270.560695 
L 347.440865 270.560695 
L 350.068058 266.341102 
L 352.782824 266.341102 
L 355.410017 271.404614 
L 358.124783 263.809346 
L 360.839549 270.714135 
L 363.379169 271.77641 
L 376.777854 271.77641 
L 379.49262 267.556817 
L 382.119813 271.77641 
L 384.834579 271.77641 
L 387.461772 252.788241 
L 390.176538 260.383509 
L 395.343351 260.383509 
L 398.058117 255.319997 
L 403.400076 232.242069 
L 406.02727 228.022476 
L 408.742036 222.958964 
L 411.456802 227.178557 
L 416.798761 227.178557 
L 419.425954 246.166726 
L 424.855486 246.166726 
L 424.855486 246.166726 
" clip-path="url(#p6ffef12a3f)" style="fill: none; stroke: #24539a; stroke-width: 2.6; stroke-linecap: square"/>
   </g>
   <g id="text_8">
    <!-- Labour -->
    <g style="fill: #18324a" transform="translate(70.272 197.450423) scale(0.127 -0.127)">
     <defs>
      <path id="DejaVuSans-4c" d="M 628 4666 
L 1259 4666 
L 1259 531 
L 3531 531 
L 3531 0 
L 628 0 
L 628 4666 
z
" transform="scale(0.015625)"/>
      <path id="DejaVuSans-61" d="M 2194 1759 
Q 1497 1759 1228 1600 
Q 959 1441 959 1056 
Q 959 750 1161 570 
Q 1363 391 1709 391 
Q 2188 391 2477 730 
Q 2766 1069 2766 1631 
L 2766 1759 
L 2194 1759 
z
M 3341 1997 
L 3341 0 
L 2766 0 
L 2766 531 
Q 2569 213 2275 61 
Q 1981 -91 1556 -91 
Q 1019 -91 701 211 
Q 384 513 384 1019 
Q 384 1609 779 1909 
Q 1175 2209 1959 2209 
L 2766 2209 
L 2766 2266 
Q 2766 2663 2505 2880 
Q 2244 3097 1772 3097 
Q 1472 3097 1187 3025 
Q 903 2953 641 2809 
L 641 3341 
Q 956 3463 1253 3523 
Q 1550 3584 1831 3584 
Q 2591 3584 2966 3190 
Q 3341 2797 3341 1997 
z
" transform="scale(0.015625)"/>
      <path id="DejaVuSans-62" d="M 3116 1747 
Q 3116 2381 2855 2742 
Q 2594 3103 2138 3103 
Q 1681 3103 1420 2742 
Q 1159 2381 1159 1747 
Q 1159 1113 1420 752 
Q 1681 391 2138 391 
Q 2594 391 2855 752 
Q 3116 1113 3116 1747 
z
M 1159 2969 
Q 1341 3281 1617 3432 
Q 1894 3584 2278 3584 
Q 2916 3584 3314 3078 
Q 3713 2572 3713 1747 
Q 3713 922 3314 415 
Q 2916 -91 2278 -91 
Q 1894 -91 1617 61 
Q 1341 213 1159 525 
L 1159 0 
L 581 0 
L 581 4863 
L 1159 4863 
L 1159 2969 
z
" transform="scale(0.015625)"/>
      <path id="DejaVuSans-6f" d="M 1959 3097 
Q 1497 3097 1228 2736 
Q 959 2375 959 1747 
Q 959 1119 1226 758 
Q 1494 397 1959 397 
Q 2419 397 2687 759 
Q 2956 1122 2956 1747 
Q 2956 2369 2687 2733 
Q 2419 3097 1959 3097 
z
M 1959 3584 
Q 2709 3584 3137 3096 
Q 3566 2609 3566 1747 
Q 3566 888 3137 398 
Q 2709 -91 1959 -91 
Q 1206 -91 779 398 
Q 353 888 353 1747 
Q 353 2609 779 3096 
Q 1206 3584 1959 3584 
z
" transform="scale(0.015625)"/>
      <path id="DejaVuSans-75" d="M 544 1381 
L 544 3500 
L 1119 3500 
L 1119 1403 
Q 1119 906 1312 657 
Q 1506 409 1894 409 
Q 2359 409 2629 706 
Q 2900 1003 2900 1516 
L 2900 3500 
L 3475 3500 
L 3475 0 
L 2900 0 
L 2900 538 
Q 2691 219 2414 64 
Q 2138 -91 1772 -91 
Q 1169 -91 856 284 
Q 544 659 544 1381 
z
M 1991 3584 
L 1991 3584 
z
" transform="scale(0.015625)"/>
      <path id="DejaVuSans-72" d="M 2631 2963 
Q 2534 3019 2420 3045 
Q 2306 3072 2169 3072 
Q 1681 3072 1420 2755 
Q 1159 2438 1159 1844 
L 1159 0 
L 581 0 
L 581 3500 
L 1159 3500 
L 1159 2956 
Q 1341 3275 1631 3429 
Q 1922 3584 2338 3584 
Q 2397 3584 2469 3576 
Q 2541 3569 2628 3553 
L 2631 2963 
z
" transform="scale(0.015625)"/>
     </defs>
     <use xlink:href="#DejaVuSans-4c"/>
     <use xlink:href="#DejaVuSans-61" x="55.712891"/>
     <use xlink:href="#DejaVuSans-62" x="116.992188"/>
     <use xlink:href="#DejaVuSans-6f" x="180.46875"/>
     <use xlink:href="#DejaVuSans-75" x="241.650391"/>
     <use xlink:href="#DejaVuSans-72" x="305.029297"/>
    </g>
   </g>
   <g id="text_9">
    <!-- 5,697 papers -->
    <g style="fill: #627588" transform="translate(70.272 204.161047) scale(0.092 -0.092)">
     <defs>
      <path id="DejaVuSans-2c" d="M 750 794 
L 1409 794 
L 1409 256 
L 897 -744 
L 494 -744 
L 750 256 
L 750 794 
z
" transform="scale(0.015625)"/>
      <path id="DejaVuSans-39" d="M 703 97 
L 703 672 
Q 941 559 1184 500 
Q 1428 441 1663 441 
Q 2288 441 2617 861 
Q 2947 1281 2994 2138 
Q 2813 1869 2534 1725 
Q 2256 1581 1919 1581 
Q 1219 1581 811 2004 
Q 403 2428 403 3163 
Q 403 3881 828 4315 
Q 1253 4750 1959 4750 
Q 2769 4750 3195 4129 
Q 3622 3509 3622 2328 
Q 3622 1225 3098 567 
Q 2575 -91 1691 -91 
Q 1453 -91 1209 -44 
Q 966 3 703 97 
z
M 1959 2075 
Q 2384 2075 2632 2365 
Q 2881 2656 2881 3163 
Q 2881 3666 2632 3958 
Q 2384 4250 1959 4250 
Q 1534 4250 1286 3958 
Q 1038 3666 1038 3163 
Q 1038 2656 1286 2365 
Q 1534 2075 1959 2075 
z
" transform="scale(0.015625)"/>
      <path id="DejaVuSans-37" d="M 525 4666 
L 3525 4666 
L 3525 4397 
L 1831 0 
L 1172 0 
L 2766 4134 
L 525 4134 
L 525 4666 
z
" transform="scale(0.015625)"/>
      <path id="DejaVuSans-20" transform="scale(0.015625)"/>
      <path id="DejaVuSans-70" d="M 1159 525 
L 1159 -1331 
L 581 -1331 
L 581 3500 
L 1159 3500 
L 1159 2969 
Q 1341 3281 1617 3432 
Q 1894 3584 2278 3584 
Q 2916 3584 3314 3078 
Q 3713 2572 3713 1747 
Q 3713 922 3314 415 
Q 2916 -91 2278 -91 
Q 1894 -91 1617 61 
Q 1341 213 1159 525 
z
M 3116 1747 
Q 3116 2381 2855 2742 
Q 2594 3103 2138 3103 
Q 1681 3103 1420 2742 
Q 1159 2381 1159 1747 
Q 1159 1113 1420 752 
Q 1681 391 2138 391 
Q 2594 391 2855 752 
Q 3116 1113 3116 1747 
z
" transform="scale(0.015625)"/>
      <path id="DejaVuSans-65" d="M 3597 1894 
L 3597 1613 
L 953 1613 
Q 991 1019 1311 708 
Q 1631 397 2203 397 
Q 2534 397 2845 478 
Q 3156 559 3463 722 
L 3463 178 
Q 3153 47 2828 -22 
Q 2503 -91 2169 -91 
Q 1331 -91 842 396 
Q 353 884 353 1716 
Q 353 2575 817 3079 
Q 1281 3584 2069 3584 
Q 2775 3584 3186 3129 
Q 3597 2675 3597 1894 
z
M 3022 2063 
Q 3016 2534 2758 2815 
Q 2500 3097 2075 3097 
Q 1594 3097 1305 2825 
Q 1016 2553 972 2059 
L 3022 2063 
z
" transform="scale(0.015625)"/>
      <path id="DejaVuSans-73" d="M 2834 3397 
L 2834 2853 
Q 2591 2978 2328 3040 
Q 2066 3103 1784 3103 
Q 1356 3103 1142 2972 
Q 928 2841 928 2578 
Q 928 2378 1081 2264 
Q 1234 2150 1697 2047 
L 1894 2003 
Q 2506 1872 2764 1633 
Q 3022 1394 3022 966 
Q 3022 478 2636 193 
Q 2250 -91 1575 -91 
Q 1294 -91 989 -36 
Q 684 19 347 128 
L 347 722 
Q 666 556 975 473 
Q 1284 391 1588 391 
Q 1994 391 2212 530 
Q 2431 669 2431 922 
Q 2431 1156 2273 1281 
Q 2116 1406 1581 1522 
L 1381 1569 
Q 847 1681 609 1914 
Q 372 2147 372 2553 
Q 372 3047 722 3315 
Q 1072 3584 1716 3584 
Q 2034 3584 2315 3537 
Q 2597 3491 2834 3397 
z
" transform="scale(0.015625)"/>
     </defs>
     <use xlink:href="#DejaVuSans-35"/>
     <use xlink:href="#DejaVuSans-2c" x="63.623047"/>
     <use xlink:href="#DejaVuSans-36" x="95.410156"/>
     <use xlink:href="#DejaVuSans-39" x="159.033203"/>
     <use xlink:href="#DejaVuSans-37" x="222.65625"/>
     <use xlink:href="#DejaVuSans-20" x="286.279297"/>
     <use xlink:href="#DejaVuSans-70" x="318.066406"/>
     <use xlink:href="#DejaVuSans-61" x="381.542969"/>
     <use xlink:href="#DejaVuSans-70" x="442.822266"/>
     <use xlink:href="#DejaVuSans-65" x="506.298828"/>
     <use xlink:href="#DejaVuSans-72" x="567.822266"/>
     <use xlink:href="#DejaVuSans-73" x="608.935547"/>
    </g>
   </g>
  </g>
  <g id="axes_2">
   <g id="patch_4">
    <path d="M 488.680514 289.433784 
L 843.264 289.433784 
L 843.264 209.664 
L 488.680514 209.664 
z
" style="fill: #ffffff"/>
   </g>
   <g id="line2d_14">
    <path d="M 741.766776 289.433784 
L 741.766776 209.664 
" clip-path="url(#p1bdd9746f3)" style="fill: none; stroke-dasharray: 2.4,2.4; stroke-dashoffset: 0; stroke: #8396a8; stroke-width: 1.2"/>
   </g>
   <g id="matplotlib.axis_3">
    <g id="xtick_4">
     <g id="line2d_15"/>
     <g id="text_10">
      <!-- 2016 -->
      <g style="fill: #627588" transform="translate(509.192196 299.772378) scale(0.09 -0.09)">
       <use xlink:href="#DejaVuSans-32"/>
       <use xlink:href="#DejaVuSans-30" x="63.623047"/>
       <use xlink:href="#DejaVuSans-31" x="127.246094"/>
       <use xlink:href="#DejaVuSans-36" x="190.869141"/>
      </g>
     </g>
    </g>
    <g id="xtick_5">
     <g id="line2d_16"/>
     <g id="text_11">
      <!-- 2020 -->
      <g style="fill: #627588" transform="translate(637.136496 299.772378) scale(0.09 -0.09)">
       <use xlink:href="#DejaVuSans-32"/>
       <use xlink:href="#DejaVuSans-30" x="63.623047"/>
       <use xlink:href="#DejaVuSans-32" x="127.246094"/>
       <use xlink:href="#DejaVuSans-30" x="190.869141"/>
      </g>
     </g>
    </g>
    <g id="xtick_6">
     <g id="line2d_17"/>
     <g id="text_12">
      <!-- 2024 -->
      <g style="fill: #627588" transform="translate(765.080797 299.772378) scale(0.09 -0.09)">
       <use xlink:href="#DejaVuSans-32"/>
       <use xlink:href="#DejaVuSans-30" x="63.623047"/>
       <use xlink:href="#DejaVuSans-32" x="127.246094"/>
       <use xlink:href="#DejaVuSans-34" x="190.869141"/>
      </g>
     </g>
    </g>
   </g>
   <g id="matplotlib.axis_4">
    <g id="ytick_5">
     <g id="line2d_18">
      <path d="M 488.680514 289.433784 
L 843.264 289.433784 
" clip-path="url(#p1bdd9746f3)" style="fill: none; stroke: #d8e3ec; stroke-width: 0.85; stroke-linecap: square"/>
     </g>
     <g id="line2d_19"/>
     <g id="text_13">
      <!-- 0 -->
      <g style="fill: #627588" transform="translate(479.454264 292.853081) scale(0.09 -0.09)">
       <use xlink:href="#DejaVuSans-30"/>
      </g>
     </g>
    </g>
    <g id="ytick_6">
     <g id="line2d_20">
      <path d="M 488.680514 266.647982 
L 843.264 266.647982 
" clip-path="url(#p1bdd9746f3)" style="fill: none; stroke: #d8e3ec; stroke-width: 0.85; stroke-linecap: square"/>
     </g>
     <g id="line2d_21"/>
     <g id="text_14">
      <!-- 2 -->
      <g style="fill: #627588" transform="translate(479.454264 270.067278) scale(0.09 -0.09)">
       <use xlink:href="#DejaVuSans-32"/>
      </g>
     </g>
    </g>
    <g id="ytick_7">
     <g id="line2d_22">
      <path d="M 488.680514 243.862179 
L 843.264 243.862179 
" clip-path="url(#p1bdd9746f3)" style="fill: none; stroke: #d8e3ec; stroke-width: 0.85; stroke-linecap: square"/>
     </g>
     <g id="line2d_23"/>
     <g id="text_15">
      <!-- 5 -->
      <g style="fill: #627588" transform="translate(479.454264 247.281476) scale(0.09 -0.09)">
       <use xlink:href="#DejaVuSans-35"/>
      </g>
     </g>
    </g>
    <g id="ytick_8">
     <g id="line2d_24">
      <path d="M 488.680514 221.076376 
L 843.264 221.076376 
" clip-path="url(#p1bdd9746f3)" style="fill: none; stroke: #d8e3ec; stroke-width: 0.85; stroke-linecap: square"/>
     </g>
     <g id="line2d_25"/>
     <g id="text_16">
      <!-- 8 -->
      <g style="fill: #627588" transform="translate(479.454264 224.495673) scale(0.09 -0.09)">
       <use xlink:href="#DejaVuSans-38"/>
      </g>
     </g>
    </g>
   </g>
   <g id="patch_5">
    <path d="M 488.680514 289.433784 
L 843.264 289.433784 
" style="fill: none; stroke: #93a6b8; stroke-linejoin: miter; stroke-linecap: square"/>
   </g>
   <g id="line2d_26">
    <path d="M 488.680514 287.883575 
L 491.39528 288.821263 
L 499.189286 288.821263 
L 501.904052 287.859836 
L 509.960777 287.859836 
L 515.302736 285.716498 
L 517.92993 284.547995 
L 520.644696 284.838683 
L 523.359462 284.838683 
L 525.899082 284.071484 
L 531.241041 284.071484 
L 533.955807 285.032911 
L 542.012532 285.032911 
L 544.639725 285.276281 
L 547.354491 286.393232 
L 549.981685 286.535347 
L 552.696451 285.591303 
L 555.411217 285.591303 
L 557.863264 286.358501 
L 568.547182 286.358501 
L 571.261948 285.495403 
L 573.976714 285.495403 
L 576.603907 286.27842 
L 579.318673 286.27842 
L 581.945866 287.304808 
L 584.660633 287.020631 
L 587.375399 286.382373 
L 589.827445 285.072844 
L 592.542212 284.228926 
L 600.511364 284.228926 
L 603.22613 285.092024 
L 605.940896 284.340018 
L 608.568089 282.559877 
L 613.910048 281.052168 
L 616.624814 282.602223 
L 619.339581 283.240481 
L 621.791627 284.55001 
L 624.506394 284.771365 
L 627.133587 284.258172 
L 629.848353 283.527857 
L 632.475546 282.331752 
L 635.190312 282.331752 
L 637.905078 283.083759 
L 640.532271 284.8639 
L 643.247037 285.120196 
L 645.87423 285.83673 
L 648.588996 284.921638 
L 651.303762 284.2118 
L 653.843382 282.996557 
L 656.558149 282.881715 
L 659.185342 282.49071 
L 661.900108 282.645625 
L 664.527301 283.354854 
L 667.242067 281.845861 
L 669.956833 281.037854 
L 675.298792 280.99294 
L 677.925985 280.543516 
L 680.640751 281.458609 
L 685.807564 280.731586 
L 688.52233 281.468991 
L 691.149523 281.565182 
L 696.491483 281.043742 
L 701.921015 280.836579 
L 704.548208 280.836579 
L 707.262974 280.581725 
L 712.604933 279.190363 
L 715.319699 279.76692 
L 717.771746 281.349267 
L 720.486512 280.917718 
L 723.113705 279.975664 
L 725.828471 280.829064 
L 728.455664 279.631646 
L 731.170431 280.946717 
L 733.885197 278.501416 
L 736.51239 276.593057 
L 739.227156 276.772937 
L 741.854349 275.698184 
L 744.569115 275.177416 
L 747.283881 274.471363 
L 749.735928 272.725324 
L 752.450694 271.058733 
L 755.077887 271.342527 
L 757.792653 268.925851 
L 760.419846 269.867185 
L 763.134613 269.075249 
L 765.849379 271.706215 
L 768.476572 269.837922 
L 773.818531 267.153501 
L 776.533297 265.939765 
L 779.248063 267.139018 
L 781.787683 268.885056 
L 784.502449 270.983196 
L 787.129642 272.449464 
L 789.844408 274.86614 
L 792.471601 272.054905 
L 795.186368 273.182915 
L 797.901134 273.870269 
L 800.528327 277.646922 
L 803.243093 279.710853 
L 805.870286 278.926306 
L 808.585052 281.416557 
L 811.299818 278.495301 
L 821.80859 278.495301 
L 824.435783 282.292934 
L 835.207275 282.292934 
L 837.834468 286.512527 
L 840.549234 286.512527 
L 843.264 289.433784 
L 843.264 289.433784 
" clip-path="url(#p1bdd9746f3)" style="fill: none; stroke: #24539a; stroke-width: 2.6; stroke-linecap: square"/>
   </g>
   <g id="text_17">
    <!-- Macro -->
    <g style="fill: #18324a" transform="translate(488.680514 197.450423) scale(0.127 -0.127)">
     <defs>
      <path id="DejaVuSans-4d" d="M 628 4666 
L 1569 4666 
L 2759 1491 
L 3956 4666 
L 4897 4666 
L 4897 0 
L 4281 0 
L 4281 4097 
L 3078 897 
L 2444 897 
L 1241 4097 
L 1241 0 
L 628 0 
L 628 4666 
z
" transform="scale(0.015625)"/>
      <path id="DejaVuSans-63" d="M 3122 3366 
L 3122 2828 
Q 2878 2963 2633 3030 
Q 2388 3097 2138 3097 
Q 1578 3097 1268 2742 
Q 959 2388 959 1747 
Q 959 1106 1268 751 
Q 1578 397 2138 397 
Q 2388 397 2633 464 
Q 2878 531 3122 666 
L 3122 134 
Q 2881 22 2623 -34 
Q 2366 -91 2075 -91 
Q 1284 -91 818 406 
Q 353 903 353 1747 
Q 353 2603 823 3093 
Q 1294 3584 2113 3584 
Q 2378 3584 2631 3529 
Q 2884 3475 3122 3366 
z
" transform="scale(0.015625)"/>
     </defs>
     <use xlink:href="#DejaVuSans-4d"/>
     <use xlink:href="#DejaVuSans-61" x="86.279297"/>
     <use xlink:href="#DejaVuSans-63" x="147.558594"/>
     <use xlink:href="#DejaVuSans-72" x="202.539062"/>
     <use xlink:href="#DejaVuSans-6f" x="241.402344"/>
    </g>
   </g>
   <g id="text_18">
    <!-- 41,535 papers -->
    <g style="fill: #627588" transform="translate(488.680514 204.161047) scale(0.092 -0.092)">
     <defs>
      <path id="DejaVuSans-33" d="M 2597 2516 
Q 3050 2419 3304 2112 
Q 3559 1806 3559 1356 
Q 3559 666 3084 287 
Q 2609 -91 1734 -91 
Q 1441 -91 1130 -33 
Q 819 25 488 141 
L 488 750 
Q 750 597 1062 519 
Q 1375 441 1716 441 
Q 2309 441 2620 675 
Q 2931 909 2931 1356 
Q 2931 1769 2642 2001 
Q 2353 2234 1838 2234 
L 1294 2234 
L 1294 2753 
L 1863 2753 
Q 2328 2753 2575 2939 
Q 2822 3125 2822 3475 
Q 2822 3834 2567 4026 
Q 2313 4219 1838 4219 
Q 1578 4219 1281 4162 
Q 984 4106 628 3988 
L 628 4550 
Q 988 4650 1302 4700 
Q 1616 4750 1894 4750 
Q 2613 4750 3031 4423 
Q 3450 4097 3450 3541 
Q 3450 3153 3228 2886 
Q 3006 2619 2597 2516 
z
" transform="scale(0.015625)"/>
     </defs>
     <use xlink:href="#DejaVuSans-34"/>
     <use xlink:href="#DejaVuSans-31" x="63.623047"/>
     <use xlink:href="#DejaVuSans-2c" x="127.246094"/>
     <use xlink:href="#DejaVuSans-35" x="159.033203"/>
     <use xlink:href="#DejaVuSans-33" x="222.65625"/>
     <use xlink:href="#DejaVuSans-35" x="286.279297"/>
     <use xlink:href="#DejaVuSans-20" x="349.902344"/>
     <use xlink:href="#DejaVuSans-70" x="381.689453"/>
     <use xlink:href="#DejaVuSans-61" x="445.166016"/>
     <use xlink:href="#DejaVuSans-70" x="506.445312"/>
     <use xlink:href="#DejaVuSans-65" x="569.921875"/>
     <use xlink:href="#DejaVuSans-72" x="631.445312"/>
     <use xlink:href="#DejaVuSans-73" x="672.558594"/>
    </g>
   </g>
  </g>
  <g id="axes_3">
   <g id="patch_6">
    <path d="M 70.272 410.683856 
L 424.855486 410.683856 
L 424.855486 330.914072 
L 70.272 330.914072 
z
" style="fill: #ffffff"/>
   </g>
   <g id="line2d_27">
    <path d="M 323.358262 410.683856 
L 323.358262 330.914072 
" clip-path="url(#p5991f85443)" style="fill: none; stroke-dasharray: 2.4,2.4; stroke-dashoffset: 0; stroke: #8396a8; stroke-width: 1.2"/>
   </g>
   <g id="matplotlib.axis_5">
    <g id="xtick_7">
     <g id="line2d_28"/>
     <g id="text_19">
      <!-- 2016 -->
      <g style="fill: #627588" transform="translate(90.783682 421.02245) scale(0.09 -0.09)">
       <use xlink:href="#DejaVuSans-32"/>
       <use xlink:href="#DejaVuSans-30" x="63.623047"/>
       <use xlink:href="#DejaVuSans-31" x="127.246094"/>
       <use xlink:href="#DejaVuSans-36" x="190.869141"/>
      </g>
     </g>
    </g>
    <g id="xtick_8">
     <g id="line2d_29"/>
     <g id="text_20">
      <!-- 2020 -->
      <g style="fill: #627588" transform="translate(218.727983 421.02245) scale(0.09 -0.09)">
       <use xlink:href="#DejaVuSans-32"/>
       <use xlink:href="#DejaVuSans-30" x="63.623047"/>
       <use xlink:href="#DejaVuSans-32" x="127.246094"/>
       <use xlink:href="#DejaVuSans-30" x="190.869141"/>
      </g>
     </g>
    </g>
    <g id="xtick_9">
     <g id="line2d_30"/>
     <g id="text_21">
      <!-- 2024 -->
      <g style="fill: #627588" transform="translate(346.672283 421.02245) scale(0.09 -0.09)">
       <use xlink:href="#DejaVuSans-32"/>
       <use xlink:href="#DejaVuSans-30" x="63.623047"/>
       <use xlink:href="#DejaVuSans-32" x="127.246094"/>
       <use xlink:href="#DejaVuSans-34" x="190.869141"/>
      </g>
     </g>
    </g>
   </g>
   <g id="matplotlib.axis_6">
    <g id="ytick_9">
     <g id="line2d_31">
      <path d="M 70.272 410.683856 
L 424.855486 410.683856 
" clip-path="url(#p5991f85443)" style="fill: none; stroke: #d8e3ec; stroke-width: 0.85; stroke-linecap: square"/>
     </g>
     <g id="line2d_32"/>
     <g id="text_22">
      <!-- 0 -->
      <g style="fill: #627588" transform="translate(61.04575 414.103153) scale(0.09 -0.09)">
       <use xlink:href="#DejaVuSans-30"/>
      </g>
     </g>
    </g>
    <g id="ytick_10">
     <g id="line2d_33">
      <path d="M 70.272 387.898054 
L 424.855486 387.898054 
" clip-path="url(#p5991f85443)" style="fill: none; stroke: #d8e3ec; stroke-width: 0.85; stroke-linecap: square"/>
     </g>
     <g id="line2d_34"/>
     <g id="text_23">
      <!-- 2 -->
      <g style="fill: #627588" transform="translate(61.04575 391.31735) scale(0.09 -0.09)">
       <use xlink:href="#DejaVuSans-32"/>
      </g>
     </g>
    </g>
    <g id="ytick_11">
     <g id="line2d_35">
      <path d="M 70.272 365.112251 
L 424.855486 365.112251 
" clip-path="url(#p5991f85443)" style="fill: none; stroke: #d8e3ec; stroke-width: 0.85; stroke-linecap: square"/>
     </g>
     <g id="line2d_36"/>
     <g id="text_24">
      <!-- 5 -->
      <g style="fill: #627588" transform="translate(61.04575 368.531548) scale(0.09 -0.09)">
       <use xlink:href="#DejaVuSans-35"/>
      </g>
     </g>
    </g>
    <g id="ytick_12">
     <g id="line2d_37">
      <path d="M 70.272 342.326448 
L 424.855486 342.326448 
" clip-path="url(#p5991f85443)" style="fill: none; stroke: #d8e3ec; stroke-width: 0.85; stroke-linecap: square"/>
     </g>
     <g id="line2d_38"/>
     <g id="text_25">
      <!-- 8 -->
      <g style="fill: #627588" transform="translate(61.04575 345.745745) scale(0.09 -0.09)">
       <use xlink:href="#DejaVuSans-38"/>
      </g>
     </g>
    </g>
   </g>
   <g id="patch_7">
    <path d="M 70.272 410.683856 
L 424.855486 410.683856 
" style="fill: none; stroke: #93a6b8; stroke-linejoin: miter; stroke-linecap: square"/>
   </g>
   <g id="line2d_39">
    <path d="M 70.272 410.683856 
L 155.5682 410.683856 
L 158.195393 408.064798 
L 187.532382 408.064798 
L 190.159575 410.683856 
L 254.175512 410.683856 
L 256.890278 409.032711 
L 259.517471 409.032711 
L 262.232238 406.458044 
L 286.139694 406.458044 
L 288.85446 408.109189 
L 291.481653 408.109189 
L 294.196419 410.683856 
L 307.419958 410.683856 
L 310.047151 409.223228 
L 318.103876 409.223228 
L 320.818642 406.955984 
L 323.445835 405.66865 
L 331.327414 405.66865 
L 334.04218 403.257454 
L 339.38414 403.257454 
L 342.011333 404.718083 
L 347.440865 404.718083 
L 350.068058 403.408554 
L 352.782824 405.675798 
L 355.410017 404.661535 
L 363.379169 404.661535 
L 366.093935 407.072731 
L 379.49262 407.072731 
L 382.119813 408.38226 
L 384.834579 404.929866 
L 387.461772 407.231462 
L 398.058117 407.231462 
L 400.68531 404.929866 
L 403.400076 404.929866 
L 406.02727 399.866354 
L 414.083995 399.866354 
L 416.798761 403.318748 
L 424.855486 403.318748 
L 424.855486 403.318748 
" clip-path="url(#p5991f85443)" style="fill: none; stroke: #24539a; stroke-width: 2.6; stroke-linecap: square"/>
   </g>
   <g id="text_26">
    <!-- Public finance -->
    <g style="fill: #18324a" transform="translate(70.272 318.700495) scale(0.127 -0.127)">
     <defs>
      <path id="DejaVuSans-50" d="M 1259 4147 
L 1259 2394 
L 2053 2394 
Q 2494 2394 2734 2622 
Q 2975 2850 2975 3272 
Q 2975 3691 2734 3919 
Q 2494 4147 2053 4147 
L 1259 4147 
z
M 628 4666 
L 2053 4666 
Q 2838 4666 3239 4311 
Q 3641 3956 3641 3272 
Q 3641 2581 3239 2228 
Q 2838 1875 2053 1875 
L 1259 1875 
L 1259 0 
L 628 0 
L 628 4666 
z
" transform="scale(0.015625)"/>
      <path id="DejaVuSans-6c" d="M 603 4863 
L 1178 4863 
L 1178 0 
L 603 0 
L 603 4863 
z
" transform="scale(0.015625)"/>
      <path id="DejaVuSans-69" d="M 603 3500 
L 1178 3500 
L 1178 0 
L 603 0 
L 603 3500 
z
M 603 4863 
L 1178 4863 
L 1178 4134 
L 603 4134 
L 603 4863 
z
" transform="scale(0.015625)"/>
      <path id="DejaVuSans-66" d="M 2375 4863 
L 2375 4384 
L 1825 4384 
Q 1516 4384 1395 4259 
Q 1275 4134 1275 3809 
L 1275 3500 
L 2222 3500 
L 2222 3053 
L 1275 3053 
L 1275 0 
L 697 0 
L 697 3053 
L 147 3053 
L 147 3500 
L 697 3500 
L 697 3744 
Q 697 4328 969 4595 
Q 1241 4863 1831 4863 
L 2375 4863 
z
" transform="scale(0.015625)"/>
      <path id="DejaVuSans-6e" d="M 3513 2113 
L 3513 0 
L 2938 0 
L 2938 2094 
Q 2938 2591 2744 2837 
Q 2550 3084 2163 3084 
Q 1697 3084 1428 2787 
Q 1159 2491 1159 1978 
L 1159 0 
L 581 0 
L 581 3500 
L 1159 3500 
L 1159 2956 
Q 1366 3272 1645 3428 
Q 1925 3584 2291 3584 
Q 2894 3584 3203 3211 
Q 3513 2838 3513 2113 
z
" transform="scale(0.015625)"/>
     </defs>
     <use xlink:href="#DejaVuSans-50"/>
     <use xlink:href="#DejaVuSans-75" x="58.552734"/>
     <use xlink:href="#DejaVuSans-62" x="121.931641"/>
     <use xlink:href="#DejaVuSans-6c" x="185.408203"/>
     <use xlink:href="#DejaVuSans-69" x="213.191406"/>
     <use xlink:href="#DejaVuSans-63" x="240.974609"/>
     <use xlink:href="#DejaVuSans-20" x="295.955078"/>
     <use xlink:href="#DejaVuSans-66" x="327.742188"/>
     <use xlink:href="#DejaVuSans-69" x="362.947266"/>
     <use xlink:href="#DejaVuSans-6e" x="390.730469"/>
     <use xlink:href="#DejaVuSans-61" x="454.109375"/>
     <use xlink:href="#DejaVuSans-6e" x="515.388672"/>
     <use xlink:href="#DejaVuSans-63" x="578.767578"/>
     <use xlink:href="#DejaVuSans-65" x="633.748047"/>
    </g>
   </g>
   <g id="text_27">
    <!-- 15,779 papers -->
    <g style="fill: #627588" transform="translate(70.272 325.411119) scale(0.092 -0.092)">
     <use xlink:href="#DejaVuSans-31"/>
     <use xlink:href="#DejaVuSans-35" x="63.623047"/>
     <use xlink:href="#DejaVuSans-2c" x="127.246094"/>
     <use xlink:href="#DejaVuSans-37" x="159.033203"/>
     <use xlink:href="#DejaVuSans-37" x="222.65625"/>
     <use xlink:href="#DejaVuSans-39" x="286.279297"/>
     <use xlink:href="#DejaVuSans-20" x="349.902344"/>
     <use xlink:href="#DejaVuSans-70" x="381.689453"/>
     <use xlink:href="#DejaVuSans-61" x="445.166016"/>
     <use xlink:href="#DejaVuSans-70" x="506.445312"/>
     <use xlink:href="#DejaVuSans-65" x="569.921875"/>
     <use xlink:href="#DejaVuSans-72" x="631.445312"/>
     <use xlink:href="#DejaVuSans-73" x="672.558594"/>
    </g>
   </g>
  </g>
  <g id="axes_4">
   <g id="patch_8">
    <path d="M 488.680514 410.683856 
L 843.264 410.683856 
L 843.264 330.914072 
L 488.680514 330.914072 
z
" style="fill: #ffffff"/>
   </g>
   <g id="line2d_40">
    <path d="M 741.766776 410.683856 
L 741.766776 330.914072 
" clip-path="url(#p8930d41832)" style="fill: none; stroke-dasharray: 2.4,2.4; stroke-dashoffset: 0; stroke: #8396a8; stroke-width: 1.2"/>
   </g>
   <g id="matplotlib.axis_7">
    <g id="xtick_10">
     <g id="line2d_41"/>
     <g id="text_28">
      <!-- 2016 -->
      <g style="fill: #627588" transform="translate(509.192196 421.02245) scale(0.09 -0.09)">
       <use xlink:href="#DejaVuSans-32"/>
       <use xlink:href="#DejaVuSans-30" x="63.623047"/>
       <use xlink:href="#DejaVuSans-31" x="127.246094"/>
       <use xlink:href="#DejaVuSans-36" x="190.869141"/>
      </g>
     </g>
    </g>
    <g id="xtick_11">
     <g id="line2d_42"/>
     <g id="text_29">
      <!-- 2020 -->
      <g style="fill: #627588" transform="translate(637.136496 421.02245) scale(0.09 -0.09)">
       <use xlink:href="#DejaVuSans-32"/>
       <use xlink:href="#DejaVuSans-30" x="63.623047"/>
       <use xlink:href="#DejaVuSans-32" x="127.246094"/>
       <use xlink:href="#DejaVuSans-30" x="190.869141"/>
      </g>
     </g>
    </g>
    <g id="xtick_12">
     <g id="line2d_43"/>
     <g id="text_30">
      <!-- 2024 -->
      <g style="fill: #627588" transform="translate(765.080797 421.02245) scale(0.09 -0.09)">
       <use xlink:href="#DejaVuSans-32"/>
       <use xlink:href="#DejaVuSans-30" x="63.623047"/>
       <use xlink:href="#DejaVuSans-32" x="127.246094"/>
       <use xlink:href="#DejaVuSans-34" x="190.869141"/>
      </g>
     </g>
    </g>
   </g>
   <g id="matplotlib.axis_8">
    <g id="ytick_13">
     <g id="line2d_44">
      <path d="M 488.680514 410.683856 
L 843.264 410.683856 
" clip-path="url(#p8930d41832)" style="fill: none; stroke: #d8e3ec; stroke-width: 0.85; stroke-linecap: square"/>
     </g>
     <g id="line2d_45"/>
     <g id="text_31">
      <!-- 0 -->
      <g style="fill: #627588" transform="translate(479.454264 414.103153) scale(0.09 -0.09)">
       <use xlink:href="#DejaVuSans-30"/>
      </g>
     </g>
    </g>
    <g id="ytick_14">
     <g id="line2d_46">
      <path d="M 488.680514 387.898054 
L 843.264 387.898054 
" clip-path="url(#p8930d41832)" style="fill: none; stroke: #d8e3ec; stroke-width: 0.85; stroke-linecap: square"/>
     </g>
     <g id="line2d_47"/>
     <g id="text_32">
      <!-- 2 -->
      <g style="fill: #627588" transform="translate(479.454264 391.31735) scale(0.09 -0.09)">
       <use xlink:href="#DejaVuSans-32"/>
      </g>
     </g>
    </g>
    <g id="ytick_15">
     <g id="line2d_48">
      <path d="M 488.680514 365.112251 
L 843.264 365.112251 
" clip-path="url(#p8930d41832)" style="fill: none; stroke: #d8e3ec; stroke-width: 0.85; stroke-linecap: square"/>
     </g>
     <g id="line2d_49"/>
     <g id="text_33">
      <!-- 5 -->
      <g style="fill: #627588" transform="translate(479.454264 368.531548) scale(0.09 -0.09)">
       <use xlink:href="#DejaVuSans-35"/>
      </g>
     </g>
    </g>
    <g id="ytick_16">
     <g id="line2d_50">
      <path d="M 488.680514 342.326448 
L 843.264 342.326448 
" clip-path="url(#p8930d41832)" style="fill: none; stroke: #d8e3ec; stroke-width: 0.85; stroke-linecap: square"/>
     </g>
     <g id="line2d_51"/>
     <g id="text_34">
      <!-- 8 -->
      <g style="fill: #627588" transform="translate(479.454264 345.745745) scale(0.09 -0.09)">
       <use xlink:href="#DejaVuSans-38"/>
      </g>
     </g>
    </g>
   </g>
   <g id="patch_9">
    <path d="M 488.680514 410.683856 
L 843.264 410.683856 
" style="fill: none; stroke: #93a6b8; stroke-linejoin: miter; stroke-linecap: square"/>
   </g>
   <g id="line2d_52">
    <path d="M 488.680514 410.683856 
L 619.339581 410.683856 
L 621.791627 407.762599 
L 635.190312 407.762599 
L 637.905078 403.76509 
L 651.303762 403.76509 
L 653.843382 404.236261 
L 667.242067 404.236261 
L 669.956833 405.999868 
L 683.355517 405.999868 
L 685.807564 408.449954 
L 699.206249 408.449954 
L 701.921015 410.683856 
L 739.227156 410.683856 
L 741.854349 407.762599 
L 760.419846 407.762599 
L 763.134613 405.815095 
L 768.476572 405.815095 
L 771.191338 404.088898 
L 773.818531 407.010154 
L 787.129642 407.010154 
L 789.844408 403.212521 
L 792.471601 403.212521 
L 795.186368 405.160025 
L 800.528327 405.160025 
L 803.243093 406.886222 
L 805.870286 400.810008 
L 808.585052 397.996946 
L 811.299818 394.544552 
L 813.751865 394.544552 
L 816.466631 390.324959 
L 819.093824 390.324959 
L 821.80859 394.122593 
L 835.207275 394.122593 
L 837.834468 400.198807 
L 840.549234 403.011869 
L 843.264 406.464263 
L 843.264 406.464263 
" clip-path="url(#p8930d41832)" style="fill: none; stroke: #24539a; stroke-width: 2.6; stroke-linecap: square"/>
   </g>
   <g id="text_35">
    <!-- Trade -->
    <g style="fill: #18324a" transform="translate(488.680514 318.700495) scale(0.127 -0.127)">
     <defs>
      <path id="DejaVuSans-54" d="M -19 4666 
L 3928 4666 
L 3928 4134 
L 2272 4134 
L 2272 0 
L 1638 0 
L 1638 4134 
L -19 4134 
L -19 4666 
z
" transform="scale(0.015625)"/>
      <path id="DejaVuSans-64" d="M 2906 2969 
L 2906 4863 
L 3481 4863 
L 3481 0 
L 2906 0 
L 2906 525 
Q 2725 213 2448 61 
Q 2172 -91 1784 -91 
Q 1150 -91 751 415 
Q 353 922 353 1747 
Q 353 2572 751 3078 
Q 1150 3584 1784 3584 
Q 2172 3584 2448 3432 
Q 2725 3281 2906 2969 
z
M 947 1747 
Q 947 1113 1208 752 
Q 1469 391 1925 391 
Q 2381 391 2643 752 
Q 2906 1113 2906 1747 
Q 2906 2381 2643 2742 
Q 2381 3103 1925 3103 
Q 1469 3103 1208 2742 
Q 947 2381 947 1747 
z
" transform="scale(0.015625)"/>
     </defs>
     <use xlink:href="#DejaVuSans-54"/>
     <use xlink:href="#DejaVuSans-72" x="46.333984"/>
     <use xlink:href="#DejaVuSans-61" x="87.447266"/>
     <use xlink:href="#DejaVuSans-64" x="148.726562"/>
     <use xlink:href="#DejaVuSans-65" x="212.203125"/>
    </g>
   </g>
   <g id="text_36">
    <!-- 8,646 papers -->
    <g style="fill: #627588" transform="translate(488.680514 325.411119) scale(0.092 -0.092)">
     <use xlink:href="#DejaVuSans-38"/>
     <use xlink:href="#DejaVuSans-2c" x="63.623047"/>
     <use xlink:href="#DejaVuSans-36" x="95.410156"/>
     <use xlink:href="#DejaVuSans-34" x="159.033203"/>
     <use xlink:href="#DejaVuSans-36" x="222.65625"/>
     <use xlink:href="#DejaVuSans-20" x="286.279297"/>
     <use xlink:href="#DejaVuSans-70" x="318.066406"/>
     <use xlink:href="#DejaVuSans-61" x="381.542969"/>
     <use xlink:href="#DejaVuSans-70" x="442.822266"/>
     <use xlink:href="#DejaVuSans-65" x="506.298828"/>
     <use xlink:href="#DejaVuSans-72" x="567.822266"/>
     <use xlink:href="#DejaVuSans-73" x="608.935547"/>
    </g>
   </g>
  </g>
  <g id="axes_5">
   <g id="patch_10">
    <path d="M 70.272 531.933928 
L 424.855486 531.933928 
L 424.855486 452.164144 
L 70.272 452.164144 
z
" style="fill: #ffffff"/>
   </g>
   <g id="line2d_53">
    <path d="M 323.358262 531.933928 
L 323.358262 452.164144 
" clip-path="url(#p1d931e006b)" style="fill: none; stroke-dasharray: 2.4,2.4; stroke-dashoffset: 0; stroke: #8396a8; stroke-width: 1.2"/>
   </g>
   <g id="matplotlib.axis_9">
    <g id="xtick_13">
     <g id="line2d_54"/>
     <g id="text_37">
      <!-- 2016 -->
      <g style="fill: #627588" transform="translate(90.783682 542.272522) scale(0.09 -0.09)">
       <use xlink:href="#DejaVuSans-32"/>
       <use xlink:href="#DejaVuSans-30" x="63.623047"/>
       <use xlink:href="#DejaVuSans-31" x="127.246094"/>
       <use xlink:href="#DejaVuSans-36" x="190.869141"/>
      </g>
     </g>
    </g>
    <g id="xtick_14">
     <g id="line2d_55"/>
     <g id="text_38">
      <!-- 2020 -->
      <g style="fill: #627588" transform="translate(218.727983 542.272522) scale(0.09 -0.09)">
       <use xlink:href="#DejaVuSans-32"/>
       <use xlink:href="#DejaVuSans-30" x="63.623047"/>
       <use xlink:href="#DejaVuSans-32" x="127.246094"/>
       <use xlink:href="#DejaVuSans-30" x="190.869141"/>
      </g>
     </g>
    </g>
    <g id="xtick_15">
     <g id="line2d_56"/>
     <g id="text_39">
      <!-- 2024 -->
      <g style="fill: #627588" transform="translate(346.672283 542.272522) scale(0.09 -0.09)">
       <use xlink:href="#DejaVuSans-32"/>
       <use xlink:href="#DejaVuSans-30" x="63.623047"/>
       <use xlink:href="#DejaVuSans-32" x="127.246094"/>
       <use xlink:href="#DejaVuSans-34" x="190.869141"/>
      </g>
     </g>
    </g>
   </g>
   <g id="matplotlib.axis_10">
    <g id="ytick_17">
     <g id="line2d_57">
      <path d="M 70.272 531.933928 
L 424.855486 531.933928 
" clip-path="url(#p1d931e006b)" style="fill: none; stroke: #d8e3ec; stroke-width: 0.85; stroke-linecap: square"/>
     </g>
     <g id="line2d_58"/>
     <g id="text_40">
      <!-- 0 -->
      <g style="fill: #627588" transform="translate(61.04575 535.353225) scale(0.09 -0.09)">
       <use xlink:href="#DejaVuSans-30"/>
      </g>
     </g>
    </g>
    <g id="ytick_18">
     <g id="line2d_59">
      <path d="M 70.272 509.148125 
L 424.855486 509.148125 
" clip-path="url(#p1d931e006b)" style="fill: none; stroke: #d8e3ec; stroke-width: 0.85; stroke-linecap: square"/>
     </g>
     <g id="line2d_60"/>
     <g id="text_41">
      <!-- 2 -->
      <g style="fill: #627588" transform="translate(61.04575 512.567422) scale(0.09 -0.09)">
       <use xlink:href="#DejaVuSans-32"/>
      </g>
     </g>
    </g>
    <g id="ytick_19">
     <g id="line2d_61">
      <path d="M 70.272 486.362323 
L 424.855486 486.362323 
" clip-path="url(#p1d931e006b)" style="fill: none; stroke: #d8e3ec; stroke-width: 0.85; stroke-linecap: square"/>
     </g>
     <g id="line2d_62"/>
     <g id="text_42">
      <!-- 5 -->
      <g style="fill: #627588" transform="translate(61.04575 489.78162) scale(0.09 -0.09)">
       <use xlink:href="#DejaVuSans-35"/>
      </g>
     </g>
    </g>
    <g id="ytick_20">
     <g id="line2d_63">
      <path d="M 70.272 463.57652 
L 424.855486 463.57652 
" clip-path="url(#p1d931e006b)" style="fill: none; stroke: #d8e3ec; stroke-width: 0.85; stroke-linecap: square"/>
     </g>
     <g id="line2d_64"/>
     <g id="text_43">
      <!-- 8 -->
      <g style="fill: #627588" transform="translate(61.04575 466.995817) scale(0.09 -0.09)">
       <use xlink:href="#DejaVuSans-38"/>
      </g>
     </g>
    </g>
   </g>
   <g id="patch_11">
    <path d="M 70.272 531.933928 
L 424.855486 531.933928 
" style="fill: none; stroke: #93a6b8; stroke-linejoin: miter; stroke-linecap: square"/>
   </g>
   <g id="line2d_65">
    <path d="M 70.272 528.631638 
L 72.986766 531.933928 
L 115.547293 531.933928 
L 118.174486 529.763852 
L 147.511475 529.763852 
L 150.138668 531.933928 
L 163.537353 531.933928 
L 166.252119 529.012671 
L 195.501535 529.012671 
L 198.216301 531.933928 
L 206.09788 531.933928 
L 208.725073 529.935173 
L 216.781798 529.935173 
L 219.496564 528.168832 
L 224.838523 528.168832 
L 227.465716 526.059036 
L 232.895249 526.059036 
L 235.434869 524.371198 
L 238.149635 524.371198 
L 240.776828 526.369953 
L 248.833553 526.369953 
L 251.548319 528.136294 
L 256.890278 528.136294 
L 259.517471 530.246091 
L 264.947004 530.246091 
L 267.399051 530.55297 
L 278.082969 530.55297 
L 280.797735 529.243441 
L 286.139694 529.243441 
L 288.85446 527.724388 
L 291.481653 527.724388 
L 294.196419 526.36809 
L 296.911186 524.716945 
L 299.363232 526.097903 
L 302.077999 526.097903 
L 304.705192 524.810569 
L 307.419958 524.810569 
L 310.047151 523.084372 
L 312.761917 523.243103 
L 315.476683 523.243103 
L 318.103876 521.244348 
L 320.818642 521.557804 
L 323.445835 520.352206 
L 326.160601 521.708504 
L 328.875367 523.359649 
L 331.327414 522.289893 
L 334.04218 522.289893 
L 336.669373 523.577226 
L 339.38414 521.810885 
L 342.011333 522.249749 
L 344.726099 522.068044 
L 347.440865 522.068044 
L 350.068058 522.547745 
L 355.410017 524.958941 
L 358.124783 523.106436 
L 360.839549 523.106436 
L 363.379169 524.176192 
L 368.721128 524.176192 
L 371.435895 525.942534 
L 376.777854 528.56237 
L 379.49262 528.56237 
L 382.119813 530.081424 
L 384.834579 530.081424 
L 387.461772 524.4553 
L 390.176538 526.307804 
L 392.891304 523.934283 
L 403.400076 523.934283 
L 406.02727 519.466478 
L 408.742036 516.653416 
L 411.456802 516.653416 
L 414.083995 508.21423 
L 416.798761 505.980328 
L 419.425954 508.987394 
L 422.14072 506.613873 
L 424.855486 506.753492 
L 424.855486 506.753492 
" clip-path="url(#p1d931e006b)" style="fill: none; stroke: #24539a; stroke-width: 2.6; stroke-linecap: square"/>
   </g>
   <g id="text_44">
    <!-- Development -->
    <g style="fill: #18324a" transform="translate(70.272 439.950567) scale(0.127 -0.127)">
     <defs>
      <path id="DejaVuSans-44" d="M 1259 4147 
L 1259 519 
L 2022 519 
Q 2988 519 3436 956 
Q 3884 1394 3884 2338 
Q 3884 3275 3436 3711 
Q 2988 4147 2022 4147 
L 1259 4147 
z
M 628 4666 
L 1925 4666 
Q 3281 4666 3915 4102 
Q 4550 3538 4550 2338 
Q 4550 1131 3912 565 
Q 3275 0 1925 0 
L 628 0 
L 628 4666 
z
" transform="scale(0.015625)"/>
      <path id="DejaVuSans-76" d="M 191 3500 
L 800 3500 
L 1894 563 
L 2988 3500 
L 3597 3500 
L 2284 0 
L 1503 0 
L 191 3500 
z
" transform="scale(0.015625)"/>
      <path id="DejaVuSans-6d" d="M 3328 2828 
Q 3544 3216 3844 3400 
Q 4144 3584 4550 3584 
Q 5097 3584 5394 3201 
Q 5691 2819 5691 2113 
L 5691 0 
L 5113 0 
L 5113 2094 
Q 5113 2597 4934 2840 
Q 4756 3084 4391 3084 
Q 3944 3084 3684 2787 
Q 3425 2491 3425 1978 
L 3425 0 
L 2847 0 
L 2847 2094 
Q 2847 2600 2669 2842 
Q 2491 3084 2119 3084 
Q 1678 3084 1418 2786 
Q 1159 2488 1159 1978 
L 1159 0 
L 581 0 
L 581 3500 
L 1159 3500 
L 1159 2956 
Q 1356 3278 1631 3431 
Q 1906 3584 2284 3584 
Q 2666 3584 2933 3390 
Q 3200 3197 3328 2828 
z
" transform="scale(0.015625)"/>
      <path id="DejaVuSans-74" d="M 1172 4494 
L 1172 3500 
L 2356 3500 
L 2356 3053 
L 1172 3053 
L 1172 1153 
Q 1172 725 1289 603 
Q 1406 481 1766 481 
L 2356 481 
L 2356 0 
L 1766 0 
Q 1100 0 847 248 
Q 594 497 594 1153 
L 594 3053 
L 172 3053 
L 172 3500 
L 594 3500 
L 594 4494 
L 1172 4494 
z
" transform="scale(0.015625)"/>
     </defs>
     <use xlink:href="#DejaVuSans-44"/>
     <use xlink:href="#DejaVuSans-65" x="77.001953"/>
     <use xlink:href="#DejaVuSans-76" x="138.525391"/>
     <use xlink:href="#DejaVuSans-65" x="197.705078"/>
     <use xlink:href="#DejaVuSans-6c" x="259.228516"/>
     <use xlink:href="#DejaVuSans-6f" x="287.011719"/>
     <use xlink:href="#DejaVuSans-70" x="348.193359"/>
     <use xlink:href="#DejaVuSans-6d" x="411.669922"/>
     <use xlink:href="#DejaVuSans-65" x="509.082031"/>
     <use xlink:href="#DejaVuSans-6e" x="570.605469"/>
     <use xlink:href="#DejaVuSans-74" x="633.984375"/>
    </g>
   </g>
   <g id="text_45">
    <!-- 12,767 papers -->
    <g style="fill: #627588" transform="translate(70.272 446.661191) scale(0.092 -0.092)">
     <use xlink:href="#DejaVuSans-31"/>
     <use xlink:href="#DejaVuSans-32" x="63.623047"/>
     <use xlink:href="#DejaVuSans-2c" x="127.246094"/>
     <use xlink:href="#DejaVuSans-37" x="159.033203"/>
     <use xlink:href="#DejaVuSans-36" x="222.65625"/>
     <use xlink:href="#DejaVuSans-37" x="286.279297"/>
     <use xlink:href="#DejaVuSans-20" x="349.902344"/>
     <use xlink:href="#DejaVuSans-70" x="381.689453"/>
     <use xlink:href="#DejaVuSans-61" x="445.166016"/>
     <use xlink:href="#DejaVuSans-70" x="506.445312"/>
     <use xlink:href="#DejaVuSans-65" x="569.921875"/>
     <use xlink:href="#DejaVuSans-72" x="631.445312"/>
     <use xlink:href="#DejaVuSans-73" x="672.558594"/>
    </g>
   </g>
  </g>
  <g id="axes_6">
   <g id="patch_12">
    <path d="M 488.680514 531.933928 
L 843.264 531.933928 
L 843.264 452.164144 
L 488.680514 452.164144 
z
" style="fill: #ffffff"/>
   </g>
   <g id="line2d_66">
    <path d="M 741.766776 531.933928 
L 741.766776 452.164144 
" clip-path="url(#p11beca2205)" style="fill: none; stroke-dasharray: 2.4,2.4; stroke-dashoffset: 0; stroke: #8396a8; stroke-width: 1.2"/>
   </g>
   <g id="matplotlib.axis_11">
    <g id="xtick_16">
     <g id="line2d_67"/>
     <g id="text_46">
      <!-- 2016 -->
      <g style="fill: #627588" transform="translate(509.192196 542.272522) scale(0.09 -0.09)">
       <use xlink:href="#DejaVuSans-32"/>
       <use xlink:href="#DejaVuSans-30" x="63.623047"/>
       <use xlink:href="#DejaVuSans-31" x="127.246094"/>
       <use xlink:href="#DejaVuSans-36" x="190.869141"/>
      </g>
     </g>
    </g>
    <g id="xtick_17">
     <g id="line2d_68"/>
     <g id="text_47">
      <!-- 2020 -->
      <g style="fill: #627588" transform="translate(637.136496 542.272522) scale(0.09 -0.09)">
       <use xlink:href="#DejaVuSans-32"/>
       <use xlink:href="#DejaVuSans-30" x="63.623047"/>
       <use xlink:href="#DejaVuSans-32" x="127.246094"/>
       <use xlink:href="#DejaVuSans-30" x="190.869141"/>
      </g>
     </g>
    </g>
    <g id="xtick_18">
     <g id="line2d_69"/>
     <g id="text_48">
      <!-- 2024 -->
      <g style="fill: #627588" transform="translate(765.080797 542.272522) scale(0.09 -0.09)">
       <use xlink:href="#DejaVuSans-32"/>
       <use xlink:href="#DejaVuSans-30" x="63.623047"/>
       <use xlink:href="#DejaVuSans-32" x="127.246094"/>
       <use xlink:href="#DejaVuSans-34" x="190.869141"/>
      </g>
     </g>
    </g>
   </g>
   <g id="matplotlib.axis_12">
    <g id="ytick_21">
     <g id="line2d_70">
      <path d="M 488.680514 531.933928 
L 843.264 531.933928 
" clip-path="url(#p11beca2205)" style="fill: none; stroke: #d8e3ec; stroke-width: 0.85; stroke-linecap: square"/>
     </g>
     <g id="line2d_71"/>
     <g id="text_49">
      <!-- 0 -->
      <g style="fill: #627588" transform="translate(479.454264 535.353225) scale(0.09 -0.09)">
       <use xlink:href="#DejaVuSans-30"/>
      </g>
     </g>
    </g>
    <g id="ytick_22">
     <g id="line2d_72">
      <path d="M 488.680514 509.148125 
L 843.264 509.148125 
" clip-path="url(#p11beca2205)" style="fill: none; stroke: #d8e3ec; stroke-width: 0.85; stroke-linecap: square"/>
     </g>
     <g id="line2d_73"/>
     <g id="text_50">
      <!-- 2 -->
      <g style="fill: #627588" transform="translate(479.454264 512.567422) scale(0.09 -0.09)">
       <use xlink:href="#DejaVuSans-32"/>
      </g>
     </g>
    </g>
    <g id="ytick_23">
     <g id="line2d_74">
      <path d="M 488.680514 486.362323 
L 843.264 486.362323 
" clip-path="url(#p11beca2205)" style="fill: none; stroke: #d8e3ec; stroke-width: 0.85; stroke-linecap: square"/>
     </g>
     <g id="line2d_75"/>
     <g id="text_51">
      <!-- 5 -->
      <g style="fill: #627588" transform="translate(479.454264 489.78162) scale(0.09 -0.09)">
       <use xlink:href="#DejaVuSans-35"/>
      </g>
     </g>
    </g>
    <g id="ytick_24">
     <g id="line2d_76">
      <path d="M 488.680514 463.57652 
L 843.264 463.57652 
" clip-path="url(#p11beca2205)" style="fill: none; stroke: #d8e3ec; stroke-width: 0.85; stroke-linecap: square"/>
     </g>
     <g id="line2d_77"/>
     <g id="text_52">
      <!-- 8 -->
      <g style="fill: #627588" transform="translate(479.454264 466.995817) scale(0.09 -0.09)">
       <use xlink:href="#DejaVuSans-38"/>
      </g>
     </g>
    </g>
   </g>
   <g id="patch_13">
    <path d="M 488.680514 531.933928 
L 843.264 531.933928 
" style="fill: none; stroke: #93a6b8; stroke-linejoin: miter; stroke-linecap: square"/>
   </g>
   <g id="line2d_78">
    <path d="M 488.680514 531.521142 
L 491.39528 531.099182 
L 496.562093 531.099182 
L 499.189286 530.665167 
L 501.904052 530.665167 
L 504.531245 531.077953 
L 509.960777 531.077953 
L 512.58797 530.724685 
L 525.899082 530.774327 
L 528.613848 530.352368 
L 531.241041 530.786383 
L 542.012532 530.786383 
L 544.639725 531.139652 
L 552.696451 531.139652 
L 555.411217 531.511969 
L 557.863264 531.511969 
L 560.57803 531.933928 
L 576.603907 531.933928 
L 579.318673 531.542419 
L 589.827445 531.542419 
L 592.542212 531.129633 
L 595.169405 530.370106 
L 608.568089 530.370106 
L 611.282855 530.761615 
L 613.910048 530.761615 
L 616.624814 530.355451 
L 619.339581 530.355451 
L 621.791627 529.525367 
L 624.506394 529.605028 
L 627.133587 530.0507 
L 629.848353 529.606533 
L 635.190312 529.606533 
L 637.905078 529.198185 
L 643.247037 529.198185 
L 645.87423 528.804648 
L 648.588996 528.859179 
L 653.843382 528.067305 
L 656.558149 528.40043 
L 659.185342 527.404756 
L 661.900108 527.511356 
L 664.527301 525.869136 
L 667.242067 525.109609 
L 672.584026 524.444837 
L 675.298792 523.95482 
L 680.640751 523.891616 
L 683.355517 523.124418 
L 685.807564 524.012764 
L 688.52233 523.647607 
L 691.149523 524.019449 
L 693.86429 522.943943 
L 696.491483 524.586163 
L 699.206249 523.224107 
L 701.921015 523.940641 
L 704.548208 523.834101 
L 709.890167 523.072711 
L 712.604933 523.468298 
L 715.319699 524.619096 
L 717.771746 524.537559 
L 720.486512 524.902716 
L 723.113705 525.514426 
L 725.828471 525.520968 
L 728.455664 524.851782 
L 731.170431 525.965144 
L 733.885197 525.603464 
L 736.51239 525.388441 
L 741.854349 526.309493 
L 744.569115 525.331562 
L 749.735928 523.82692 
L 752.450694 522.260885 
L 755.077887 522.244733 
L 757.792653 523.651264 
L 760.419846 523.620426 
L 763.134613 523.448036 
L 765.849379 523.128526 
L 768.476572 522.684221 
L 773.818531 520.495236 
L 776.533297 520.906357 
L 779.248063 521.019906 
L 784.502449 518.183935 
L 787.129642 517.816226 
L 789.844408 516.610628 
L 792.471601 515.929694 
L 795.186368 516.160898 
L 797.901134 515.075746 
L 803.243093 512.155838 
L 805.870286 512.791721 
L 808.585052 512.281189 
L 811.299818 510.648672 
L 813.751865 512.34365 
L 816.466631 514.432349 
L 819.093824 513.508796 
L 821.80859 512.365342 
L 824.435783 513.7463 
L 827.150549 512.046197 
L 829.865316 511.099942 
L 832.492509 512.185225 
L 835.207275 514.168193 
L 837.834468 512.941567 
L 843.264 514.987004 
L 843.264 514.987004 
" clip-path="url(#p11beca2205)" style="fill: none; stroke: #24539a; stroke-width: 2.6; stroke-linecap: square"/>
   </g>
   <g id="text_53">
    <!-- Finance -->
    <g style="fill: #18324a" transform="translate(488.680514 439.950567) scale(0.127 -0.127)">
     <defs>
      <path id="DejaVuSans-46" d="M 628 4666 
L 3309 4666 
L 3309 4134 
L 1259 4134 
L 1259 2759 
L 3109 2759 
L 3109 2228 
L 1259 2228 
L 1259 0 
L 628 0 
L 628 4666 
z
" transform="scale(0.015625)"/>
     </defs>
     <use xlink:href="#DejaVuSans-46"/>
     <use xlink:href="#DejaVuSans-69" x="50.269531"/>
     <use xlink:href="#DejaVuSans-6e" x="78.052734"/>
     <use xlink:href="#DejaVuSans-61" x="141.431641"/>
     <use xlink:href="#DejaVuSans-6e" x="202.710938"/>
     <use xlink:href="#DejaVuSans-63" x="266.089844"/>
     <use xlink:href="#DejaVuSans-65" x="321.070312"/>
    </g>
   </g>
   <g id="text_54">
    <!-- 54,089 papers -->
    <g style="fill: #627588" transform="translate(488.680514 446.661191) scale(0.092 -0.092)">
     <use xlink:href="#DejaVuSans-35"/>
     <use xlink:href="#DejaVuSans-34" x="63.623047"/>
     <use xlink:href="#DejaVuSans-2c" x="127.246094"/>
     <use xlink:href="#DejaVuSans-30" x="159.033203"/>
     <use xlink:href="#DejaVuSans-38" x="222.65625"/>
     <use xlink:href="#DejaVuSans-39" x="286.279297"/>
     <use xlink:href="#DejaVuSans-20" x="349.902344"/>
     <use xlink:href="#DejaVuSans-70" x="381.689453"/>
     <use xlink:href="#DejaVuSans-61" x="445.166016"/>
     <use xlink:href="#DejaVuSans-70" x="506.445312"/>
     <use xlink:href="#DejaVuSans-65" x="569.921875"/>
     <use xlink:href="#DejaVuSans-72" x="631.445312"/>
     <use xlink:href="#DejaVuSans-73" x="672.558594"/>
    </g>
   </g>
  </g>
  <g id="axes_7">
   <g id="patch_14">
    <path d="M 70.272 653.184 
L 424.855486 653.184 
L 424.855486 573.414216 
L 70.272 573.414216 
z
" style="fill: #ffffff"/>
   </g>
   <g id="line2d_79">
    <path d="M 323.358262 653.184 
L 323.358262 573.414216 
" clip-path="url(#pb52ab76b72)" style="fill: none; stroke-dasharray: 2.4,2.4; stroke-dashoffset: 0; stroke: #8396a8; stroke-width: 1.2"/>
   </g>
   <g id="matplotlib.axis_13">
    <g id="xtick_19">
     <g id="line2d_80"/>
     <g id="text_55">
      <!-- 2016 -->
      <g style="fill: #627588" transform="translate(90.783682 663.522594) scale(0.09 -0.09)">
       <use xlink:href="#DejaVuSans-32"/>
       <use xlink:href="#DejaVuSans-30" x="63.623047"/>
       <use xlink:href="#DejaVuSans-31" x="127.246094"/>
       <use xlink:href="#DejaVuSans-36" x="190.869141"/>
      </g>
     </g>
    </g>
    <g id="xtick_20">
     <g id="line2d_81"/>
     <g id="text_56">
      <!-- 2020 -->
      <g style="fill: #627588" transform="translate(218.727983 663.522594) scale(0.09 -0.09)">
       <use xlink:href="#DejaVuSans-32"/>
       <use xlink:href="#DejaVuSans-30" x="63.623047"/>
       <use xlink:href="#DejaVuSans-32" x="127.246094"/>
       <use xlink:href="#DejaVuSans-30" x="190.869141"/>
      </g>
     </g>
    </g>
    <g id="xtick_21">
     <g id="line2d_82"/>
     <g id="text_57">
      <!-- 2024 -->
      <g style="fill: #627588" transform="translate(346.672283 663.522594) scale(0.09 -0.09)">
       <use xlink:href="#DejaVuSans-32"/>
       <use xlink:href="#DejaVuSans-30" x="63.623047"/>
       <use xlink:href="#DejaVuSans-32" x="127.246094"/>
       <use xlink:href="#DejaVuSans-34" x="190.869141"/>
      </g>
     </g>
    </g>
   </g>
   <g id="matplotlib.axis_14">
    <g id="ytick_25">
     <g id="line2d_83">
      <path d="M 70.272 653.184 
L 424.855486 653.184 
" clip-path="url(#pb52ab76b72)" style="fill: none; stroke: #d8e3ec; stroke-width: 0.85; stroke-linecap: square"/>
     </g>
     <g id="line2d_84"/>
     <g id="text_58">
      <!-- 0 -->
      <g style="fill: #627588" transform="translate(61.04575 656.603297) scale(0.09 -0.09)">
       <use xlink:href="#DejaVuSans-30"/>
      </g>
     </g>
    </g>
    <g id="ytick_26">
     <g id="line2d_85">
      <path d="M 70.272 630.398197 
L 424.855486 630.398197 
" clip-path="url(#pb52ab76b72)" style="fill: none; stroke: #d8e3ec; stroke-width: 0.85; stroke-linecap: square"/>
     </g>
     <g id="line2d_86"/>
     <g id="text_59">
      <!-- 2 -->
      <g style="fill: #627588" transform="translate(61.04575 633.817494) scale(0.09 -0.09)">
       <use xlink:href="#DejaVuSans-32"/>
      </g>
     </g>
    </g>
    <g id="ytick_27">
     <g id="line2d_87">
      <path d="M 70.272 607.612395 
L 424.855486 607.612395 
" clip-path="url(#pb52ab76b72)" style="fill: none; stroke: #d8e3ec; stroke-width: 0.85; stroke-linecap: square"/>
     </g>
     <g id="line2d_88"/>
     <g id="text_60">
      <!-- 5 -->
      <g style="fill: #627588" transform="translate(61.04575 611.031692) scale(0.09 -0.09)">
       <use xlink:href="#DejaVuSans-35"/>
      </g>
     </g>
    </g>
    <g id="ytick_28">
     <g id="line2d_89">
      <path d="M 70.272 584.826592 
L 424.855486 584.826592 
" clip-path="url(#pb52ab76b72)" style="fill: none; stroke: #d8e3ec; stroke-width: 0.85; stroke-linecap: square"/>
     </g>
     <g id="line2d_90"/>
     <g id="text_61">
      <!-- 8 -->
      <g style="fill: #627588" transform="translate(61.04575 588.245889) scale(0.09 -0.09)">
       <use xlink:href="#DejaVuSans-38"/>
      </g>
     </g>
    </g>
   </g>
   <g id="patch_15">
    <path d="M 70.272 653.184 
L 424.855486 653.184 
" style="fill: none; stroke: #93a6b8; stroke-linejoin: miter; stroke-linecap: square"/>
   </g>
   <g id="line2d_91">
    <path d="M 70.272 653.184 
L 142.169516 653.184 
L 144.796709 652.59522 
L 174.133698 652.59522 
L 176.760891 653.184 
L 179.475657 653.184 
L 182.10285 652.511852 
L 190.159575 652.511852 
L 192.874342 651.411089 
L 195.501535 650.701251 
L 206.09788 650.701251 
L 208.725073 649.733701 
L 211.439839 649.733701 
L 214.067032 650.405848 
L 222.123757 650.405848 
L 224.838523 651.506612 
L 227.465716 652.21645 
L 230.180483 651.62307 
L 238.149635 651.62307 
L 240.776828 652.59062 
L 243.491594 651.887354 
L 246.118787 651.887354 
L 248.833553 651.443187 
L 251.548319 650.820624 
L 259.517471 650.820624 
L 262.232238 651.414004 
L 272.74101 651.414004 
L 275.455776 652.117269 
L 278.082969 652.117269 
L 280.797735 652.561437 
L 283.512501 653.184 
L 288.85446 653.184 
L 291.481653 652.551061 
L 296.911186 652.551061 
L 299.363232 651.707142 
L 320.818642 651.707142 
L 323.445835 652.340081 
L 328.875367 652.340081 
L 331.327414 653.184 
L 342.011333 653.184 
L 344.726099 652.358427 
L 374.063088 652.358427 
L 376.777854 651.496163 
L 379.49262 649.880148 
L 390.176538 649.880148 
L 392.891304 646.64812 
L 403.400076 646.64812 
L 406.02727 645.187491 
L 408.742036 645.442259 
L 411.456802 643.958164 
L 414.083995 642.771404 
L 416.798761 640.718629 
L 422.14072 640.718629 
L 424.855486 642.26282 
L 424.855486 642.26282 
" clip-path="url(#pb52ab76b72)" style="fill: none; stroke: #24539a; stroke-width: 2.6; stroke-linecap: square"/>
   </g>
   <g id="text_62">
    <!-- Health -->
    <g style="fill: #18324a" transform="translate(70.272 561.200639) scale(0.127 -0.127)">
     <defs>
      <path id="DejaVuSans-48" d="M 628 4666 
L 1259 4666 
L 1259 2753 
L 3553 2753 
L 3553 4666 
L 4184 4666 
L 4184 0 
L 3553 0 
L 3553 2222 
L 1259 2222 
L 1259 0 
L 628 0 
L 628 4666 
z
" transform="scale(0.015625)"/>
      <path id="DejaVuSans-68" d="M 3513 2113 
L 3513 0 
L 2938 0 
L 2938 2094 
Q 2938 2591 2744 2837 
Q 2550 3084 2163 3084 
Q 1697 3084 1428 2787 
Q 1159 2491 1159 1978 
L 1159 0 
L 581 0 
L 581 4863 
L 1159 4863 
L 1159 2956 
Q 1366 3272 1645 3428 
Q 1925 3584 2291 3584 
Q 2894 3584 3203 3211 
Q 3513 2838 3513 2113 
z
" transform="scale(0.015625)"/>
     </defs>
     <use xlink:href="#DejaVuSans-48"/>
     <use xlink:href="#DejaVuSans-65" x="75.195312"/>
     <use xlink:href="#DejaVuSans-61" x="136.71875"/>
     <use xlink:href="#DejaVuSans-6c" x="197.998047"/>
     <use xlink:href="#DejaVuSans-74" x="225.78125"/>
     <use xlink:href="#DejaVuSans-68" x="264.990234"/>
    </g>
   </g>
   <g id="text_63">
    <!-- 38,115 papers -->
    <g style="fill: #627588" transform="translate(70.272 567.911263) scale(0.092 -0.092)">
     <use xlink:href="#DejaVuSans-33"/>
     <use xlink:href="#DejaVuSans-38" x="63.623047"/>
     <use xlink:href="#DejaVuSans-2c" x="127.246094"/>
     <use xlink:href="#DejaVuSans-31" x="159.033203"/>
     <use xlink:href="#DejaVuSans-31" x="222.65625"/>
     <use xlink:href="#DejaVuSans-35" x="286.279297"/>
     <use xlink:href="#DejaVuSans-20" x="349.902344"/>
     <use xlink:href="#DejaVuSans-70" x="381.689453"/>
     <use xlink:href="#DejaVuSans-61" x="445.166016"/>
     <use xlink:href="#DejaVuSans-70" x="506.445312"/>
     <use xlink:href="#DejaVuSans-65" x="569.921875"/>
     <use xlink:href="#DejaVuSans-72" x="631.445312"/>
     <use xlink:href="#DejaVuSans-73" x="672.558594"/>
    </g>
   </g>
  </g>
  <g id="axes_8">
   <g id="patch_16">
    <path d="M 488.680514 653.184 
L 843.264 653.184 
L 843.264 573.414216 
L 488.680514 573.414216 
z
" style="fill: #ffffff"/>
   </g>
   <g id="line2d_92">
    <path d="M 741.766776 653.184 
L 741.766776 573.414216 
" clip-path="url(#p8b2180f64f)" style="fill: none; stroke-dasharray: 2.4,2.4; stroke-dashoffset: 0; stroke: #8396a8; stroke-width: 1.2"/>
   </g>
   <g id="matplotlib.axis_15">
    <g id="xtick_22">
     <g id="line2d_93"/>
     <g id="text_64">
      <!-- 2016 -->
      <g style="fill: #627588" transform="translate(509.192196 663.522594) scale(0.09 -0.09)">
       <use xlink:href="#DejaVuSans-32"/>
       <use xlink:href="#DejaVuSans-30" x="63.623047"/>
       <use xlink:href="#DejaVuSans-31" x="127.246094"/>
       <use xlink:href="#DejaVuSans-36" x="190.869141"/>
      </g>
     </g>
    </g>
    <g id="xtick_23">
     <g id="line2d_94"/>
     <g id="text_65">
      <!-- 2020 -->
      <g style="fill: #627588" transform="translate(637.136496 663.522594) scale(0.09 -0.09)">
       <use xlink:href="#DejaVuSans-32"/>
       <use xlink:href="#DejaVuSans-30" x="63.623047"/>
       <use xlink:href="#DejaVuSans-32" x="127.246094"/>
       <use xlink:href="#DejaVuSans-30" x="190.869141"/>
      </g>
     </g>
    </g>
    <g id="xtick_24">
     <g id="line2d_95"/>
     <g id="text_66">
      <!-- 2024 -->
      <g style="fill: #627588" transform="translate(765.080797 663.522594) scale(0.09 -0.09)">
       <use xlink:href="#DejaVuSans-32"/>
       <use xlink:href="#DejaVuSans-30" x="63.623047"/>
       <use xlink:href="#DejaVuSans-32" x="127.246094"/>
       <use xlink:href="#DejaVuSans-34" x="190.869141"/>
      </g>
     </g>
    </g>
   </g>
   <g id="matplotlib.axis_16">
    <g id="ytick_29">
     <g id="line2d_96">
      <path d="M 488.680514 653.184 
L 843.264 653.184 
" clip-path="url(#p8b2180f64f)" style="fill: none; stroke: #d8e3ec; stroke-width: 0.85; stroke-linecap: square"/>
     </g>
     <g id="line2d_97"/>
     <g id="text_67">
      <!-- 0 -->
      <g style="fill: #627588" transform="translate(479.454264 656.603297) scale(0.09 -0.09)">
       <use xlink:href="#DejaVuSans-30"/>
      </g>
     </g>
    </g>
    <g id="ytick_30">
     <g id="line2d_98">
      <path d="M 488.680514 630.398197 
L 843.264 630.398197 
" clip-path="url(#p8b2180f64f)" style="fill: none; stroke: #d8e3ec; stroke-width: 0.85; stroke-linecap: square"/>
     </g>
     <g id="line2d_99"/>
     <g id="text_68">
      <!-- 2 -->
      <g style="fill: #627588" transform="translate(479.454264 633.817494) scale(0.09 -0.09)">
       <use xlink:href="#DejaVuSans-32"/>
      </g>
     </g>
    </g>
    <g id="ytick_31">
     <g id="line2d_100">
      <path d="M 488.680514 607.612395 
L 843.264 607.612395 
" clip-path="url(#p8b2180f64f)" style="fill: none; stroke: #d8e3ec; stroke-width: 0.85; stroke-linecap: square"/>
     </g>
     <g id="line2d_101"/>
     <g id="text_69">
      <!-- 5 -->
      <g style="fill: #627588" transform="translate(479.454264 611.031692) scale(0.09 -0.09)">
       <use xlink:href="#DejaVuSans-35"/>
      </g>
     </g>
    </g>
    <g id="ytick_32">
     <g id="line2d_102">
      <path d="M 488.680514 584.826592 
L 843.264 584.826592 
" clip-path="url(#p8b2180f64f)" style="fill: none; stroke: #d8e3ec; stroke-width: 0.85; stroke-linecap: square"/>
     </g>
     <g id="line2d_103"/>
     <g id="text_70">
      <!-- 8 -->
      <g style="fill: #627588" transform="translate(479.454264 588.245889) scale(0.09 -0.09)">
       <use xlink:href="#DejaVuSans-38"/>
      </g>
     </g>
    </g>
   </g>
   <g id="patch_17">
    <path d="M 488.680514 653.184 
L 843.264 653.184 
" style="fill: none; stroke: #93a6b8; stroke-linejoin: miter; stroke-linecap: square"/>
   </g>
   <g id="line2d_104">
    <path d="M 488.680514 653.184 
L 499.189286 653.184 
L 501.904052 651.896667 
L 520.644696 651.896667 
L 523.359462 650.587138 
L 531.241041 650.587138 
L 533.955807 651.874471 
L 536.583 651.874471 
L 539.297766 650.518173 
L 552.696451 650.518173 
L 555.411217 651.827702 
L 557.863264 651.827702 
L 560.57803 650.69408 
L 568.547182 650.69408 
L 571.261948 652.050378 
L 573.976714 651.02399 
L 579.318673 651.02399 
L 581.945866 649.236869 
L 589.827445 649.236869 
L 592.542212 650.370491 
L 595.169405 649.544918 
L 603.22613 649.544918 
L 605.940896 650.571306 
L 611.282855 650.571306 
L 613.910048 652.358427 
L 616.624814 651.735865 
L 619.339581 650.99846 
L 621.791627 650.99846 
L 624.506394 650.354793 
L 627.133587 651.180366 
L 632.475546 651.180366 
L 635.190312 649.145919 
L 637.905078 648.479668 
L 640.532271 648.479668 
L 643.247037 647.94479 
L 648.588996 647.949851 
L 651.303762 648.156118 
L 653.843382 648.156118 
L 656.558149 648.799785 
L 661.900108 647.729179 
L 664.527301 646.702792 
L 667.242067 648.259549 
L 669.956833 648.442025 
L 672.584026 647.928831 
L 675.298792 647.90931 
L 677.925985 647.281602 
L 680.640751 645.913413 
L 683.355517 646.44455 
L 685.807564 646.01785 
L 688.52233 646.01785 
L 691.149523 645.698818 
L 693.86429 645.897567 
L 696.491483 646.923954 
L 701.921015 647.125817 
L 707.262974 646.834919 
L 709.890167 646.742696 
L 712.604933 647.347429 
L 715.319699 646.644164 
L 717.771746 647.070864 
L 720.486512 645.397898 
L 723.113705 645.655141 
L 725.828471 644.595014 
L 728.455664 644.282452 
L 731.170431 644.192758 
L 736.51239 644.614275 
L 739.227156 644.234264 
L 741.854349 644.065859 
L 744.569115 643.193028 
L 747.283881 642.595734 
L 749.735928 641.783406 
L 752.450694 642.25459 
L 755.077887 641.801825 
L 757.792653 641.538158 
L 760.419846 640.486301 
L 763.134613 640.161381 
L 765.849379 639.624087 
L 768.476572 638.678059 
L 771.191338 638.927008 
L 773.818531 638.851477 
L 776.533297 640.450501 
L 779.248063 640.902427 
L 781.787683 640.799663 
L 784.502449 639.754325 
L 787.129642 639.632463 
L 789.844408 640.069531 
L 792.471601 640.654948 
L 795.186368 638.719834 
L 797.901134 638.996301 
L 800.528327 638.874503 
L 803.243093 638.032864 
L 805.870286 636.801567 
L 808.585052 635.890297 
L 811.299818 634.505028 
L 813.751865 633.643449 
L 816.466631 634.703809 
L 819.093824 631.186438 
L 821.80859 631.100041 
L 824.435783 628.746974 
L 827.150549 627.103366 
L 829.865316 622.469837 
L 832.492509 619.813138 
L 835.207275 617.840035 
L 837.834468 614.865646 
L 843.264 609.871062 
L 843.264 609.871062 
" clip-path="url(#p8b2180f64f)" style="fill: none; stroke: #24539a; stroke-width: 2.6; stroke-linecap: square"/>
   </g>
   <g id="text_71">
    <!-- Environment and energy -->
    <g style="fill: #18324a" transform="translate(488.680514 561.200639) scale(0.127 -0.127)">
     <defs>
      <path id="DejaVuSans-45" d="M 628 4666 
L 3578 4666 
L 3578 4134 
L 1259 4134 
L 1259 2753 
L 3481 2753 
L 3481 2222 
L 1259 2222 
L 1259 531 
L 3634 531 
L 3634 0 
L 628 0 
L 628 4666 
z
" transform="scale(0.015625)"/>
      <path id="DejaVuSans-67" d="M 2906 1791 
Q 2906 2416 2648 2759 
Q 2391 3103 1925 3103 
Q 1463 3103 1205 2759 
Q 947 2416 947 1791 
Q 947 1169 1205 825 
Q 1463 481 1925 481 
Q 2391 481 2648 825 
Q 2906 1169 2906 1791 
z
M 3481 434 
Q 3481 -459 3084 -895 
Q 2688 -1331 1869 -1331 
Q 1566 -1331 1297 -1286 
Q 1028 -1241 775 -1147 
L 775 -588 
Q 1028 -725 1275 -790 
Q 1522 -856 1778 -856 
Q 2344 -856 2625 -561 
Q 2906 -266 2906 331 
L 2906 616 
Q 2728 306 2450 153 
Q 2172 0 1784 0 
Q 1141 0 747 490 
Q 353 981 353 1791 
Q 353 2603 747 3093 
Q 1141 3584 1784 3584 
Q 2172 3584 2450 3431 
Q 2728 3278 2906 2969 
L 2906 3500 
L 3481 3500 
L 3481 434 
z
" transform="scale(0.015625)"/>
      <path id="DejaVuSans-79" d="M 2059 -325 
Q 1816 -950 1584 -1140 
Q 1353 -1331 966 -1331 
L 506 -1331 
L 506 -850 
L 844 -850 
Q 1081 -850 1212 -737 
Q 1344 -625 1503 -206 
L 1606 56 
L 191 3500 
L 800 3500 
L 1894 763 
L 2988 3500 
L 3597 3500 
L 2059 -325 
z
" transform="scale(0.015625)"/>
     </defs>
     <use xlink:href="#DejaVuSans-45"/>
     <use xlink:href="#DejaVuSans-6e" x="63.183594"/>
     <use xlink:href="#DejaVuSans-76" x="126.5625"/>
     <use xlink:href="#DejaVuSans-69" x="185.742188"/>
     <use xlink:href="#DejaVuSans-72" x="213.525391"/>
     <use xlink:href="#DejaVuSans-6f" x="252.388672"/>
     <use xlink:href="#DejaVuSans-6e" x="313.570312"/>
     <use xlink:href="#DejaVuSans-6d" x="376.949219"/>
     <use xlink:href="#DejaVuSans-65" x="474.361328"/>
     <use xlink:href="#DejaVuSans-6e" x="535.884766"/>
     <use xlink:href="#DejaVuSans-74" x="599.263672"/>
     <use xlink:href="#DejaVuSans-20" x="638.472656"/>
     <use xlink:href="#DejaVuSans-61" x="670.259766"/>
     <use xlink:href="#DejaVuSans-6e" x="731.539062"/>
     <use xlink:href="#DejaVuSans-64" x="794.917969"/>
     <use xlink:href="#DejaVuSans-20" x="858.394531"/>
     <use xlink:href="#DejaVuSans-65" x="890.181641"/>
     <use xlink:href="#DejaVuSans-6e" x="951.705078"/>
     <use xlink:href="#DejaVuSans-65" x="1015.083984"/>
     <use xlink:href="#DejaVuSans-72" x="1076.607422"/>
     <use xlink:href="#DejaVuSans-67" x="1115.970703"/>
     <use xlink:href="#DejaVuSans-79" x="1179.447266"/>
    </g>
   </g>
   <g id="text_72">
    <!-- 28,018 papers -->
    <g style="fill: #627588" transform="translate(488.680514 567.911263) scale(0.092 -0.092)">
     <use xlink:href="#DejaVuSans-32"/>
     <use xlink:href="#DejaVuSans-38" x="63.623047"/>
     <use xlink:href="#DejaVuSans-2c" x="127.246094"/>
     <use xlink:href="#DejaVuSans-30" x="159.033203"/>
     <use xlink:href="#DejaVuSans-31" x="222.65625"/>
     <use xlink:href="#DejaVuSans-38" x="286.279297"/>
     <use xlink:href="#DejaVuSans-20" x="349.902344"/>
     <use xlink:href="#DejaVuSans-70" x="381.689453"/>
     <use xlink:href="#DejaVuSans-61" x="445.166016"/>
     <use xlink:href="#DejaVuSans-70" x="506.445312"/>
     <use xlink:href="#DejaVuSans-65" x="569.921875"/>
     <use xlink:href="#DejaVuSans-72" x="631.445312"/>
     <use xlink:href="#DejaVuSans-73" x="672.558594"/>
    </g>
   </g>
  </g>
  <g id="text_73">
   <!-- AI-term mentions across major field slices -->
   <g style="fill: #18324a" transform="translate(70.272 56.448) scale(0.215 -0.215)">
    <defs>
     <path id="DejaVuSans-41" d="M 2188 4044 
L 1331 1722 
L 3047 1722 
L 2188 4044 
z
M 1831 4666 
L 2547 4666 
L 4325 0 
L 3669 0 
L 3244 1197 
L 1141 1197 
L 716 0 
L 50 0 
L 1831 4666 
z
" transform="scale(0.015625)"/>
     <path id="DejaVuSans-49" d="M 628 4666 
L 1259 4666 
L 1259 0 
L 628 0 
L 628 4666 
z
" transform="scale(0.015625)"/>
     <path id="DejaVuSans-2d" d="M 313 2009 
L 1997 2009 
L 1997 1497 
L 313 1497 
L 313 2009 
z
" transform="scale(0.015625)"/>
     <path id="DejaVuSans-6a" d="M 603 3500 
L 1178 3500 
L 1178 -63 
Q 1178 -731 923 -1031 
Q 669 -1331 103 -1331 
L -116 -1331 
L -116 -844 
L 38 -844 
Q 366 -844 484 -692 
Q 603 -541 603 -63 
L 603 3500 
z
M 603 4863 
L 1178 4863 
L 1178 4134 
L 603 4134 
L 603 4863 
z
" transform="scale(0.015625)"/>
    </defs>
    <use xlink:href="#DejaVuSans-41"/>
    <use xlink:href="#DejaVuSans-49" x="68.408203"/>
    <use xlink:href="#DejaVuSans-2d" x="97.900391"/>
    <use xlink:href="#DejaVuSans-74" x="133.984375"/>
    <use xlink:href="#DejaVuSans-65" x="173.193359"/>
    <use xlink:href="#DejaVuSans-72" x="234.716797"/>
    <use xlink:href="#DejaVuSans-6d" x="274.080078"/>
    <use xlink:href="#DejaVuSans-20" x="371.492188"/>
    <use xlink:href="#DejaVuSans-6d" x="403.279297"/>
    <use xlink:href="#DejaVuSans-65" x="500.691406"/>
    <use xlink:href="#DejaVuSans-6e" x="562.214844"/>
    <use xlink:href="#DejaVuSans-74" x="625.59375"/>
    <use xlink:href="#DejaVuSans-69" x="664.802734"/>
    <use xlink:href="#DejaVuSans-6f" x="692.585938"/>
    <use xlink:href="#DejaVuSans-6e" x="753.767578"/>
    <use xlink:href="#DejaVuSans-73" x="817.146484"/>
    <use xlink:href="#DejaVuSans-20" x="869.246094"/>
    <use xlink:href="#DejaVuSans-61" x="901.033203"/>
    <use xlink:href="#DejaVuSans-63" x="962.3125"/>
    <use xlink:href="#DejaVuSans-72" x="1017.292969"/>
    <use xlink:href="#DejaVuSans-6f" x="1056.15625"/>
    <use xlink:href="#DejaVuSans-73" x="1117.337891"/>
    <use xlink:href="#DejaVuSans-73" x="1169.4375"/>
    <use xlink:href="#DejaVuSans-20" x="1221.537109"/>
    <use xlink:href="#DejaVuSans-6d" x="1253.324219"/>
    <use xlink:href="#DejaVuSans-61" x="1350.736328"/>
    <use xlink:href="#DejaVuSans-6a" x="1412.015625"/>
    <use xlink:href="#DejaVuSans-6f" x="1439.798828"/>
    <use xlink:href="#DejaVuSans-72" x="1500.980469"/>
    <use xlink:href="#DejaVuSans-20" x="1542.09375"/>
    <use xlink:href="#DejaVuSans-66" x="1573.880859"/>
    <use xlink:href="#DejaVuSans-69" x="1609.085938"/>
    <use xlink:href="#DejaVuSans-65" x="1636.869141"/>
    <use xlink:href="#DejaVuSans-6c" x="1698.392578"/>
    <use xlink:href="#DejaVuSans-64" x="1726.175781"/>
    <use xlink:href="#DejaVuSans-20" x="1789.652344"/>
    <use xlink:href="#DejaVuSans-73" x="1821.439453"/>
    <use xlink:href="#DejaVuSans-6c" x="1873.539062"/>
    <use xlink:href="#DejaVuSans-69" x="1901.322266"/>
    <use xlink:href="#DejaVuSans-63" x="1929.105469"/>
    <use xlink:href="#DejaVuSans-65" x="1984.085938"/>
    <use xlink:href="#DejaVuSans-73" x="2045.609375"/>
   </g>
  </g>
  <g id="text_74">
   <!-- 12-month rolling averages from paper-level primary-topic assignments -->
   <g style="fill: #627588" transform="translate(70.272 100.8) scale(0.136 -0.136)">
    <use xlink:href="#DejaVuSans-31"/>
    <use xlink:href="#DejaVuSans-32" x="63.623047"/>
    <use xlink:href="#DejaVuSans-2d" x="127.246094"/>
    <use xlink:href="#DejaVuSans-6d" x="163.330078"/>
    <use xlink:href="#DejaVuSans-6f" x="260.742188"/>
    <use xlink:href="#DejaVuSans-6e" x="321.923828"/>
    <use xlink:href="#DejaVuSans-74" x="385.302734"/>
    <use xlink:href="#DejaVuSans-68" x="424.511719"/>
    <use xlink:href="#DejaVuSans-20" x="487.890625"/>
    <use xlink:href="#DejaVuSans-72" x="519.677734"/>
    <use xlink:href="#DejaVuSans-6f" x="558.541016"/>
    <use xlink:href="#DejaVuSans-6c" x="619.722656"/>
    <use xlink:href="#DejaVuSans-6c" x="647.505859"/>
    <use xlink:href="#DejaVuSans-69" x="675.289062"/>
    <use xlink:href="#DejaVuSans-6e" x="703.072266"/>
    <use xlink:href="#DejaVuSans-67" x="766.451172"/>
    <use xlink:href="#DejaVuSans-20" x="829.927734"/>
    <use xlink:href="#DejaVuSans-61" x="861.714844"/>
    <use xlink:href="#DejaVuSans-76" x="922.994141"/>
    <use xlink:href="#DejaVuSans-65" x="982.173828"/>
    <use xlink:href="#DejaVuSans-72" x="1043.697266"/>
    <use xlink:href="#DejaVuSans-61" x="1084.810547"/>
    <use xlink:href="#DejaVuSans-67" x="1146.089844"/>
    <use xlink:href="#DejaVuSans-65" x="1209.566406"/>
    <use xlink:href="#DejaVuSans-73" x="1271.089844"/>
    <use xlink:href="#DejaVuSans-20" x="1323.189453"/>
    <use xlink:href="#DejaVuSans-66" x="1354.976562"/>
    <use xlink:href="#DejaVuSans-72" x="1390.181641"/>
    <use xlink:href="#DejaVuSans-6f" x="1429.044922"/>
    <use xlink:href="#DejaVuSans-6d" x="1490.226562"/>
    <use xlink:href="#DejaVuSans-20" x="1587.638672"/>
    <use xlink:href="#DejaVuSans-70" x="1619.425781"/>
    <use xlink:href="#DejaVuSans-61" x="1682.902344"/>
    <use xlink:href="#DejaVuSans-70" x="1744.181641"/>
    <use xlink:href="#DejaVuSans-65" x="1807.658203"/>
    <use xlink:href="#DejaVuSans-72" x="1869.181641"/>
    <use xlink:href="#DejaVuSans-2d" x="1903.919922"/>
    <use xlink:href="#DejaVuSans-6c" x="1940.003906"/>
    <use xlink:href="#DejaVuSans-65" x="1967.787109"/>
    <use xlink:href="#DejaVuSans-76" x="2029.310547"/>
    <use xlink:href="#DejaVuSans-65" x="2088.490234"/>
    <use xlink:href="#DejaVuSans-6c" x="2150.013672"/>
    <use xlink:href="#DejaVuSans-20" x="2177.796875"/>
    <use xlink:href="#DejaVuSans-70" x="2209.583984"/>
    <use xlink:href="#DejaVuSans-72" x="2273.060547"/>
    <use xlink:href="#DejaVuSans-69" x="2314.173828"/>
    <use xlink:href="#DejaVuSans-6d" x="2341.957031"/>
    <use xlink:href="#DejaVuSans-61" x="2439.369141"/>
    <use xlink:href="#DejaVuSans-72" x="2500.648438"/>
    <use xlink:href="#DejaVuSans-79" x="2541.761719"/>
    <use xlink:href="#DejaVuSans-2d" x="2599.191406"/>
    <use xlink:href="#DejaVuSans-74" x="2635.275391"/>
    <use xlink:href="#DejaVuSans-6f" x="2674.484375"/>
    <use xlink:href="#DejaVuSans-70" x="2735.666016"/>
    <use xlink:href="#DejaVuSans-69" x="2799.142578"/>
    <use xlink:href="#DejaVuSans-63" x="2826.925781"/>
    <use xlink:href="#DejaVuSans-20" x="2881.90625"/>
    <use xlink:href="#DejaVuSans-61" x="2913.693359"/>
    <use xlink:href="#DejaVuSans-73" x="2974.972656"/>
    <use xlink:href="#DejaVuSans-73" x="3027.072266"/>
    <use xlink:href="#DejaVuSans-69" x="3079.171875"/>
    <use xlink:href="#DejaVuSans-67" x="3106.955078"/>
    <use xlink:href="#DejaVuSans-6e" x="3170.431641"/>
    <use xlink:href="#DejaVuSans-6d" x="3233.810547"/>
    <use xlink:href="#DejaVuSans-65" x="3331.222656"/>
    <use xlink:href="#DejaVuSans-6e" x="3392.746094"/>
    <use xlink:href="#DejaVuSans-74" x="3456.125"/>
    <use xlink:href="#DejaVuSans-73" x="3495.333984"/>
   </g>
  </g>
  <g id="text_75">
   <!-- Source: published-journal corpus assembled for Frontier Graph -->
   <g style="fill: #627588" transform="translate(70.272 728.694192) scale(0.105 -0.105)">
    <defs>
     <path id="DejaVuSans-53" d="M 3425 4513 
L 3425 3897 
Q 3066 4069 2747 4153 
Q 2428 4238 2131 4238 
Q 1616 4238 1336 4038 
Q 1056 3838 1056 3469 
Q 1056 3159 1242 3001 
Q 1428 2844 1947 2747 
L 2328 2669 
Q 3034 2534 3370 2195 
Q 3706 1856 3706 1288 
Q 3706 609 3251 259 
Q 2797 -91 1919 -91 
Q 1588 -91 1214 -16 
Q 841 59 441 206 
L 441 856 
Q 825 641 1194 531 
Q 1563 422 1919 422 
Q 2459 422 2753 634 
Q 3047 847 3047 1241 
Q 3047 1584 2836 1778 
Q 2625 1972 2144 2069 
L 1759 2144 
Q 1053 2284 737 2584 
Q 422 2884 422 3419 
Q 422 4038 858 4394 
Q 1294 4750 2059 4750 
Q 2388 4750 2728 4690 
Q 3069 4631 3425 4513 
z
" transform="scale(0.015625)"/>
     <path id="DejaVuSans-3a" d="M 750 794 
L 1409 794 
L 1409 0 
L 750 0 
L 750 794 
z
M 750 3309 
L 1409 3309 
L 1409 2516 
L 750 2516 
L 750 3309 
z
" transform="scale(0.015625)"/>
     <path id="DejaVuSans-47" d="M 3809 666 
L 3809 1919 
L 2778 1919 
L 2778 2438 
L 4434 2438 
L 4434 434 
Q 4069 175 3628 42 
Q 3188 -91 2688 -91 
Q 1594 -91 976 548 
Q 359 1188 359 2328 
Q 359 3472 976 4111 
Q 1594 4750 2688 4750 
Q 3144 4750 3555 4637 
Q 3966 4525 4313 4306 
L 4313 3634 
Q 3963 3931 3569 4081 
Q 3175 4231 2741 4231 
Q 1884 4231 1454 3753 
Q 1025 3275 1025 2328 
Q 1025 1384 1454 906 
Q 1884 428 2741 428 
Q 3075 428 3337 486 
Q 3600 544 3809 666 
z
" transform="scale(0.015625)"/>
    </defs>
    <use xlink:href="#DejaVuSans-53"/>
    <use xlink:href="#DejaVuSans-6f" x="63.476562"/>
    <use xlink:href="#DejaVuSans-75" x="124.658203"/>
    <use xlink:href="#DejaVuSans-72" x="188.037109"/>
    <use xlink:href="#DejaVuSans-63" x="226.900391"/>
    <use xlink:href="#DejaVuSans-65" x="281.880859"/>
    <use xlink:href="#DejaVuSans-3a" x="343.404297"/>
    <use xlink:href="#DejaVuSans-20" x="377.095703"/>
    <use xlink:href="#DejaVuSans-70" x="408.882812"/>
    <use xlink:href="#DejaVuSans-75" x="472.359375"/>
    <use xlink:href="#DejaVuSans-62" x="535.738281"/>
    <use xlink:href="#DejaVuSans-6c" x="599.214844"/>
    <use xlink:href="#DejaVuSans-69" x="626.998047"/>
    <use xlink:href="#DejaVuSans-73" x="654.78125"/>
    <use xlink:href="#DejaVuSans-68" x="706.880859"/>
    <use xlink:href="#DejaVuSans-65" x="770.259766"/>
    <use xlink:href="#DejaVuSans-64" x="831.783203"/>
    <use xlink:href="#DejaVuSans-2d" x="895.259766"/>
    <use xlink:href="#DejaVuSans-6a" x="931.34375"/>
    <use xlink:href="#DejaVuSans-6f" x="959.126953"/>
    <use xlink:href="#DejaVuSans-75" x="1020.308594"/>
    <use xlink:href="#DejaVuSans-72" x="1083.6875"/>
    <use xlink:href="#DejaVuSans-6e" x="1123.050781"/>
    <use xlink:href="#DejaVuSans-61" x="1186.429688"/>
    <use xlink:href="#DejaVuSans-6c" x="1247.708984"/>
    <use xlink:href="#DejaVuSans-20" x="1275.492188"/>
    <use xlink:href="#DejaVuSans-63" x="1307.279297"/>
    <use xlink:href="#DejaVuSans-6f" x="1362.259766"/>
    <use xlink:href="#DejaVuSans-72" x="1423.441406"/>
    <use xlink:href="#DejaVuSans-70" x="1464.554688"/>
    <use xlink:href="#DejaVuSans-75" x="1528.03125"/>
    <use xlink:href="#DejaVuSans-73" x="1591.410156"/>
    <use xlink:href="#DejaVuSans-20" x="1643.509766"/>
    <use xlink:href="#DejaVuSans-61" x="1675.296875"/>
    <use xlink:href="#DejaVuSans-73" x="1736.576172"/>
    <use xlink:href="#DejaVuSans-73" x="1788.675781"/>
    <use xlink:href="#DejaVuSans-65" x="1840.775391"/>
    <use xlink:href="#DejaVuSans-6d" x="1902.298828"/>
    <use xlink:href="#DejaVuSans-62" x="1999.710938"/>
    <use xlink:href="#DejaVuSans-6c" x="2063.1875"/>
    <use xlink:href="#DejaVuSans-65" x="2090.970703"/>
    <use xlink:href="#DejaVuSans-64" x="2152.494141"/>
    <use xlink:href="#DejaVuSans-20" x="2215.970703"/>
    <use xlink:href="#DejaVuSans-66" x="2247.757812"/>
    <use xlink:href="#DejaVuSans-6f" x="2282.962891"/>
    <use xlink:href="#DejaVuSans-72" x="2344.144531"/>
    <use xlink:href="#DejaVuSans-20" x="2385.257812"/>
    <use xlink:href="#DejaVuSans-46" x="2417.044922"/>
    <use xlink:href="#DejaVuSans-72" x="2467.314453"/>
    <use xlink:href="#DejaVuSans-6f" x="2506.177734"/>
    <use xlink:href="#DejaVuSans-6e" x="2567.359375"/>
    <use xlink:href="#DejaVuSans-74" x="2630.738281"/>
    <use xlink:href="#DejaVuSans-69" x="2669.947266"/>
    <use xlink:href="#DejaVuSans-65" x="2697.730469"/>
    <use xlink:href="#DejaVuSans-72" x="2759.253906"/>
    <use xlink:href="#DejaVuSans-20" x="2800.367188"/>
    <use xlink:href="#DejaVuSans-47" x="2832.154297"/>
    <use xlink:href="#DejaVuSans-72" x="2909.644531"/>
    <use xlink:href="#DejaVuSans-61" x="2950.757812"/>
    <use xlink:href="#DejaVuSans-70" x="3012.037109"/>
    <use xlink:href="#DejaVuSans-68" x="3075.513672"/>
   </g>
   <!-- Fields are assigned with a transparent keyword map over each paper's OpenAlex primary topic label. -->
   <g style="fill: #627588" transform="translate(70.272 741.888) scale(0.105 -0.105)">
    <defs>
     <path id="DejaVuSans-77" d="M 269 3500 
L 844 3500 
L 1563 769 
L 2278 3500 
L 2956 3500 
L 3675 769 
L 4391 3500 
L 4966 3500 
L 4050 0 
L 3372 0 
L 2619 2869 
L 1863 0 
L 1184 0 
L 269 3500 
z
" transform="scale(0.015625)"/>
     <path id="DejaVuSans-6b" d="M 581 4863 
L 1159 4863 
L 1159 1991 
L 2875 3500 
L 3609 3500 
L 1753 1863 
L 3688 0 
L 2938 0 
L 1159 1709 
L 1159 0 
L 581 0 
L 581 4863 
z
" transform="scale(0.015625)"/>
     <path id="DejaVuSans-27" d="M 1147 4666 
L 1147 2931 
L 616 2931 
L 616 4666 
L 1147 4666 
z
" transform="scale(0.015625)"/>
     <path id="DejaVuSans-4f" d="M 2522 4238 
Q 1834 4238 1429 3725 
Q 1025 3213 1025 2328 
Q 1025 1447 1429 934 
Q 1834 422 2522 422 
Q 3209 422 3611 934 
Q 4013 1447 4013 2328 
Q 4013 3213 3611 3725 
Q 3209 4238 2522 4238 
z
M 2522 4750 
Q 3503 4750 4090 4092 
Q 4678 3434 4678 2328 
Q 4678 1225 4090 567 
Q 3503 -91 2522 -91 
Q 1538 -91 948 565 
Q 359 1222 359 2328 
Q 359 3434 948 4092 
Q 1538 4750 2522 4750 
z
" transform="scale(0.015625)"/>
     <path id="DejaVuSans-78" d="M 3513 3500 
L 2247 1797 
L 3578 0 
L 2900 0 
L 1881 1375 
L 863 0 
L 184 0 
L 1544 1831 
L 300 3500 
L 978 3500 
L 1906 2253 
L 2834 3500 
L 3513 3500 
z
" transform="scale(0.015625)"/>
     <path id="DejaVuSans-2e" d="M 684 794 
L 1344 794 
L 1344 0 
L 684 0 
L 684 794 
z
" transform="scale(0.015625)"/>
    </defs>
    <use xlink:href="#DejaVuSans-46"/>
    <use xlink:href="#DejaVuSans-69" x="50.269531"/>
    <use xlink:href="#DejaVuSans-65" x="78.052734"/>
    <use xlink:href="#DejaVuSans-6c" x="139.576172"/>
    <use xlink:href="#DejaVuSans-64" x="167.359375"/>
    <use xlink:href="#DejaVuSans-73" x="230.835938"/>
    <use xlink:href="#DejaVuSans-20" x="282.935547"/>
    <use xlink:href="#DejaVuSans-61" x="314.722656"/>
    <use xlink:href="#DejaVuSans-72" x="376.001953"/>
    <use xlink:href="#DejaVuSans-65" x="414.865234"/>
    <use xlink:href="#DejaVuSans-20" x="476.388672"/>
    <use xlink:href="#DejaVuSans-61" x="508.175781"/>
    <use xlink:href="#DejaVuSans-73" x="569.455078"/>
    <use xlink:href="#DejaVuSans-73" x="621.554688"/>
    <use xlink:href="#DejaVuSans-69" x="673.654297"/>
    <use xlink:href="#DejaVuSans-67" x="701.4375"/>
    <use xlink:href="#DejaVuSans-6e" x="764.914062"/>
    <use xlink:href="#DejaVuSans-65" x="828.292969"/>
    <use xlink:href="#DejaVuSans-64" x="889.816406"/>
    <use xlink:href="#DejaVuSans-20" x="953.292969"/>
    <use xlink:href="#DejaVuSans-77" x="985.080078"/>
    <use xlink:href="#DejaVuSans-69" x="1066.867188"/>
    <use xlink:href="#DejaVuSans-74" x="1094.650391"/>
    <use xlink:href="#DejaVuSans-68" x="1133.859375"/>
    <use xlink:href="#DejaVuSans-20" x="1197.238281"/>
    <use xlink:href="#DejaVuSans-61" x="1229.025391"/>
    <use xlink:href="#DejaVuSans-20" x="1290.304688"/>
    <use xlink:href="#DejaVuSans-74" x="1322.091797"/>
    <use xlink:href="#DejaVuSans-72" x="1361.300781"/>
    <use xlink:href="#DejaVuSans-61" x="1402.414062"/>
    <use xlink:href="#DejaVuSans-6e" x="1463.693359"/>
    <use xlink:href="#DejaVuSans-73" x="1527.072266"/>
    <use xlink:href="#DejaVuSans-70" x="1579.171875"/>
    <use xlink:href="#DejaVuSans-61" x="1642.648438"/>
    <use xlink:href="#DejaVuSans-72" x="1703.927734"/>
    <use xlink:href="#DejaVuSans-65" x="1742.791016"/>
    <use xlink:href="#DejaVuSans-6e" x="1804.314453"/>
    <use xlink:href="#DejaVuSans-74" x="1867.693359"/>
    <use xlink:href="#DejaVuSans-20" x="1906.902344"/>
    <use xlink:href="#DejaVuSans-6b" x="1938.689453"/>
    <use xlink:href="#DejaVuSans-65" x="1992.974609"/>
    <use xlink:href="#DejaVuSans-79" x="2054.498047"/>
    <use xlink:href="#DejaVuSans-77" x="2113.677734"/>
    <use xlink:href="#DejaVuSans-6f" x="2195.464844"/>
    <use xlink:href="#DejaVuSans-72" x="2256.646484"/>
    <use xlink:href="#DejaVuSans-64" x="2296.009766"/>
    <use xlink:href="#DejaVuSans-20" x="2359.486328"/>
    <use xlink:href="#DejaVuSans-6d" x="2391.273438"/>
    <use xlink:href="#DejaVuSans-61" x="2488.685547"/>
    <use xlink:href="#DejaVuSans-70" x="2549.964844"/>
    <use xlink:href="#DejaVuSans-20" x="2613.441406"/>
    <use xlink:href="#DejaVuSans-6f" x="2645.228516"/>
    <use xlink:href="#DejaVuSans-76" x="2706.410156"/>
    <use xlink:href="#DejaVuSans-65" x="2765.589844"/>
    <use xlink:href="#DejaVuSans-72" x="2827.113281"/>
    <use xlink:href="#DejaVuSans-20" x="2868.226562"/>
    <use xlink:href="#DejaVuSans-65" x="2900.013672"/>
    <use xlink:href="#DejaVuSans-61" x="2961.537109"/>
    <use xlink:href="#DejaVuSans-63" x="3022.816406"/>
    <use xlink:href="#DejaVuSans-68" x="3077.796875"/>
    <use xlink:href="#DejaVuSans-20" x="3141.175781"/>
    <use xlink:href="#DejaVuSans-70" x="3172.962891"/>
    <use xlink:href="#DejaVuSans-61" x="3236.439453"/>
    <use xlink:href="#DejaVuSans-70" x="3297.71875"/>
    <use xlink:href="#DejaVuSans-65" x="3361.195312"/>
    <use xlink:href="#DejaVuSans-72" x="3422.71875"/>
    <use xlink:href="#DejaVuSans-27" x="3463.832031"/>
    <use xlink:href="#DejaVuSans-73" x="3491.322266"/>
    <use xlink:href="#DejaVuSans-20" x="3543.421875"/>
    <use xlink:href="#DejaVuSans-4f" x="3575.208984"/>
    <use xlink:href="#DejaVuSans-70" x="3653.919922"/>
    <use xlink:href="#DejaVuSans-65" x="3717.396484"/>
    <use xlink:href="#DejaVuSans-6e" x="3778.919922"/>
    <use xlink:href="#DejaVuSans-41" x="3842.298828"/>
    <use xlink:href="#DejaVuSans-6c" x="3910.707031"/>
    <use xlink:href="#DejaVuSans-65" x="3938.490234"/>
    <use xlink:href="#DejaVuSans-78" x="3998.263672"/>
    <use xlink:href="#DejaVuSans-20" x="4057.443359"/>
    <use xlink:href="#DejaVuSans-70" x="4089.230469"/>
    <use xlink:href="#DejaVuSans-72" x="4152.707031"/>
    <use xlink:href="#DejaVuSans-69" x="4193.820312"/>
    <use xlink:href="#DejaVuSans-6d" x="4221.603516"/>
    <use xlink:href="#DejaVuSans-61" x="4319.015625"/>
    <use xlink:href="#DejaVuSans-72" x="4380.294922"/>
    <use xlink:href="#DejaVuSans-79" x="4421.408203"/>
    <use xlink:href="#DejaVuSans-20" x="4480.587891"/>
    <use xlink:href="#DejaVuSans-74" x="4512.375"/>
    <use xlink:href="#DejaVuSans-6f" x="4551.583984"/>
    <use xlink:href="#DejaVuSans-70" x="4612.765625"/>
    <use xlink:href="#DejaVuSans-69" x="4676.242188"/>
    <use xlink:href="#DejaVuSans-63" x="4704.025391"/>
    <use xlink:href="#DejaVuSans-20" x="4759.005859"/>
    <use xlink:href="#DejaVuSans-6c" x="4790.792969"/>
    <use xlink:href="#DejaVuSans-61" x="4818.576172"/>
    <use xlink:href="#DejaVuSans-62" x="4879.855469"/>
    <use xlink:href="#DejaVuSans-65" x="4943.332031"/>
    <use xlink:href="#DejaVuSans-6c" x="5004.855469"/>
    <use xlink:href="#DejaVuSans-2e" x="5032.638672"/>
   </g>
  </g>
 </g>
 <defs>
  <clipPath id="p6ffef12a3f">
   <rect x="70.272" y="209.664" width="354.583486" height="79.769784"/>
  </clipPath>
  <clipPath id="p1bdd9746f3">
   <rect x="488.680514" y="209.664" width="354.583486" height="79.769784"/>
  </clipPath>
  <clipPath id="p5991f85443">
   <rect x="70.272" y="330.914072" width="354.583486" height="79.769784"/>
  </clipPath>
  <clipPath id="p8930d41832">
   <rect x="488.680514" y="330.914072" width="354.583486" height="79.769784"/>
  </clipPath>
  <clipPath id="p1d931e006b">
   <rect x="70.272" y="452.164144" width="354.583486" height="79.769784"/>
  </clipPath>
  <clipPath id="p11beca2205">
   <rect x="488.680514" y="452.164144" width="354.583486" height="79.769784"/>
  </clipPath>
  <clipPath id="pb52ab76b72">
   <rect x="70.272" y="573.414216" width="354.583486" height="79.769784"/>
  </clipPath>
  <clipPath id="p8b2180f64f">
   <rect x="488.680514" y="573.414216" width="354.583486" height="79.769784"/>
  </clipPath>
 </defs>
</svg>
