<?xml version="1.0" encoding="utf-8" standalone="no"?>
<!DOCTYPE svg PUBLIC "-//W3C//DTD SVG 1.1//EN"
  "http://www.w3.org/Graphics/SVG/1.1/DTD/svg11.dtd">
<svg xmlns:xlink="http://www.w3.org/1999/xlink" width="806.4pt" height="525.6pt" viewBox="0 0 806.4 525.6" xmlns="http://www.w3.org/2000/svg" version="1.1">
 <metadata>
  <rdf:RDF xmlns:dc="http://purl.org/dc/elements/1.1/" xmlns:cc="http://creativecommons.org/ns#" xmlns:rdf="http://www.w3.org/1999/02/22-rdf-syntax-ns#">
   <cc:Work>
    <dc:type rdf:resource="http://purl.org/dc/dcmitype/StillImage"/>
    <dc:date>2026-03-19T19:08:39.808039</dc:date>
    <dc:format>image/svg+xml</dc:format>
    <dc:creator>
     <cc:Agent>
      <dc:title>Matplotlib v3.9.4, https://matplotlib.org/</dc:title>
     </cc:Agent>
    </dc:creator>
   </cc:Work>
  </rdf:RDF>
 </metadata>
 <defs>
  <style type="text/css">*{stroke-linejoin: round; stroke-linecap: butt}</style>
 </defs>
 <g id="figure_1">
  <g id="patch_1">
   <path d="M 0 525.6 
L 806.4 525.6 
L 806.4 0 
L 0 0 
z
" style="fill: #f4f8fb"/>
  </g>
  <g id="axes_1">
   <g id="patch_2">
    <path d="M 64.512 404.712 
L 741.888 404.712 
L 741.888 131.4 
L 64.512 131.4 
z
" style="fill: #ffffff"/>
   </g>
   <g id="line2d_1">
    <path d="M 547.993511 404.712 
L 547.993511 131.4 
" clip-path="url(#pd69f885bf6)" style="fill: none; stroke-dasharray: 3.6,3.6; stroke-dashoffset: 0; stroke: #8396a8; stroke-width: 1.8"/>
   </g>
   <g id="matplotlib.axis_1">
    <g id="xtick_1">
     <g id="line2d_2"/>
     <g id="text_1">
      <!-- 2016 -->
      <g style="fill: #627588" transform="translate(110.940794 416.950203) scale(0.115 -0.115)">
       <defs>
        <path id="DejaVuSans-32" d="M 1228 531 
L 3431 531 
L 3431 0 
L 469 0 
L 469 531 
Q 828 903 1448 1529 
Q 2069 2156 2228 2338 
Q 2531 2678 2651 2914 
Q 2772 3150 2772 3378 
Q 2772 3750 2511 3984 
Q 2250 4219 1831 4219 
Q 1534 4219 1204 4116 
Q 875 4013 500 3803 
L 500 4441 
Q 881 4594 1212 4672 
Q 1544 4750 1819 4750 
Q 2544 4750 2975 4387 
Q 3406 4025 3406 3419 
Q 3406 3131 3298 2873 
Q 3191 2616 2906 2266 
Q 2828 2175 2409 1742 
Q 1991 1309 1228 531 
z
" transform="scale(0.015625)"/>
        <path id="DejaVuSans-30" d="M 2034 4250 
Q 1547 4250 1301 3770 
Q 1056 3291 1056 2328 
Q 1056 1369 1301 889 
Q 1547 409 2034 409 
Q 2525 409 2770 889 
Q 3016 1369 3016 2328 
Q 3016 3291 2770 3770 
Q 2525 4250 2034 4250 
z
M 2034 4750 
Q 2819 4750 3233 4129 
Q 3647 3509 3647 2328 
Q 3647 1150 3233 529 
Q 2819 -91 2034 -91 
Q 1250 -91 836 529 
Q 422 1150 422 2328 
Q 422 3509 836 4129 
Q 1250 4750 2034 4750 
z
" transform="scale(0.015625)"/>
        <path id="DejaVuSans-31" d="M 794 531 
L 1825 531 
L 1825 4091 
L 703 3866 
L 703 4441 
L 1819 4666 
L 2450 4666 
L 2450 531 
L 3481 531 
L 3481 0 
L 794 0 
L 794 531 
z
" transform="scale(0.015625)"/>
        <path id="DejaVuSans-36" d="M 2113 2584 
Q 1688 2584 1439 2293 
Q 1191 2003 1191 1497 
Q 1191 994 1439 701 
Q 1688 409 2113 409 
Q 2538 409 2786 701 
Q 3034 994 3034 1497 
Q 3034 2003 2786 2293 
Q 2538 2584 2113 2584 
z
M 3366 4563 
L 3366 3988 
Q 3128 4100 2886 4159 
Q 2644 4219 2406 4219 
Q 1781 4219 1451 3797 
Q 1122 3375 1075 2522 
Q 1259 2794 1537 2939 
Q 1816 3084 2150 3084 
Q 2853 3084 3261 2657 
Q 3669 2231 3669 1497 
Q 3669 778 3244 343 
Q 2819 -91 2113 -91 
Q 1303 -91 875 529 
Q 447 1150 447 2328 
Q 447 3434 972 4092 
Q 1497 4750 2381 4750 
Q 2619 4750 2861 4703 
Q 3103 4656 3366 4563 
z
" transform="scale(0.015625)"/>
       </defs>
       <use xlink:href="#DejaVuSans-32"/>
       <use xlink:href="#DejaVuSans-30" x="63.623047"/>
       <use xlink:href="#DejaVuSans-31" x="127.246094"/>
       <use xlink:href="#DejaVuSans-36" x="190.869141"/>
      </g>
     </g>
    </g>
    <g id="xtick_2">
     <g id="line2d_3"/>
     <g id="text_2">
      <!-- 2018 -->
      <g style="fill: #627588" transform="translate(233.233176 416.950203) scale(0.115 -0.115)">
       <defs>
        <path id="DejaVuSans-38" d="M 2034 2216 
Q 1584 2216 1326 1975 
Q 1069 1734 1069 1313 
Q 1069 891 1326 650 
Q 1584 409 2034 409 
Q 2484 409 2743 651 
Q 3003 894 3003 1313 
Q 3003 1734 2745 1975 
Q 2488 2216 2034 2216 
z
M 1403 2484 
Q 997 2584 770 2862 
Q 544 3141 544 3541 
Q 544 4100 942 4425 
Q 1341 4750 2034 4750 
Q 2731 4750 3128 4425 
Q 3525 4100 3525 3541 
Q 3525 3141 3298 2862 
Q 3072 2584 2669 2484 
Q 3125 2378 3379 2068 
Q 3634 1759 3634 1313 
Q 3634 634 3220 271 
Q 2806 -91 2034 -91 
Q 1263 -91 848 271 
Q 434 634 434 1313 
Q 434 1759 690 2068 
Q 947 2378 1403 2484 
z
M 1172 3481 
Q 1172 3119 1398 2916 
Q 1625 2713 2034 2713 
Q 2441 2713 2670 2916 
Q 2900 3119 2900 3481 
Q 2900 3844 2670 4047 
Q 2441 4250 2034 4250 
Q 1625 4250 1398 4047 
Q 1172 3844 1172 3481 
z
" transform="scale(0.015625)"/>
       </defs>
       <use xlink:href="#DejaVuSans-32"/>
       <use xlink:href="#DejaVuSans-30" x="63.623047"/>
       <use xlink:href="#DejaVuSans-31" x="127.246094"/>
       <use xlink:href="#DejaVuSans-38" x="190.869141"/>
      </g>
     </g>
    </g>
    <g id="xtick_3">
     <g id="line2d_4"/>
     <g id="text_3">
      <!-- 2020 -->
      <g style="fill: #627588" transform="translate(355.358264 416.950203) scale(0.115 -0.115)">
       <use xlink:href="#DejaVuSans-32"/>
       <use xlink:href="#DejaVuSans-30" x="63.623047"/>
       <use xlink:href="#DejaVuSans-32" x="127.246094"/>
       <use xlink:href="#DejaVuSans-30" x="190.869141"/>
      </g>
     </g>
    </g>
    <g id="xtick_4">
     <g id="line2d_5"/>
     <g id="text_4">
      <!-- 2022 -->
      <g style="fill: #627588" transform="translate(477.650646 416.950203) scale(0.115 -0.115)">
       <use xlink:href="#DejaVuSans-32"/>
       <use xlink:href="#DejaVuSans-30" x="63.623047"/>
       <use xlink:href="#DejaVuSans-32" x="127.246094"/>
       <use xlink:href="#DejaVuSans-32" x="190.869141"/>
      </g>
     </g>
    </g>
    <g id="xtick_5">
     <g id="line2d_6"/>
     <g id="text_5">
      <!-- 2024 -->
      <g style="fill: #627588" transform="translate(599.775734 416.950203) scale(0.115 -0.115)">
       <defs>
        <path id="DejaVuSans-34" d="M 2419 4116 
L 825 1625 
L 2419 1625 
L 2419 4116 
z
M 2253 4666 
L 3047 4666 
L 3047 1625 
L 3713 1625 
L 3713 1100 
L 3047 1100 
L 3047 0 
L 2419 0 
L 2419 1100 
L 313 1100 
L 313 1709 
L 2253 4666 
z
" transform="scale(0.015625)"/>
       </defs>
       <use xlink:href="#DejaVuSans-32"/>
       <use xlink:href="#DejaVuSans-30" x="63.623047"/>
       <use xlink:href="#DejaVuSans-32" x="127.246094"/>
       <use xlink:href="#DejaVuSans-34" x="190.869141"/>
      </g>
     </g>
    </g>
    <g id="xtick_6">
     <g id="line2d_7"/>
     <g id="text_6">
      <!-- 2026 -->
      <g style="fill: #627588" transform="translate(722.068116 416.950203) scale(0.115 -0.115)">
       <use xlink:href="#DejaVuSans-32"/>
       <use xlink:href="#DejaVuSans-30" x="63.623047"/>
       <use xlink:href="#DejaVuSans-32" x="127.246094"/>
       <use xlink:href="#DejaVuSans-36" x="190.869141"/>
      </g>
     </g>
    </g>
   </g>
   <g id="matplotlib.axis_2">
    <g id="ytick_1">
     <g id="line2d_8">
      <path d="M 64.512 404.712 
L 741.888 404.712 
" clip-path="url(#pd69f885bf6)" style="fill: none; stroke: #d8e3ec; stroke-linecap: square"/>
     </g>
     <g id="line2d_9"/>
     <g id="text_7">
      <!-- 0 -->
      <g style="fill: #627588" transform="translate(53.695125 409.081102) scale(0.115 -0.115)">
       <use xlink:href="#DejaVuSans-30"/>
      </g>
     </g>
    </g>
    <g id="ytick_2">
     <g id="line2d_10">
      <path d="M 64.512 355.266093 
L 741.888 355.266093 
" clip-path="url(#pd69f885bf6)" style="fill: none; stroke: #d8e3ec; stroke-linecap: square"/>
     </g>
     <g id="line2d_11"/>
     <g id="text_8">
      <!-- 1 -->
      <g style="fill: #627588" transform="translate(53.695125 359.635194) scale(0.115 -0.115)">
       <use xlink:href="#DejaVuSans-31"/>
      </g>
     </g>
    </g>
    <g id="ytick_3">
     <g id="line2d_12">
      <path d="M 64.512 305.820186 
L 741.888 305.820186 
" clip-path="url(#pd69f885bf6)" style="fill: none; stroke: #d8e3ec; stroke-linecap: square"/>
     </g>
     <g id="line2d_13"/>
     <g id="text_9">
      <!-- 2 -->
      <g style="fill: #627588" transform="translate(53.695125 310.189287) scale(0.115 -0.115)">
       <use xlink:href="#DejaVuSans-32"/>
      </g>
     </g>
    </g>
    <g id="ytick_4">
     <g id="line2d_14">
      <path d="M 64.512 256.374279 
L 741.888 256.374279 
" clip-path="url(#pd69f885bf6)" style="fill: none; stroke: #d8e3ec; stroke-linecap: square"/>
     </g>
     <g id="line2d_15"/>
     <g id="text_10">
      <!-- 3 -->
      <g style="fill: #627588" transform="translate(53.695125 260.74338) scale(0.115 -0.115)">
       <defs>
        <path id="DejaVuSans-33" d="M 2597 2516 
Q 3050 2419 3304 2112 
Q 3559 1806 3559 1356 
Q 3559 666 3084 287 
Q 2609 -91 1734 -91 
Q 1441 -91 1130 -33 
Q 819 25 488 141 
L 488 750 
Q 750 597 1062 519 
Q 1375 441 1716 441 
Q 2309 441 2620 675 
Q 2931 909 2931 1356 
Q 2931 1769 2642 2001 
Q 2353 2234 1838 2234 
L 1294 2234 
L 1294 2753 
L 1863 2753 
Q 2328 2753 2575 2939 
Q 2822 3125 2822 3475 
Q 2822 3834 2567 4026 
Q 2313 4219 1838 4219 
Q 1578 4219 1281 4162 
Q 984 4106 628 3988 
L 628 4550 
Q 988 4650 1302 4700 
Q 1616 4750 1894 4750 
Q 2613 4750 3031 4423 
Q 3450 4097 3450 3541 
Q 3450 3153 3228 2886 
Q 3006 2619 2597 2516 
z
" transform="scale(0.015625)"/>
       </defs>
       <use xlink:href="#DejaVuSans-33"/>
      </g>
     </g>
    </g>
    <g id="ytick_5">
     <g id="line2d_16">
      <path d="M 64.512 206.928371 
L 741.888 206.928371 
" clip-path="url(#pd69f885bf6)" style="fill: none; stroke: #d8e3ec; stroke-linecap: square"/>
     </g>
     <g id="line2d_17"/>
     <g id="text_11">
      <!-- 4 -->
      <g style="fill: #627588" transform="translate(53.695125 211.297473) scale(0.115 -0.115)">
       <use xlink:href="#DejaVuSans-34"/>
      </g>
     </g>
    </g>
    <g id="ytick_6">
     <g id="line2d_18">
      <path d="M 64.512 157.482464 
L 741.888 157.482464 
" clip-path="url(#pd69f885bf6)" style="fill: none; stroke: #d8e3ec; stroke-linecap: square"/>
     </g>
     <g id="line2d_19"/>
     <g id="text_12">
      <!-- 5 -->
      <g style="fill: #627588" transform="translate(53.695125 161.851566) scale(0.115 -0.115)">
       <defs>
        <path id="DejaVuSans-35" d="M 691 4666 
L 3169 4666 
L 3169 4134 
L 1269 4134 
L 1269 2991 
Q 1406 3038 1543 3061 
Q 1681 3084 1819 3084 
Q 2600 3084 3056 2656 
Q 3513 2228 3513 1497 
Q 3513 744 3044 326 
Q 2575 -91 1722 -91 
Q 1428 -91 1123 -41 
Q 819 9 494 109 
L 494 744 
Q 775 591 1075 516 
Q 1375 441 1709 441 
Q 2250 441 2565 725 
Q 2881 1009 2881 1497 
Q 2881 1984 2565 2268 
Q 2250 2553 1709 2553 
Q 1456 2553 1204 2497 
Q 953 2441 691 2322 
L 691 4666 
z
" transform="scale(0.015625)"/>
       </defs>
       <use xlink:href="#DejaVuSans-35"/>
      </g>
     </g>
    </g>
   </g>
   <g id="line2d_20">
    <path d="M 64.512 397.718237 
L 69.698134 395.70546 
L 74.382384 396.415707 
L 79.568518 404.712 
L 84.587357 397.069665 
L 89.773491 386.296392 
L 94.79233 404.712 
L 105.164598 404.712 
L 110.183437 389.75106 
L 115.369571 395.738151 
L 120.38841 396.052472 
L 125.574544 400.095202 
L 130.760678 380.47381 
L 135.612222 396.850965 
L 140.798356 396.429603 
L 145.817195 404.712 
L 151.003329 396.961858 
L 156.022168 397.617896 
L 161.208302 395.689024 
L 166.394436 404.712 
L 171.413275 397.163007 
L 176.599409 404.712 
L 181.618248 396.698077 
L 186.804382 391.543982 
L 191.990516 404.712 
L 196.674766 404.712 
L 201.8609 396.749696 
L 206.879739 391.146593 
L 212.065873 404.712 
L 217.084712 397.23153 
L 222.270846 396.288506 
L 227.45698 390.564387 
L 232.475819 396.72397 
L 237.661953 390.083033 
L 242.680792 390.996076 
L 247.866926 381.425074 
L 253.05306 398.171536 
L 257.73731 377.948315 
L 262.923444 389.308291 
L 267.942283 378.34085 
L 273.128417 397.461867 
L 278.147256 397.806147 
L 283.33339 404.712 
L 288.519524 390.900294 
L 293.538363 384.419562 
L 298.724497 385.14238 
L 303.743336 389.42733 
L 308.92947 392.782951 
L 314.115604 390.017823 
L 318.799854 376.657585 
L 323.985988 385.06462 
L 329.004827 371.930183 
L 334.190961 368.567331 
L 339.2098 372.687449 
L 344.395934 384.666362 
L 349.582068 370.037451 
L 354.600907 404.712 
L 359.787041 381.497959 
L 364.80588 368.933485 
L 369.992014 372.673615 
L 375.178148 384.959973 
L 380.029692 362.295168 
L 385.215826 391.07175 
L 390.234665 358.01597 
L 395.420799 370.374564 
L 400.439638 359.710037 
L 405.625772 368.844503 
L 410.811906 353.472718 
L 415.830745 388.119414 
L 421.016879 358.868113 
L 426.035718 380.324376 
L 431.221852 363.889786 
L 436.407986 374.525243 
L 441.092236 354.102064 
L 446.27837 399.054574 
L 451.297209 355.512092 
L 456.483343 364.224051 
L 461.502182 389.773659 
L 466.688316 336.619119 
L 471.87445 377.839224 
L 476.893289 381.525174 
L 482.079423 362.808689 
L 487.098262 359.209631 
L 492.284396 366.418945 
L 497.47053 370.334776 
L 502.15478 389.497875 
L 507.340914 362.985496 
L 512.359753 354.949422 
L 517.545887 358.196565 
L 522.564726 344.473331 
L 527.75086 371.387042 
L 532.936994 348.621529 
L 537.955833 349.362104 
L 543.141967 353.247085 
L 548.160806 327.806197 
L 553.34694 331.818771 
L 558.533074 346.59732 
L 563.217324 329.252383 
L 568.403458 326.663679 
L 573.422297 346.357271 
L 578.608431 328.46542 
L 583.62727 337.780146 
L 588.813404 336.861699 
L 593.999538 364.8684 
L 599.018377 304.912921 
L 604.204511 334.605209 
L 609.22335 317.233984 
L 614.409484 326.226433 
L 619.595618 342.347793 
L 624.447162 343.94898 
L 629.633296 286.550825 
L 634.652135 354.109463 
L 639.838269 330.635735 
L 644.857108 330.045362 
L 650.043242 306.887364 
L 655.229376 341.895058 
L 660.248215 303.237191 
L 665.434349 294.482271 
L 670.453188 231.217589 
L 675.639322 323.431057 
L 680.825456 244.295889 
L 685.509706 310.773316 
L 690.69584 332.263784 
L 695.714679 216.047171 
L 700.900813 307.412362 
L 705.919652 254.875918 
L 711.105786 225.884126 
L 716.29192 194.498347 
L 721.310759 216.602571 
L 726.496893 281.570852 
L 731.515732 173.091661 
L 736.701866 263.149076 
L 741.888 236.742889 
L 741.888 236.742889 
" clip-path="url(#pd69f885bf6)" style="fill: none; stroke: #8fd7e8; stroke-opacity: 0.9; stroke-width: 2.5; stroke-linecap: square"/>
   </g>
   <g id="patch_3">
    <path d="M 64.512 404.712 
L 741.888 404.712 
" style="fill: none; stroke: #93a6b8; stroke-width: 1.1; stroke-linejoin: miter; stroke-linecap: square"/>
   </g>
   <g id="line2d_21">
    <path d="M 64.512 401.405177 
L 69.698134 402.077945 
L 74.382384 401.386588 
L 84.587357 401.430799 
L 89.773491 399.896165 
L 94.79233 400.515788 
L 105.164598 400.515788 
L 110.183437 399.269043 
L 120.38841 397.799595 
L 125.574544 397.997676 
L 130.760678 396.728372 
L 135.612222 396.764643 
L 140.798356 396.074443 
L 145.817195 396.711305 
L 151.003329 397.600093 
L 156.022168 397.008918 
L 161.208302 396.257003 
L 166.394436 396.257003 
L 176.599409 397.622486 
L 181.618248 397.676287 
L 186.804382 396.963685 
L 191.990516 398.983534 
L 196.674766 399.638621 
L 201.8609 399.665295 
L 206.879739 398.534844 
L 212.065873 399.18069 
L 222.270846 399.198449 
L 227.45698 398.019482 
L 232.475819 397.982895 
L 237.661953 396.763815 
L 242.680792 396.288648 
L 247.866926 395.445405 
L 253.05306 394.900367 
L 257.73731 392.67006 
L 262.923444 392.049943 
L 267.942283 390.982797 
L 273.128417 390.37862 
L 278.147256 390.426504 
L 283.33339 391.128462 
L 288.519524 391.156454 
L 293.538363 390.131087 
L 298.724497 389.719366 
L 303.743336 389.588637 
L 308.92947 390.535127 
L 314.115604 389.855651 
L 318.799854 389.74809 
L 323.985988 389.394451 
L 329.004827 388.860228 
L 334.190961 386.45235 
L 339.2098 384.359126 
L 349.582068 380.950085 
L 354.600907 382.641122 
L 359.787041 382.33742 
L 369.992014 378.953822 
L 375.178148 378.532334 
L 380.029692 377.335466 
L 385.215826 377.836061 
L 390.234665 376.676543 
L 395.420799 376.827146 
L 400.439638 375.745695 
L 410.811906 373.046812 
L 415.830745 371.664096 
L 421.016879 369.778276 
L 426.035718 370.727517 
L 431.221852 369.995531 
L 441.092236 368.443211 
L 446.27837 369.108447 
L 451.297209 368.89979 
L 456.483343 368.387248 
L 461.502182 370.892549 
L 466.688316 368.207101 
L 471.87445 370.237643 
L 476.893289 369.688123 
L 482.079423 370.016504 
L 487.098262 368.256942 
L 492.284396 368.467706 
L 497.47053 368.1185 
L 502.15478 371.068151 
L 507.340914 368.062394 
L 512.359753 368.015505 
L 517.545887 367.513215 
L 522.564726 363.738187 
L 527.75086 366.635514 
L 532.936994 364.200706 
L 537.955833 361.52045 
L 543.141967 360.72365 
L 548.160806 358.106697 
L 553.34694 355.223349 
L 558.533074 353.245228 
L 563.217324 348.22477 
L 568.403458 345.197952 
L 573.422297 344.48194 
L 578.608431 342.004344 
L 583.62727 341.446579 
L 588.813404 338.569467 
L 593.999538 339.923373 
L 599.018377 336.219274 
L 604.204511 334.665785 
L 609.22335 333.784767 
L 614.409484 333.318739 
L 619.595618 332.964611 
L 624.447162 334.189328 
L 629.633296 330.84659 
L 634.652135 331.492606 
L 639.838269 331.673466 
L 644.857108 331.0289 
L 650.043242 328.531039 
L 655.229376 326.616594 
L 660.248215 326.47695 
L 665.434349 323.133371 
L 670.453188 315.965339 
L 675.639322 315.732391 
L 680.825456 307.561399 
L 685.509706 304.79676 
L 690.69584 308.606173 
L 695.714679 297.100982 
L 700.900813 295.165701 
L 705.919652 288.901581 
L 711.105786 282.151311 
L 716.29192 269.868252 
L 721.310759 262.6487 
L 726.496893 261.572748 
L 736.701866 251.705423 
L 741.888 251.076006 
L 741.888 251.076006 
" clip-path="url(#pd69f885bf6)" style="fill: none; stroke: #137c82; stroke-width: 3.2; stroke-linecap: square"/>
   </g>
   <g id="text_13">
    <!-- Nov 2022 -->
    <g style="fill: #627588" transform="translate(551.339404 156.245085) scale(0.108 -0.108)">
     <defs>
      <path id="DejaVuSans-4e" d="M 628 4666 
L 1478 4666 
L 3547 763 
L 3547 4666 
L 4159 4666 
L 4159 0 
L 3309 0 
L 1241 3903 
L 1241 0 
L 628 0 
L 628 4666 
z
" transform="scale(0.015625)"/>
      <path id="DejaVuSans-6f" d="M 1959 3097 
Q 1497 3097 1228 2736 
Q 959 2375 959 1747 
Q 959 1119 1226 758 
Q 1494 397 1959 397 
Q 2419 397 2687 759 
Q 2956 1122 2956 1747 
Q 2956 2369 2687 2733 
Q 2419 3097 1959 3097 
z
M 1959 3584 
Q 2709 3584 3137 3096 
Q 3566 2609 3566 1747 
Q 3566 888 3137 398 
Q 2709 -91 1959 -91 
Q 1206 -91 779 398 
Q 353 888 353 1747 
Q 353 2609 779 3096 
Q 1206 3584 1959 3584 
z
" transform="scale(0.015625)"/>
      <path id="DejaVuSans-76" d="M 191 3500 
L 800 3500 
L 1894 563 
L 2988 3500 
L 3597 3500 
L 2284 0 
L 1503 0 
L 191 3500 
z
" transform="scale(0.015625)"/>
      <path id="DejaVuSans-20" transform="scale(0.015625)"/>
     </defs>
     <use xlink:href="#DejaVuSans-4e"/>
     <use xlink:href="#DejaVuSans-6f" x="74.804688"/>
     <use xlink:href="#DejaVuSans-76" x="135.986328"/>
     <use xlink:href="#DejaVuSans-20" x="195.166016"/>
     <use xlink:href="#DejaVuSans-32" x="226.953125"/>
     <use xlink:href="#DejaVuSans-30" x="290.576172"/>
     <use xlink:href="#DejaVuSans-32" x="354.199219"/>
     <use xlink:href="#DejaVuSans-32" x="417.822266"/>
    </g>
   </g>
  </g>
  <g id="text_14">
   <!-- Share of published papers mentioning AI terms -->
   <g style="fill: #18324a" transform="translate(64.512 42.048) scale(0.215 -0.215)">
    <defs>
     <path id="DejaVuSans-53" d="M 3425 4513 
L 3425 3897 
Q 3066 4069 2747 4153 
Q 2428 4238 2131 4238 
Q 1616 4238 1336 4038 
Q 1056 3838 1056 3469 
Q 1056 3159 1242 3001 
Q 1428 2844 1947 2747 
L 2328 2669 
Q 3034 2534 3370 2195 
Q 3706 1856 3706 1288 
Q 3706 609 3251 259 
Q 2797 -91 1919 -91 
Q 1588 -91 1214 -16 
Q 841 59 441 206 
L 441 856 
Q 825 641 1194 531 
Q 1563 422 1919 422 
Q 2459 422 2753 634 
Q 3047 847 3047 1241 
Q 3047 1584 2836 1778 
Q 2625 1972 2144 2069 
L 1759 2144 
Q 1053 2284 737 2584 
Q 422 2884 422 3419 
Q 422 4038 858 4394 
Q 1294 4750 2059 4750 
Q 2388 4750 2728 4690 
Q 3069 4631 3425 4513 
z
" transform="scale(0.015625)"/>
     <path id="DejaVuSans-68" d="M 3513 2113 
L 3513 0 
L 2938 0 
L 2938 2094 
Q 2938 2591 2744 2837 
Q 2550 3084 2163 3084 
Q 1697 3084 1428 2787 
Q 1159 2491 1159 1978 
L 1159 0 
L 581 0 
L 581 4863 
L 1159 4863 
L 1159 2956 
Q 1366 3272 1645 3428 
Q 1925 3584 2291 3584 
Q 2894 3584 3203 3211 
Q 3513 2838 3513 2113 
z
" transform="scale(0.015625)"/>
     <path id="DejaVuSans-61" d="M 2194 1759 
Q 1497 1759 1228 1600 
Q 959 1441 959 1056 
Q 959 750 1161 570 
Q 1363 391 1709 391 
Q 2188 391 2477 730 
Q 2766 1069 2766 1631 
L 2766 1759 
L 2194 1759 
z
M 3341 1997 
L 3341 0 
L 2766 0 
L 2766 531 
Q 2569 213 2275 61 
Q 1981 -91 1556 -91 
Q 1019 -91 701 211 
Q 384 513 384 1019 
Q 384 1609 779 1909 
Q 1175 2209 1959 2209 
L 2766 2209 
L 2766 2266 
Q 2766 2663 2505 2880 
Q 2244 3097 1772 3097 
Q 1472 3097 1187 3025 
Q 903 2953 641 2809 
L 641 3341 
Q 956 3463 1253 3523 
Q 1550 3584 1831 3584 
Q 2591 3584 2966 3190 
Q 3341 2797 3341 1997 
z
" transform="scale(0.015625)"/>
     <path id="DejaVuSans-72" d="M 2631 2963 
Q 2534 3019 2420 3045 
Q 2306 3072 2169 3072 
Q 1681 3072 1420 2755 
Q 1159 2438 1159 1844 
L 1159 0 
L 581 0 
L 581 3500 
L 1159 3500 
L 1159 2956 
Q 1341 3275 1631 3429 
Q 1922 3584 2338 3584 
Q 2397 3584 2469 3576 
Q 2541 3569 2628 3553 
L 2631 2963 
z
" transform="scale(0.015625)"/>
     <path id="DejaVuSans-65" d="M 3597 1894 
L 3597 1613 
L 953 1613 
Q 991 1019 1311 708 
Q 1631 397 2203 397 
Q 2534 397 2845 478 
Q 3156 559 3463 722 
L 3463 178 
Q 3153 47 2828 -22 
Q 2503 -91 2169 -91 
Q 1331 -91 842 396 
Q 353 884 353 1716 
Q 353 2575 817 3079 
Q 1281 3584 2069 3584 
Q 2775 3584 3186 3129 
Q 3597 2675 3597 1894 
z
M 3022 2063 
Q 3016 2534 2758 2815 
Q 2500 3097 2075 3097 
Q 1594 3097 1305 2825 
Q 1016 2553 972 2059 
L 3022 2063 
z
" transform="scale(0.015625)"/>
     <path id="DejaVuSans-66" d="M 2375 4863 
L 2375 4384 
L 1825 4384 
Q 1516 4384 1395 4259 
Q 1275 4134 1275 3809 
L 1275 3500 
L 2222 3500 
L 2222 3053 
L 1275 3053 
L 1275 0 
L 697 0 
L 697 3053 
L 147 3053 
L 147 3500 
L 697 3500 
L 697 3744 
Q 697 4328 969 4595 
Q 1241 4863 1831 4863 
L 2375 4863 
z
" transform="scale(0.015625)"/>
     <path id="DejaVuSans-70" d="M 1159 525 
L 1159 -1331 
L 581 -1331 
L 581 3500 
L 1159 3500 
L 1159 2969 
Q 1341 3281 1617 3432 
Q 1894 3584 2278 3584 
Q 2916 3584 3314 3078 
Q 3713 2572 3713 1747 
Q 3713 922 3314 415 
Q 2916 -91 2278 -91 
Q 1894 -91 1617 61 
Q 1341 213 1159 525 
z
M 3116 1747 
Q 3116 2381 2855 2742 
Q 2594 3103 2138 3103 
Q 1681 3103 1420 2742 
Q 1159 2381 1159 1747 
Q 1159 1113 1420 752 
Q 1681 391 2138 391 
Q 2594 391 2855 752 
Q 3116 1113 3116 1747 
z
" transform="scale(0.015625)"/>
     <path id="DejaVuSans-75" d="M 544 1381 
L 544 3500 
L 1119 3500 
L 1119 1403 
Q 1119 906 1312 657 
Q 1506 409 1894 409 
Q 2359 409 2629 706 
Q 2900 1003 2900 1516 
L 2900 3500 
L 3475 3500 
L 3475 0 
L 2900 0 
L 2900 538 
Q 2691 219 2414 64 
Q 2138 -91 1772 -91 
Q 1169 -91 856 284 
Q 544 659 544 1381 
z
M 1991 3584 
L 1991 3584 
z
" transform="scale(0.015625)"/>
     <path id="DejaVuSans-62" d="M 3116 1747 
Q 3116 2381 2855 2742 
Q 2594 3103 2138 3103 
Q 1681 3103 1420 2742 
Q 1159 2381 1159 1747 
Q 1159 1113 1420 752 
Q 1681 391 2138 391 
Q 2594 391 2855 752 
Q 3116 1113 3116 1747 
z
M 1159 2969 
Q 1341 3281 1617 3432 
Q 1894 3584 2278 3584 
Q 2916 3584 3314 3078 
Q 3713 2572 3713 1747 
Q 3713 922 3314 415 
Q 2916 -91 2278 -91 
Q 1894 -91 1617 61 
Q 1341 213 1159 525 
L 1159 0 
L 581 0 
L 581 4863 
L 1159 4863 
L 1159 2969 
z
" transform="scale(0.015625)"/>
     <path id="DejaVuSans-6c" d="M 603 4863 
L 1178 4863 
L 1178 0 
L 603 0 
L 603 4863 
z
" transform="scale(0.015625)"/>
     <path id="DejaVuSans-69" d="M 603 3500 
L 1178 3500 
L 1178 0 
L 603 0 
L 603 3500 
z
M 603 4863 
L 1178 4863 
L 1178 4134 
L 603 4134 
L 603 4863 
z
" transform="scale(0.015625)"/>
     <path id="DejaVuSans-73" d="M 2834 3397 
L 2834 2853 
Q 2591 2978 2328 3040 
Q 2066 3103 1784 3103 
Q 1356 3103 1142 2972 
Q 928 2841 928 2578 
Q 928 2378 1081 2264 
Q 1234 2150 1697 2047 
L 1894 2003 
Q 2506 1872 2764 1633 
Q 3022 1394 3022 966 
Q 3022 478 2636 193 
Q 2250 -91 1575 -91 
Q 1294 -91 989 -36 
Q 684 19 347 128 
L 347 722 
Q 666 556 975 473 
Q 1284 391 1588 391 
Q 1994 391 2212 530 
Q 2431 669 2431 922 
Q 2431 1156 2273 1281 
Q 2116 1406 1581 1522 
L 1381 1569 
Q 847 1681 609 1914 
Q 372 2147 372 2553 
Q 372 3047 722 3315 
Q 1072 3584 1716 3584 
Q 2034 3584 2315 3537 
Q 2597 3491 2834 3397 
z
" transform="scale(0.015625)"/>
     <path id="DejaVuSans-64" d="M 2906 2969 
L 2906 4863 
L 3481 4863 
L 3481 0 
L 2906 0 
L 2906 525 
Q 2725 213 2448 61 
Q 2172 -91 1784 -91 
Q 1150 -91 751 415 
Q 353 922 353 1747 
Q 353 2572 751 3078 
Q 1150 3584 1784 3584 
Q 2172 3584 2448 3432 
Q 2725 3281 2906 2969 
z
M 947 1747 
Q 947 1113 1208 752 
Q 1469 391 1925 391 
Q 2381 391 2643 752 
Q 2906 1113 2906 1747 
Q 2906 2381 2643 2742 
Q 2381 3103 1925 3103 
Q 1469 3103 1208 2742 
Q 947 2381 947 1747 
z
" transform="scale(0.015625)"/>
     <path id="DejaVuSans-6d" d="M 3328 2828 
Q 3544 3216 3844 3400 
Q 4144 3584 4550 3584 
Q 5097 3584 5394 3201 
Q 5691 2819 5691 2113 
L 5691 0 
L 5113 0 
L 5113 2094 
Q 5113 2597 4934 2840 
Q 4756 3084 4391 3084 
Q 3944 3084 3684 2787 
Q 3425 2491 3425 1978 
L 3425 0 
L 2847 0 
L 2847 2094 
Q 2847 2600 2669 2842 
Q 2491 3084 2119 3084 
Q 1678 3084 1418 2786 
Q 1159 2488 1159 1978 
L 1159 0 
L 581 0 
L 581 3500 
L 1159 3500 
L 1159 2956 
Q 1356 3278 1631 3431 
Q 1906 3584 2284 3584 
Q 2666 3584 2933 3390 
Q 3200 3197 3328 2828 
z
" transform="scale(0.015625)"/>
     <path id="DejaVuSans-6e" d="M 3513 2113 
L 3513 0 
L 2938 0 
L 2938 2094 
Q 2938 2591 2744 2837 
Q 2550 3084 2163 3084 
Q 1697 3084 1428 2787 
Q 1159 2491 1159 1978 
L 1159 0 
L 581 0 
L 581 3500 
L 1159 3500 
L 1159 2956 
Q 1366 3272 1645 3428 
Q 1925 3584 2291 3584 
Q 2894 3584 3203 3211 
Q 3513 2838 3513 2113 
z
" transform="scale(0.015625)"/>
     <path id="DejaVuSans-74" d="M 1172 4494 
L 1172 3500 
L 2356 3500 
L 2356 3053 
L 1172 3053 
L 1172 1153 
Q 1172 725 1289 603 
Q 1406 481 1766 481 
L 2356 481 
L 2356 0 
L 1766 0 
Q 1100 0 847 248 
Q 594 497 594 1153 
L 594 3053 
L 172 3053 
L 172 3500 
L 594 3500 
L 594 4494 
L 1172 4494 
z
" transform="scale(0.015625)"/>
     <path id="DejaVuSans-67" d="M 2906 1791 
Q 2906 2416 2648 2759 
Q 2391 3103 1925 3103 
Q 1463 3103 1205 2759 
Q 947 2416 947 1791 
Q 947 1169 1205 825 
Q 1463 481 1925 481 
Q 2391 481 2648 825 
Q 2906 1169 2906 1791 
z
M 3481 434 
Q 3481 -459 3084 -895 
Q 2688 -1331 1869 -1331 
Q 1566 -1331 1297 -1286 
Q 1028 -1241 775 -1147 
L 775 -588 
Q 1028 -725 1275 -790 
Q 1522 -856 1778 -856 
Q 2344 -856 2625 -561 
Q 2906 -266 2906 331 
L 2906 616 
Q 2728 306 2450 153 
Q 2172 0 1784 0 
Q 1141 0 747 490 
Q 353 981 353 1791 
Q 353 2603 747 3093 
Q 1141 3584 1784 3584 
Q 2172 3584 2450 3431 
Q 2728 3278 2906 2969 
L 2906 3500 
L 3481 3500 
L 3481 434 
z
" transform="scale(0.015625)"/>
     <path id="DejaVuSans-41" d="M 2188 4044 
L 1331 1722 
L 3047 1722 
L 2188 4044 
z
M 1831 4666 
L 2547 4666 
L 4325 0 
L 3669 0 
L 3244 1197 
L 1141 1197 
L 716 0 
L 50 0 
L 1831 4666 
z
" transform="scale(0.015625)"/>
     <path id="DejaVuSans-49" d="M 628 4666 
L 1259 4666 
L 1259 0 
L 628 0 
L 628 4666 
z
" transform="scale(0.015625)"/>
    </defs>
    <use xlink:href="#DejaVuSans-53"/>
    <use xlink:href="#DejaVuSans-68" x="63.476562"/>
    <use xlink:href="#DejaVuSans-61" x="126.855469"/>
    <use xlink:href="#DejaVuSans-72" x="188.134766"/>
    <use xlink:href="#DejaVuSans-65" x="226.998047"/>
    <use xlink:href="#DejaVuSans-20" x="288.521484"/>
    <use xlink:href="#DejaVuSans-6f" x="320.308594"/>
    <use xlink:href="#DejaVuSans-66" x="381.490234"/>
    <use xlink:href="#DejaVuSans-20" x="416.695312"/>
    <use xlink:href="#DejaVuSans-70" x="448.482422"/>
    <use xlink:href="#DejaVuSans-75" x="511.958984"/>
    <use xlink:href="#DejaVuSans-62" x="575.337891"/>
    <use xlink:href="#DejaVuSans-6c" x="638.814453"/>
    <use xlink:href="#DejaVuSans-69" x="666.597656"/>
    <use xlink:href="#DejaVuSans-73" x="694.380859"/>
    <use xlink:href="#DejaVuSans-68" x="746.480469"/>
    <use xlink:href="#DejaVuSans-65" x="809.859375"/>
    <use xlink:href="#DejaVuSans-64" x="871.382812"/>
    <use xlink:href="#DejaVuSans-20" x="934.859375"/>
    <use xlink:href="#DejaVuSans-70" x="966.646484"/>
    <use xlink:href="#DejaVuSans-61" x="1030.123047"/>
    <use xlink:href="#DejaVuSans-70" x="1091.402344"/>
    <use xlink:href="#DejaVuSans-65" x="1154.878906"/>
    <use xlink:href="#DejaVuSans-72" x="1216.402344"/>
    <use xlink:href="#DejaVuSans-73" x="1257.515625"/>
    <use xlink:href="#DejaVuSans-20" x="1309.615234"/>
    <use xlink:href="#DejaVuSans-6d" x="1341.402344"/>
    <use xlink:href="#DejaVuSans-65" x="1438.814453"/>
    <use xlink:href="#DejaVuSans-6e" x="1500.337891"/>
    <use xlink:href="#DejaVuSans-74" x="1563.716797"/>
    <use xlink:href="#DejaVuSans-69" x="1602.925781"/>
    <use xlink:href="#DejaVuSans-6f" x="1630.708984"/>
    <use xlink:href="#DejaVuSans-6e" x="1691.890625"/>
    <use xlink:href="#DejaVuSans-69" x="1755.269531"/>
    <use xlink:href="#DejaVuSans-6e" x="1783.052734"/>
    <use xlink:href="#DejaVuSans-67" x="1846.431641"/>
    <use xlink:href="#DejaVuSans-20" x="1909.908203"/>
    <use xlink:href="#DejaVuSans-41" x="1941.695312"/>
    <use xlink:href="#DejaVuSans-49" x="2010.103516"/>
    <use xlink:href="#DejaVuSans-20" x="2039.595703"/>
    <use xlink:href="#DejaVuSans-74" x="2071.382812"/>
    <use xlink:href="#DejaVuSans-65" x="2110.591797"/>
    <use xlink:href="#DejaVuSans-72" x="2172.115234"/>
    <use xlink:href="#DejaVuSans-6d" x="2211.478516"/>
    <use xlink:href="#DejaVuSans-73" x="2308.890625"/>
   </g>
  </g>
  <g id="text_15">
   <!-- Title or abstract matches in the screened economics-paper corpus -->
   <g style="fill: #627588" transform="translate(64.512 70.956) scale(0.136 -0.136)">
    <defs>
     <path id="DejaVuSans-54" d="M -19 4666 
L 3928 4666 
L 3928 4134 
L 2272 4134 
L 2272 0 
L 1638 0 
L 1638 4134 
L -19 4134 
L -19 4666 
z
" transform="scale(0.015625)"/>
     <path id="DejaVuSans-63" d="M 3122 3366 
L 3122 2828 
Q 2878 2963 2633 3030 
Q 2388 3097 2138 3097 
Q 1578 3097 1268 2742 
Q 959 2388 959 1747 
Q 959 1106 1268 751 
Q 1578 397 2138 397 
Q 2388 397 2633 464 
Q 2878 531 3122 666 
L 3122 134 
Q 2881 22 2623 -34 
Q 2366 -91 2075 -91 
Q 1284 -91 818 406 
Q 353 903 353 1747 
Q 353 2603 823 3093 
Q 1294 3584 2113 3584 
Q 2378 3584 2631 3529 
Q 2884 3475 3122 3366 
z
" transform="scale(0.015625)"/>
     <path id="DejaVuSans-2d" d="M 313 2009 
L 1997 2009 
L 1997 1497 
L 313 1497 
L 313 2009 
z
" transform="scale(0.015625)"/>
    </defs>
    <use xlink:href="#DejaVuSans-54"/>
    <use xlink:href="#DejaVuSans-69" x="57.958984"/>
    <use xlink:href="#DejaVuSans-74" x="85.742188"/>
    <use xlink:href="#DejaVuSans-6c" x="124.951172"/>
    <use xlink:href="#DejaVuSans-65" x="152.734375"/>
    <use xlink:href="#DejaVuSans-20" x="214.257812"/>
    <use xlink:href="#DejaVuSans-6f" x="246.044922"/>
    <use xlink:href="#DejaVuSans-72" x="307.226562"/>
    <use xlink:href="#DejaVuSans-20" x="348.339844"/>
    <use xlink:href="#DejaVuSans-61" x="380.126953"/>
    <use xlink:href="#DejaVuSans-62" x="441.40625"/>
    <use xlink:href="#DejaVuSans-73" x="504.882812"/>
    <use xlink:href="#DejaVuSans-74" x="556.982422"/>
    <use xlink:href="#DejaVuSans-72" x="596.191406"/>
    <use xlink:href="#DejaVuSans-61" x="637.304688"/>
    <use xlink:href="#DejaVuSans-63" x="698.583984"/>
    <use xlink:href="#DejaVuSans-74" x="753.564453"/>
    <use xlink:href="#DejaVuSans-20" x="792.773438"/>
    <use xlink:href="#DejaVuSans-6d" x="824.560547"/>
    <use xlink:href="#DejaVuSans-61" x="921.972656"/>
    <use xlink:href="#DejaVuSans-74" x="983.251953"/>
    <use xlink:href="#DejaVuSans-63" x="1022.460938"/>
    <use xlink:href="#DejaVuSans-68" x="1077.441406"/>
    <use xlink:href="#DejaVuSans-65" x="1140.820312"/>
    <use xlink:href="#DejaVuSans-73" x="1202.34375"/>
    <use xlink:href="#DejaVuSans-20" x="1254.443359"/>
    <use xlink:href="#DejaVuSans-69" x="1286.230469"/>
    <use xlink:href="#DejaVuSans-6e" x="1314.013672"/>
    <use xlink:href="#DejaVuSans-20" x="1377.392578"/>
    <use xlink:href="#DejaVuSans-74" x="1409.179688"/>
    <use xlink:href="#DejaVuSans-68" x="1448.388672"/>
    <use xlink:href="#DejaVuSans-65" x="1511.767578"/>
    <use xlink:href="#DejaVuSans-20" x="1573.291016"/>
    <use xlink:href="#DejaVuSans-73" x="1605.078125"/>
    <use xlink:href="#DejaVuSans-63" x="1657.177734"/>
    <use xlink:href="#DejaVuSans-72" x="1712.158203"/>
    <use xlink:href="#DejaVuSans-65" x="1751.021484"/>
    <use xlink:href="#DejaVuSans-65" x="1812.544922"/>
    <use xlink:href="#DejaVuSans-6e" x="1874.068359"/>
    <use xlink:href="#DejaVuSans-65" x="1937.447266"/>
    <use xlink:href="#DejaVuSans-64" x="1998.970703"/>
    <use xlink:href="#DejaVuSans-20" x="2062.447266"/>
    <use xlink:href="#DejaVuSans-65" x="2094.234375"/>
    <use xlink:href="#DejaVuSans-63" x="2155.757812"/>
    <use xlink:href="#DejaVuSans-6f" x="2210.738281"/>
    <use xlink:href="#DejaVuSans-6e" x="2271.919922"/>
    <use xlink:href="#DejaVuSans-6f" x="2335.298828"/>
    <use xlink:href="#DejaVuSans-6d" x="2396.480469"/>
    <use xlink:href="#DejaVuSans-69" x="2493.892578"/>
    <use xlink:href="#DejaVuSans-63" x="2521.675781"/>
    <use xlink:href="#DejaVuSans-73" x="2576.65625"/>
    <use xlink:href="#DejaVuSans-2d" x="2628.755859"/>
    <use xlink:href="#DejaVuSans-70" x="2664.839844"/>
    <use xlink:href="#DejaVuSans-61" x="2728.316406"/>
    <use xlink:href="#DejaVuSans-70" x="2789.595703"/>
    <use xlink:href="#DejaVuSans-65" x="2853.072266"/>
    <use xlink:href="#DejaVuSans-72" x="2914.595703"/>
    <use xlink:href="#DejaVuSans-20" x="2955.708984"/>
    <use xlink:href="#DejaVuSans-63" x="2987.496094"/>
    <use xlink:href="#DejaVuSans-6f" x="3042.476562"/>
    <use xlink:href="#DejaVuSans-72" x="3103.658203"/>
    <use xlink:href="#DejaVuSans-70" x="3144.771484"/>
    <use xlink:href="#DejaVuSans-75" x="3208.248047"/>
    <use xlink:href="#DejaVuSans-73" x="3271.626953"/>
   </g>
  </g>
  <g id="text_16">
   <!-- Source: published-journal corpus assembled for Frontier Graph -->
   <g style="fill: #627588" transform="translate(64.512 449.280384) scale(0.105 -0.105)">
    <defs>
     <path id="DejaVuSans-3a" d="M 750 794 
L 1409 794 
L 1409 0 
L 750 0 
L 750 794 
z
M 750 3309 
L 1409 3309 
L 1409 2516 
L 750 2516 
L 750 3309 
z
" transform="scale(0.015625)"/>
     <path id="DejaVuSans-6a" d="M 603 3500 
L 1178 3500 
L 1178 -63 
Q 1178 -731 923 -1031 
Q 669 -1331 103 -1331 
L -116 -1331 
L -116 -844 
L 38 -844 
Q 366 -844 484 -692 
Q 603 -541 603 -63 
L 603 3500 
z
M 603 4863 
L 1178 4863 
L 1178 4134 
L 603 4134 
L 603 4863 
z
" transform="scale(0.015625)"/>
     <path id="DejaVuSans-46" d="M 628 4666 
L 3309 4666 
L 3309 4134 
L 1259 4134 
L 1259 2759 
L 3109 2759 
L 3109 2228 
L 1259 2228 
L 1259 0 
L 628 0 
L 628 4666 
z
" transform="scale(0.015625)"/>
     <path id="DejaVuSans-47" d="M 3809 666 
L 3809 1919 
L 2778 1919 
L 2778 2438 
L 4434 2438 
L 4434 434 
Q 4069 175 3628 42 
Q 3188 -91 2688 -91 
Q 1594 -91 976 548 
Q 359 1188 359 2328 
Q 359 3472 976 4111 
Q 1594 4750 2688 4750 
Q 3144 4750 3555 4637 
Q 3966 4525 4313 4306 
L 4313 3634 
Q 3963 3931 3569 4081 
Q 3175 4231 2741 4231 
Q 1884 4231 1454 3753 
Q 1025 3275 1025 2328 
Q 1025 1384 1454 906 
Q 1884 428 2741 428 
Q 3075 428 3337 486 
Q 3600 544 3809 666 
z
" transform="scale(0.015625)"/>
    </defs>
    <use xlink:href="#DejaVuSans-53"/>
    <use xlink:href="#DejaVuSans-6f" x="63.476562"/>
    <use xlink:href="#DejaVuSans-75" x="124.658203"/>
    <use xlink:href="#DejaVuSans-72" x="188.037109"/>
    <use xlink:href="#DejaVuSans-63" x="226.900391"/>
    <use xlink:href="#DejaVuSans-65" x="281.880859"/>
    <use xlink:href="#DejaVuSans-3a" x="343.404297"/>
    <use xlink:href="#DejaVuSans-20" x="377.095703"/>
    <use xlink:href="#DejaVuSans-70" x="408.882812"/>
    <use xlink:href="#DejaVuSans-75" x="472.359375"/>
    <use xlink:href="#DejaVuSans-62" x="535.738281"/>
    <use xlink:href="#DejaVuSans-6c" x="599.214844"/>
    <use xlink:href="#DejaVuSans-69" x="626.998047"/>
    <use xlink:href="#DejaVuSans-73" x="654.78125"/>
    <use xlink:href="#DejaVuSans-68" x="706.880859"/>
    <use xlink:href="#DejaVuSans-65" x="770.259766"/>
    <use xlink:href="#DejaVuSans-64" x="831.783203"/>
    <use xlink:href="#DejaVuSans-2d" x="895.259766"/>
    <use xlink:href="#DejaVuSans-6a" x="931.34375"/>
    <use xlink:href="#DejaVuSans-6f" x="959.126953"/>
    <use xlink:href="#DejaVuSans-75" x="1020.308594"/>
    <use xlink:href="#DejaVuSans-72" x="1083.6875"/>
    <use xlink:href="#DejaVuSans-6e" x="1123.050781"/>
    <use xlink:href="#DejaVuSans-61" x="1186.429688"/>
    <use xlink:href="#DejaVuSans-6c" x="1247.708984"/>
    <use xlink:href="#DejaVuSans-20" x="1275.492188"/>
    <use xlink:href="#DejaVuSans-63" x="1307.279297"/>
    <use xlink:href="#DejaVuSans-6f" x="1362.259766"/>
    <use xlink:href="#DejaVuSans-72" x="1423.441406"/>
    <use xlink:href="#DejaVuSans-70" x="1464.554688"/>
    <use xlink:href="#DejaVuSans-75" x="1528.03125"/>
    <use xlink:href="#DejaVuSans-73" x="1591.410156"/>
    <use xlink:href="#DejaVuSans-20" x="1643.509766"/>
    <use xlink:href="#DejaVuSans-61" x="1675.296875"/>
    <use xlink:href="#DejaVuSans-73" x="1736.576172"/>
    <use xlink:href="#DejaVuSans-73" x="1788.675781"/>
    <use xlink:href="#DejaVuSans-65" x="1840.775391"/>
    <use xlink:href="#DejaVuSans-6d" x="1902.298828"/>
    <use xlink:href="#DejaVuSans-62" x="1999.710938"/>
    <use xlink:href="#DejaVuSans-6c" x="2063.1875"/>
    <use xlink:href="#DejaVuSans-65" x="2090.970703"/>
    <use xlink:href="#DejaVuSans-64" x="2152.494141"/>
    <use xlink:href="#DejaVuSans-20" x="2215.970703"/>
    <use xlink:href="#DejaVuSans-66" x="2247.757812"/>
    <use xlink:href="#DejaVuSans-6f" x="2282.962891"/>
    <use xlink:href="#DejaVuSans-72" x="2344.144531"/>
    <use xlink:href="#DejaVuSans-20" x="2385.257812"/>
    <use xlink:href="#DejaVuSans-46" x="2417.044922"/>
    <use xlink:href="#DejaVuSans-72" x="2467.314453"/>
    <use xlink:href="#DejaVuSans-6f" x="2506.177734"/>
    <use xlink:href="#DejaVuSans-6e" x="2567.359375"/>
    <use xlink:href="#DejaVuSans-74" x="2630.738281"/>
    <use xlink:href="#DejaVuSans-69" x="2669.947266"/>
    <use xlink:href="#DejaVuSans-65" x="2697.730469"/>
    <use xlink:href="#DejaVuSans-72" x="2759.253906"/>
    <use xlink:href="#DejaVuSans-20" x="2800.367188"/>
    <use xlink:href="#DejaVuSans-47" x="2832.154297"/>
    <use xlink:href="#DejaVuSans-72" x="2909.644531"/>
    <use xlink:href="#DejaVuSans-61" x="2950.757812"/>
    <use xlink:href="#DejaVuSans-70" x="3012.037109"/>
    <use xlink:href="#DejaVuSans-68" x="3075.513672"/>
   </g>
   <!-- AI terms include artificial intelligence, large language model, generative AI, ChatGPT, -->
   <g style="fill: #627588" transform="translate(64.512 462.474192) scale(0.105 -0.105)">
    <defs>
     <path id="DejaVuSans-2c" d="M 750 794 
L 1409 794 
L 1409 256 
L 897 -744 
L 494 -744 
L 750 256 
L 750 794 
z
" transform="scale(0.015625)"/>
     <path id="DejaVuSans-43" d="M 4122 4306 
L 4122 3641 
Q 3803 3938 3442 4084 
Q 3081 4231 2675 4231 
Q 1875 4231 1450 3742 
Q 1025 3253 1025 2328 
Q 1025 1406 1450 917 
Q 1875 428 2675 428 
Q 3081 428 3442 575 
Q 3803 722 4122 1019 
L 4122 359 
Q 3791 134 3420 21 
Q 3050 -91 2638 -91 
Q 1578 -91 968 557 
Q 359 1206 359 2328 
Q 359 3453 968 4101 
Q 1578 4750 2638 4750 
Q 3056 4750 3426 4639 
Q 3797 4528 4122 4306 
z
" transform="scale(0.015625)"/>
     <path id="DejaVuSans-50" d="M 1259 4147 
L 1259 2394 
L 2053 2394 
Q 2494 2394 2734 2622 
Q 2975 2850 2975 3272 
Q 2975 3691 2734 3919 
Q 2494 4147 2053 4147 
L 1259 4147 
z
M 628 4666 
L 2053 4666 
Q 2838 4666 3239 4311 
Q 3641 3956 3641 3272 
Q 3641 2581 3239 2228 
Q 2838 1875 2053 1875 
L 1259 1875 
L 1259 0 
L 628 0 
L 628 4666 
z
" transform="scale(0.015625)"/>
    </defs>
    <use xlink:href="#DejaVuSans-41"/>
    <use xlink:href="#DejaVuSans-49" x="68.408203"/>
    <use xlink:href="#DejaVuSans-20" x="97.900391"/>
    <use xlink:href="#DejaVuSans-74" x="129.6875"/>
    <use xlink:href="#DejaVuSans-65" x="168.896484"/>
    <use xlink:href="#DejaVuSans-72" x="230.419922"/>
    <use xlink:href="#DejaVuSans-6d" x="269.783203"/>
    <use xlink:href="#DejaVuSans-73" x="367.195312"/>
    <use xlink:href="#DejaVuSans-20" x="419.294922"/>
    <use xlink:href="#DejaVuSans-69" x="451.082031"/>
    <use xlink:href="#DejaVuSans-6e" x="478.865234"/>
    <use xlink:href="#DejaVuSans-63" x="542.244141"/>
    <use xlink:href="#DejaVuSans-6c" x="597.224609"/>
    <use xlink:href="#DejaVuSans-75" x="625.007812"/>
    <use xlink:href="#DejaVuSans-64" x="688.386719"/>
    <use xlink:href="#DejaVuSans-65" x="751.863281"/>
    <use xlink:href="#DejaVuSans-20" x="813.386719"/>
    <use xlink:href="#DejaVuSans-61" x="845.173828"/>
    <use xlink:href="#DejaVuSans-72" x="906.453125"/>
    <use xlink:href="#DejaVuSans-74" x="947.566406"/>
    <use xlink:href="#DejaVuSans-69" x="986.775391"/>
    <use xlink:href="#DejaVuSans-66" x="1014.558594"/>
    <use xlink:href="#DejaVuSans-69" x="1049.763672"/>
    <use xlink:href="#DejaVuSans-63" x="1077.546875"/>
    <use xlink:href="#DejaVuSans-69" x="1132.527344"/>
    <use xlink:href="#DejaVuSans-61" x="1160.310547"/>
    <use xlink:href="#DejaVuSans-6c" x="1221.589844"/>
    <use xlink:href="#DejaVuSans-20" x="1249.373047"/>
    <use xlink:href="#DejaVuSans-69" x="1281.160156"/>
    <use xlink:href="#DejaVuSans-6e" x="1308.943359"/>
    <use xlink:href="#DejaVuSans-74" x="1372.322266"/>
    <use xlink:href="#DejaVuSans-65" x="1411.53125"/>
    <use xlink:href="#DejaVuSans-6c" x="1473.054688"/>
    <use xlink:href="#DejaVuSans-6c" x="1500.837891"/>
    <use xlink:href="#DejaVuSans-69" x="1528.621094"/>
    <use xlink:href="#DejaVuSans-67" x="1556.404297"/>
    <use xlink:href="#DejaVuSans-65" x="1619.880859"/>
    <use xlink:href="#DejaVuSans-6e" x="1681.404297"/>
    <use xlink:href="#DejaVuSans-63" x="1744.783203"/>
    <use xlink:href="#DejaVuSans-65" x="1799.763672"/>
    <use xlink:href="#DejaVuSans-2c" x="1861.287109"/>
    <use xlink:href="#DejaVuSans-20" x="1893.074219"/>
    <use xlink:href="#DejaVuSans-6c" x="1924.861328"/>
    <use xlink:href="#DejaVuSans-61" x="1952.644531"/>
    <use xlink:href="#DejaVuSans-72" x="2013.923828"/>
    <use xlink:href="#DejaVuSans-67" x="2053.287109"/>
    <use xlink:href="#DejaVuSans-65" x="2116.763672"/>
    <use xlink:href="#DejaVuSans-20" x="2178.287109"/>
    <use xlink:href="#DejaVuSans-6c" x="2210.074219"/>
    <use xlink:href="#DejaVuSans-61" x="2237.857422"/>
    <use xlink:href="#DejaVuSans-6e" x="2299.136719"/>
    <use xlink:href="#DejaVuSans-67" x="2362.515625"/>
    <use xlink:href="#DejaVuSans-75" x="2425.992188"/>
    <use xlink:href="#DejaVuSans-61" x="2489.371094"/>
    <use xlink:href="#DejaVuSans-67" x="2550.650391"/>
    <use xlink:href="#DejaVuSans-65" x="2614.126953"/>
    <use xlink:href="#DejaVuSans-20" x="2675.650391"/>
    <use xlink:href="#DejaVuSans-6d" x="2707.4375"/>
    <use xlink:href="#DejaVuSans-6f" x="2804.849609"/>
    <use xlink:href="#DejaVuSans-64" x="2866.03125"/>
    <use xlink:href="#DejaVuSans-65" x="2929.507812"/>
    <use xlink:href="#DejaVuSans-6c" x="2991.03125"/>
    <use xlink:href="#DejaVuSans-2c" x="3018.814453"/>
    <use xlink:href="#DejaVuSans-20" x="3050.601562"/>
    <use xlink:href="#DejaVuSans-67" x="3082.388672"/>
    <use xlink:href="#DejaVuSans-65" x="3145.865234"/>
    <use xlink:href="#DejaVuSans-6e" x="3207.388672"/>
    <use xlink:href="#DejaVuSans-65" x="3270.767578"/>
    <use xlink:href="#DejaVuSans-72" x="3332.291016"/>
    <use xlink:href="#DejaVuSans-61" x="3373.404297"/>
    <use xlink:href="#DejaVuSans-74" x="3434.683594"/>
    <use xlink:href="#DejaVuSans-69" x="3473.892578"/>
    <use xlink:href="#DejaVuSans-76" x="3501.675781"/>
    <use xlink:href="#DejaVuSans-65" x="3560.855469"/>
    <use xlink:href="#DejaVuSans-20" x="3622.378906"/>
    <use xlink:href="#DejaVuSans-41" x="3654.166016"/>
    <use xlink:href="#DejaVuSans-49" x="3722.574219"/>
    <use xlink:href="#DejaVuSans-2c" x="3752.066406"/>
    <use xlink:href="#DejaVuSans-20" x="3783.853516"/>
    <use xlink:href="#DejaVuSans-43" x="3815.640625"/>
    <use xlink:href="#DejaVuSans-68" x="3885.464844"/>
    <use xlink:href="#DejaVuSans-61" x="3948.84375"/>
    <use xlink:href="#DejaVuSans-74" x="4010.123047"/>
    <use xlink:href="#DejaVuSans-47" x="4049.332031"/>
    <use xlink:href="#DejaVuSans-50" x="4126.822266"/>
    <use xlink:href="#DejaVuSans-54" x="4187.125"/>
    <use xlink:href="#DejaVuSans-2c" x="4248.208984"/>
   </g>
   <!-- deep learning, neural network, BERT, transformer, and explicit GPT model-family mentions. -->
   <g style="fill: #627588" transform="translate(64.512 475.668) scale(0.105 -0.105)">
    <defs>
     <path id="DejaVuSans-77" d="M 269 3500 
L 844 3500 
L 1563 769 
L 2278 3500 
L 2956 3500 
L 3675 769 
L 4391 3500 
L 4966 3500 
L 4050 0 
L 3372 0 
L 2619 2869 
L 1863 0 
L 1184 0 
L 269 3500 
z
" transform="scale(0.015625)"/>
     <path id="DejaVuSans-6b" d="M 581 4863 
L 1159 4863 
L 1159 1991 
L 2875 3500 
L 3609 3500 
L 1753 1863 
L 3688 0 
L 2938 0 
L 1159 1709 
L 1159 0 
L 581 0 
L 581 4863 
z
" transform="scale(0.015625)"/>
     <path id="DejaVuSans-42" d="M 1259 2228 
L 1259 519 
L 2272 519 
Q 2781 519 3026 730 
Q 3272 941 3272 1375 
Q 3272 1813 3026 2020 
Q 2781 2228 2272 2228 
L 1259 2228 
z
M 1259 4147 
L 1259 2741 
L 2194 2741 
Q 2656 2741 2882 2914 
Q 3109 3088 3109 3444 
Q 3109 3797 2882 3972 
Q 2656 4147 2194 4147 
L 1259 4147 
z
M 628 4666 
L 2241 4666 
Q 2963 4666 3353 4366 
Q 3744 4066 3744 3513 
Q 3744 3084 3544 2831 
Q 3344 2578 2956 2516 
Q 3422 2416 3680 2098 
Q 3938 1781 3938 1306 
Q 3938 681 3513 340 
Q 3088 0 2303 0 
L 628 0 
L 628 4666 
z
" transform="scale(0.015625)"/>
     <path id="DejaVuSans-45" d="M 628 4666 
L 3578 4666 
L 3578 4134 
L 1259 4134 
L 1259 2753 
L 3481 2753 
L 3481 2222 
L 1259 2222 
L 1259 531 
L 3634 531 
L 3634 0 
L 628 0 
L 628 4666 
z
" transform="scale(0.015625)"/>
     <path id="DejaVuSans-52" d="M 2841 2188 
Q 3044 2119 3236 1894 
Q 3428 1669 3622 1275 
L 4263 0 
L 3584 0 
L 2988 1197 
Q 2756 1666 2539 1819 
Q 2322 1972 1947 1972 
L 1259 1972 
L 1259 0 
L 628 0 
L 628 4666 
L 2053 4666 
Q 2853 4666 3247 4331 
Q 3641 3997 3641 3322 
Q 3641 2881 3436 2590 
Q 3231 2300 2841 2188 
z
M 1259 4147 
L 1259 2491 
L 2053 2491 
Q 2509 2491 2742 2702 
Q 2975 2913 2975 3322 
Q 2975 3731 2742 3939 
Q 2509 4147 2053 4147 
L 1259 4147 
z
" transform="scale(0.015625)"/>
     <path id="DejaVuSans-78" d="M 3513 3500 
L 2247 1797 
L 3578 0 
L 2900 0 
L 1881 1375 
L 863 0 
L 184 0 
L 1544 1831 
L 300 3500 
L 978 3500 
L 1906 2253 
L 2834 3500 
L 3513 3500 
z
" transform="scale(0.015625)"/>
     <path id="DejaVuSans-79" d="M 2059 -325 
Q 1816 -950 1584 -1140 
Q 1353 -1331 966 -1331 
L 506 -1331 
L 506 -850 
L 844 -850 
Q 1081 -850 1212 -737 
Q 1344 -625 1503 -206 
L 1606 56 
L 191 3500 
L 800 3500 
L 1894 763 
L 2988 3500 
L 3597 3500 
L 2059 -325 
z
" transform="scale(0.015625)"/>
     <path id="DejaVuSans-2e" d="M 684 794 
L 1344 794 
L 1344 0 
L 684 0 
L 684 794 
z
" transform="scale(0.015625)"/>
    </defs>
    <use xlink:href="#DejaVuSans-64"/>
    <use xlink:href="#DejaVuSans-65" x="63.476562"/>
    <use xlink:href="#DejaVuSans-65" x="125"/>
    <use xlink:href="#DejaVuSans-70" x="186.523438"/>
    <use xlink:href="#DejaVuSans-20" x="250"/>
    <use xlink:href="#DejaVuSans-6c" x="281.787109"/>
    <use xlink:href="#DejaVuSans-65" x="309.570312"/>
    <use xlink:href="#DejaVuSans-61" x="371.09375"/>
    <use xlink:href="#DejaVuSans-72" x="432.373047"/>
    <use xlink:href="#DejaVuSans-6e" x="471.736328"/>
    <use xlink:href="#DejaVuSans-69" x="535.115234"/>
    <use xlink:href="#DejaVuSans-6e" x="562.898438"/>
    <use xlink:href="#DejaVuSans-67" x="626.277344"/>
    <use xlink:href="#DejaVuSans-2c" x="689.753906"/>
    <use xlink:href="#DejaVuSans-20" x="721.541016"/>
    <use xlink:href="#DejaVuSans-6e" x="753.328125"/>
    <use xlink:href="#DejaVuSans-65" x="816.707031"/>
    <use xlink:href="#DejaVuSans-75" x="878.230469"/>
    <use xlink:href="#DejaVuSans-72" x="941.609375"/>
    <use xlink:href="#DejaVuSans-61" x="982.722656"/>
    <use xlink:href="#DejaVuSans-6c" x="1044.001953"/>
    <use xlink:href="#DejaVuSans-20" x="1071.785156"/>
    <use xlink:href="#DejaVuSans-6e" x="1103.572266"/>
    <use xlink:href="#DejaVuSans-65" x="1166.951172"/>
    <use xlink:href="#DejaVuSans-74" x="1228.474609"/>
    <use xlink:href="#DejaVuSans-77" x="1267.683594"/>
    <use xlink:href="#DejaVuSans-6f" x="1349.470703"/>
    <use xlink:href="#DejaVuSans-72" x="1410.652344"/>
    <use xlink:href="#DejaVuSans-6b" x="1451.765625"/>
    <use xlink:href="#DejaVuSans-2c" x="1509.675781"/>
    <use xlink:href="#DejaVuSans-20" x="1541.462891"/>
    <use xlink:href="#DejaVuSans-42" x="1573.25"/>
    <use xlink:href="#DejaVuSans-45" x="1641.853516"/>
    <use xlink:href="#DejaVuSans-52" x="1705.037109"/>
    <use xlink:href="#DejaVuSans-54" x="1767.269531"/>
    <use xlink:href="#DejaVuSans-2c" x="1828.353516"/>
    <use xlink:href="#DejaVuSans-20" x="1860.140625"/>
    <use xlink:href="#DejaVuSans-74" x="1891.927734"/>
    <use xlink:href="#DejaVuSans-72" x="1931.136719"/>
    <use xlink:href="#DejaVuSans-61" x="1972.25"/>
    <use xlink:href="#DejaVuSans-6e" x="2033.529297"/>
    <use xlink:href="#DejaVuSans-73" x="2096.908203"/>
    <use xlink:href="#DejaVuSans-66" x="2149.007812"/>
    <use xlink:href="#DejaVuSans-6f" x="2184.212891"/>
    <use xlink:href="#DejaVuSans-72" x="2245.394531"/>
    <use xlink:href="#DejaVuSans-6d" x="2284.757812"/>
    <use xlink:href="#DejaVuSans-65" x="2382.169922"/>
    <use xlink:href="#DejaVuSans-72" x="2443.693359"/>
    <use xlink:href="#DejaVuSans-2c" x="2484.806641"/>
    <use xlink:href="#DejaVuSans-20" x="2516.59375"/>
    <use xlink:href="#DejaVuSans-61" x="2548.380859"/>
    <use xlink:href="#DejaVuSans-6e" x="2609.660156"/>
    <use xlink:href="#DejaVuSans-64" x="2673.039062"/>
    <use xlink:href="#DejaVuSans-20" x="2736.515625"/>
    <use xlink:href="#DejaVuSans-65" x="2768.302734"/>
    <use xlink:href="#DejaVuSans-78" x="2828.076172"/>
    <use xlink:href="#DejaVuSans-70" x="2887.255859"/>
    <use xlink:href="#DejaVuSans-6c" x="2950.732422"/>
    <use xlink:href="#DejaVuSans-69" x="2978.515625"/>
    <use xlink:href="#DejaVuSans-63" x="3006.298828"/>
    <use xlink:href="#DejaVuSans-69" x="3061.279297"/>
    <use xlink:href="#DejaVuSans-74" x="3089.0625"/>
    <use xlink:href="#DejaVuSans-20" x="3128.271484"/>
    <use xlink:href="#DejaVuSans-47" x="3160.058594"/>
    <use xlink:href="#DejaVuSans-50" x="3237.548828"/>
    <use xlink:href="#DejaVuSans-54" x="3297.851562"/>
    <use xlink:href="#DejaVuSans-20" x="3358.935547"/>
    <use xlink:href="#DejaVuSans-6d" x="3390.722656"/>
    <use xlink:href="#DejaVuSans-6f" x="3488.134766"/>
    <use xlink:href="#DejaVuSans-64" x="3549.316406"/>
    <use xlink:href="#DejaVuSans-65" x="3612.792969"/>
    <use xlink:href="#DejaVuSans-6c" x="3674.316406"/>
    <use xlink:href="#DejaVuSans-2d" x="3702.099609"/>
    <use xlink:href="#DejaVuSans-66" x="3738.183594"/>
    <use xlink:href="#DejaVuSans-61" x="3773.388672"/>
    <use xlink:href="#DejaVuSans-6d" x="3834.667969"/>
    <use xlink:href="#DejaVuSans-69" x="3932.080078"/>
    <use xlink:href="#DejaVuSans-6c" x="3959.863281"/>
    <use xlink:href="#DejaVuSans-79" x="3987.646484"/>
    <use xlink:href="#DejaVuSans-20" x="4046.826172"/>
    <use xlink:href="#DejaVuSans-6d" x="4078.613281"/>
    <use xlink:href="#DejaVuSans-65" x="4176.025391"/>
    <use xlink:href="#DejaVuSans-6e" x="4237.548828"/>
    <use xlink:href="#DejaVuSans-74" x="4300.927734"/>
    <use xlink:href="#DejaVuSans-69" x="4340.136719"/>
    <use xlink:href="#DejaVuSans-6f" x="4367.919922"/>
    <use xlink:href="#DejaVuSans-6e" x="4429.101562"/>
    <use xlink:href="#DejaVuSans-73" x="4492.480469"/>
    <use xlink:href="#DejaVuSans-2e" x="4544.580078"/>
   </g>
  </g>
  <g id="legend_1">
   <g id="line2d_22">
    <path d="M 74.592 109.27825 
L 89.152 109.27825 
L 103.712 109.27825 
" style="fill: none; stroke: #8fd7e8; stroke-width: 3; stroke-linecap: square"/>
   </g>
   <g id="text_17">
    <!-- Monthly share -->
    <g style="fill: #18324a" transform="translate(112.672 113.19825) scale(0.112 -0.112)">
     <defs>
      <path id="DejaVuSans-4d" d="M 628 4666 
L 1569 4666 
L 2759 1491 
L 3956 4666 
L 4897 4666 
L 4897 0 
L 4281 0 
L 4281 4097 
L 3078 897 
L 2444 897 
L 1241 4097 
L 1241 0 
L 628 0 
L 628 4666 
z
" transform="scale(0.015625)"/>
     </defs>
     <use xlink:href="#DejaVuSans-4d"/>
     <use xlink:href="#DejaVuSans-6f" x="86.279297"/>
     <use xlink:href="#DejaVuSans-6e" x="147.460938"/>
     <use xlink:href="#DejaVuSans-74" x="210.839844"/>
     <use xlink:href="#DejaVuSans-68" x="250.048828"/>
     <use xlink:href="#DejaVuSans-6c" x="313.427734"/>
     <use xlink:href="#DejaVuSans-79" x="341.210938"/>
     <use xlink:href="#DejaVuSans-20" x="400.390625"/>
     <use xlink:href="#DejaVuSans-73" x="432.177734"/>
     <use xlink:href="#DejaVuSans-68" x="484.277344"/>
     <use xlink:href="#DejaVuSans-61" x="547.65625"/>
     <use xlink:href="#DejaVuSans-72" x="608.935547"/>
     <use xlink:href="#DejaVuSans-65" x="647.798828"/>
    </g>
   </g>
   <g id="line2d_23">
    <path d="M 214.515 109.27825 
L 229.075 109.27825 
L 243.635 109.27825 
" style="fill: none; stroke: #137c82; stroke-width: 3.4; stroke-linecap: square"/>
   </g>
   <g id="text_18">
    <!-- 12-month rolling average -->
    <g style="fill: #18324a" transform="translate(252.595 113.19825) scale(0.112 -0.112)">
     <use xlink:href="#DejaVuSans-31"/>
     <use xlink:href="#DejaVuSans-32" x="63.623047"/>
     <use xlink:href="#DejaVuSans-2d" x="127.246094"/>
     <use xlink:href="#DejaVuSans-6d" x="163.330078"/>
     <use xlink:href="#DejaVuSans-6f" x="260.742188"/>
     <use xlink:href="#DejaVuSans-6e" x="321.923828"/>
     <use xlink:href="#DejaVuSans-74" x="385.302734"/>
     <use xlink:href="#DejaVuSans-68" x="424.511719"/>
     <use xlink:href="#DejaVuSans-20" x="487.890625"/>
     <use xlink:href="#DejaVuSans-72" x="519.677734"/>
     <use xlink:href="#DejaVuSans-6f" x="558.541016"/>
     <use xlink:href="#DejaVuSans-6c" x="619.722656"/>
     <use xlink:href="#DejaVuSans-6c" x="647.505859"/>
     <use xlink:href="#DejaVuSans-69" x="675.289062"/>
     <use xlink:href="#DejaVuSans-6e" x="703.072266"/>
     <use xlink:href="#DejaVuSans-67" x="766.451172"/>
     <use xlink:href="#DejaVuSans-20" x="829.927734"/>
     <use xlink:href="#DejaVuSans-61" x="861.714844"/>
     <use xlink:href="#DejaVuSans-76" x="922.994141"/>
     <use xlink:href="#DejaVuSans-65" x="982.173828"/>
     <use xlink:href="#DejaVuSans-72" x="1043.697266"/>
     <use xlink:href="#DejaVuSans-61" x="1084.810547"/>
     <use xlink:href="#DejaVuSans-67" x="1146.089844"/>
     <use xlink:href="#DejaVuSans-65" x="1209.566406"/>
    </g>
   </g>
   <g id="line2d_24">
    <path d="M 417.3575 109.27825 
L 431.9175 109.27825 
L 446.4775 109.27825 
" style="fill: none; stroke-dasharray: 3.6,3.6; stroke-dashoffset: 0; stroke: #8396a8; stroke-width: 1.8"/>
   </g>
   <g id="text_19">
    <!-- ChatGPT release -->
    <g style="fill: #18324a" transform="translate(455.4375 113.19825) scale(0.112 -0.112)">
     <use xlink:href="#DejaVuSans-43"/>
     <use xlink:href="#DejaVuSans-68" x="69.824219"/>
     <use xlink:href="#DejaVuSans-61" x="133.203125"/>
     <use xlink:href="#DejaVuSans-74" x="194.482422"/>
     <use xlink:href="#DejaVuSans-47" x="233.691406"/>
     <use xlink:href="#DejaVuSans-50" x="311.181641"/>
     <use xlink:href="#DejaVuSans-54" x="371.484375"/>
     <use xlink:href="#DejaVuSans-20" x="432.568359"/>
     <use xlink:href="#DejaVuSans-72" x="464.355469"/>
     <use xlink:href="#DejaVuSans-65" x="503.21875"/>
     <use xlink:href="#DejaVuSans-6c" x="564.742188"/>
     <use xlink:href="#DejaVuSans-65" x="592.525391"/>
     <use xlink:href="#DejaVuSans-61" x="654.048828"/>
     <use xlink:href="#DejaVuSans-73" x="715.328125"/>
     <use xlink:href="#DejaVuSans-65" x="767.427734"/>
    </g>
   </g>
  </g>
 </g>
 <defs>
  <clipPath id="pd69f885bf6">
   <rect x="64.512" y="131.4" width="677.376" height="273.312"/>
  </clipPath>
 </defs>
</svg>
