<?xml version="1.0" encoding="utf-8" standalone="no"?>
<!DOCTYPE svg PUBLIC "-//W3C//DTD SVG 1.1//EN"
  "http://www.w3.org/Graphics/SVG/1.1/DTD/svg11.dtd">
<svg xmlns:xlink="http://www.w3.org/1999/xlink" width="792pt" height="878.4pt" viewBox="0 0 792 878.4" xmlns="http://www.w3.org/2000/svg" version="1.1">
 <metadata>
  <rdf:RDF xmlns:dc="http://purl.org/dc/elements/1.1/" xmlns:cc="http://creativecommons.org/ns#" xmlns:rdf="http://www.w3.org/1999/02/22-rdf-syntax-ns#">
   <cc:Work>
    <dc:type rdf:resource="http://purl.org/dc/dcmitype/StillImage"/>
    <dc:date>2026-03-19T18:54:56.236757</dc:date>
    <dc:format>image/svg+xml</dc:format>
    <dc:creator>
     <cc:Agent>
      <dc:title>Matplotlib v3.9.4, https://matplotlib.org/</dc:title>
     </cc:Agent>
    </dc:creator>
   </cc:Work>
  </rdf:RDF>
 </metadata>
 <defs>
  <style type="text/css">*{stroke-linejoin: round; stroke-linecap: butt}</style>
 </defs>
 <g id="figure_1">
  <g id="patch_1">
   <path d="M 0 878.4 
L 792 878.4 
L 792 0 
L 0 0 
z
" style="fill: #faf7f2"/>
  </g>
  <g id="axes_1">
   <g id="patch_2">
    <path d="M 63.36 368.543044 
L 383.066422 368.543044 
L 383.066422 272.304 
L 63.36 272.304 
z
" style="fill: #faf7f2"/>
   </g>
   <g id="line2d_1">
    <path d="M 291.552531 368.543044 
L 291.552531 272.304 
" clip-path="url(#p2301eb526a)" style="fill: none; stroke-dasharray: 1.4,2.31; stroke-dashoffset: 0; stroke: #152238; stroke-width: 1.4"/>
   </g>
   <g id="matplotlib.axis_1">
    <g id="xtick_1">
     <g id="line2d_2"/>
     <g id="text_1">
      <!-- 2016 -->
      <g style="fill: #6a625c" transform="translate(80.091414 379.261559) scale(0.095 -0.095)">
       <defs>
        <path id="DejaVuSans-32" d="M 1228 531 
L 3431 531 
L 3431 0 
L 469 0 
L 469 531 
Q 828 903 1448 1529 
Q 2069 2156 2228 2338 
Q 2531 2678 2651 2914 
Q 2772 3150 2772 3378 
Q 2772 3750 2511 3984 
Q 2250 4219 1831 4219 
Q 1534 4219 1204 4116 
Q 875 4013 500 3803 
L 500 4441 
Q 881 4594 1212 4672 
Q 1544 4750 1819 4750 
Q 2544 4750 2975 4387 
Q 3406 4025 3406 3419 
Q 3406 3131 3298 2873 
Q 3191 2616 2906 2266 
Q 2828 2175 2409 1742 
Q 1991 1309 1228 531 
z
" transform="scale(0.015625)"/>
        <path id="DejaVuSans-30" d="M 2034 4250 
Q 1547 4250 1301 3770 
Q 1056 3291 1056 2328 
Q 1056 1369 1301 889 
Q 1547 409 2034 409 
Q 2525 409 2770 889 
Q 3016 1369 3016 2328 
Q 3016 3291 2770 3770 
Q 2525 4250 2034 4250 
z
M 2034 4750 
Q 2819 4750 3233 4129 
Q 3647 3509 3647 2328 
Q 3647 1150 3233 529 
Q 2819 -91 2034 -91 
Q 1250 -91 836 529 
Q 422 1150 422 2328 
Q 422 3509 836 4129 
Q 1250 4750 2034 4750 
z
" transform="scale(0.015625)"/>
        <path id="DejaVuSans-31" d="M 794 531 
L 1825 531 
L 1825 4091 
L 703 3866 
L 703 4441 
L 1819 4666 
L 2450 4666 
L 2450 531 
L 3481 531 
L 3481 0 
L 794 0 
L 794 531 
z
" transform="scale(0.015625)"/>
        <path id="DejaVuSans-36" d="M 2113 2584 
Q 1688 2584 1439 2293 
Q 1191 2003 1191 1497 
Q 1191 994 1439 701 
Q 1688 409 2113 409 
Q 2538 409 2786 701 
Q 3034 994 3034 1497 
Q 3034 2003 2786 2293 
Q 2538 2584 2113 2584 
z
M 3366 4563 
L 3366 3988 
Q 3128 4100 2886 4159 
Q 2644 4219 2406 4219 
Q 1781 4219 1451 3797 
Q 1122 3375 1075 2522 
Q 1259 2794 1537 2939 
Q 1816 3084 2150 3084 
Q 2853 3084 3261 2657 
Q 3669 2231 3669 1497 
Q 3669 778 3244 343 
Q 2819 -91 2113 -91 
Q 1303 -91 875 529 
Q 447 1150 447 2328 
Q 447 3434 972 4092 
Q 1497 4750 2381 4750 
Q 2619 4750 2861 4703 
Q 3103 4656 3366 4563 
z
" transform="scale(0.015625)"/>
       </defs>
       <use xlink:href="#DejaVuSans-32"/>
       <use xlink:href="#DejaVuSans-30" x="63.623047"/>
       <use xlink:href="#DejaVuSans-31" x="127.246094"/>
       <use xlink:href="#DejaVuSans-36" x="190.869141"/>
      </g>
     </g>
    </g>
    <g id="xtick_2">
     <g id="line2d_3"/>
     <g id="text_2">
      <!-- 2020 -->
      <g style="fill: #6a625c" transform="translate(195.451029 379.261559) scale(0.095 -0.095)">
       <use xlink:href="#DejaVuSans-32"/>
       <use xlink:href="#DejaVuSans-30" x="63.623047"/>
       <use xlink:href="#DejaVuSans-32" x="127.246094"/>
       <use xlink:href="#DejaVuSans-30" x="190.869141"/>
      </g>
     </g>
    </g>
    <g id="xtick_3">
     <g id="line2d_4"/>
     <g id="text_3">
      <!-- 2024 -->
      <g style="fill: #6a625c" transform="translate(310.810645 379.261559) scale(0.095 -0.095)">
       <defs>
        <path id="DejaVuSans-34" d="M 2419 4116 
L 825 1625 
L 2419 1625 
L 2419 4116 
z
M 2253 4666 
L 3047 4666 
L 3047 1625 
L 3713 1625 
L 3713 1100 
L 3047 1100 
L 3047 0 
L 2419 0 
L 2419 1100 
L 313 1100 
L 313 1709 
L 2253 4666 
z
" transform="scale(0.015625)"/>
       </defs>
       <use xlink:href="#DejaVuSans-32"/>
       <use xlink:href="#DejaVuSans-30" x="63.623047"/>
       <use xlink:href="#DejaVuSans-32" x="127.246094"/>
       <use xlink:href="#DejaVuSans-34" x="190.869141"/>
      </g>
     </g>
    </g>
   </g>
   <g id="matplotlib.axis_2">
    <g id="ytick_1">
     <g id="line2d_5">
      <path d="M 63.36 368.543044 
L 383.066422 368.543044 
" clip-path="url(#p2301eb526a)" style="fill: none; stroke: #ded8cf; stroke-width: 0.85; stroke-linecap: square"/>
     </g>
     <g id="line2d_6"/>
     <g id="text_4">
      <!-- 0 -->
      <g style="fill: #6a625c" transform="translate(53.815625 372.152302) scale(0.095 -0.095)">
       <use xlink:href="#DejaVuSans-30"/>
      </g>
     </g>
    </g>
    <g id="ytick_2">
     <g id="line2d_7">
      <path d="M 63.36 346.550919 
L 383.066422 346.550919 
" clip-path="url(#p2301eb526a)" style="fill: none; stroke: #ded8cf; stroke-width: 0.85; stroke-linecap: square"/>
     </g>
     <g id="line2d_8"/>
     <g id="text_5">
      <!-- 2 -->
      <g style="fill: #6a625c" transform="translate(53.815625 350.160176) scale(0.095 -0.095)">
       <use xlink:href="#DejaVuSans-32"/>
      </g>
     </g>
    </g>
    <g id="ytick_3">
     <g id="line2d_9">
      <path d="M 63.36 324.558793 
L 383.066422 324.558793 
" clip-path="url(#p2301eb526a)" style="fill: none; stroke: #ded8cf; stroke-width: 0.85; stroke-linecap: square"/>
     </g>
     <g id="line2d_10"/>
     <g id="text_6">
      <!-- 4 -->
      <g style="fill: #6a625c" transform="translate(53.815625 328.168051) scale(0.095 -0.095)">
       <use xlink:href="#DejaVuSans-34"/>
      </g>
     </g>
    </g>
    <g id="ytick_4">
     <g id="line2d_11">
      <path d="M 63.36 302.566668 
L 383.066422 302.566668 
" clip-path="url(#p2301eb526a)" style="fill: none; stroke: #ded8cf; stroke-width: 0.85; stroke-linecap: square"/>
     </g>
     <g id="line2d_12"/>
     <g id="text_7">
      <!-- 6 -->
      <g style="fill: #6a625c" transform="translate(53.815625 306.175926) scale(0.095 -0.095)">
       <use xlink:href="#DejaVuSans-36"/>
      </g>
     </g>
    </g>
    <g id="ytick_5">
     <g id="line2d_13">
      <path d="M 63.36 280.574543 
L 383.066422 280.574543 
" clip-path="url(#p2301eb526a)" style="fill: none; stroke: #ded8cf; stroke-width: 0.85; stroke-linecap: square"/>
     </g>
     <g id="line2d_14"/>
     <g id="text_8">
      <!-- 8 -->
      <g style="fill: #6a625c" transform="translate(53.815625 284.183801) scale(0.095 -0.095)">
       <defs>
        <path id="DejaVuSans-38" d="M 2034 2216 
Q 1584 2216 1326 1975 
Q 1069 1734 1069 1313 
Q 1069 891 1326 650 
Q 1584 409 2034 409 
Q 2484 409 2743 651 
Q 3003 894 3003 1313 
Q 3003 1734 2745 1975 
Q 2488 2216 2034 2216 
z
M 1403 2484 
Q 997 2584 770 2862 
Q 544 3141 544 3541 
Q 544 4100 942 4425 
Q 1341 4750 2034 4750 
Q 2731 4750 3128 4425 
Q 3525 4100 3525 3541 
Q 3525 3141 3298 2862 
Q 3072 2584 2669 2484 
Q 3125 2378 3379 2068 
Q 3634 1759 3634 1313 
Q 3634 634 3220 271 
Q 2806 -91 2034 -91 
Q 1263 -91 848 271 
Q 434 634 434 1313 
Q 434 1759 690 2068 
Q 947 2378 1403 2484 
z
M 1172 3481 
Q 1172 3119 1398 2916 
Q 1625 2713 2034 2713 
Q 2441 2713 2670 2916 
Q 2900 3119 2900 3481 
Q 2900 3844 2670 4047 
Q 2441 4250 2034 4250 
Q 1625 4250 1398 4047 
Q 1172 3844 1172 3481 
z
" transform="scale(0.015625)"/>
       </defs>
       <use xlink:href="#DejaVuSans-38"/>
      </g>
     </g>
    </g>
   </g>
   <g id="patch_3">
    <path d="M 63.36 368.543044 
L 383.066422 368.543044 
" style="fill: none; stroke: #9a8f84; stroke-linejoin: miter; stroke-linecap: square"/>
   </g>
   <g id="line2d_15">
    <path d="M 63.36 368.543044 
L 188.194738 368.543044 
L 190.642478 359.379658 
L 195.458998 359.379658 
L 197.906738 353.652542 
L 200.275519 353.652542 
L 202.723259 347.107267 
L 217.093861 347.107267 
L 219.541601 356.270653 
L 224.358122 356.270653 
L 226.805862 361.997768 
L 229.174642 361.997768 
L 231.622382 368.543044 
L 238.886643 368.543044 
L 241.097505 361.494286 
L 260.442546 361.494286 
L 262.811327 355.385362 
L 267.706807 355.385362 
L 269.917669 362.43412 
L 272.365409 358.070603 
L 274.734189 352.680376 
L 294.079231 352.680376 
L 296.526971 344.350026 
L 298.737833 336.019676 
L 301.185573 340.383192 
L 303.554353 345.773419 
L 313.266354 345.773419 
L 315.635134 340.682649 
L 318.082874 340.682649 
L 320.451655 346.791573 
L 322.899395 337.628188 
L 325.347135 345.958538 
L 327.636956 347.24013 
L 339.717737 347.24013 
L 342.165477 342.149361 
L 344.534258 347.24013 
L 346.981998 347.24013 
L 349.350778 324.331667 
L 351.798518 333.495052 
L 356.45712 333.495052 
L 358.90486 327.386129 
L 363.72138 299.543534 
L 366.090161 294.452764 
L 368.537901 288.343841 
L 370.985641 293.43461 
L 375.802162 293.43461 
L 378.170942 316.343074 
L 383.066422 316.343074 
L 383.066422 316.343074 
" clip-path="url(#p2301eb526a)" style="fill: none; stroke: #24539a; stroke-width: 2.6; stroke-linecap: square"/>
   </g>
   <g id="text_9">
    <!-- 5,697 papers -->
    <g style="fill: #5d5a56" transform="translate(63.36 268.465907) scale(0.092 -0.092)">
     <defs>
      <path id="DejaVuSans-35" d="M 691 4666 
L 3169 4666 
L 3169 4134 
L 1269 4134 
L 1269 2991 
Q 1406 3038 1543 3061 
Q 1681 3084 1819 3084 
Q 2600 3084 3056 2656 
Q 3513 2228 3513 1497 
Q 3513 744 3044 326 
Q 2575 -91 1722 -91 
Q 1428 -91 1123 -41 
Q 819 9 494 109 
L 494 744 
Q 775 591 1075 516 
Q 1375 441 1709 441 
Q 2250 441 2565 725 
Q 2881 1009 2881 1497 
Q 2881 1984 2565 2268 
Q 2250 2553 1709 2553 
Q 1456 2553 1204 2497 
Q 953 2441 691 2322 
L 691 4666 
z
" transform="scale(0.015625)"/>
      <path id="DejaVuSans-2c" d="M 750 794 
L 1409 794 
L 1409 256 
L 897 -744 
L 494 -744 
L 750 256 
L 750 794 
z
" transform="scale(0.015625)"/>
      <path id="DejaVuSans-39" d="M 703 97 
L 703 672 
Q 941 559 1184 500 
Q 1428 441 1663 441 
Q 2288 441 2617 861 
Q 2947 1281 2994 2138 
Q 2813 1869 2534 1725 
Q 2256 1581 1919 1581 
Q 1219 1581 811 2004 
Q 403 2428 403 3163 
Q 403 3881 828 4315 
Q 1253 4750 1959 4750 
Q 2769 4750 3195 4129 
Q 3622 3509 3622 2328 
Q 3622 1225 3098 567 
Q 2575 -91 1691 -91 
Q 1453 -91 1209 -44 
Q 966 3 703 97 
z
M 1959 2075 
Q 2384 2075 2632 2365 
Q 2881 2656 2881 3163 
Q 2881 3666 2632 3958 
Q 2384 4250 1959 4250 
Q 1534 4250 1286 3958 
Q 1038 3666 1038 3163 
Q 1038 2656 1286 2365 
Q 1534 2075 1959 2075 
z
" transform="scale(0.015625)"/>
      <path id="DejaVuSans-37" d="M 525 4666 
L 3525 4666 
L 3525 4397 
L 1831 0 
L 1172 0 
L 2766 4134 
L 525 4134 
L 525 4666 
z
" transform="scale(0.015625)"/>
      <path id="DejaVuSans-20" transform="scale(0.015625)"/>
      <path id="DejaVuSans-70" d="M 1159 525 
L 1159 -1331 
L 581 -1331 
L 581 3500 
L 1159 3500 
L 1159 2969 
Q 1341 3281 1617 3432 
Q 1894 3584 2278 3584 
Q 2916 3584 3314 3078 
Q 3713 2572 3713 1747 
Q 3713 922 3314 415 
Q 2916 -91 2278 -91 
Q 1894 -91 1617 61 
Q 1341 213 1159 525 
z
M 3116 1747 
Q 3116 2381 2855 2742 
Q 2594 3103 2138 3103 
Q 1681 3103 1420 2742 
Q 1159 2381 1159 1747 
Q 1159 1113 1420 752 
Q 1681 391 2138 391 
Q 2594 391 2855 752 
Q 3116 1113 3116 1747 
z
" transform="scale(0.015625)"/>
      <path id="DejaVuSans-61" d="M 2194 1759 
Q 1497 1759 1228 1600 
Q 959 1441 959 1056 
Q 959 750 1161 570 
Q 1363 391 1709 391 
Q 2188 391 2477 730 
Q 2766 1069 2766 1631 
L 2766 1759 
L 2194 1759 
z
M 3341 1997 
L 3341 0 
L 2766 0 
L 2766 531 
Q 2569 213 2275 61 
Q 1981 -91 1556 -91 
Q 1019 -91 701 211 
Q 384 513 384 1019 
Q 384 1609 779 1909 
Q 1175 2209 1959 2209 
L 2766 2209 
L 2766 2266 
Q 2766 2663 2505 2880 
Q 2244 3097 1772 3097 
Q 1472 3097 1187 3025 
Q 903 2953 641 2809 
L 641 3341 
Q 956 3463 1253 3523 
Q 1550 3584 1831 3584 
Q 2591 3584 2966 3190 
Q 3341 2797 3341 1997 
z
" transform="scale(0.015625)"/>
      <path id="DejaVuSans-65" d="M 3597 1894 
L 3597 1613 
L 953 1613 
Q 991 1019 1311 708 
Q 1631 397 2203 397 
Q 2534 397 2845 478 
Q 3156 559 3463 722 
L 3463 178 
Q 3153 47 2828 -22 
Q 2503 -91 2169 -91 
Q 1331 -91 842 396 
Q 353 884 353 1716 
Q 353 2575 817 3079 
Q 1281 3584 2069 3584 
Q 2775 3584 3186 3129 
Q 3597 2675 3597 1894 
z
M 3022 2063 
Q 3016 2534 2758 2815 
Q 2500 3097 2075 3097 
Q 1594 3097 1305 2825 
Q 1016 2553 972 2059 
L 3022 2063 
z
" transform="scale(0.015625)"/>
      <path id="DejaVuSans-72" d="M 2631 2963 
Q 2534 3019 2420 3045 
Q 2306 3072 2169 3072 
Q 1681 3072 1420 2755 
Q 1159 2438 1159 1844 
L 1159 0 
L 581 0 
L 581 3500 
L 1159 3500 
L 1159 2956 
Q 1341 3275 1631 3429 
Q 1922 3584 2338 3584 
Q 2397 3584 2469 3576 
Q 2541 3569 2628 3553 
L 2631 2963 
z
" transform="scale(0.015625)"/>
      <path id="DejaVuSans-73" d="M 2834 3397 
L 2834 2853 
Q 2591 2978 2328 3040 
Q 2066 3103 1784 3103 
Q 1356 3103 1142 2972 
Q 928 2841 928 2578 
Q 928 2378 1081 2264 
Q 1234 2150 1697 2047 
L 1894 2003 
Q 2506 1872 2764 1633 
Q 3022 1394 3022 966 
Q 3022 478 2636 193 
Q 2250 -91 1575 -91 
Q 1294 -91 989 -36 
Q 684 19 347 128 
L 347 722 
Q 666 556 975 473 
Q 1284 391 1588 391 
Q 1994 391 2212 530 
Q 2431 669 2431 922 
Q 2431 1156 2273 1281 
Q 2116 1406 1581 1522 
L 1381 1569 
Q 847 1681 609 1914 
Q 372 2147 372 2553 
Q 372 3047 722 3315 
Q 1072 3584 1716 3584 
Q 2034 3584 2315 3537 
Q 2597 3491 2834 3397 
z
" transform="scale(0.015625)"/>
     </defs>
     <use xlink:href="#DejaVuSans-35"/>
     <use xlink:href="#DejaVuSans-2c" x="63.623047"/>
     <use xlink:href="#DejaVuSans-36" x="95.410156"/>
     <use xlink:href="#DejaVuSans-39" x="159.033203"/>
     <use xlink:href="#DejaVuSans-37" x="222.65625"/>
     <use xlink:href="#DejaVuSans-20" x="286.279297"/>
     <use xlink:href="#DejaVuSans-70" x="318.066406"/>
     <use xlink:href="#DejaVuSans-61" x="381.542969"/>
     <use xlink:href="#DejaVuSans-70" x="442.822266"/>
     <use xlink:href="#DejaVuSans-65" x="506.298828"/>
     <use xlink:href="#DejaVuSans-72" x="567.822266"/>
     <use xlink:href="#DejaVuSans-73" x="608.935547"/>
    </g>
   </g>
   <g id="text_10">
    <!-- Labour -->
    <g style="fill: #152238" transform="translate(63.36 264.304) scale(0.123 -0.123)">
     <defs>
      <path id="DejaVuSans-4c" d="M 628 4666 
L 1259 4666 
L 1259 531 
L 3531 531 
L 3531 0 
L 628 0 
L 628 4666 
z
" transform="scale(0.015625)"/>
      <path id="DejaVuSans-62" d="M 3116 1747 
Q 3116 2381 2855 2742 
Q 2594 3103 2138 3103 
Q 1681 3103 1420 2742 
Q 1159 2381 1159 1747 
Q 1159 1113 1420 752 
Q 1681 391 2138 391 
Q 2594 391 2855 752 
Q 3116 1113 3116 1747 
z
M 1159 2969 
Q 1341 3281 1617 3432 
Q 1894 3584 2278 3584 
Q 2916 3584 3314 3078 
Q 3713 2572 3713 1747 
Q 3713 922 3314 415 
Q 2916 -91 2278 -91 
Q 1894 -91 1617 61 
Q 1341 213 1159 525 
L 1159 0 
L 581 0 
L 581 4863 
L 1159 4863 
L 1159 2969 
z
" transform="scale(0.015625)"/>
      <path id="DejaVuSans-6f" d="M 1959 3097 
Q 1497 3097 1228 2736 
Q 959 2375 959 1747 
Q 959 1119 1226 758 
Q 1494 397 1959 397 
Q 2419 397 2687 759 
Q 2956 1122 2956 1747 
Q 2956 2369 2687 2733 
Q 2419 3097 1959 3097 
z
M 1959 3584 
Q 2709 3584 3137 3096 
Q 3566 2609 3566 1747 
Q 3566 888 3137 398 
Q 2709 -91 1959 -91 
Q 1206 -91 779 398 
Q 353 888 353 1747 
Q 353 2609 779 3096 
Q 1206 3584 1959 3584 
z
" transform="scale(0.015625)"/>
      <path id="DejaVuSans-75" d="M 544 1381 
L 544 3500 
L 1119 3500 
L 1119 1403 
Q 1119 906 1312 657 
Q 1506 409 1894 409 
Q 2359 409 2629 706 
Q 2900 1003 2900 1516 
L 2900 3500 
L 3475 3500 
L 3475 0 
L 2900 0 
L 2900 538 
Q 2691 219 2414 64 
Q 2138 -91 1772 -91 
Q 1169 -91 856 284 
Q 544 659 544 1381 
z
M 1991 3584 
L 1991 3584 
z
" transform="scale(0.015625)"/>
     </defs>
     <use xlink:href="#DejaVuSans-4c"/>
     <use xlink:href="#DejaVuSans-61" x="55.712891"/>
     <use xlink:href="#DejaVuSans-62" x="116.992188"/>
     <use xlink:href="#DejaVuSans-6f" x="180.46875"/>
     <use xlink:href="#DejaVuSans-75" x="241.650391"/>
     <use xlink:href="#DejaVuSans-72" x="305.029297"/>
    </g>
   </g>
  </g>
  <g id="axes_2">
   <g id="patch_4">
    <path d="M 440.613578 368.543044 
L 760.32 368.543044 
L 760.32 272.304 
L 440.613578 272.304 
z
" style="fill: #faf7f2"/>
   </g>
   <g id="line2d_16">
    <path d="M 668.806109 368.543044 
L 668.806109 272.304 
" clip-path="url(#pe28b56ec88)" style="fill: none; stroke-dasharray: 1.4,2.31; stroke-dashoffset: 0; stroke: #152238; stroke-width: 1.4"/>
   </g>
   <g id="matplotlib.axis_3">
    <g id="xtick_4">
     <g id="line2d_17"/>
     <g id="text_11">
      <!-- 2016 -->
      <g style="fill: #6a625c" transform="translate(457.344992 379.261559) scale(0.095 -0.095)">
       <use xlink:href="#DejaVuSans-32"/>
       <use xlink:href="#DejaVuSans-30" x="63.623047"/>
       <use xlink:href="#DejaVuSans-31" x="127.246094"/>
       <use xlink:href="#DejaVuSans-36" x="190.869141"/>
      </g>
     </g>
    </g>
    <g id="xtick_5">
     <g id="line2d_18"/>
     <g id="text_12">
      <!-- 2020 -->
      <g style="fill: #6a625c" transform="translate(572.704607 379.261559) scale(0.095 -0.095)">
       <use xlink:href="#DejaVuSans-32"/>
       <use xlink:href="#DejaVuSans-30" x="63.623047"/>
       <use xlink:href="#DejaVuSans-32" x="127.246094"/>
       <use xlink:href="#DejaVuSans-30" x="190.869141"/>
      </g>
     </g>
    </g>
    <g id="xtick_6">
     <g id="line2d_19"/>
     <g id="text_13">
      <!-- 2024 -->
      <g style="fill: #6a625c" transform="translate(688.064223 379.261559) scale(0.095 -0.095)">
       <use xlink:href="#DejaVuSans-32"/>
       <use xlink:href="#DejaVuSans-30" x="63.623047"/>
       <use xlink:href="#DejaVuSans-32" x="127.246094"/>
       <use xlink:href="#DejaVuSans-34" x="190.869141"/>
      </g>
     </g>
    </g>
   </g>
   <g id="matplotlib.axis_4">
    <g id="ytick_6">
     <g id="line2d_20">
      <path d="M 440.613578 368.543044 
L 760.32 368.543044 
" clip-path="url(#pe28b56ec88)" style="fill: none; stroke: #ded8cf; stroke-width: 0.85; stroke-linecap: square"/>
     </g>
     <g id="line2d_21"/>
     <g id="text_14">
      <!-- 0 -->
      <g style="fill: #6a625c" transform="translate(431.069203 372.152302) scale(0.095 -0.095)">
       <use xlink:href="#DejaVuSans-30"/>
      </g>
     </g>
    </g>
    <g id="ytick_7">
     <g id="line2d_22">
      <path d="M 440.613578 346.550919 
L 760.32 346.550919 
" clip-path="url(#pe28b56ec88)" style="fill: none; stroke: #ded8cf; stroke-width: 0.85; stroke-linecap: square"/>
     </g>
     <g id="line2d_23"/>
     <g id="text_15">
      <!-- 2 -->
      <g style="fill: #6a625c" transform="translate(431.069203 350.160176) scale(0.095 -0.095)">
       <use xlink:href="#DejaVuSans-32"/>
      </g>
     </g>
    </g>
    <g id="ytick_8">
     <g id="line2d_24">
      <path d="M 440.613578 324.558793 
L 760.32 324.558793 
" clip-path="url(#pe28b56ec88)" style="fill: none; stroke: #ded8cf; stroke-width: 0.85; stroke-linecap: square"/>
     </g>
     <g id="line2d_25"/>
     <g id="text_16">
      <!-- 4 -->
      <g style="fill: #6a625c" transform="translate(431.069203 328.168051) scale(0.095 -0.095)">
       <use xlink:href="#DejaVuSans-34"/>
      </g>
     </g>
    </g>
    <g id="ytick_9">
     <g id="line2d_26">
      <path d="M 440.613578 302.566668 
L 760.32 302.566668 
" clip-path="url(#pe28b56ec88)" style="fill: none; stroke: #ded8cf; stroke-width: 0.85; stroke-linecap: square"/>
     </g>
     <g id="line2d_27"/>
     <g id="text_17">
      <!-- 6 -->
      <g style="fill: #6a625c" transform="translate(431.069203 306.175926) scale(0.095 -0.095)">
       <use xlink:href="#DejaVuSans-36"/>
      </g>
     </g>
    </g>
    <g id="ytick_10">
     <g id="line2d_28">
      <path d="M 440.613578 280.574543 
L 760.32 280.574543 
" clip-path="url(#pe28b56ec88)" style="fill: none; stroke: #ded8cf; stroke-width: 0.85; stroke-linecap: square"/>
     </g>
     <g id="line2d_29"/>
     <g id="text_18">
      <!-- 8 -->
      <g style="fill: #6a625c" transform="translate(431.069203 284.183801) scale(0.095 -0.095)">
       <use xlink:href="#DejaVuSans-38"/>
      </g>
     </g>
    </g>
   </g>
   <g id="patch_5">
    <path d="M 440.613578 368.543044 
L 760.32 368.543044 
" style="fill: none; stroke: #9a8f84; stroke-linejoin: miter; stroke-linecap: square"/>
   </g>
   <g id="line2d_30">
    <path d="M 440.613578 366.672779 
L 443.061318 367.804061 
L 450.0887 367.804061 
L 452.53644 366.644139 
L 459.800701 366.644139 
L 464.617221 364.058287 
L 466.986002 362.648535 
L 469.433742 362.999239 
L 471.881482 362.999239 
L 474.171303 362.073644 
L 478.987824 362.073644 
L 481.435564 363.233567 
L 488.699824 363.233567 
L 491.068605 363.527183 
L 493.516345 364.87474 
L 495.885125 365.046196 
L 498.332865 363.907244 
L 500.780605 363.907244 
L 502.991467 364.832839 
L 512.624508 364.832839 
L 515.072248 363.791545 
L 517.519988 363.791545 
L 519.888769 364.736224 
L 522.336509 364.736224 
L 524.705289 365.974519 
L 527.153029 365.631671 
L 529.600769 364.861639 
L 531.811631 363.281745 
L 534.259371 362.263591 
L 541.444672 362.263591 
L 543.892412 363.304885 
L 546.340152 362.397619 
L 548.708933 360.24995 
L 553.525453 358.430961 
L 555.973193 360.301039 
L 558.420933 361.071072 
L 560.631795 362.650966 
L 563.079535 362.918023 
L 565.448316 362.298875 
L 567.896056 361.41778 
L 570.264836 359.974727 
L 572.712576 359.974727 
L 575.160316 360.881993 
L 577.529097 363.029662 
L 579.976837 363.338872 
L 582.345617 364.203343 
L 584.793357 363.09932 
L 587.241097 362.242929 
L 589.530919 360.776787 
L 591.978658 360.638235 
L 594.347439 360.166504 
L 596.795179 360.353403 
L 599.16396 361.209059 
L 601.6117 359.388519 
L 604.05944 358.413691 
L 608.87596 358.359504 
L 611.244741 357.817292 
L 613.692481 358.921315 
L 618.351083 358.044191 
L 620.798822 358.93384 
L 623.167603 359.049891 
L 627.984124 358.420795 
L 632.879604 358.17086 
L 635.248384 358.17086 
L 637.696124 357.86339 
L 640.064905 357.096547 
L 642.512645 356.184767 
L 644.960385 356.88036 
L 647.171247 358.789399 
L 649.618986 358.268752 
L 651.987767 357.132201 
L 654.435507 358.161795 
L 656.804288 356.717157 
L 659.252028 358.303738 
L 661.699768 355.35358 
L 664.068548 353.051222 
L 666.516288 353.26824 
L 668.885069 351.971593 
L 671.332809 351.343308 
L 673.780549 350.491483 
L 675.991411 348.384957 
L 678.43915 346.374282 
L 680.807931 346.716668 
L 683.255671 343.801045 
L 685.624452 344.936728 
L 688.072192 343.981288 
L 690.519932 347.155443 
L 692.888712 344.901422 
L 697.705233 341.662776 
L 700.152973 340.198452 
L 702.600713 341.645303 
L 704.890534 343.751828 
L 707.338274 346.28315 
L 709.707054 348.052143 
L 712.154794 350.967766 
L 714.523575 347.576123 
L 716.971315 348.937022 
L 719.419055 349.766288 
L 721.787836 354.322667 
L 724.235575 356.812718 
L 726.604356 355.866193 
L 729.052096 358.870581 
L 731.499836 355.346202 
L 740.974958 355.346202 
L 743.343739 359.927895 
L 753.055739 359.927895 
L 755.42452 365.018665 
L 757.87226 365.018665 
L 760.32 368.543044 
L 760.32 368.543044 
" clip-path="url(#pe28b56ec88)" style="fill: none; stroke: #24539a; stroke-width: 2.6; stroke-linecap: square"/>
   </g>
   <g id="text_19">
    <!-- 41,535 papers -->
    <g style="fill: #5d5a56" transform="translate(440.613578 268.465907) scale(0.092 -0.092)">
     <defs>
      <path id="DejaVuSans-33" d="M 2597 2516 
Q 3050 2419 3304 2112 
Q 3559 1806 3559 1356 
Q 3559 666 3084 287 
Q 2609 -91 1734 -91 
Q 1441 -91 1130 -33 
Q 819 25 488 141 
L 488 750 
Q 750 597 1062 519 
Q 1375 441 1716 441 
Q 2309 441 2620 675 
Q 2931 909 2931 1356 
Q 2931 1769 2642 2001 
Q 2353 2234 1838 2234 
L 1294 2234 
L 1294 2753 
L 1863 2753 
Q 2328 2753 2575 2939 
Q 2822 3125 2822 3475 
Q 2822 3834 2567 4026 
Q 2313 4219 1838 4219 
Q 1578 4219 1281 4162 
Q 984 4106 628 3988 
L 628 4550 
Q 988 4650 1302 4700 
Q 1616 4750 1894 4750 
Q 2613 4750 3031 4423 
Q 3450 4097 3450 3541 
Q 3450 3153 3228 2886 
Q 3006 2619 2597 2516 
z
" transform="scale(0.015625)"/>
     </defs>
     <use xlink:href="#DejaVuSans-34"/>
     <use xlink:href="#DejaVuSans-31" x="63.623047"/>
     <use xlink:href="#DejaVuSans-2c" x="127.246094"/>
     <use xlink:href="#DejaVuSans-35" x="159.033203"/>
     <use xlink:href="#DejaVuSans-33" x="222.65625"/>
     <use xlink:href="#DejaVuSans-35" x="286.279297"/>
     <use xlink:href="#DejaVuSans-20" x="349.902344"/>
     <use xlink:href="#DejaVuSans-70" x="381.689453"/>
     <use xlink:href="#DejaVuSans-61" x="445.166016"/>
     <use xlink:href="#DejaVuSans-70" x="506.445312"/>
     <use xlink:href="#DejaVuSans-65" x="569.921875"/>
     <use xlink:href="#DejaVuSans-72" x="631.445312"/>
     <use xlink:href="#DejaVuSans-73" x="672.558594"/>
    </g>
   </g>
   <g id="text_20">
    <!-- Macro -->
    <g style="fill: #152238" transform="translate(440.613578 264.304) scale(0.123 -0.123)">
     <defs>
      <path id="DejaVuSans-4d" d="M 628 4666 
L 1569 4666 
L 2759 1491 
L 3956 4666 
L 4897 4666 
L 4897 0 
L 4281 0 
L 4281 4097 
L 3078 897 
L 2444 897 
L 1241 4097 
L 1241 0 
L 628 0 
L 628 4666 
z
" transform="scale(0.015625)"/>
      <path id="DejaVuSans-63" d="M 3122 3366 
L 3122 2828 
Q 2878 2963 2633 3030 
Q 2388 3097 2138 3097 
Q 1578 3097 1268 2742 
Q 959 2388 959 1747 
Q 959 1106 1268 751 
Q 1578 397 2138 397 
Q 2388 397 2633 464 
Q 2878 531 3122 666 
L 3122 134 
Q 2881 22 2623 -34 
Q 2366 -91 2075 -91 
Q 1284 -91 818 406 
Q 353 903 353 1747 
Q 353 2603 823 3093 
Q 1294 3584 2113 3584 
Q 2378 3584 2631 3529 
Q 2884 3475 3122 3366 
z
" transform="scale(0.015625)"/>
     </defs>
     <use xlink:href="#DejaVuSans-4d"/>
     <use xlink:href="#DejaVuSans-61" x="86.279297"/>
     <use xlink:href="#DejaVuSans-63" x="147.558594"/>
     <use xlink:href="#DejaVuSans-72" x="202.539062"/>
     <use xlink:href="#DejaVuSans-6f" x="241.402344"/>
    </g>
   </g>
  </g>
  <g id="axes_3">
   <g id="patch_6">
    <path d="M 63.36 497.503363 
L 383.066422 497.503363 
L 383.066422 401.264319 
L 63.36 401.264319 
z
" style="fill: #faf7f2"/>
   </g>
   <g id="line2d_31">
    <path d="M 291.552531 497.503363 
L 291.552531 401.264319 
" clip-path="url(#p056ae3d636)" style="fill: none; stroke-dasharray: 1.4,2.31; stroke-dashoffset: 0; stroke: #152238; stroke-width: 1.4"/>
   </g>
   <g id="matplotlib.axis_5">
    <g id="xtick_7">
     <g id="line2d_32"/>
     <g id="text_21">
      <!-- 2016 -->
      <g style="fill: #6a625c" transform="translate(80.091414 508.221878) scale(0.095 -0.095)">
       <use xlink:href="#DejaVuSans-32"/>
       <use xlink:href="#DejaVuSans-30" x="63.623047"/>
       <use xlink:href="#DejaVuSans-31" x="127.246094"/>
       <use xlink:href="#DejaVuSans-36" x="190.869141"/>
      </g>
     </g>
    </g>
    <g id="xtick_8">
     <g id="line2d_33"/>
     <g id="text_22">
      <!-- 2020 -->
      <g style="fill: #6a625c" transform="translate(195.451029 508.221878) scale(0.095 -0.095)">
       <use xlink:href="#DejaVuSans-32"/>
       <use xlink:href="#DejaVuSans-30" x="63.623047"/>
       <use xlink:href="#DejaVuSans-32" x="127.246094"/>
       <use xlink:href="#DejaVuSans-30" x="190.869141"/>
      </g>
     </g>
    </g>
    <g id="xtick_9">
     <g id="line2d_34"/>
     <g id="text_23">
      <!-- 2024 -->
      <g style="fill: #6a625c" transform="translate(310.810645 508.221878) scale(0.095 -0.095)">
       <use xlink:href="#DejaVuSans-32"/>
       <use xlink:href="#DejaVuSans-30" x="63.623047"/>
       <use xlink:href="#DejaVuSans-32" x="127.246094"/>
       <use xlink:href="#DejaVuSans-34" x="190.869141"/>
      </g>
     </g>
    </g>
   </g>
   <g id="matplotlib.axis_6">
    <g id="ytick_11">
     <g id="line2d_35">
      <path d="M 63.36 497.503363 
L 383.066422 497.503363 
" clip-path="url(#p056ae3d636)" style="fill: none; stroke: #ded8cf; stroke-width: 0.85; stroke-linecap: square"/>
     </g>
     <g id="line2d_36"/>
     <g id="text_24">
      <!-- 0 -->
      <g style="fill: #6a625c" transform="translate(53.815625 501.11262) scale(0.095 -0.095)">
       <use xlink:href="#DejaVuSans-30"/>
      </g>
     </g>
    </g>
    <g id="ytick_12">
     <g id="line2d_37">
      <path d="M 63.36 475.511237 
L 383.066422 475.511237 
" clip-path="url(#p056ae3d636)" style="fill: none; stroke: #ded8cf; stroke-width: 0.85; stroke-linecap: square"/>
     </g>
     <g id="line2d_38"/>
     <g id="text_25">
      <!-- 2 -->
      <g style="fill: #6a625c" transform="translate(53.815625 479.120495) scale(0.095 -0.095)">
       <use xlink:href="#DejaVuSans-32"/>
      </g>
     </g>
    </g>
    <g id="ytick_13">
     <g id="line2d_39">
      <path d="M 63.36 453.519112 
L 383.066422 453.519112 
" clip-path="url(#p056ae3d636)" style="fill: none; stroke: #ded8cf; stroke-width: 0.85; stroke-linecap: square"/>
     </g>
     <g id="line2d_40"/>
     <g id="text_26">
      <!-- 4 -->
      <g style="fill: #6a625c" transform="translate(53.815625 457.12837) scale(0.095 -0.095)">
       <use xlink:href="#DejaVuSans-34"/>
      </g>
     </g>
    </g>
    <g id="ytick_14">
     <g id="line2d_41">
      <path d="M 63.36 431.526987 
L 383.066422 431.526987 
" clip-path="url(#p056ae3d636)" style="fill: none; stroke: #ded8cf; stroke-width: 0.85; stroke-linecap: square"/>
     </g>
     <g id="line2d_42"/>
     <g id="text_27">
      <!-- 6 -->
      <g style="fill: #6a625c" transform="translate(53.815625 435.136245) scale(0.095 -0.095)">
       <use xlink:href="#DejaVuSans-36"/>
      </g>
     </g>
    </g>
    <g id="ytick_15">
     <g id="line2d_43">
      <path d="M 63.36 409.534862 
L 383.066422 409.534862 
" clip-path="url(#p056ae3d636)" style="fill: none; stroke: #ded8cf; stroke-width: 0.85; stroke-linecap: square"/>
     </g>
     <g id="line2d_44"/>
     <g id="text_28">
      <!-- 8 -->
      <g style="fill: #6a625c" transform="translate(53.815625 413.144119) scale(0.095 -0.095)">
       <use xlink:href="#DejaVuSans-38"/>
      </g>
     </g>
    </g>
   </g>
   <g id="patch_7">
    <path d="M 63.36 497.503363 
L 383.066422 497.503363 
" style="fill: none; stroke: #9a8f84; stroke-linejoin: miter; stroke-linecap: square"/>
   </g>
   <g id="line2d_45">
    <path d="M 63.36 497.503363 
L 140.26641 497.503363 
L 142.635191 494.343574 
L 169.086574 494.343574 
L 171.455355 497.503363 
L 229.174642 497.503363 
L 231.622382 495.511322 
L 233.991163 495.511322 
L 236.438903 492.40509 
L 257.994806 492.40509 
L 260.442546 494.39713 
L 262.811327 494.39713 
L 265.259067 497.503363 
L 277.181929 497.503363 
L 279.55071 495.741173 
L 286.81497 495.741173 
L 289.26271 493.005834 
L 291.631491 491.452718 
L 298.737833 491.452718 
L 301.185573 488.543707 
L 306.002093 488.543707 
L 308.370874 490.305896 
L 313.266354 490.305896 
L 315.635134 488.726002 
L 318.082874 491.461341 
L 320.451655 490.237674 
L 327.636956 490.237674 
L 330.084696 493.146685 
L 342.165477 493.146685 
L 344.534258 494.726579 
L 346.981998 490.561404 
L 349.350778 493.338187 
L 358.90486 493.338187 
L 361.27364 490.561404 
L 363.72138 490.561404 
L 366.090161 484.45248 
L 373.354422 484.45248 
L 375.802162 488.617655 
L 383.066422 488.617655 
L 383.066422 488.617655 
" clip-path="url(#p056ae3d636)" style="fill: none; stroke: #24539a; stroke-width: 2.6; stroke-linecap: square"/>
   </g>
   <g id="text_29">
    <!-- 15,779 papers -->
    <g style="fill: #5d5a56" transform="translate(63.36 397.426225) scale(0.092 -0.092)">
     <use xlink:href="#DejaVuSans-31"/>
     <use xlink:href="#DejaVuSans-35" x="63.623047"/>
     <use xlink:href="#DejaVuSans-2c" x="127.246094"/>
     <use xlink:href="#DejaVuSans-37" x="159.033203"/>
     <use xlink:href="#DejaVuSans-37" x="222.65625"/>
     <use xlink:href="#DejaVuSans-39" x="286.279297"/>
     <use xlink:href="#DejaVuSans-20" x="349.902344"/>
     <use xlink:href="#DejaVuSans-70" x="381.689453"/>
     <use xlink:href="#DejaVuSans-61" x="445.166016"/>
     <use xlink:href="#DejaVuSans-70" x="506.445312"/>
     <use xlink:href="#DejaVuSans-65" x="569.921875"/>
     <use xlink:href="#DejaVuSans-72" x="631.445312"/>
     <use xlink:href="#DejaVuSans-73" x="672.558594"/>
    </g>
   </g>
   <g id="text_30">
    <!-- Public finance -->
    <g style="fill: #152238" transform="translate(63.36 393.264319) scale(0.123 -0.123)">
     <defs>
      <path id="DejaVuSans-50" d="M 1259 4147 
L 1259 2394 
L 2053 2394 
Q 2494 2394 2734 2622 
Q 2975 2850 2975 3272 
Q 2975 3691 2734 3919 
Q 2494 4147 2053 4147 
L 1259 4147 
z
M 628 4666 
L 2053 4666 
Q 2838 4666 3239 4311 
Q 3641 3956 3641 3272 
Q 3641 2581 3239 2228 
Q 2838 1875 2053 1875 
L 1259 1875 
L 1259 0 
L 628 0 
L 628 4666 
z
" transform="scale(0.015625)"/>
      <path id="DejaVuSans-6c" d="M 603 4863 
L 1178 4863 
L 1178 0 
L 603 0 
L 603 4863 
z
" transform="scale(0.015625)"/>
      <path id="DejaVuSans-69" d="M 603 3500 
L 1178 3500 
L 1178 0 
L 603 0 
L 603 3500 
z
M 603 4863 
L 1178 4863 
L 1178 4134 
L 603 4134 
L 603 4863 
z
" transform="scale(0.015625)"/>
      <path id="DejaVuSans-66" d="M 2375 4863 
L 2375 4384 
L 1825 4384 
Q 1516 4384 1395 4259 
Q 1275 4134 1275 3809 
L 1275 3500 
L 2222 3500 
L 2222 3053 
L 1275 3053 
L 1275 0 
L 697 0 
L 697 3053 
L 147 3053 
L 147 3500 
L 697 3500 
L 697 3744 
Q 697 4328 969 4595 
Q 1241 4863 1831 4863 
L 2375 4863 
z
" transform="scale(0.015625)"/>
      <path id="DejaVuSans-6e" d="M 3513 2113 
L 3513 0 
L 2938 0 
L 2938 2094 
Q 2938 2591 2744 2837 
Q 2550 3084 2163 3084 
Q 1697 3084 1428 2787 
Q 1159 2491 1159 1978 
L 1159 0 
L 581 0 
L 581 3500 
L 1159 3500 
L 1159 2956 
Q 1366 3272 1645 3428 
Q 1925 3584 2291 3584 
Q 2894 3584 3203 3211 
Q 3513 2838 3513 2113 
z
" transform="scale(0.015625)"/>
     </defs>
     <use xlink:href="#DejaVuSans-50"/>
     <use xlink:href="#DejaVuSans-75" x="58.552734"/>
     <use xlink:href="#DejaVuSans-62" x="121.931641"/>
     <use xlink:href="#DejaVuSans-6c" x="185.408203"/>
     <use xlink:href="#DejaVuSans-69" x="213.191406"/>
     <use xlink:href="#DejaVuSans-63" x="240.974609"/>
     <use xlink:href="#DejaVuSans-20" x="295.955078"/>
     <use xlink:href="#DejaVuSans-66" x="327.742188"/>
     <use xlink:href="#DejaVuSans-69" x="362.947266"/>
     <use xlink:href="#DejaVuSans-6e" x="390.730469"/>
     <use xlink:href="#DejaVuSans-61" x="454.109375"/>
     <use xlink:href="#DejaVuSans-6e" x="515.388672"/>
     <use xlink:href="#DejaVuSans-63" x="578.767578"/>
     <use xlink:href="#DejaVuSans-65" x="633.748047"/>
    </g>
   </g>
  </g>
  <g id="axes_4">
   <g id="patch_8">
    <path d="M 440.613578 497.503363 
L 760.32 497.503363 
L 760.32 401.264319 
L 440.613578 401.264319 
z
" style="fill: #faf7f2"/>
   </g>
   <g id="line2d_46">
    <path d="M 668.806109 497.503363 
L 668.806109 401.264319 
" clip-path="url(#pa06cc8d133)" style="fill: none; stroke-dasharray: 1.4,2.31; stroke-dashoffset: 0; stroke: #152238; stroke-width: 1.4"/>
   </g>
   <g id="matplotlib.axis_7">
    <g id="xtick_10">
     <g id="line2d_47"/>
     <g id="text_31">
      <!-- 2016 -->
      <g style="fill: #6a625c" transform="translate(457.344992 508.221878) scale(0.095 -0.095)">
       <use xlink:href="#DejaVuSans-32"/>
       <use xlink:href="#DejaVuSans-30" x="63.623047"/>
       <use xlink:href="#DejaVuSans-31" x="127.246094"/>
       <use xlink:href="#DejaVuSans-36" x="190.869141"/>
      </g>
     </g>
    </g>
    <g id="xtick_11">
     <g id="line2d_48"/>
     <g id="text_32">
      <!-- 2020 -->
      <g style="fill: #6a625c" transform="translate(572.704607 508.221878) scale(0.095 -0.095)">
       <use xlink:href="#DejaVuSans-32"/>
       <use xlink:href="#DejaVuSans-30" x="63.623047"/>
       <use xlink:href="#DejaVuSans-32" x="127.246094"/>
       <use xlink:href="#DejaVuSans-30" x="190.869141"/>
      </g>
     </g>
    </g>
    <g id="xtick_12">
     <g id="line2d_49"/>
     <g id="text_33">
      <!-- 2024 -->
      <g style="fill: #6a625c" transform="translate(688.064223 508.221878) scale(0.095 -0.095)">
       <use xlink:href="#DejaVuSans-32"/>
       <use xlink:href="#DejaVuSans-30" x="63.623047"/>
       <use xlink:href="#DejaVuSans-32" x="127.246094"/>
       <use xlink:href="#DejaVuSans-34" x="190.869141"/>
      </g>
     </g>
    </g>
   </g>
   <g id="matplotlib.axis_8">
    <g id="ytick_16">
     <g id="line2d_50">
      <path d="M 440.613578 497.503363 
L 760.32 497.503363 
" clip-path="url(#pa06cc8d133)" style="fill: none; stroke: #ded8cf; stroke-width: 0.85; stroke-linecap: square"/>
     </g>
     <g id="line2d_51"/>
     <g id="text_34">
      <!-- 0 -->
      <g style="fill: #6a625c" transform="translate(431.069203 501.11262) scale(0.095 -0.095)">
       <use xlink:href="#DejaVuSans-30"/>
      </g>
     </g>
    </g>
    <g id="ytick_17">
     <g id="line2d_52">
      <path d="M 440.613578 475.511237 
L 760.32 475.511237 
" clip-path="url(#pa06cc8d133)" style="fill: none; stroke: #ded8cf; stroke-width: 0.85; stroke-linecap: square"/>
     </g>
     <g id="line2d_53"/>
     <g id="text_35">
      <!-- 2 -->
      <g style="fill: #6a625c" transform="translate(431.069203 479.120495) scale(0.095 -0.095)">
       <use xlink:href="#DejaVuSans-32"/>
      </g>
     </g>
    </g>
    <g id="ytick_18">
     <g id="line2d_54">
      <path d="M 440.613578 453.519112 
L 760.32 453.519112 
" clip-path="url(#pa06cc8d133)" style="fill: none; stroke: #ded8cf; stroke-width: 0.85; stroke-linecap: square"/>
     </g>
     <g id="line2d_55"/>
     <g id="text_36">
      <!-- 4 -->
      <g style="fill: #6a625c" transform="translate(431.069203 457.12837) scale(0.095 -0.095)">
       <use xlink:href="#DejaVuSans-34"/>
      </g>
     </g>
    </g>
    <g id="ytick_19">
     <g id="line2d_56">
      <path d="M 440.613578 431.526987 
L 760.32 431.526987 
" clip-path="url(#pa06cc8d133)" style="fill: none; stroke: #ded8cf; stroke-width: 0.85; stroke-linecap: square"/>
     </g>
     <g id="line2d_57"/>
     <g id="text_37">
      <!-- 6 -->
      <g style="fill: #6a625c" transform="translate(431.069203 435.136245) scale(0.095 -0.095)">
       <use xlink:href="#DejaVuSans-36"/>
      </g>
     </g>
    </g>
    <g id="ytick_20">
     <g id="line2d_58">
      <path d="M 440.613578 409.534862 
L 760.32 409.534862 
" clip-path="url(#pa06cc8d133)" style="fill: none; stroke: #ded8cf; stroke-width: 0.85; stroke-linecap: square"/>
     </g>
     <g id="line2d_59"/>
     <g id="text_38">
      <!-- 8 -->
      <g style="fill: #6a625c" transform="translate(431.069203 413.144119) scale(0.095 -0.095)">
       <use xlink:href="#DejaVuSans-38"/>
      </g>
     </g>
    </g>
   </g>
   <g id="patch_9">
    <path d="M 440.613578 497.503363 
L 760.32 497.503363 
" style="fill: none; stroke: #9a8f84; stroke-linejoin: miter; stroke-linecap: square"/>
   </g>
   <g id="line2d_60">
    <path d="M 440.613578 497.503363 
L 558.420933 497.503363 
L 560.631795 493.978984 
L 572.712576 493.978984 
L 575.160316 489.156149 
L 587.241097 489.156149 
L 589.530919 489.724597 
L 601.6117 489.724597 
L 604.05944 491.852318 
L 616.140221 491.852318 
L 618.351083 494.808249 
L 630.431864 494.808249 
L 632.879604 497.503363 
L 666.516288 497.503363 
L 668.885069 493.978984 
L 685.624452 493.978984 
L 688.072192 491.629397 
L 692.888712 491.629397 
L 695.336452 489.54681 
L 697.705233 493.071189 
L 709.707054 493.071189 
L 712.154794 488.489496 
L 714.523575 488.489496 
L 716.971315 490.839082 
L 721.787836 490.839082 
L 724.235575 492.92167 
L 726.604356 485.590961 
L 729.052096 482.197115 
L 731.499836 478.03194 
L 733.710698 478.03194 
L 736.158438 472.94117 
L 738.527218 472.94117 
L 740.974958 477.522863 
L 753.055739 477.522863 
L 755.42452 484.853571 
L 757.87226 488.247418 
L 760.32 492.412593 
L 760.32 492.412593 
" clip-path="url(#pa06cc8d133)" style="fill: none; stroke: #24539a; stroke-width: 2.6; stroke-linecap: square"/>
   </g>
   <g id="text_39">
    <!-- 8,646 papers -->
    <g style="fill: #5d5a56" transform="translate(440.613578 397.426225) scale(0.092 -0.092)">
     <use xlink:href="#DejaVuSans-38"/>
     <use xlink:href="#DejaVuSans-2c" x="63.623047"/>
     <use xlink:href="#DejaVuSans-36" x="95.410156"/>
     <use xlink:href="#DejaVuSans-34" x="159.033203"/>
     <use xlink:href="#DejaVuSans-36" x="222.65625"/>
     <use xlink:href="#DejaVuSans-20" x="286.279297"/>
     <use xlink:href="#DejaVuSans-70" x="318.066406"/>
     <use xlink:href="#DejaVuSans-61" x="381.542969"/>
     <use xlink:href="#DejaVuSans-70" x="442.822266"/>
     <use xlink:href="#DejaVuSans-65" x="506.298828"/>
     <use xlink:href="#DejaVuSans-72" x="567.822266"/>
     <use xlink:href="#DejaVuSans-73" x="608.935547"/>
    </g>
   </g>
   <g id="text_40">
    <!-- Trade -->
    <g style="fill: #152238" transform="translate(440.613578 393.264319) scale(0.123 -0.123)">
     <defs>
      <path id="DejaVuSans-54" d="M -19 4666 
L 3928 4666 
L 3928 4134 
L 2272 4134 
L 2272 0 
L 1638 0 
L 1638 4134 
L -19 4134 
L -19 4666 
z
" transform="scale(0.015625)"/>
      <path id="DejaVuSans-64" d="M 2906 2969 
L 2906 4863 
L 3481 4863 
L 3481 0 
L 2906 0 
L 2906 525 
Q 2725 213 2448 61 
Q 2172 -91 1784 -91 
Q 1150 -91 751 415 
Q 353 922 353 1747 
Q 353 2572 751 3078 
Q 1150 3584 1784 3584 
Q 2172 3584 2448 3432 
Q 2725 3281 2906 2969 
z
M 947 1747 
Q 947 1113 1208 752 
Q 1469 391 1925 391 
Q 2381 391 2643 752 
Q 2906 1113 2906 1747 
Q 2906 2381 2643 2742 
Q 2381 3103 1925 3103 
Q 1469 3103 1208 2742 
Q 947 2381 947 1747 
z
" transform="scale(0.015625)"/>
     </defs>
     <use xlink:href="#DejaVuSans-54"/>
     <use xlink:href="#DejaVuSans-72" x="46.333984"/>
     <use xlink:href="#DejaVuSans-61" x="87.447266"/>
     <use xlink:href="#DejaVuSans-64" x="148.726562"/>
     <use xlink:href="#DejaVuSans-65" x="212.203125"/>
    </g>
   </g>
  </g>
  <g id="axes_5">
   <g id="patch_10">
    <path d="M 63.36 626.463681 
L 383.066422 626.463681 
L 383.066422 530.224637 
L 63.36 530.224637 
z
" style="fill: #faf7f2"/>
   </g>
   <g id="line2d_61">
    <path d="M 291.552531 626.463681 
L 291.552531 530.224637 
" clip-path="url(#pcaf9947a1d)" style="fill: none; stroke-dasharray: 1.4,2.31; stroke-dashoffset: 0; stroke: #152238; stroke-width: 1.4"/>
   </g>
   <g id="matplotlib.axis_9">
    <g id="xtick_13">
     <g id="line2d_62"/>
     <g id="text_41">
      <!-- 2016 -->
      <g style="fill: #6a625c" transform="translate(80.091414 637.182197) scale(0.095 -0.095)">
       <use xlink:href="#DejaVuSans-32"/>
       <use xlink:href="#DejaVuSans-30" x="63.623047"/>
       <use xlink:href="#DejaVuSans-31" x="127.246094"/>
       <use xlink:href="#DejaVuSans-36" x="190.869141"/>
      </g>
     </g>
    </g>
    <g id="xtick_14">
     <g id="line2d_63"/>
     <g id="text_42">
      <!-- 2020 -->
      <g style="fill: #6a625c" transform="translate(195.451029 637.182197) scale(0.095 -0.095)">
       <use xlink:href="#DejaVuSans-32"/>
       <use xlink:href="#DejaVuSans-30" x="63.623047"/>
       <use xlink:href="#DejaVuSans-32" x="127.246094"/>
       <use xlink:href="#DejaVuSans-30" x="190.869141"/>
      </g>
     </g>
    </g>
    <g id="xtick_15">
     <g id="line2d_64"/>
     <g id="text_43">
      <!-- 2024 -->
      <g style="fill: #6a625c" transform="translate(310.810645 637.182197) scale(0.095 -0.095)">
       <use xlink:href="#DejaVuSans-32"/>
       <use xlink:href="#DejaVuSans-30" x="63.623047"/>
       <use xlink:href="#DejaVuSans-32" x="127.246094"/>
       <use xlink:href="#DejaVuSans-34" x="190.869141"/>
      </g>
     </g>
    </g>
   </g>
   <g id="matplotlib.axis_10">
    <g id="ytick_21">
     <g id="line2d_65">
      <path d="M 63.36 626.463681 
L 383.066422 626.463681 
" clip-path="url(#pcaf9947a1d)" style="fill: none; stroke: #ded8cf; stroke-width: 0.85; stroke-linecap: square"/>
     </g>
     <g id="line2d_66"/>
     <g id="text_44">
      <!-- 0 -->
      <g style="fill: #6a625c" transform="translate(53.815625 630.072939) scale(0.095 -0.095)">
       <use xlink:href="#DejaVuSans-30"/>
      </g>
     </g>
    </g>
    <g id="ytick_22">
     <g id="line2d_67">
      <path d="M 63.36 604.471556 
L 383.066422 604.471556 
" clip-path="url(#pcaf9947a1d)" style="fill: none; stroke: #ded8cf; stroke-width: 0.85; stroke-linecap: square"/>
     </g>
     <g id="line2d_68"/>
     <g id="text_45">
      <!-- 2 -->
      <g style="fill: #6a625c" transform="translate(53.815625 608.080814) scale(0.095 -0.095)">
       <use xlink:href="#DejaVuSans-32"/>
      </g>
     </g>
    </g>
    <g id="ytick_23">
     <g id="line2d_69">
      <path d="M 63.36 582.479431 
L 383.066422 582.479431 
" clip-path="url(#pcaf9947a1d)" style="fill: none; stroke: #ded8cf; stroke-width: 0.85; stroke-linecap: square"/>
     </g>
     <g id="line2d_70"/>
     <g id="text_46">
      <!-- 4 -->
      <g style="fill: #6a625c" transform="translate(53.815625 586.088689) scale(0.095 -0.095)">
       <use xlink:href="#DejaVuSans-34"/>
      </g>
     </g>
    </g>
    <g id="ytick_24">
     <g id="line2d_71">
      <path d="M 63.36 560.487306 
L 383.066422 560.487306 
" clip-path="url(#pcaf9947a1d)" style="fill: none; stroke: #ded8cf; stroke-width: 0.85; stroke-linecap: square"/>
     </g>
     <g id="line2d_72"/>
     <g id="text_47">
      <!-- 6 -->
      <g style="fill: #6a625c" transform="translate(53.815625 564.096563) scale(0.095 -0.095)">
       <use xlink:href="#DejaVuSans-36"/>
      </g>
     </g>
    </g>
    <g id="ytick_25">
     <g id="line2d_73">
      <path d="M 63.36 538.49518 
L 383.066422 538.49518 
" clip-path="url(#pcaf9947a1d)" style="fill: none; stroke: #ded8cf; stroke-width: 0.85; stroke-linecap: square"/>
     </g>
     <g id="line2d_74"/>
     <g id="text_48">
      <!-- 8 -->
      <g style="fill: #6a625c" transform="translate(53.815625 542.104438) scale(0.095 -0.095)">
       <use xlink:href="#DejaVuSans-38"/>
      </g>
     </g>
    </g>
   </g>
   <g id="patch_11">
    <path d="M 63.36 626.463681 
L 383.066422 626.463681 
" style="fill: none; stroke: #9a8f84; stroke-linejoin: miter; stroke-linecap: square"/>
   </g>
   <g id="line2d_75">
    <path d="M 63.36 622.479601 
L 65.80774 626.463681 
L 104.181986 626.463681 
L 106.550766 623.845571 
L 133.00215 623.845571 
L 135.37093 626.463681 
L 147.451711 626.463681 
L 149.899451 622.939302 
L 176.271875 622.939302 
L 178.719615 626.463681 
L 185.825957 626.463681 
L 188.194738 624.052264 
L 195.458998 624.052264 
L 197.906738 621.921244 
L 202.723259 621.921244 
L 205.092039 619.375859 
L 209.987519 619.375859 
L 212.277341 617.339551 
L 214.725081 617.339551 
L 217.093861 619.750969 
L 224.358122 619.750969 
L 226.805862 621.881989 
L 231.622382 621.881989 
L 233.991163 624.427373 
L 238.886643 624.427373 
L 241.097505 624.797611 
L 250.730546 624.797611 
L 253.178286 623.217717 
L 257.994806 623.217717 
L 260.442546 621.38504 
L 262.811327 621.38504 
L 265.259067 619.748721 
L 267.706807 617.756681 
L 269.917669 619.422751 
L 272.365409 619.422751 
L 274.734189 617.869635 
L 277.181929 617.869635 
L 279.55071 615.787047 
L 281.99845 615.978549 
L 284.44619 615.978549 
L 286.81497 613.567132 
L 289.26271 613.945304 
L 291.631491 612.490798 
L 294.079231 614.127117 
L 296.526971 616.119157 
L 298.737833 614.82854 
L 301.185573 614.82854 
L 303.554353 616.381656 
L 306.002093 614.250636 
L 308.370874 614.780107 
L 310.818614 614.560888 
L 313.266354 614.560888 
L 315.635134 615.139628 
L 320.451655 618.048639 
L 322.899395 615.813667 
L 325.347135 615.813667 
L 327.636956 617.104285 
L 332.453476 617.104285 
L 334.901216 619.235304 
L 339.717737 622.396032 
L 342.165477 622.396032 
L 344.534258 624.228709 
L 346.981998 624.228709 
L 349.350778 617.441016 
L 351.798518 619.675988 
L 354.246258 616.81243 
L 363.72138 616.81243 
L 366.090161 611.422204 
L 368.537901 608.028357 
L 370.985641 608.028357 
L 373.354422 597.846818 
L 375.802162 595.151704 
L 378.170942 598.779609 
L 380.618682 595.916051 
L 383.066422 596.084496 
L 383.066422 596.084496 
" clip-path="url(#pcaf9947a1d)" style="fill: none; stroke: #24539a; stroke-width: 2.6; stroke-linecap: square"/>
   </g>
   <g id="text_49">
    <!-- 12,767 papers -->
    <g style="fill: #5d5a56" transform="translate(63.36 526.386544) scale(0.092 -0.092)">
     <use xlink:href="#DejaVuSans-31"/>
     <use xlink:href="#DejaVuSans-32" x="63.623047"/>
     <use xlink:href="#DejaVuSans-2c" x="127.246094"/>
     <use xlink:href="#DejaVuSans-37" x="159.033203"/>
     <use xlink:href="#DejaVuSans-36" x="222.65625"/>
     <use xlink:href="#DejaVuSans-37" x="286.279297"/>
     <use xlink:href="#DejaVuSans-20" x="349.902344"/>
     <use xlink:href="#DejaVuSans-70" x="381.689453"/>
     <use xlink:href="#DejaVuSans-61" x="445.166016"/>
     <use xlink:href="#DejaVuSans-70" x="506.445312"/>
     <use xlink:href="#DejaVuSans-65" x="569.921875"/>
     <use xlink:href="#DejaVuSans-72" x="631.445312"/>
     <use xlink:href="#DejaVuSans-73" x="672.558594"/>
    </g>
   </g>
   <g id="text_50">
    <!-- Development -->
    <g style="fill: #152238" transform="translate(63.36 522.224637) scale(0.123 -0.123)">
     <defs>
      <path id="DejaVuSans-44" d="M 1259 4147 
L 1259 519 
L 2022 519 
Q 2988 519 3436 956 
Q 3884 1394 3884 2338 
Q 3884 3275 3436 3711 
Q 2988 4147 2022 4147 
L 1259 4147 
z
M 628 4666 
L 1925 4666 
Q 3281 4666 3915 4102 
Q 4550 3538 4550 2338 
Q 4550 1131 3912 565 
Q 3275 0 1925 0 
L 628 0 
L 628 4666 
z
" transform="scale(0.015625)"/>
      <path id="DejaVuSans-76" d="M 191 3500 
L 800 3500 
L 1894 563 
L 2988 3500 
L 3597 3500 
L 2284 0 
L 1503 0 
L 191 3500 
z
" transform="scale(0.015625)"/>
      <path id="DejaVuSans-6d" d="M 3328 2828 
Q 3544 3216 3844 3400 
Q 4144 3584 4550 3584 
Q 5097 3584 5394 3201 
Q 5691 2819 5691 2113 
L 5691 0 
L 5113 0 
L 5113 2094 
Q 5113 2597 4934 2840 
Q 4756 3084 4391 3084 
Q 3944 3084 3684 2787 
Q 3425 2491 3425 1978 
L 3425 0 
L 2847 0 
L 2847 2094 
Q 2847 2600 2669 2842 
Q 2491 3084 2119 3084 
Q 1678 3084 1418 2786 
Q 1159 2488 1159 1978 
L 1159 0 
L 581 0 
L 581 3500 
L 1159 3500 
L 1159 2956 
Q 1356 3278 1631 3431 
Q 1906 3584 2284 3584 
Q 2666 3584 2933 3390 
Q 3200 3197 3328 2828 
z
" transform="scale(0.015625)"/>
      <path id="DejaVuSans-74" d="M 1172 4494 
L 1172 3500 
L 2356 3500 
L 2356 3053 
L 1172 3053 
L 1172 1153 
Q 1172 725 1289 603 
Q 1406 481 1766 481 
L 2356 481 
L 2356 0 
L 1766 0 
Q 1100 0 847 248 
Q 594 497 594 1153 
L 594 3053 
L 172 3053 
L 172 3500 
L 594 3500 
L 594 4494 
L 1172 4494 
z
" transform="scale(0.015625)"/>
     </defs>
     <use xlink:href="#DejaVuSans-44"/>
     <use xlink:href="#DejaVuSans-65" x="77.001953"/>
     <use xlink:href="#DejaVuSans-76" x="138.525391"/>
     <use xlink:href="#DejaVuSans-65" x="197.705078"/>
     <use xlink:href="#DejaVuSans-6c" x="259.228516"/>
     <use xlink:href="#DejaVuSans-6f" x="287.011719"/>
     <use xlink:href="#DejaVuSans-70" x="348.193359"/>
     <use xlink:href="#DejaVuSans-6d" x="411.669922"/>
     <use xlink:href="#DejaVuSans-65" x="509.082031"/>
     <use xlink:href="#DejaVuSans-6e" x="570.605469"/>
     <use xlink:href="#DejaVuSans-74" x="633.984375"/>
    </g>
   </g>
  </g>
  <g id="axes_6">
   <g id="patch_12">
    <path d="M 440.613578 626.463681 
L 760.32 626.463681 
L 760.32 530.224637 
L 440.613578 530.224637 
z
" style="fill: #faf7f2"/>
   </g>
   <g id="line2d_76">
    <path d="M 668.806109 626.463681 
L 668.806109 530.224637 
" clip-path="url(#p71660b5d22)" style="fill: none; stroke-dasharray: 1.4,2.31; stroke-dashoffset: 0; stroke: #152238; stroke-width: 1.4"/>
   </g>
   <g id="matplotlib.axis_11">
    <g id="xtick_16">
     <g id="line2d_77"/>
     <g id="text_51">
      <!-- 2016 -->
      <g style="fill: #6a625c" transform="translate(457.344992 637.182197) scale(0.095 -0.095)">
       <use xlink:href="#DejaVuSans-32"/>
       <use xlink:href="#DejaVuSans-30" x="63.623047"/>
       <use xlink:href="#DejaVuSans-31" x="127.246094"/>
       <use xlink:href="#DejaVuSans-36" x="190.869141"/>
      </g>
     </g>
    </g>
    <g id="xtick_17">
     <g id="line2d_78"/>
     <g id="text_52">
      <!-- 2020 -->
      <g style="fill: #6a625c" transform="translate(572.704607 637.182197) scale(0.095 -0.095)">
       <use xlink:href="#DejaVuSans-32"/>
       <use xlink:href="#DejaVuSans-30" x="63.623047"/>
       <use xlink:href="#DejaVuSans-32" x="127.246094"/>
       <use xlink:href="#DejaVuSans-30" x="190.869141"/>
      </g>
     </g>
    </g>
    <g id="xtick_18">
     <g id="line2d_79"/>
     <g id="text_53">
      <!-- 2024 -->
      <g style="fill: #6a625c" transform="translate(688.064223 637.182197) scale(0.095 -0.095)">
       <use xlink:href="#DejaVuSans-32"/>
       <use xlink:href="#DejaVuSans-30" x="63.623047"/>
       <use xlink:href="#DejaVuSans-32" x="127.246094"/>
       <use xlink:href="#DejaVuSans-34" x="190.869141"/>
      </g>
     </g>
    </g>
   </g>
   <g id="matplotlib.axis_12">
    <g id="ytick_26">
     <g id="line2d_80">
      <path d="M 440.613578 626.463681 
L 760.32 626.463681 
" clip-path="url(#p71660b5d22)" style="fill: none; stroke: #ded8cf; stroke-width: 0.85; stroke-linecap: square"/>
     </g>
     <g id="line2d_81"/>
     <g id="text_54">
      <!-- 0 -->
      <g style="fill: #6a625c" transform="translate(431.069203 630.072939) scale(0.095 -0.095)">
       <use xlink:href="#DejaVuSans-30"/>
      </g>
     </g>
    </g>
    <g id="ytick_27">
     <g id="line2d_82">
      <path d="M 440.613578 604.471556 
L 760.32 604.471556 
" clip-path="url(#p71660b5d22)" style="fill: none; stroke: #ded8cf; stroke-width: 0.85; stroke-linecap: square"/>
     </g>
     <g id="line2d_83"/>
     <g id="text_55">
      <!-- 2 -->
      <g style="fill: #6a625c" transform="translate(431.069203 608.080814) scale(0.095 -0.095)">
       <use xlink:href="#DejaVuSans-32"/>
      </g>
     </g>
    </g>
    <g id="ytick_28">
     <g id="line2d_84">
      <path d="M 440.613578 582.479431 
L 760.32 582.479431 
" clip-path="url(#p71660b5d22)" style="fill: none; stroke: #ded8cf; stroke-width: 0.85; stroke-linecap: square"/>
     </g>
     <g id="line2d_85"/>
     <g id="text_56">
      <!-- 4 -->
      <g style="fill: #6a625c" transform="translate(431.069203 586.088689) scale(0.095 -0.095)">
       <use xlink:href="#DejaVuSans-34"/>
      </g>
     </g>
    </g>
    <g id="ytick_29">
     <g id="line2d_86">
      <path d="M 440.613578 560.487306 
L 760.32 560.487306 
" clip-path="url(#p71660b5d22)" style="fill: none; stroke: #ded8cf; stroke-width: 0.85; stroke-linecap: square"/>
     </g>
     <g id="line2d_87"/>
     <g id="text_57">
      <!-- 6 -->
      <g style="fill: #6a625c" transform="translate(431.069203 564.096563) scale(0.095 -0.095)">
       <use xlink:href="#DejaVuSans-36"/>
      </g>
     </g>
    </g>
    <g id="ytick_30">
     <g id="line2d_88">
      <path d="M 440.613578 538.49518 
L 760.32 538.49518 
" clip-path="url(#p71660b5d22)" style="fill: none; stroke: #ded8cf; stroke-width: 0.85; stroke-linecap: square"/>
     </g>
     <g id="line2d_89"/>
     <g id="text_58">
      <!-- 8 -->
      <g style="fill: #6a625c" transform="translate(431.069203 542.104438) scale(0.095 -0.095)">
       <use xlink:href="#DejaVuSans-38"/>
      </g>
     </g>
    </g>
   </g>
   <g id="patch_13">
    <path d="M 440.613578 626.463681 
L 760.32 626.463681 
" style="fill: none; stroke: #9a8f84; stroke-linejoin: miter; stroke-linecap: square"/>
   </g>
   <g id="line2d_90">
    <path d="M 440.613578 625.965671 
L 443.061318 625.456594 
L 447.71992 625.456594 
L 450.0887 624.932972 
L 452.53644 624.932972 
L 454.905221 625.430982 
L 459.800701 625.430982 
L 462.169481 625.004778 
L 474.171303 625.06467 
L 476.619043 624.555593 
L 478.987824 625.079215 
L 488.699824 625.079215 
L 491.068605 625.505419 
L 498.332865 625.505419 
L 500.780605 625.954604 
L 502.991467 625.954604 
L 505.439207 626.463681 
L 519.888769 626.463681 
L 522.336509 625.991342 
L 531.811631 625.991342 
L 534.259371 625.493332 
L 536.628152 624.576993 
L 548.708933 624.576993 
L 551.156673 625.049333 
L 553.525453 625.049333 
L 555.973193 624.559312 
L 558.420933 624.559312 
L 560.631795 623.557849 
L 563.079535 623.653956 
L 565.448316 624.191643 
L 567.896056 623.655772 
L 572.712576 623.655772 
L 575.160316 623.163117 
L 579.976837 623.163117 
L 582.345617 622.68833 
L 584.793357 622.75412 
L 589.530919 621.798755 
L 591.978658 622.200658 
L 594.347439 620.999416 
L 596.795179 621.128025 
L 599.16396 619.146753 
L 601.6117 618.230414 
L 606.42822 617.428393 
L 608.87596 616.837207 
L 613.692481 616.760955 
L 616.140221 615.83536 
L 618.351083 616.907115 
L 620.798822 616.466567 
L 623.167603 616.915179 
L 625.615343 615.617625 
L 627.984124 617.598898 
L 630.431864 615.955631 
L 632.879604 616.820102 
L 635.248384 616.691564 
L 640.064905 615.772979 
L 642.512645 616.250238 
L 644.960385 617.63863 
L 647.171247 617.540259 
L 649.618986 617.980806 
L 651.987767 618.71881 
L 654.435507 618.726703 
L 656.804288 617.919356 
L 659.252028 619.262582 
L 661.699768 618.826231 
L 664.068548 618.566814 
L 666.516288 619.195846 
L 668.885069 619.678026 
L 671.332809 618.498191 
L 675.991411 616.682901 
L 678.43915 614.793544 
L 680.807931 614.774057 
L 683.255671 616.47098 
L 685.624452 616.433775 
L 688.072192 616.225793 
L 690.519932 615.840317 
L 692.888712 615.304281 
L 697.705233 612.663358 
L 700.152973 613.159359 
L 702.600713 613.296351 
L 707.338274 609.874866 
L 709.707054 609.43124 
L 712.154794 607.976734 
L 714.523575 607.155216 
L 716.971315 607.434153 
L 719.419055 606.124961 
L 724.235575 602.602209 
L 726.604356 603.369377 
L 729.052096 602.75344 
L 731.499836 600.783874 
L 733.710698 602.828797 
L 736.158438 605.348728 
L 738.527218 604.234499 
L 740.974958 602.854968 
L 743.343739 604.521038 
L 745.791479 602.469931 
L 748.239219 601.328313 
L 750.608 602.637663 
L 753.055739 605.030034 
L 755.42452 603.55016 
L 757.87226 604.849931 
L 760.32 606.017897 
L 760.32 606.017897 
" clip-path="url(#p71660b5d22)" style="fill: none; stroke: #24539a; stroke-width: 2.6; stroke-linecap: square"/>
   </g>
   <g id="text_59">
    <!-- 54,089 papers -->
    <g style="fill: #5d5a56" transform="translate(440.613578 526.386544) scale(0.092 -0.092)">
     <use xlink:href="#DejaVuSans-35"/>
     <use xlink:href="#DejaVuSans-34" x="63.623047"/>
     <use xlink:href="#DejaVuSans-2c" x="127.246094"/>
     <use xlink:href="#DejaVuSans-30" x="159.033203"/>
     <use xlink:href="#DejaVuSans-38" x="222.65625"/>
     <use xlink:href="#DejaVuSans-39" x="286.279297"/>
     <use xlink:href="#DejaVuSans-20" x="349.902344"/>
     <use xlink:href="#DejaVuSans-70" x="381.689453"/>
     <use xlink:href="#DejaVuSans-61" x="445.166016"/>
     <use xlink:href="#DejaVuSans-70" x="506.445312"/>
     <use xlink:href="#DejaVuSans-65" x="569.921875"/>
     <use xlink:href="#DejaVuSans-72" x="631.445312"/>
     <use xlink:href="#DejaVuSans-73" x="672.558594"/>
    </g>
   </g>
   <g id="text_60">
    <!-- Finance -->
    <g style="fill: #152238" transform="translate(440.613578 522.224637) scale(0.123 -0.123)">
     <defs>
      <path id="DejaVuSans-46" d="M 628 4666 
L 3309 4666 
L 3309 4134 
L 1259 4134 
L 1259 2759 
L 3109 2759 
L 3109 2228 
L 1259 2228 
L 1259 0 
L 628 0 
L 628 4666 
z
" transform="scale(0.015625)"/>
     </defs>
     <use xlink:href="#DejaVuSans-46"/>
     <use xlink:href="#DejaVuSans-69" x="50.269531"/>
     <use xlink:href="#DejaVuSans-6e" x="78.052734"/>
     <use xlink:href="#DejaVuSans-61" x="141.431641"/>
     <use xlink:href="#DejaVuSans-6e" x="202.710938"/>
     <use xlink:href="#DejaVuSans-63" x="266.089844"/>
     <use xlink:href="#DejaVuSans-65" x="321.070312"/>
    </g>
   </g>
  </g>
  <g id="axes_7">
   <g id="patch_14">
    <path d="M 63.36 755.424 
L 383.066422 755.424 
L 383.066422 659.184956 
L 63.36 659.184956 
z
" style="fill: #faf7f2"/>
   </g>
   <g id="line2d_91">
    <path d="M 291.552531 755.424 
L 291.552531 659.184956 
" clip-path="url(#p95f9450af7)" style="fill: none; stroke-dasharray: 1.4,2.31; stroke-dashoffset: 0; stroke: #152238; stroke-width: 1.4"/>
   </g>
   <g id="matplotlib.axis_13">
    <g id="xtick_19">
     <g id="line2d_92"/>
     <g id="text_61">
      <!-- 2016 -->
      <g style="fill: #6a625c" transform="translate(80.091414 766.142516) scale(0.095 -0.095)">
       <use xlink:href="#DejaVuSans-32"/>
       <use xlink:href="#DejaVuSans-30" x="63.623047"/>
       <use xlink:href="#DejaVuSans-31" x="127.246094"/>
       <use xlink:href="#DejaVuSans-36" x="190.869141"/>
      </g>
     </g>
    </g>
    <g id="xtick_20">
     <g id="line2d_93"/>
     <g id="text_62">
      <!-- 2020 -->
      <g style="fill: #6a625c" transform="translate(195.451029 766.142516) scale(0.095 -0.095)">
       <use xlink:href="#DejaVuSans-32"/>
       <use xlink:href="#DejaVuSans-30" x="63.623047"/>
       <use xlink:href="#DejaVuSans-32" x="127.246094"/>
       <use xlink:href="#DejaVuSans-30" x="190.869141"/>
      </g>
     </g>
    </g>
    <g id="xtick_21">
     <g id="line2d_94"/>
     <g id="text_63">
      <!-- 2024 -->
      <g style="fill: #6a625c" transform="translate(310.810645 766.142516) scale(0.095 -0.095)">
       <use xlink:href="#DejaVuSans-32"/>
       <use xlink:href="#DejaVuSans-30" x="63.623047"/>
       <use xlink:href="#DejaVuSans-32" x="127.246094"/>
       <use xlink:href="#DejaVuSans-34" x="190.869141"/>
      </g>
     </g>
    </g>
   </g>
   <g id="matplotlib.axis_14">
    <g id="ytick_31">
     <g id="line2d_95">
      <path d="M 63.36 755.424 
L 383.066422 755.424 
" clip-path="url(#p95f9450af7)" style="fill: none; stroke: #ded8cf; stroke-width: 0.85; stroke-linecap: square"/>
     </g>
     <g id="line2d_96"/>
     <g id="text_64">
      <!-- 0 -->
      <g style="fill: #6a625c" transform="translate(53.815625 759.033258) scale(0.095 -0.095)">
       <use xlink:href="#DejaVuSans-30"/>
      </g>
     </g>
    </g>
    <g id="ytick_32">
     <g id="line2d_97">
      <path d="M 63.36 733.431875 
L 383.066422 733.431875 
" clip-path="url(#p95f9450af7)" style="fill: none; stroke: #ded8cf; stroke-width: 0.85; stroke-linecap: square"/>
     </g>
     <g id="line2d_98"/>
     <g id="text_65">
      <!-- 2 -->
      <g style="fill: #6a625c" transform="translate(53.815625 737.041133) scale(0.095 -0.095)">
       <use xlink:href="#DejaVuSans-32"/>
      </g>
     </g>
    </g>
    <g id="ytick_33">
     <g id="line2d_99">
      <path d="M 63.36 711.43975 
L 383.066422 711.43975 
" clip-path="url(#p95f9450af7)" style="fill: none; stroke: #ded8cf; stroke-width: 0.85; stroke-linecap: square"/>
     </g>
     <g id="line2d_100"/>
     <g id="text_66">
      <!-- 4 -->
      <g style="fill: #6a625c" transform="translate(53.815625 715.049007) scale(0.095 -0.095)">
       <use xlink:href="#DejaVuSans-34"/>
      </g>
     </g>
    </g>
    <g id="ytick_34">
     <g id="line2d_101">
      <path d="M 63.36 689.447624 
L 383.066422 689.447624 
" clip-path="url(#p95f9450af7)" style="fill: none; stroke: #ded8cf; stroke-width: 0.85; stroke-linecap: square"/>
     </g>
     <g id="line2d_102"/>
     <g id="text_67">
      <!-- 6 -->
      <g style="fill: #6a625c" transform="translate(53.815625 693.056882) scale(0.095 -0.095)">
       <use xlink:href="#DejaVuSans-36"/>
      </g>
     </g>
    </g>
    <g id="ytick_35">
     <g id="line2d_103">
      <path d="M 63.36 667.455499 
L 383.066422 667.455499 
" clip-path="url(#p95f9450af7)" style="fill: none; stroke: #ded8cf; stroke-width: 0.85; stroke-linecap: square"/>
     </g>
     <g id="line2d_104"/>
     <g id="text_68">
      <!-- 8 -->
      <g style="fill: #6a625c" transform="translate(53.815625 671.064757) scale(0.095 -0.095)">
       <use xlink:href="#DejaVuSans-38"/>
      </g>
     </g>
    </g>
   </g>
   <g id="patch_15">
    <path d="M 63.36 755.424 
L 383.066422 755.424 
" style="fill: none; stroke: #9a8f84; stroke-linejoin: miter; stroke-linecap: square"/>
   </g>
   <g id="line2d_105">
    <path d="M 63.36 755.424 
L 128.185629 755.424 
L 130.55441 754.71366 
L 157.005793 754.71366 
L 159.374574 755.424 
L 161.822314 755.424 
L 164.191094 754.613081 
L 171.455355 754.613081 
L 173.903095 753.285054 
L 176.271875 752.428663 
L 185.825957 752.428663 
L 188.194738 751.261353 
L 190.642478 751.261353 
L 193.011258 752.072272 
L 200.275519 752.072272 
L 202.723259 753.400299 
L 205.092039 754.25669 
L 207.539779 753.5408 
L 214.725081 753.5408 
L 217.093861 754.708111 
L 219.541601 753.859649 
L 221.910382 753.859649 
L 224.358122 753.323778 
L 226.805862 752.572681 
L 233.991163 752.572681 
L 236.438903 753.288571 
L 245.914025 753.288571 
L 248.361765 754.137032 
L 250.730546 754.137032 
L 253.178286 754.672903 
L 255.626026 755.424 
L 260.442546 755.424 
L 262.811327 754.660385 
L 267.706807 754.660385 
L 269.917669 753.642231 
L 289.26271 753.642231 
L 291.631491 754.405846 
L 296.526971 754.405846 
L 298.737833 755.424 
L 308.370874 755.424 
L 310.818614 754.42798 
L 337.269997 754.42798 
L 339.717737 753.387692 
L 342.165477 751.438036 
L 351.798518 751.438036 
L 354.246258 747.538723 
L 363.72138 747.538723 
L 366.090161 745.776533 
L 368.537901 746.0839 
L 370.985641 744.293399 
L 373.354422 742.86162 
L 375.802162 740.38503 
L 380.618682 740.38503 
L 383.066422 742.248035 
L 383.066422 742.248035 
" clip-path="url(#p95f9450af7)" style="fill: none; stroke: #24539a; stroke-width: 2.6; stroke-linecap: square"/>
   </g>
   <g id="text_69">
    <!-- 38,115 papers -->
    <g style="fill: #5d5a56" transform="translate(63.36 655.346863) scale(0.092 -0.092)">
     <use xlink:href="#DejaVuSans-33"/>
     <use xlink:href="#DejaVuSans-38" x="63.623047"/>
     <use xlink:href="#DejaVuSans-2c" x="127.246094"/>
     <use xlink:href="#DejaVuSans-31" x="159.033203"/>
     <use xlink:href="#DejaVuSans-31" x="222.65625"/>
     <use xlink:href="#DejaVuSans-35" x="286.279297"/>
     <use xlink:href="#DejaVuSans-20" x="349.902344"/>
     <use xlink:href="#DejaVuSans-70" x="381.689453"/>
     <use xlink:href="#DejaVuSans-61" x="445.166016"/>
     <use xlink:href="#DejaVuSans-70" x="506.445312"/>
     <use xlink:href="#DejaVuSans-65" x="569.921875"/>
     <use xlink:href="#DejaVuSans-72" x="631.445312"/>
     <use xlink:href="#DejaVuSans-73" x="672.558594"/>
    </g>
   </g>
   <g id="text_70">
    <!-- Health -->
    <g style="fill: #152238" transform="translate(63.36 651.184956) scale(0.123 -0.123)">
     <defs>
      <path id="DejaVuSans-48" d="M 628 4666 
L 1259 4666 
L 1259 2753 
L 3553 2753 
L 3553 4666 
L 4184 4666 
L 4184 0 
L 3553 0 
L 3553 2222 
L 1259 2222 
L 1259 0 
L 628 0 
L 628 4666 
z
" transform="scale(0.015625)"/>
      <path id="DejaVuSans-68" d="M 3513 2113 
L 3513 0 
L 2938 0 
L 2938 2094 
Q 2938 2591 2744 2837 
Q 2550 3084 2163 3084 
Q 1697 3084 1428 2787 
Q 1159 2491 1159 1978 
L 1159 0 
L 581 0 
L 581 4863 
L 1159 4863 
L 1159 2956 
Q 1366 3272 1645 3428 
Q 1925 3584 2291 3584 
Q 2894 3584 3203 3211 
Q 3513 2838 3513 2113 
z
" transform="scale(0.015625)"/>
     </defs>
     <use xlink:href="#DejaVuSans-48"/>
     <use xlink:href="#DejaVuSans-65" x="75.195312"/>
     <use xlink:href="#DejaVuSans-61" x="136.71875"/>
     <use xlink:href="#DejaVuSans-6c" x="197.998047"/>
     <use xlink:href="#DejaVuSans-74" x="225.78125"/>
     <use xlink:href="#DejaVuSans-68" x="264.990234"/>
    </g>
   </g>
  </g>
  <g id="axes_8">
   <g id="patch_16">
    <path d="M 440.613578 755.424 
L 760.32 755.424 
L 760.32 659.184956 
L 440.613578 659.184956 
z
" style="fill: #faf7f2"/>
   </g>
   <g id="line2d_106">
    <path d="M 668.806109 755.424 
L 668.806109 659.184956 
" clip-path="url(#pebcb93d8f9)" style="fill: none; stroke-dasharray: 1.4,2.31; stroke-dashoffset: 0; stroke: #152238; stroke-width: 1.4"/>
   </g>
   <g id="matplotlib.axis_15">
    <g id="xtick_22">
     <g id="line2d_107"/>
     <g id="text_71">
      <!-- 2016 -->
      <g style="fill: #6a625c" transform="translate(457.344992 766.142516) scale(0.095 -0.095)">
       <use xlink:href="#DejaVuSans-32"/>
       <use xlink:href="#DejaVuSans-30" x="63.623047"/>
       <use xlink:href="#DejaVuSans-31" x="127.246094"/>
       <use xlink:href="#DejaVuSans-36" x="190.869141"/>
      </g>
     </g>
    </g>
    <g id="xtick_23">
     <g id="line2d_108"/>
     <g id="text_72">
      <!-- 2020 -->
      <g style="fill: #6a625c" transform="translate(572.704607 766.142516) scale(0.095 -0.095)">
       <use xlink:href="#DejaVuSans-32"/>
       <use xlink:href="#DejaVuSans-30" x="63.623047"/>
       <use xlink:href="#DejaVuSans-32" x="127.246094"/>
       <use xlink:href="#DejaVuSans-30" x="190.869141"/>
      </g>
     </g>
    </g>
    <g id="xtick_24">
     <g id="line2d_109"/>
     <g id="text_73">
      <!-- 2024 -->
      <g style="fill: #6a625c" transform="translate(688.064223 766.142516) scale(0.095 -0.095)">
       <use xlink:href="#DejaVuSans-32"/>
       <use xlink:href="#DejaVuSans-30" x="63.623047"/>
       <use xlink:href="#DejaVuSans-32" x="127.246094"/>
       <use xlink:href="#DejaVuSans-34" x="190.869141"/>
      </g>
     </g>
    </g>
   </g>
   <g id="matplotlib.axis_16">
    <g id="ytick_36">
     <g id="line2d_110">
      <path d="M 440.613578 755.424 
L 760.32 755.424 
" clip-path="url(#pebcb93d8f9)" style="fill: none; stroke: #ded8cf; stroke-width: 0.85; stroke-linecap: square"/>
     </g>
     <g id="line2d_111"/>
     <g id="text_74">
      <!-- 0 -->
      <g style="fill: #6a625c" transform="translate(431.069203 759.033258) scale(0.095 -0.095)">
       <use xlink:href="#DejaVuSans-30"/>
      </g>
     </g>
    </g>
    <g id="ytick_37">
     <g id="line2d_112">
      <path d="M 440.613578 733.431875 
L 760.32 733.431875 
" clip-path="url(#pebcb93d8f9)" style="fill: none; stroke: #ded8cf; stroke-width: 0.85; stroke-linecap: square"/>
     </g>
     <g id="line2d_113"/>
     <g id="text_75">
      <!-- 2 -->
      <g style="fill: #6a625c" transform="translate(431.069203 737.041133) scale(0.095 -0.095)">
       <use xlink:href="#DejaVuSans-32"/>
      </g>
     </g>
    </g>
    <g id="ytick_38">
     <g id="line2d_114">
      <path d="M 440.613578 711.43975 
L 760.32 711.43975 
" clip-path="url(#pebcb93d8f9)" style="fill: none; stroke: #ded8cf; stroke-width: 0.85; stroke-linecap: square"/>
     </g>
     <g id="line2d_115"/>
     <g id="text_76">
      <!-- 4 -->
      <g style="fill: #6a625c" transform="translate(431.069203 715.049007) scale(0.095 -0.095)">
       <use xlink:href="#DejaVuSans-34"/>
      </g>
     </g>
    </g>
    <g id="ytick_39">
     <g id="line2d_116">
      <path d="M 440.613578 689.447624 
L 760.32 689.447624 
" clip-path="url(#pebcb93d8f9)" style="fill: none; stroke: #ded8cf; stroke-width: 0.85; stroke-linecap: square"/>
     </g>
     <g id="line2d_117"/>
     <g id="text_77">
      <!-- 6 -->
      <g style="fill: #6a625c" transform="translate(431.069203 693.056882) scale(0.095 -0.095)">
       <use xlink:href="#DejaVuSans-36"/>
      </g>
     </g>
    </g>
    <g id="ytick_40">
     <g id="line2d_118">
      <path d="M 440.613578 667.455499 
L 760.32 667.455499 
" clip-path="url(#pebcb93d8f9)" style="fill: none; stroke: #ded8cf; stroke-width: 0.85; stroke-linecap: square"/>
     </g>
     <g id="line2d_119"/>
     <g id="text_78">
      <!-- 8 -->
      <g style="fill: #6a625c" transform="translate(431.069203 671.064757) scale(0.095 -0.095)">
       <use xlink:href="#DejaVuSans-38"/>
      </g>
     </g>
    </g>
   </g>
   <g id="patch_17">
    <path d="M 440.613578 755.424 
L 760.32 755.424 
" style="fill: none; stroke: #9a8f84; stroke-linejoin: miter; stroke-linecap: square"/>
   </g>
   <g id="line2d_120">
    <path d="M 440.613578 755.424 
L 450.0887 755.424 
L 452.53644 753.870884 
L 469.433742 753.870884 
L 471.881482 752.29099 
L 478.987824 752.29099 
L 481.435564 753.844106 
L 483.804344 753.844106 
L 486.252084 752.207787 
L 498.332865 752.207787 
L 500.780605 753.787681 
L 502.991467 753.787681 
L 505.439207 752.420012 
L 512.624508 752.420012 
L 515.072248 754.056331 
L 517.519988 752.818035 
L 522.336509 752.818035 
L 524.705289 750.661944 
L 531.811631 750.661944 
L 534.259371 752.029614 
L 536.628152 751.033594 
L 543.892412 751.033594 
L 546.340152 752.271889 
L 551.156673 752.271889 
L 553.525453 754.42798 
L 555.973193 753.676883 
L 558.420933 752.787234 
L 560.631795 752.787234 
L 563.079535 752.010675 
L 565.448316 753.006696 
L 570.264836 753.006696 
L 572.712576 750.552217 
L 575.160316 749.748412 
L 577.529097 749.748412 
L 579.976837 749.103103 
L 584.793357 749.109209 
L 587.241097 749.358062 
L 589.530919 749.358062 
L 591.978658 750.13462 
L 596.795179 748.842978 
L 599.16396 747.604682 
L 601.6117 749.482847 
L 604.05944 749.702998 
L 606.42822 749.08385 
L 608.87596 749.060299 
L 611.244741 748.302994 
L 613.692481 746.652328 
L 616.140221 747.293125 
L 618.351083 746.778328 
L 620.798822 746.778328 
L 623.167603 746.393428 
L 625.615343 746.633211 
L 627.984124 747.871506 
L 632.879604 748.115045 
L 635.248384 747.881785 
L 640.064905 747.652826 
L 642.512645 748.382412 
L 644.960385 747.53395 
L 647.171247 748.048747 
L 649.618986 746.03038 
L 651.987767 746.340734 
L 654.435507 745.061733 
L 656.804288 744.684639 
L 659.252028 744.576427 
L 664.068548 745.084971 
L 666.516288 744.626503 
L 668.885069 744.423329 
L 671.332809 743.370294 
L 673.780549 742.649682 
L 675.991411 741.669641 
L 678.43915 742.238105 
L 680.807931 741.691863 
L 683.255671 741.373759 
L 685.624452 740.104736 
L 688.072192 739.712732 
L 690.519932 739.064509 
L 692.888712 737.923165 
L 695.336452 738.223511 
L 697.705233 738.132386 
L 700.152973 740.061544 
L 702.600713 740.606775 
L 704.890534 740.482794 
L 707.338274 739.221636 
L 709.707054 739.074614 
L 712.154794 739.601919 
L 714.523575 740.308202 
L 716.971315 737.973564 
L 719.419055 738.307111 
L 721.787836 738.160166 
L 724.235575 737.144763 
L 726.604356 735.659252 
L 729.052096 734.559841 
L 731.499836 732.888569 
L 733.710698 731.84911 
L 736.158438 733.128391 
L 738.527218 728.884824 
L 740.974958 728.78059 
L 743.343739 725.941708 
L 745.791479 723.958761 
L 748.239219 718.368594 
L 750.608 715.163393 
L 753.055739 712.782925 
L 755.42452 709.194443 
L 760.32 703.168678 
L 760.32 703.168678 
" clip-path="url(#pebcb93d8f9)" style="fill: none; stroke: #24539a; stroke-width: 2.6; stroke-linecap: square"/>
   </g>
   <g id="text_79">
    <!-- 28,018 papers -->
    <g style="fill: #5d5a56" transform="translate(440.613578 655.346863) scale(0.092 -0.092)">
     <use xlink:href="#DejaVuSans-32"/>
     <use xlink:href="#DejaVuSans-38" x="63.623047"/>
     <use xlink:href="#DejaVuSans-2c" x="127.246094"/>
     <use xlink:href="#DejaVuSans-30" x="159.033203"/>
     <use xlink:href="#DejaVuSans-31" x="222.65625"/>
     <use xlink:href="#DejaVuSans-38" x="286.279297"/>
     <use xlink:href="#DejaVuSans-20" x="349.902344"/>
     <use xlink:href="#DejaVuSans-70" x="381.689453"/>
     <use xlink:href="#DejaVuSans-61" x="445.166016"/>
     <use xlink:href="#DejaVuSans-70" x="506.445312"/>
     <use xlink:href="#DejaVuSans-65" x="569.921875"/>
     <use xlink:href="#DejaVuSans-72" x="631.445312"/>
     <use xlink:href="#DejaVuSans-73" x="672.558594"/>
    </g>
   </g>
   <g id="text_80">
    <!-- Environment and energy -->
    <g style="fill: #152238" transform="translate(440.613578 651.184956) scale(0.123 -0.123)">
     <defs>
      <path id="DejaVuSans-45" d="M 628 4666 
L 3578 4666 
L 3578 4134 
L 1259 4134 
L 1259 2753 
L 3481 2753 
L 3481 2222 
L 1259 2222 
L 1259 531 
L 3634 531 
L 3634 0 
L 628 0 
L 628 4666 
z
" transform="scale(0.015625)"/>
      <path id="DejaVuSans-67" d="M 2906 1791 
Q 2906 2416 2648 2759 
Q 2391 3103 1925 3103 
Q 1463 3103 1205 2759 
Q 947 2416 947 1791 
Q 947 1169 1205 825 
Q 1463 481 1925 481 
Q 2391 481 2648 825 
Q 2906 1169 2906 1791 
z
M 3481 434 
Q 3481 -459 3084 -895 
Q 2688 -1331 1869 -1331 
Q 1566 -1331 1297 -1286 
Q 1028 -1241 775 -1147 
L 775 -588 
Q 1028 -725 1275 -790 
Q 1522 -856 1778 -856 
Q 2344 -856 2625 -561 
Q 2906 -266 2906 331 
L 2906 616 
Q 2728 306 2450 153 
Q 2172 0 1784 0 
Q 1141 0 747 490 
Q 353 981 353 1791 
Q 353 2603 747 3093 
Q 1141 3584 1784 3584 
Q 2172 3584 2450 3431 
Q 2728 3278 2906 2969 
L 2906 3500 
L 3481 3500 
L 3481 434 
z
" transform="scale(0.015625)"/>
      <path id="DejaVuSans-79" d="M 2059 -325 
Q 1816 -950 1584 -1140 
Q 1353 -1331 966 -1331 
L 506 -1331 
L 506 -850 
L 844 -850 
Q 1081 -850 1212 -737 
Q 1344 -625 1503 -206 
L 1606 56 
L 191 3500 
L 800 3500 
L 1894 763 
L 2988 3500 
L 3597 3500 
L 2059 -325 
z
" transform="scale(0.015625)"/>
     </defs>
     <use xlink:href="#DejaVuSans-45"/>
     <use xlink:href="#DejaVuSans-6e" x="63.183594"/>
     <use xlink:href="#DejaVuSans-76" x="126.5625"/>
     <use xlink:href="#DejaVuSans-69" x="185.742188"/>
     <use xlink:href="#DejaVuSans-72" x="213.525391"/>
     <use xlink:href="#DejaVuSans-6f" x="252.388672"/>
     <use xlink:href="#DejaVuSans-6e" x="313.570312"/>
     <use xlink:href="#DejaVuSans-6d" x="376.949219"/>
     <use xlink:href="#DejaVuSans-65" x="474.361328"/>
     <use xlink:href="#DejaVuSans-6e" x="535.884766"/>
     <use xlink:href="#DejaVuSans-74" x="599.263672"/>
     <use xlink:href="#DejaVuSans-20" x="638.472656"/>
     <use xlink:href="#DejaVuSans-61" x="670.259766"/>
     <use xlink:href="#DejaVuSans-6e" x="731.539062"/>
     <use xlink:href="#DejaVuSans-64" x="794.917969"/>
     <use xlink:href="#DejaVuSans-20" x="858.394531"/>
     <use xlink:href="#DejaVuSans-65" x="890.181641"/>
     <use xlink:href="#DejaVuSans-6e" x="951.705078"/>
     <use xlink:href="#DejaVuSans-65" x="1015.083984"/>
     <use xlink:href="#DejaVuSans-72" x="1076.607422"/>
     <use xlink:href="#DejaVuSans-67" x="1115.970703"/>
     <use xlink:href="#DejaVuSans-79" x="1179.447266"/>
    </g>
   </g>
  </g>
  <g id="line2d_121">
   <path d="M 51.48 43.92 
L 110.88 43.92 
" style="fill: none; stroke: #295d5f; stroke-width: 4.5; stroke-linecap: round"/>
  </g>
  <g id="text_81">
   <!-- AI-related terms by major economics field -->
   <g style="fill: #152238" transform="translate(51.48 79.056) scale(0.225 -0.225)">
    <defs>
     <path id="DejaVuSans-41" d="M 2188 4044 
L 1331 1722 
L 3047 1722 
L 2188 4044 
z
M 1831 4666 
L 2547 4666 
L 4325 0 
L 3669 0 
L 3244 1197 
L 1141 1197 
L 716 0 
L 50 0 
L 1831 4666 
z
" transform="scale(0.015625)"/>
     <path id="DejaVuSans-49" d="M 628 4666 
L 1259 4666 
L 1259 0 
L 628 0 
L 628 4666 
z
" transform="scale(0.015625)"/>
     <path id="DejaVuSans-2d" d="M 313 2009 
L 1997 2009 
L 1997 1497 
L 313 1497 
L 313 2009 
z
" transform="scale(0.015625)"/>
     <path id="DejaVuSans-6a" d="M 603 3500 
L 1178 3500 
L 1178 -63 
Q 1178 -731 923 -1031 
Q 669 -1331 103 -1331 
L -116 -1331 
L -116 -844 
L 38 -844 
Q 366 -844 484 -692 
Q 603 -541 603 -63 
L 603 3500 
z
M 603 4863 
L 1178 4863 
L 1178 4134 
L 603 4134 
L 603 4863 
z
" transform="scale(0.015625)"/>
    </defs>
    <use xlink:href="#DejaVuSans-41"/>
    <use xlink:href="#DejaVuSans-49" x="68.408203"/>
    <use xlink:href="#DejaVuSans-2d" x="97.900391"/>
    <use xlink:href="#DejaVuSans-72" x="133.984375"/>
    <use xlink:href="#DejaVuSans-65" x="172.847656"/>
    <use xlink:href="#DejaVuSans-6c" x="234.371094"/>
    <use xlink:href="#DejaVuSans-61" x="262.154297"/>
    <use xlink:href="#DejaVuSans-74" x="323.433594"/>
    <use xlink:href="#DejaVuSans-65" x="362.642578"/>
    <use xlink:href="#DejaVuSans-64" x="424.166016"/>
    <use xlink:href="#DejaVuSans-20" x="487.642578"/>
    <use xlink:href="#DejaVuSans-74" x="519.429688"/>
    <use xlink:href="#DejaVuSans-65" x="558.638672"/>
    <use xlink:href="#DejaVuSans-72" x="620.162109"/>
    <use xlink:href="#DejaVuSans-6d" x="659.525391"/>
    <use xlink:href="#DejaVuSans-73" x="756.9375"/>
    <use xlink:href="#DejaVuSans-20" x="809.037109"/>
    <use xlink:href="#DejaVuSans-62" x="840.824219"/>
    <use xlink:href="#DejaVuSans-79" x="904.300781"/>
    <use xlink:href="#DejaVuSans-20" x="963.480469"/>
    <use xlink:href="#DejaVuSans-6d" x="995.267578"/>
    <use xlink:href="#DejaVuSans-61" x="1092.679688"/>
    <use xlink:href="#DejaVuSans-6a" x="1153.958984"/>
    <use xlink:href="#DejaVuSans-6f" x="1181.742188"/>
    <use xlink:href="#DejaVuSans-72" x="1242.923828"/>
    <use xlink:href="#DejaVuSans-20" x="1284.037109"/>
    <use xlink:href="#DejaVuSans-65" x="1315.824219"/>
    <use xlink:href="#DejaVuSans-63" x="1377.347656"/>
    <use xlink:href="#DejaVuSans-6f" x="1432.328125"/>
    <use xlink:href="#DejaVuSans-6e" x="1493.509766"/>
    <use xlink:href="#DejaVuSans-6f" x="1556.888672"/>
    <use xlink:href="#DejaVuSans-6d" x="1618.070312"/>
    <use xlink:href="#DejaVuSans-69" x="1715.482422"/>
    <use xlink:href="#DejaVuSans-63" x="1743.265625"/>
    <use xlink:href="#DejaVuSans-73" x="1798.246094"/>
    <use xlink:href="#DejaVuSans-20" x="1850.345703"/>
    <use xlink:href="#DejaVuSans-66" x="1882.132812"/>
    <use xlink:href="#DejaVuSans-69" x="1917.337891"/>
    <use xlink:href="#DejaVuSans-65" x="1945.121094"/>
    <use xlink:href="#DejaVuSans-6c" x="2006.644531"/>
    <use xlink:href="#DejaVuSans-64" x="2034.427734"/>
   </g>
  </g>
  <g id="text_82">
   <!-- 12-month rolling share in field slices derived from paper-level primary-topic labels -->
   <g style="fill: #5d5a56" transform="translate(51.48 131.76) scale(0.152 -0.152)">
    <use xlink:href="#DejaVuSans-31"/>
    <use xlink:href="#DejaVuSans-32" x="63.623047"/>
    <use xlink:href="#DejaVuSans-2d" x="127.246094"/>
    <use xlink:href="#DejaVuSans-6d" x="163.330078"/>
    <use xlink:href="#DejaVuSans-6f" x="260.742188"/>
    <use xlink:href="#DejaVuSans-6e" x="321.923828"/>
    <use xlink:href="#DejaVuSans-74" x="385.302734"/>
    <use xlink:href="#DejaVuSans-68" x="424.511719"/>
    <use xlink:href="#DejaVuSans-20" x="487.890625"/>
    <use xlink:href="#DejaVuSans-72" x="519.677734"/>
    <use xlink:href="#DejaVuSans-6f" x="558.541016"/>
    <use xlink:href="#DejaVuSans-6c" x="619.722656"/>
    <use xlink:href="#DejaVuSans-6c" x="647.505859"/>
    <use xlink:href="#DejaVuSans-69" x="675.289062"/>
    <use xlink:href="#DejaVuSans-6e" x="703.072266"/>
    <use xlink:href="#DejaVuSans-67" x="766.451172"/>
    <use xlink:href="#DejaVuSans-20" x="829.927734"/>
    <use xlink:href="#DejaVuSans-73" x="861.714844"/>
    <use xlink:href="#DejaVuSans-68" x="913.814453"/>
    <use xlink:href="#DejaVuSans-61" x="977.193359"/>
    <use xlink:href="#DejaVuSans-72" x="1038.472656"/>
    <use xlink:href="#DejaVuSans-65" x="1077.335938"/>
    <use xlink:href="#DejaVuSans-20" x="1138.859375"/>
    <use xlink:href="#DejaVuSans-69" x="1170.646484"/>
    <use xlink:href="#DejaVuSans-6e" x="1198.429688"/>
    <use xlink:href="#DejaVuSans-20" x="1261.808594"/>
    <use xlink:href="#DejaVuSans-66" x="1293.595703"/>
    <use xlink:href="#DejaVuSans-69" x="1328.800781"/>
    <use xlink:href="#DejaVuSans-65" x="1356.583984"/>
    <use xlink:href="#DejaVuSans-6c" x="1418.107422"/>
    <use xlink:href="#DejaVuSans-64" x="1445.890625"/>
    <use xlink:href="#DejaVuSans-20" x="1509.367188"/>
    <use xlink:href="#DejaVuSans-73" x="1541.154297"/>
    <use xlink:href="#DejaVuSans-6c" x="1593.253906"/>
    <use xlink:href="#DejaVuSans-69" x="1621.037109"/>
    <use xlink:href="#DejaVuSans-63" x="1648.820312"/>
    <use xlink:href="#DejaVuSans-65" x="1703.800781"/>
    <use xlink:href="#DejaVuSans-73" x="1765.324219"/>
    <use xlink:href="#DejaVuSans-20" x="1817.423828"/>
    <use xlink:href="#DejaVuSans-64" x="1849.210938"/>
    <use xlink:href="#DejaVuSans-65" x="1912.6875"/>
    <use xlink:href="#DejaVuSans-72" x="1974.210938"/>
    <use xlink:href="#DejaVuSans-69" x="2015.324219"/>
    <use xlink:href="#DejaVuSans-76" x="2043.107422"/>
    <use xlink:href="#DejaVuSans-65" x="2102.287109"/>
    <use xlink:href="#DejaVuSans-64" x="2163.810547"/>
    <use xlink:href="#DejaVuSans-20" x="2227.287109"/>
    <use xlink:href="#DejaVuSans-66" x="2259.074219"/>
    <use xlink:href="#DejaVuSans-72" x="2294.279297"/>
    <use xlink:href="#DejaVuSans-6f" x="2333.142578"/>
    <use xlink:href="#DejaVuSans-6d" x="2394.324219"/>
    <use xlink:href="#DejaVuSans-20" x="2491.736328"/>
    <use xlink:href="#DejaVuSans-70" x="2523.523438"/>
    <use xlink:href="#DejaVuSans-61" x="2587"/>
    <use xlink:href="#DejaVuSans-70" x="2648.279297"/>
    <use xlink:href="#DejaVuSans-65" x="2711.755859"/>
    <use xlink:href="#DejaVuSans-72" x="2773.279297"/>
    <use xlink:href="#DejaVuSans-2d" x="2808.017578"/>
    <use xlink:href="#DejaVuSans-6c" x="2844.101562"/>
    <use xlink:href="#DejaVuSans-65" x="2871.884766"/>
    <use xlink:href="#DejaVuSans-76" x="2933.408203"/>
    <use xlink:href="#DejaVuSans-65" x="2992.587891"/>
    <use xlink:href="#DejaVuSans-6c" x="3054.111328"/>
    <use xlink:href="#DejaVuSans-20" x="3081.894531"/>
    <use xlink:href="#DejaVuSans-70" x="3113.681641"/>
    <use xlink:href="#DejaVuSans-72" x="3177.158203"/>
    <use xlink:href="#DejaVuSans-69" x="3218.271484"/>
    <use xlink:href="#DejaVuSans-6d" x="3246.054688"/>
    <use xlink:href="#DejaVuSans-61" x="3343.466797"/>
    <use xlink:href="#DejaVuSans-72" x="3404.746094"/>
    <use xlink:href="#DejaVuSans-79" x="3445.859375"/>
    <use xlink:href="#DejaVuSans-2d" x="3503.289062"/>
    <use xlink:href="#DejaVuSans-74" x="3539.373047"/>
    <use xlink:href="#DejaVuSans-6f" x="3578.582031"/>
    <use xlink:href="#DejaVuSans-70" x="3639.763672"/>
    <use xlink:href="#DejaVuSans-69" x="3703.240234"/>
    <use xlink:href="#DejaVuSans-63" x="3731.023438"/>
    <use xlink:href="#DejaVuSans-20" x="3786.003906"/>
    <use xlink:href="#DejaVuSans-6c" x="3817.791016"/>
    <use xlink:href="#DejaVuSans-61" x="3845.574219"/>
    <use xlink:href="#DejaVuSans-62" x="3906.853516"/>
    <use xlink:href="#DejaVuSans-65" x="3970.330078"/>
    <use xlink:href="#DejaVuSans-6c" x="4031.853516"/>
    <use xlink:href="#DejaVuSans-73" x="4059.636719"/>
   </g>
  </g>
  <g id="text_83">
   <!-- Source: Frontier Graph screened corpus -->
   <g style="fill: #5d5a56" transform="translate(51.48 792.08609) scale(0.111 -0.111)">
    <defs>
     <path id="DejaVuSans-53" d="M 3425 4513 
L 3425 3897 
Q 3066 4069 2747 4153 
Q 2428 4238 2131 4238 
Q 1616 4238 1336 4038 
Q 1056 3838 1056 3469 
Q 1056 3159 1242 3001 
Q 1428 2844 1947 2747 
L 2328 2669 
Q 3034 2534 3370 2195 
Q 3706 1856 3706 1288 
Q 3706 609 3251 259 
Q 2797 -91 1919 -91 
Q 1588 -91 1214 -16 
Q 841 59 441 206 
L 441 856 
Q 825 641 1194 531 
Q 1563 422 1919 422 
Q 2459 422 2753 634 
Q 3047 847 3047 1241 
Q 3047 1584 2836 1778 
Q 2625 1972 2144 2069 
L 1759 2144 
Q 1053 2284 737 2584 
Q 422 2884 422 3419 
Q 422 4038 858 4394 
Q 1294 4750 2059 4750 
Q 2388 4750 2728 4690 
Q 3069 4631 3425 4513 
z
" transform="scale(0.015625)"/>
     <path id="DejaVuSans-3a" d="M 750 794 
L 1409 794 
L 1409 0 
L 750 0 
L 750 794 
z
M 750 3309 
L 1409 3309 
L 1409 2516 
L 750 2516 
L 750 3309 
z
" transform="scale(0.015625)"/>
     <path id="DejaVuSans-47" d="M 3809 666 
L 3809 1919 
L 2778 1919 
L 2778 2438 
L 4434 2438 
L 4434 434 
Q 4069 175 3628 42 
Q 3188 -91 2688 -91 
Q 1594 -91 976 548 
Q 359 1188 359 2328 
Q 359 3472 976 4111 
Q 1594 4750 2688 4750 
Q 3144 4750 3555 4637 
Q 3966 4525 4313 4306 
L 4313 3634 
Q 3963 3931 3569 4081 
Q 3175 4231 2741 4231 
Q 1884 4231 1454 3753 
Q 1025 3275 1025 2328 
Q 1025 1384 1454 906 
Q 1884 428 2741 428 
Q 3075 428 3337 486 
Q 3600 544 3809 666 
z
" transform="scale(0.015625)"/>
    </defs>
    <use xlink:href="#DejaVuSans-53"/>
    <use xlink:href="#DejaVuSans-6f" x="63.476562"/>
    <use xlink:href="#DejaVuSans-75" x="124.658203"/>
    <use xlink:href="#DejaVuSans-72" x="188.037109"/>
    <use xlink:href="#DejaVuSans-63" x="226.900391"/>
    <use xlink:href="#DejaVuSans-65" x="281.880859"/>
    <use xlink:href="#DejaVuSans-3a" x="343.404297"/>
    <use xlink:href="#DejaVuSans-20" x="377.095703"/>
    <use xlink:href="#DejaVuSans-46" x="408.882812"/>
    <use xlink:href="#DejaVuSans-72" x="459.152344"/>
    <use xlink:href="#DejaVuSans-6f" x="498.015625"/>
    <use xlink:href="#DejaVuSans-6e" x="559.197266"/>
    <use xlink:href="#DejaVuSans-74" x="622.576172"/>
    <use xlink:href="#DejaVuSans-69" x="661.785156"/>
    <use xlink:href="#DejaVuSans-65" x="689.568359"/>
    <use xlink:href="#DejaVuSans-72" x="751.091797"/>
    <use xlink:href="#DejaVuSans-20" x="792.205078"/>
    <use xlink:href="#DejaVuSans-47" x="823.992188"/>
    <use xlink:href="#DejaVuSans-72" x="901.482422"/>
    <use xlink:href="#DejaVuSans-61" x="942.595703"/>
    <use xlink:href="#DejaVuSans-70" x="1003.875"/>
    <use xlink:href="#DejaVuSans-68" x="1067.351562"/>
    <use xlink:href="#DejaVuSans-20" x="1130.730469"/>
    <use xlink:href="#DejaVuSans-73" x="1162.517578"/>
    <use xlink:href="#DejaVuSans-63" x="1214.617188"/>
    <use xlink:href="#DejaVuSans-72" x="1269.597656"/>
    <use xlink:href="#DejaVuSans-65" x="1308.460938"/>
    <use xlink:href="#DejaVuSans-65" x="1369.984375"/>
    <use xlink:href="#DejaVuSans-6e" x="1431.507812"/>
    <use xlink:href="#DejaVuSans-65" x="1494.886719"/>
    <use xlink:href="#DejaVuSans-64" x="1556.410156"/>
    <use xlink:href="#DejaVuSans-20" x="1619.886719"/>
    <use xlink:href="#DejaVuSans-63" x="1651.673828"/>
    <use xlink:href="#DejaVuSans-6f" x="1706.654297"/>
    <use xlink:href="#DejaVuSans-72" x="1767.835938"/>
    <use xlink:href="#DejaVuSans-70" x="1808.949219"/>
    <use xlink:href="#DejaVuSans-75" x="1872.425781"/>
    <use xlink:href="#DejaVuSans-73" x="1935.804688"/>
   </g>
   <!-- * Fields are assigned with a transparent keyword map over each paper's OpenAlex primary topic label. -->
   <g style="fill: #5d5a56" transform="translate(51.48 806.3712) scale(0.111 -0.111)">
    <defs>
     <path id="DejaVuSans-2a" d="M 3009 3897 
L 1888 3291 
L 3009 2681 
L 2828 2375 
L 1778 3009 
L 1778 1831 
L 1422 1831 
L 1422 3009 
L 372 2375 
L 191 2681 
L 1313 3291 
L 191 3897 
L 372 4206 
L 1422 3572 
L 1422 4750 
L 1778 4750 
L 1778 3572 
L 2828 4206 
L 3009 3897 
z
" transform="scale(0.015625)"/>
     <path id="DejaVuSans-77" d="M 269 3500 
L 844 3500 
L 1563 769 
L 2278 3500 
L 2956 3500 
L 3675 769 
L 4391 3500 
L 4966 3500 
L 4050 0 
L 3372 0 
L 2619 2869 
L 1863 0 
L 1184 0 
L 269 3500 
z
" transform="scale(0.015625)"/>
     <path id="DejaVuSans-6b" d="M 581 4863 
L 1159 4863 
L 1159 1991 
L 2875 3500 
L 3609 3500 
L 1753 1863 
L 3688 0 
L 2938 0 
L 1159 1709 
L 1159 0 
L 581 0 
L 581 4863 
z
" transform="scale(0.015625)"/>
     <path id="DejaVuSans-27" d="M 1147 4666 
L 1147 2931 
L 616 2931 
L 616 4666 
L 1147 4666 
z
" transform="scale(0.015625)"/>
     <path id="DejaVuSans-4f" d="M 2522 4238 
Q 1834 4238 1429 3725 
Q 1025 3213 1025 2328 
Q 1025 1447 1429 934 
Q 1834 422 2522 422 
Q 3209 422 3611 934 
Q 4013 1447 4013 2328 
Q 4013 3213 3611 3725 
Q 3209 4238 2522 4238 
z
M 2522 4750 
Q 3503 4750 4090 4092 
Q 4678 3434 4678 2328 
Q 4678 1225 4090 567 
Q 3503 -91 2522 -91 
Q 1538 -91 948 565 
Q 359 1222 359 2328 
Q 359 3434 948 4092 
Q 1538 4750 2522 4750 
z
" transform="scale(0.015625)"/>
     <path id="DejaVuSans-78" d="M 3513 3500 
L 2247 1797 
L 3578 0 
L 2900 0 
L 1881 1375 
L 863 0 
L 184 0 
L 1544 1831 
L 300 3500 
L 978 3500 
L 1906 2253 
L 2834 3500 
L 3513 3500 
z
" transform="scale(0.015625)"/>
     <path id="DejaVuSans-2e" d="M 684 794 
L 1344 794 
L 1344 0 
L 684 0 
L 684 794 
z
" transform="scale(0.015625)"/>
    </defs>
    <use xlink:href="#DejaVuSans-2a"/>
    <use xlink:href="#DejaVuSans-20" x="50"/>
    <use xlink:href="#DejaVuSans-46" x="81.787109"/>
    <use xlink:href="#DejaVuSans-69" x="132.056641"/>
    <use xlink:href="#DejaVuSans-65" x="159.839844"/>
    <use xlink:href="#DejaVuSans-6c" x="221.363281"/>
    <use xlink:href="#DejaVuSans-64" x="249.146484"/>
    <use xlink:href="#DejaVuSans-73" x="312.623047"/>
    <use xlink:href="#DejaVuSans-20" x="364.722656"/>
    <use xlink:href="#DejaVuSans-61" x="396.509766"/>
    <use xlink:href="#DejaVuSans-72" x="457.789062"/>
    <use xlink:href="#DejaVuSans-65" x="496.652344"/>
    <use xlink:href="#DejaVuSans-20" x="558.175781"/>
    <use xlink:href="#DejaVuSans-61" x="589.962891"/>
    <use xlink:href="#DejaVuSans-73" x="651.242188"/>
    <use xlink:href="#DejaVuSans-73" x="703.341797"/>
    <use xlink:href="#DejaVuSans-69" x="755.441406"/>
    <use xlink:href="#DejaVuSans-67" x="783.224609"/>
    <use xlink:href="#DejaVuSans-6e" x="846.701172"/>
    <use xlink:href="#DejaVuSans-65" x="910.080078"/>
    <use xlink:href="#DejaVuSans-64" x="971.603516"/>
    <use xlink:href="#DejaVuSans-20" x="1035.080078"/>
    <use xlink:href="#DejaVuSans-77" x="1066.867188"/>
    <use xlink:href="#DejaVuSans-69" x="1148.654297"/>
    <use xlink:href="#DejaVuSans-74" x="1176.4375"/>
    <use xlink:href="#DejaVuSans-68" x="1215.646484"/>
    <use xlink:href="#DejaVuSans-20" x="1279.025391"/>
    <use xlink:href="#DejaVuSans-61" x="1310.8125"/>
    <use xlink:href="#DejaVuSans-20" x="1372.091797"/>
    <use xlink:href="#DejaVuSans-74" x="1403.878906"/>
    <use xlink:href="#DejaVuSans-72" x="1443.087891"/>
    <use xlink:href="#DejaVuSans-61" x="1484.201172"/>
    <use xlink:href="#DejaVuSans-6e" x="1545.480469"/>
    <use xlink:href="#DejaVuSans-73" x="1608.859375"/>
    <use xlink:href="#DejaVuSans-70" x="1660.958984"/>
    <use xlink:href="#DejaVuSans-61" x="1724.435547"/>
    <use xlink:href="#DejaVuSans-72" x="1785.714844"/>
    <use xlink:href="#DejaVuSans-65" x="1824.578125"/>
    <use xlink:href="#DejaVuSans-6e" x="1886.101562"/>
    <use xlink:href="#DejaVuSans-74" x="1949.480469"/>
    <use xlink:href="#DejaVuSans-20" x="1988.689453"/>
    <use xlink:href="#DejaVuSans-6b" x="2020.476562"/>
    <use xlink:href="#DejaVuSans-65" x="2074.761719"/>
    <use xlink:href="#DejaVuSans-79" x="2136.285156"/>
    <use xlink:href="#DejaVuSans-77" x="2195.464844"/>
    <use xlink:href="#DejaVuSans-6f" x="2277.251953"/>
    <use xlink:href="#DejaVuSans-72" x="2338.433594"/>
    <use xlink:href="#DejaVuSans-64" x="2377.796875"/>
    <use xlink:href="#DejaVuSans-20" x="2441.273438"/>
    <use xlink:href="#DejaVuSans-6d" x="2473.060547"/>
    <use xlink:href="#DejaVuSans-61" x="2570.472656"/>
    <use xlink:href="#DejaVuSans-70" x="2631.751953"/>
    <use xlink:href="#DejaVuSans-20" x="2695.228516"/>
    <use xlink:href="#DejaVuSans-6f" x="2727.015625"/>
    <use xlink:href="#DejaVuSans-76" x="2788.197266"/>
    <use xlink:href="#DejaVuSans-65" x="2847.376953"/>
    <use xlink:href="#DejaVuSans-72" x="2908.900391"/>
    <use xlink:href="#DejaVuSans-20" x="2950.013672"/>
    <use xlink:href="#DejaVuSans-65" x="2981.800781"/>
    <use xlink:href="#DejaVuSans-61" x="3043.324219"/>
    <use xlink:href="#DejaVuSans-63" x="3104.603516"/>
    <use xlink:href="#DejaVuSans-68" x="3159.583984"/>
    <use xlink:href="#DejaVuSans-20" x="3222.962891"/>
    <use xlink:href="#DejaVuSans-70" x="3254.75"/>
    <use xlink:href="#DejaVuSans-61" x="3318.226562"/>
    <use xlink:href="#DejaVuSans-70" x="3379.505859"/>
    <use xlink:href="#DejaVuSans-65" x="3442.982422"/>
    <use xlink:href="#DejaVuSans-72" x="3504.505859"/>
    <use xlink:href="#DejaVuSans-27" x="3545.619141"/>
    <use xlink:href="#DejaVuSans-73" x="3573.109375"/>
    <use xlink:href="#DejaVuSans-20" x="3625.208984"/>
    <use xlink:href="#DejaVuSans-4f" x="3656.996094"/>
    <use xlink:href="#DejaVuSans-70" x="3735.707031"/>
    <use xlink:href="#DejaVuSans-65" x="3799.183594"/>
    <use xlink:href="#DejaVuSans-6e" x="3860.707031"/>
    <use xlink:href="#DejaVuSans-41" x="3924.085938"/>
    <use xlink:href="#DejaVuSans-6c" x="3992.494141"/>
    <use xlink:href="#DejaVuSans-65" x="4020.277344"/>
    <use xlink:href="#DejaVuSans-78" x="4080.050781"/>
    <use xlink:href="#DejaVuSans-20" x="4139.230469"/>
    <use xlink:href="#DejaVuSans-70" x="4171.017578"/>
    <use xlink:href="#DejaVuSans-72" x="4234.494141"/>
    <use xlink:href="#DejaVuSans-69" x="4275.607422"/>
    <use xlink:href="#DejaVuSans-6d" x="4303.390625"/>
    <use xlink:href="#DejaVuSans-61" x="4400.802734"/>
    <use xlink:href="#DejaVuSans-72" x="4462.082031"/>
    <use xlink:href="#DejaVuSans-79" x="4503.195312"/>
    <use xlink:href="#DejaVuSans-20" x="4562.375"/>
    <use xlink:href="#DejaVuSans-74" x="4594.162109"/>
    <use xlink:href="#DejaVuSans-6f" x="4633.371094"/>
    <use xlink:href="#DejaVuSans-70" x="4694.552734"/>
    <use xlink:href="#DejaVuSans-69" x="4758.029297"/>
    <use xlink:href="#DejaVuSans-63" x="4785.8125"/>
    <use xlink:href="#DejaVuSans-20" x="4840.792969"/>
    <use xlink:href="#DejaVuSans-6c" x="4872.580078"/>
    <use xlink:href="#DejaVuSans-61" x="4900.363281"/>
    <use xlink:href="#DejaVuSans-62" x="4961.642578"/>
    <use xlink:href="#DejaVuSans-65" x="5025.119141"/>
    <use xlink:href="#DejaVuSans-6c" x="5086.642578"/>
    <use xlink:href="#DejaVuSans-2e" x="5114.425781"/>
   </g>
  </g>
 </g>
 <defs>
  <clipPath id="p2301eb526a">
   <rect x="63.36" y="272.304" width="319.706422" height="96.239044"/>
  </clipPath>
  <clipPath id="pe28b56ec88">
   <rect x="440.613578" y="272.304" width="319.706422" height="96.239044"/>
  </clipPath>
  <clipPath id="p056ae3d636">
   <rect x="63.36" y="401.264319" width="319.706422" height="96.239044"/>
  </clipPath>
  <clipPath id="pa06cc8d133">
   <rect x="440.613578" y="401.264319" width="319.706422" height="96.239044"/>
  </clipPath>
  <clipPath id="pcaf9947a1d">
   <rect x="63.36" y="530.224637" width="319.706422" height="96.239044"/>
  </clipPath>
  <clipPath id="p71660b5d22">
   <rect x="440.613578" y="530.224637" width="319.706422" height="96.239044"/>
  </clipPath>
  <clipPath id="p95f9450af7">
   <rect x="63.36" y="659.184956" width="319.706422" height="96.239044"/>
  </clipPath>
  <clipPath id="pebcb93d8f9">
   <rect x="440.613578" y="659.184956" width="319.706422" height="96.239044"/>
  </clipPath>
 </defs>
</svg>
